<svg xmlns="http://www.w3.org/2000/svg" id="Layer_1" data-name="Layer 1" viewBox="0 0 512 512"><defs><style>.cls-1{fill:#ffd38d;}.cls-2{fill:#efeae6;}.cls-3{fill:#6d4135;}</style></defs><title>file-filled</title><polygon class="cls-1" points="448 149.33 448 490.67 64 490.67 64 21.33 320 21.33 448 149.33"/><path class="cls-2" d="M320,47.08V149.33H422.25a10.67,10.67,0,0,0,7.54-18.21L338.21,39.54A10.67,10.67,0,0,0,320,47.08Z"/><path class="cls-3" d="M463.08,134.25l-128-128A21.34,21.34,0,0,0,320,0H64A21.33,21.33,0,0,0,42.67,21.33V490.67A21.33,21.33,0,0,0,64,512H448a21.33,21.33,0,0,0,21.33-21.33V149.33A21.34,21.34,0,0,0,463.08,134.25ZM341.33,72.84l27.58,27.58L396.49,128H341.33Zm-256,396.49V42.67H299a32.29,32.29,0,0,0-.31,4.42V149.33A21.33,21.33,0,0,0,320,170.67H422.25a32.31,32.31,0,0,0,4.42-.31v299Z"/><path class="cls-3" d="M320,341.33H192A21.33,21.33,0,0,0,192,384H320a21.33,21.33,0,0,0,0-42.67Z"/><path class="cls-3" d="M320,256H192a21.33,21.33,0,0,0,0,42.67H320A21.33,21.33,0,0,0,320,256Z"/></svg>