<svg xmlns="http://www.w3.org/2000/svg" xmlns:xlink="http://www.w3.org/1999/xlink" viewBox="0 0 1680 1050"><defs><style>.cls-1{fill:none;}.cls-2{clip-path:url(#clippath);}.cls-3,.cls-4{fill:#f8f2e9;}.cls-5{fill:#e3d1b0;}.cls-6{fill:#fff;}.cls-7{fill:#9f2242;}.cls-8{fill:#dec69b;}.cls-9{clip-path:url(#clippath-1);}.cls-10{clip-path:url(#clippath-3);}.cls-11{clip-path:url(#clippath-2);}.cls-12{fill:url(#Degradado_sin_nombre_94);}.cls-12,.cls-13,.cls-14{mix-blend-mode:multiply;}.cls-13{fill:url(#Degradado_sin_nombre_96);}.cls-14{fill:url(#Degradado_sin_nombre_97);}.cls-15{fill:url(#Degradado_sin_nombre_91);}.cls-16{fill:url(#Degradado_sin_nombre_80);}.cls-17{fill:url(#Degradado_sin_nombre_30);}.cls-18{fill:url(#Degradado_sin_nombre_38);}.cls-19{fill:url(#Degradado_sin_nombre_34);}.cls-20,.cls-4{opacity:.5;}.cls-21{fill:url(#Degradado_sin_nombre_7);}.cls-22{fill:url(#Degradado_sin_nombre_2);}.cls-23{fill:url(#Degradado_sin_nombre_8);}.cls-24{isolation:isolate;}.cls-25{fill:url(#Degradado_sin_nombre_38-2);}</style><linearGradient id="Degradado_sin_nombre_8" x1="843.88" y1="-12.62" x2="835.13" y2="1054.7" gradientUnits="userSpaceOnUse"><stop offset="0" stop-color="#9f2242"/><stop offset=".07" stop-color="#871f3a"/><stop offset=".14" stop-color="#711d34"/><stop offset=".18" stop-color="#691d32"/><stop offset=".57" stop-color="#841f3a"/><stop offset="1" stop-color="#9f2242"/></linearGradient><clipPath id="clippath"><rect class="cls-1" x="0" y="161.51" width="1680" height="888.24"/></clipPath><linearGradient id="Degradado_sin_nombre_2" x1="990.43" y1="917.94" x2="998.22" y2="156.72" gradientUnits="userSpaceOnUse"><stop offset=".33" stop-color="#9f2242" stop-opacity=".9"/><stop offset=".41" stop-color="#9f2142" stop-opacity=".87"/><stop offset=".51" stop-color="#a02142" stop-opacity=".77"/><stop offset=".62" stop-color="#a32042" stop-opacity=".6"/><stop offset=".74" stop-color="#a61f43" stop-opacity=".37"/><stop offset=".86" stop-color="#aa1d43" stop-opacity=".08"/><stop offset=".89" stop-color="#ac1d44" stop-opacity="0"/></linearGradient><linearGradient id="Degradado_sin_nombre_34" x1="761.65" y1="33.32" x2="928.55" y2="335.82" gradientUnits="userSpaceOnUse"><stop offset="0" stop-color="#f2ebde"/><stop offset=".17" stop-color="#f0e8da"/><stop offset=".34" stop-color="#ece1ce"/><stop offset=".5" stop-color="#e5d4bb"/><stop offset=".66" stop-color="#dbc3a0"/><stop offset=".82" stop-color="#ceac7d"/><stop offset=".98" stop-color="#bf9152"/><stop offset=".99" stop-color="#bf9051"/></linearGradient><linearGradient id="Degradado_sin_nombre_7" x1="804.73" y1="130.38" x2="773.9" y2="266.55" gradientUnits="userSpaceOnUse"><stop offset=".04" stop-color="#f2ebde"/><stop offset=".07" stop-color="#eee4d4"/><stop offset=".24" stop-color="#ddc6a5"/><stop offset=".4" stop-color="#d0ae80"/><stop offset=".56" stop-color="#c69d66"/><stop offset=".69" stop-color="#c19356"/><stop offset=".8" stop-color="#bf9051"/></linearGradient><linearGradient id="Degradado_sin_nombre_80" x1="876.05" y1="126.34" x2="738.06" y2="316.71" gradientUnits="userSpaceOnUse"><stop offset=".15" stop-color="#dec69b"/><stop offset=".2" stop-color="#d0b17d"/><stop offset=".28" stop-color="#c39b5f"/><stop offset=".35" stop-color="#b88a47"/><stop offset=".44" stop-color="#b07e37"/><stop offset=".53" stop-color="#ac772d"/><stop offset=".64" stop-color="#ab752a"/></linearGradient><linearGradient id="Degradado_sin_nombre_91" x1="955.58" y1="45.64" x2="790.55" y2="234.89" gradientUnits="userSpaceOnUse"><stop offset="0" stop-color="#c09251"/><stop offset=".12" stop-color="#c8a16a"/><stop offset=".44" stop-color="#dec9a8"/><stop offset=".67" stop-color="#ece1cf"/><stop offset=".79" stop-color="#f2ebde"/></linearGradient><clipPath id="clippath-1"><path class="cls-1" d="m819.29,102.23l-37.76,132c26.01-82.72,84.18-78.6,84.18-78.6h59.35c22.52,0,41.93-15.87,46.41-37.94l3.13-15.45h-155.3Z"/></clipPath><linearGradient id="Degradado_sin_nombre_94" x1="859.58" y1="237.28" x2="905.2" y2="72.53" gradientUnits="userSpaceOnUse"><stop offset="0" stop-color="#c09251" stop-opacity="0"/><stop offset=".11" stop-color="#c09251" stop-opacity=".03"/><stop offset=".26" stop-color="#c09251" stop-opacity=".12"/><stop offset=".43" stop-color="#c09251" stop-opacity=".27"/><stop offset=".63" stop-color="#c09251" stop-opacity=".48"/><stop offset=".83" stop-color="#c09251" stop-opacity=".75"/><stop offset="1" stop-color="#c09251"/></linearGradient><linearGradient id="Degradado_sin_nombre_30" x1="964.17" y1="79.2" x2="751.88" y2="201.76" gradientUnits="userSpaceOnUse"><stop offset=".27" stop-color="#bf9051"/><stop offset="1" stop-color="#f2ebde"/></linearGradient><clipPath id="clippath-2"><path class="cls-1" d="m781.53,234.23l-3.07,10.74s27.29-48.88,77.13-53.75l10.12-35.6s-58.17-4.12-84.18,78.6Z"/></clipPath><linearGradient id="Degradado_sin_nombre_97" x1="856.74" y1="144.44" x2="792.01" y2="252.53" gradientUnits="userSpaceOnUse"><stop offset=".21" stop-color="#dec69b"/><stop offset=".33" stop-color="#d9bf91"/><stop offset=".54" stop-color="#cdac77"/><stop offset=".81" stop-color="#ba8d4c"/><stop offset="1" stop-color="#ab752a"/></linearGradient><linearGradient id="Degradado_sin_nombre_38" x1="942.14" y1="26.47" x2="834.55" y2="353.67" gradientUnits="userSpaceOnUse"><stop offset=".11" stop-color="#f2ebde"/><stop offset=".26" stop-color="#f0e8da"/><stop offset=".41" stop-color="#ece1ce"/><stop offset=".55" stop-color="#e5d4bb"/><stop offset=".7" stop-color="#dbc3a0"/><stop offset=".84" stop-color="#ceac7d"/><stop offset=".98" stop-color="#bf9152"/><stop offset=".99" stop-color="#bf9051"/></linearGradient><clipPath id="clippath-3"><path class="cls-1" d="m778.46,244.97h70.15c13.72,0,23.67,1.92,29.84,5.76,6.16,3.84,9.25,9.37,9.25,16.58,0,8.84-3.84,15.76-11.52,20.77-7.68,5.01-18.5,7.5-32.46,7.5-11.64,0-23.09-1.75-34.38-5.23-.11-.03-.23-.07-.34-.11-19.15-5.99-39.95,1.12-50.92,17.93l-10.69,16.38c11.63,8.84,25.36,15.53,41.18,20.07,15.82,4.54,32.69,6.81,50.6,6.81s33.19-2.15,47.68-6.44c4.61-1.36,9.08-2.94,13.4-4.73,8.56-3.56,16.22-7.87,23-12.91,7.41-5.51,13.77-11.91,19.05-19.19,10.12-13.96,15.18-30.24,15.18-48.86,0-22.1-7.81-38.95-23.38-50.6-28.62-21.43-66.54-18.72-78.52-17.45-51.61,5.45-77.13,53.75-77.13,53.75Z"/></clipPath><linearGradient id="Degradado_sin_nombre_96" x1="942.14" y1="26.47" x2="834.55" y2="353.67" gradientUnits="userSpaceOnUse"><stop offset=".56" stop-color="#c09251" stop-opacity="0"/><stop offset=".62" stop-color="#c09251" stop-opacity=".11"/><stop offset=".75" stop-color="#c09251" stop-opacity=".39"/><stop offset=".94" stop-color="#c09251" stop-opacity=".85"/><stop offset="1" stop-color="#c09251"/></linearGradient><linearGradient id="Degradado_sin_nombre_38-2" x1="888.86" y1="187.46" x2="831.87" y2="360.78" xlink:href="#Degradado_sin_nombre_38"/></defs><g class="cls-24"><g id="Capa_1"><rect class="cls-23" x="-1" y="-6.99" width="1681" height="1057.86"/><g class="cls-2"><g/><path class="cls-22" d="m-456.81,1298.23c7.43-105.3,32.1-209.03,73.68-307.85,4.11-6.96,15.49-12.02,27.35-11.7,6.96,0,12.49,2.21,15.34,5.69v12.02c-33.52,82.85-56.13,178.51-67.99,284.45-6.01,50.6,3,112.89,28.62,195.11,8.54,46.64,5.38,105.46,2.05,151.32.63,20.24,9.96,29.73,18.66,29.73,9.01.32,18.66-7.91,19.92-31.31,4.27-57.56,6.01-107.04,7.43-150.84l.16-4.58c2.69-81.27,4.74-145.31,20.87-209.03,7.91-34.15,40.95-84.75,97.87-150.68,26.09-40.79,43.32-77.79,54.23-116.69,2.69-8.7,4.74-18.02,7.27-28.3,3-12.49,6.01-23.4,9.33-34.31l20.08-64.51c3.32-5.06,8.85-6.17,12.97-6.17,10.12.16,21.03,6.17,27.51,14.39,2.85,4.43,6.64,11.38,4.74,19.45l-55.02,186.57c-12.49,33.68-39.05,63.88-67.2,95.97l-1.26,1.42c-15.34,17.24-28.94,32.89-41.74,49.97-23.08,30.2-26.41,53.44-31.46,88.38-9.17,63.72-16.44,154.64-23.24,285.87l-37.31,188.47c-9.33,60.88-6.48,129.18,8.22,209.19,1.9,27.99-1.9,37.16-4.59,40.16l-4.11,1.11c-3.16,0-12.65-2.06-32.41-21.19-52.34-63.72-49.49-279.7-46.96-453.47-4.27-54.07-15.02-99.45-24.82-140.88-10.75-44.59-21.03-86.65-18.18-127.76m187.7-284.04c-.95,12.02-4.11,20.08-9.01,31.47l-23.88,56.13c-2.21,12.49-.79,16.92-.32,18.5l1.42.48,6.32-2.06c49.17-47.43,78.58-105.15,89.02-176.46.79-5.38-.32-7.43-.95-8.07l-4.9-1.26c-3.32,0-7.27.63-12.02,2.06-15.5,4.11-26.88,13.28-36.37,28.62-3.79,6.64-5.06,10.28-6.01,17.71l-3.32,32.89m225.22,499.5c-5.69-5.69-7.43-14.86-6.8-27.04,5.85-92.81,26.41-179.93,63.4-266.9,5.85-12.81,5.22-18.66,4.74-21.19l-2.69-.48c-9.33,0-18.97,6.96-26.56,18.98-30.04,44.59-53.44,130.6-70.36,263.26-18.66,184.84-18.34,257.25-15.81,332.51-.63,13.91,2.21,24.98,7.27,30.67l5.38,2.53c4.74.16,14.23-7.27,19.29-36.21l16.76-111.94c4.43-29.57,13.28-58.03,26.41-86.49,51.39-101.83,76.37-171.08,94.87-264.84l1.11-5.69c.95-7.75,2.85-15.34,3.95-23.08,5.53-35.73,10.91-69.25,33.2-101.51,20.4-29.57,51.07-55.66,94.08-91.55l6.01-4.9c8.85-7.27,19.29-16.44,28.94-29.09,24.98-31.78,47.75-72.57,67.36-122.22,4.11-14.23,2.53-29.88-5.06-39.37-3-4.43-6.32-6.48-10.28-6.64-7.91-.16-18.34,11.23-27.04,30.36-43.64,94.08-96.29,163.02-155.74,205.39-30.83,24.51-43.96,53.29-59.77,104.52-7.12,23.08-11.54,45.85-16.13,69.41C14.77,1426.25-.09,1478.59-13.85,1496.61c-3.79,12.65-12.17,21.35-21.03,21.35h-1.74l-1.58-.63-5.69-3.64Zm211.29-569.13c-11.07,49.33-28.14,89.97-52.65,123.17-3.48,6.96-3.48,11.39-3,13.6l2.69,1.42,9.65-5.22c38.11-33.99,64.83-79.06,82.38-137.87l-.79-5.85c-1.9-2.53-7.27-5.53-14.7-5.85-9.17,0-21.03,3.95-23.56,16.6m-366.3,578.56c-5.85-6.17-7.91-16.29-6.64-30.51,6.64-91.23,24.19-174.08,42.53-249.98.95-12.49-.32-17.87-1.11-19.76-2.69.48-8.22,3.64-20.08,17.71-17.39,22.77-29.73,49.65-36.68,80.16-11.86,55.97-19.45,117.01-24.35,196.85-12.49,143.73-11.86,266.42,1.42,363.98,3.79,26.25,12.33,36.52,16.92,36.52,6.01,0,15.81-12.65,19.13-41.58,4.27-36.52,7.91-80.32,11.86-152.11,3-33.36,9.96-63.56,21.98-89.33,38.74-92.02,60.24-197.64,80.8-300.1l.63-1.42c4.43-23.24,9.33-46.01,13.91-68.62l.32-1.9c7.59-48.22,28.62-86.49,64.98-117,52.02-47.59,91.23-117.95,123.01-221.68,3.48-11.07,4.9-18.5,3-30.04-2.21-15.02-8.22-22.92-12.65-23.08-4.27,0-13.91,6.96-20.71,33.68-46.17,114.79-87.44,185.78-139.46,237.33-33.36,37.31-50.75,73.68-71.78,148.94l-31.15,192.58c-1.42,8.85-2.69,16.44-7.27,25.14-7.27,15.34-14.7,18.34-20.08,18.34h-1.58l-1.74-.16-5.22-3.95Zm128.89-463.07c-4.74,7.59-7.75,13.12-9.17,20.71-1.11,6.96-.63,9.96,0,10.91l2.85,1.26h.16c4.11-.32,6.48-2.37,10.44-6.17l1.11-.79c42.22-38.26,73.68-99.29,92.34-181.36,1.27-5.69.63-10.12-1.74-13.12-2.06-2.53-5.69-3.8-10.44-3.8-9.33-.32-21.35,5.85-29.41,14.71-6.17,6.8-7.91,12.97-10.44,24.03l-9.49,48.86c-6.01,24.35-17.87,51.86-36.21,84.75m208.08,455.2c12.33-39.05,31.15-97.87,63.4-173.92,29.88-69.25,87.75-124.91,171.71-165.39,48.22-23.56,88.7-66.09,124.12-129.81,4.27-7.27,5.06-10.12,3.16-17.08-2.69-12.81-13.28-25.46-20.87-25.77-5.53,1.42-7.27,4.9-9.65,9.65-13.91,25.93-25.14,43.96-38.9,60.87-34.79,37.95-83.17,74.79-146.73,112.74-42.85,23.4-74.47,62.3-100.4,122.38-6.01,13.91-13.91,21.98-21.66,21.66h-2.06l-1.58-.63-4.59-3c-4.74-5.53-5.69-13.76-3.64-25.77,4.59-26.41,15.02-55.66,30.83-87.91,4.59-8.7,6.48-12.33,6.17-19.61-.63-7.75-2.21-9.01-2.21-9.01-.32,0-5.22.47-15.81,10.91-48.38,53.13-75.1,163.33-85.54,356.23-.63,12.49-1.27,20.71,1.42,28.78,1.42,3.95,4.43,10.59,10.75,10.91,4.11.47,9.17-2.69,13.76-7.91,6.96-7.75,10.59-16.44,14.39-27.99,4.27-12.02,8.06-23.72,12.33-36.37l1.58-3.95m260.32-537.41c-4.11,0-14.55.95-19.45,9.65-19.92,37-36.21,65.46-66.72,92.5-6.48,5.85-7.12,9.8-6.17,10.91l3.32.95,9.33-2.06c39.84-19.76,67.36-52.97,98.19-100.25l.32-3.8c-2.06-3.64-9.65-7.43-18.82-7.91m175.81,196.8c13.91-4.9,23.88-8.7,33.68-14.55,22.93-13.44,41.11-31.15,55.5-54.07,4.74-9.33,5.53-19.61,1.74-25.77-1.74-3.64-5.06-5.22-8.7-5.22s-7.27,1.42-11.07,4.11c-20.08,19.13-38.9,35.57-55.97,50.28-12.65,9.49-29.25,19.76-52.65,32.26-28.93,10.59-52.49,19.61-71.78,28.14-13.12,6.32-21.35,10.59-31.46,21.03-19.29,17.71-36.84,38.9-53.6,64.04l-1.74,1.9-1.11.95-7.91,3.48-1.42.47c-3.79-.16-8.22-2.37-10.12-6.32l-.79-1.9-.16-2.21,1.9-8.7,20.4-37.48.63-4.11h-2.53c-17.55-.16-33.84,9.64-38.42,18.97-48.54,99.29-76.69,166.97-86.33,206.97-2.06,7.75-1.26,14.07,2.06,18.34,2.06,3.16,5.38,4.58,9.64,4.58,5.38.32,11.23-2.69,15.5-7.91,30.2-34.31,55.66-69.57,80.01-103.72l5.53-7.43c31.31-43.17,61.03-83.96,96.45-118.11,15.18-15.18,29.57-24.51,50.44-33.68,15.5-7.27,34.47-14.7,56.45-22.45l5.85-1.9M-137.79,1946.11c-13.6,11.54-16.29,26.72-6.32,40.32,43.96,36.52,90.6,55.18,136.77,55.81,35.58.79,72.26-9.01,109.26-29.88,163.02-134.24,330.93-271.32,498.22-406.35,9.17-7.91,13.91-12.49,17.39-23.24,4.11-10.28,4.43-19.92,1.11-24.51l-3.48-2.06c-3.32,0-7.75,1.58-11.86,5.22-159.38,128.71-330.62,266.74-502.96,401.93-37.95,28.93-75.1,43.01-111.15,42.53-21.5-.48-42.69-5.53-62.93-16.6-18.03-13.28-14.23-26.09-11.54-31.15,3.95-7.91,13.76-14.07,23.88-19.92l7.59-4.9,646.37-474.34c17.08-10.28,22.93-28.93,20.71-37.95-1.26-3.79-2.69-3.79-3.64-3.79-1.74,0-5.06.63-11.54,5.06-216.14,149.26-419,295.99-619.65,447.46-28.46,20.71-64.51,44.27-116.21,76.37m727.64-418.59c15.34-14.23,18.03-27.51,16.6-32.41l-3.95-2.53-7.75,3L16.37,1943.05c-8.38,7.27-10.28,13.6-9.17,15.97.63,1.74,3.16,3,7.27,3,4.59,0,9.64-1.26,14.7-3.32,19.92-9.17,44.9-24.67,74-45.85l486.68-385.32Zm-400.65,453.8c-3.32,3.8-2.37,6.33-1.9,7.11,1.42,3.95,6.96,6.8,13.76,6.8,6.8.16,13.44-1.58,20.4-5.38,15.02-9.33,31.94-21.66,51.07-38.42,123.65-104.83,242.39-208.55,351.33-308.8,10.44-10.28,11.7-18.82,10.59-22.14l-3.16-1.74c-2.37,0-6.48,1.11-11.54,4.59l-376.15,314.96-54.39,43.01Zm344.99-863.84c22.77-10.75,43.01-25.93,59.77-45.69l1.58-6.64c-.79-1.11-2.85-2.37-7.43-2.37-6.01,0-13.28,1.26-20.71,3.95-12.02,3.95-20.08,9.33-28.94,18.82-7.12,8.54-12.81,17.08-16.13,25.46-.95,3.79-.95,6.01-.95,7.11l3.48.95,9.33-1.58m-359.85,958.81c13.91,0,28.94-1.9,45.85-6.16,22.45-7.12,43.17-25.3,75.1-53.76,105.94-93.76,207.76-189.89,320.97-295.99l22.14-22.61c6.64-7.11,9.96-9.8,10.75-14.23,1.27-5.22,1.58-9.49.32-12.17l-4.27-.32c-2.85-.32-5.85.47-9.64,3.8-49.17,42.22-94.39,83.96-142.46,127.91l-6.17,4.9c-63.88,58.82-135.98,125.23-228.48,202.7-28.78,23.08-55.97,33.05-85.38,32.57-8.22-.32-16.29-1.42-25.3-2.84l-5.85-1.58c-6.01-1.26-9.01-1.9-11.38-1.9l-9.01,1.58c-5.53,2.85-9.33,6.64-9.8,10.59-.79,3.32,1.42,6.8,6.17,11.07,16.44,10.59,34.94,15.81,56.45,16.44m508.78-364.79c2.53-3.79,2.85-7.43,2.06-10.12l-7.91-.79c-19.29,13.91-35.73,32.57-49.49,47.43l-5.69,5.69c-5.06,5.85-10.44,10.75-15.5,16.6-77.95,78.58-169.5,169.34-255.83,242.86-4.11,3.8-5.85,6.33-6.48,7.75l4.74,2.06c14.86,0,37.31-13.28,66.72-39.53,97.24-92.65,184.52-181.67,267.37-271.96m-373.97,379.84c21.03.48,43.8-6.01,70.36-18.66,37.31-18.5,61.66-41.11,89.49-68.62,93.13-90.76,165.23-163.18,219.94-221.2l2.21-1.74c6.64-7.43,11.23-12.02,13.91-17.87,6.32-12.33,6.96-22.92,5.85-27.35l-2.85-.32c-2.21,0-5.22,1.58-9.49,5.53-93.76,97.72-191.63,194.01-291.41,285.87-34.31,26.41-68.94,39.53-107.52,41.11-9.49,0-15.97,6.64-16.92,12.97-.63,3.64.63,5.85,4.59,7.27,6.48,1.58,14.39,2.69,21.82,3m143-30.18c33.36.63,61.66-12.33,91.23-41.11l133.45-153.37c2.06-3.8,2.53-8.06.79-11.23l-5.22-6.17-6.96,3.32-33.2,37.47c-63.4,72.1-123.17,139.61-168.87,147.2-11.54,1.74-18.97,12.97-18.5,18.81,0,2.85,1.9,4.43,6.8,5.06h.47ZM2127.16,420.04l-1.11-.48c-6.48-2.37-12.17-3.8-18.34-3.8-7.27-.16-14.39,1.58-20.4,4.74-4.11,1.74-8.06,2.69-11.23,2.69-5.85-.32-11.23-2.21-15.34-5.53-15.65-18.18-32.1-31.15-49.81-39.06-8.54-2.37-17.08-3.95-24.98-4.11-18.18-.32-35.73,6.01-53.44,19.61-6.64,7.91-9.01,15.02-6.32,20.87,2.06,6.32,8.54,9.96,20.08,11.7,6.64-.47,13.28-.63,20.56-.47,17.23.32,32.89,2.53,52.81,7.27,48.38,13.76,70.99,45.85,69.41,98.19v1.27c.47,8.54,1.11,31.31,18.18,31.62,6.64,0,13.91-3.95,23.24-12.33,23.24-23.08,34.63-46.33,33.84-68.62-1.11-21.98-13.44-43.32-37.16-63.56m59.13,42.37c15.34,25.14,14.07,44.91,8.22,66.41-32.26,65.78-77.48,95.97-142.94,95.03h-3.32c-16.6-.32-29.09-5.06-31.78-12.02-2.85-6.48,4.74-14.86,8.7-18.97,32.41-26.72,44.59-59.61,33.84-90.76-11.54-32.73-46.49-54.55-89.33-55.18-9.33-.16-18.82.63-26.72,2.37-20.71-.79-37.79-6.01-53.13-15.5-27.99-22.92-51.23-33.2-74.31-33.68-11.38,0-21.98,2.06-34.94,7.11l-1.26.63c-11.07,11.7-10.59,24.82,1.26,36.68,9.17,9.96,18.18,12.33,30.67,15.49,29.88,8.54,50.6,17.71,59.93,26.57,2.37,3.79,3.79,7.27,3.16,9.01-.63.95-2.85,3-15.5,5.06-7.27,1.26-13.6,2.37-20.71,2.21-6.8,0-13.76-1.11-21.35-3.64-37-15.65-71.47-37.31-111.95-70.99-11.86-10.59-12.17-18.34-1.74-30.83,33.84-29.41,64.67-42.53,98.82-41.9,12.65.16,25.46,2.06,39.05,6.01,20.71,4.74,38.9,7.59,54.39,7.59,13.76.48,26.88-1.11,38.58-4.9l79.37-23.56c13.12-5.22,24.03-7.59,34.94-7.27,12.33.16,22.77,4.27,31.15,12.17l4.9,4.9c-.79.63-3.16,2.53-8.7,6.17-7.43,6.64-10.28,13.44-7.91,19.29,2.69,8.85,14.23,11.07,23.72,12.18,6.01-.32,12.49-1.11,18.34-.79,11.7.16,18.03,2.37,24.19,8.7,22.29,20.87,40.48,43.64,52.34,66.41m-139.74-173.72c5.38-3.64,8.38-8.54,8.7-13.75.63-8.85-5.53-19.61-17.87-30.83-9.96-11.07-23.24-20.55-43.48-35.26l-16.6-11.54c-27.67-20.08-65.3-53.44-72.73-114l.47-3.64v-10.12c-20.56,14.86-26.56,36.05-18.82,69.41,5.22,19.61,10.75,26.25,21.98,39.37l8.22,9.49c16.76,19.92,28.14,42.06,33.36,65.62,5.85,25.3,12.49,41.58,19.45,48.54,5.38,6.16,10.44,9.33,15.65,9.33l5.69-.79c24.35-5.69,42.06-14.39,55.97-21.82m-138.82-72.72c-5.38-.95-14.23,2.06-20.71,14.55-18.03,37.79-7.91,68.62,34.15,89.34,4.9,2.21,9.01,2.84,12.65,2.53,12.97,1.58,21.19-12.49,6.48-16.76-39.53-18.34-51.7-36.21-25.14-82.22,2.85-4.27-1.26-8.22-7.43-7.43m-59.51-90.25c1.74-.47,2.37-2.84,2.69-9.17-3.16-33.2-8.22-74.63-20.24-99.77-2.53-6.8-4.59-7.59-4.74-7.59l-3.95,2.37c-18.18,16.29-27.2,37-27.2,63.4,1.74,7.12,7.91,10.59,10.75,9.17,5.38-2.69,3.16-22.93,13.12-20.56,15.97,3.32,14.7,26.4,17.23,40.64,1.9,9.96,5.38,21.82,12.33,21.5m4.47,67.39c6.8,0,14.55-4.9,16.44-10.59,1.58-4.11,0-7.59-4.11-11.07l-12.33-8.85c-28.14-20.4-55.97-41.58-79.53-60.87-31.47-39.53-39.84-82.54-28.46-140.09v-.48l-1.42.79c-20.08,15.81-30.83,49.65-26.72,83.33,3.79,33.84,25.93,97.56,132.82,147.52l3.32.32m-131.95,5.65c-11.86-8.7-22.45-17.55-19.29-24.82,1.58-3.32,5.06-6.96,29.09,3.8,16.76,8.07,87.28,52.81,104.04,57.08,7.91,3.16,9.01-5.06,9.01-5.53,0-1.58-1.42-5.06-8.54-10.59-19.29-15.34-126.02-70.83-151.79-95.5-3.79-3-7.91-4.58-10.75-4.74-2.06,0-4.74.48-8.38,5.06-13.12,26.09-4.27,51.39,27.35,77,64.67,46.49,114.32,73.68,151.32,82.54h1.26l4.11-.63c0-.16,0-2.37-2.69-7.43-4.9-8.06-21.35-19.13-42.69-27.83-27.51-11.7-51.7-25.61-82.06-48.39m147.16,145.13c29.09,4.11,9.8-13.12,3-17.07-9.8-6.17-23.72-13.44-36.84-18.34-29.09-10.75-77.16-37.79-108.62-50.28-27.51-11.23-44.27-10.43-54.71-9.33-17.71,1.42-29.57,11.54-31.94,20.4-7.59,36.52,16.44,61.35,80.01,76.05h2.21c14.55.48,20.71-3.48,21.03-4.58,0-.32-.79-2.37-4.43-5.22l-63.56-28.3c-21.98-11.07-10.44-32.89-5.69-35.73,3.16-2.53,10.75.48,16.44.95,29.73,2.85,132.97,55.5,148,63.09,11.7,5.22,23.56,6.8,35.1,8.38m-200.35-284.1c12.33,10.28,18.03,15.81,17.55,5.85,0-8.7-5.22-17.23-15.02-27.2-7.59-6.32-14.23-18.18-19.76-35.73l-10.12-36.68c-2.69-4.9-6.32-7.91-9.01-8.07l-8.54,3.95c-17.55,11.7-24.51,33.05-27.51,48.86-6.32,34.79,1.11,75.9,18.02,98.19,2.69,3.64,5.06,5.06,6.32,5.06l4.11-2.21c8.54-4.59,16.29-11.07,8.54-22.61-8.85-11.38-22.45-47.12-12.65-65.62,11.86-22.61,29.88,20.55,48.07,36.21m-98.98,47.48c2.06-.95,7.12-7.11,6.01-11.7-.32-1.74-1.9-4.74-7.75-4.74h-1.26c-12.49.32-106.89,37.95-162.86,65.14l-8.54,3.95-8.22,3.32c-6.8,0-9.96-1.9-13.76-5.38l-1.74-4.11c.63-5.22,10.59-11.23,15.02-13.91l2.53-1.58c52.97-35.74,104.36-50.76,171.55-68.15l2.37-2.06-.79-5.85-.63-1.11v-.63l-1.74-2.21-6.8-.95c-47.59,6.33-102.77,15.97-163.17,52.65-11.86,4.27-23.72,6.32-35.1,6.32-11.07-.32-20.08-1.9-30.36-5.69h-2.85l-1.9,2.53c4.74,30.04,17.55,55.18,39.21,77.64l.63.63c3.64,3.95,7.12,7.27,10.44,7.43l9.49-2.85c28.78-12.49,55.5-26.25,78.74-38.9,7.12-3.48,13.76-7.11,19.92-10.43,32.57-17.55,60.4-32.73,91.55-39.37m67.32,296.39c-4.27-.32-9.8.16-12.17-7.59-2.69-10.59,6.64-38.42,11.07-45.54l-1.9-2.37c-20.71,17.08-32.26,39.53-30.36,62.77,3.16,14.07,14.07,23.4,26.88,23.72,5.38.16,11.38-1.58,16.29-4.75,13.44-9.01,23.08-25.46,28.94-49.17.79-3.95,0-8.22-2.53-11.07l-5.53-3.32-5.06,3.32c-5.69,14.07-18.5,34.63-25.61,33.99m-86.24-45.25c-13.6-2.05-24.35-14.86-26.41-19.61-2.85-7.75-1.26-16.44,4.27-24.35,12.33-15.65,29.25-27.2,47.12-39.53l1.11-1.1c13.44-9.01,26.09-18.02,37.63-28.46l1.26-1.26-1.58-.48-4.27.95c-39.84,17.23-89.33,41.58-113.84,75.1-5.53,8.7-12.97,25.93-3,39.53,20.4,22.77,38.74,34.31,54.23,34.47,7.12.32,14.07-1.9,20.24-6.64,19.92-18.34,27.99-43.64,33.36-65.78,1.74-5.69,1.74-10.44.63-12.81l-3.48-.47-7.27,3.95c-6.17,11.54-25.77,46.48-40,46.48m65.92-159.38c-14.23-.48-61.66,23.72-99.77,43.01l-.95.16-8.54,4.74c-15.65,8.06-34.79,18.02-46.96,17.87l-7.43-2.06c-7.59-5.53-13.12-16.29-13.91-18.34-3.16-12.65,6.32-20.08,14.7-26.88l2.37-2.06c41.58-33.83,95.98-59.45,132.82-72.26,5.22-1.74,8.38-3.79,9.33-5.85l-1.11-4.11-.47-1.11v-.63l-.32-.32-3.48-.48v.32c-90.44,24.98-153.21,60.08-187.37,104.51-13.12,20.4-4.43,44.59,10.12,57.56,6.96,6.48,13.12,9.64,19.76,9.8,6.01,0,12.49-1.9,21.82-6.33,16.44-7.75,157.64-76.05,163.17-93.6v-2.21l-3.79-1.74ZM253.1,93.76c-.95-2.53-4.11-4.11-8.7-4.27-5.38,0-11.38,1.9-17.71,5.69C60.04,210.92-173.02,421.69-335.72,765.74c-17.71,57.87-52.65,107.36-103.72,145.94-8.38,6.17-10.91,10.75-10.44,12.65,0,0,2.06,5.06,20.55,9.33,11.38,1.11,22.93,1.74,33.84,2.06,114.16,1.74,202.86-42.85,271.17-135.82C73.16,501.54,245.98,304.68,403.3,197.64c12.17-11.07,15.34-27.35,13.6-34.47l-4.43-1.42c-3.16-.16-6.32,1.74-11.38,6.32C233.65,298.83,42.33,459.95-117.84,719.42c-42.06,57.87-85.38,100.72-132.82,130.92-18.82,11.7-32.73,17.24-43.01,17.24-5.85,0-10.28-2.37-14.23-6.17-4.59-6.01-6.01-15.02-3.64-28.15C-165.59,511.18,15.61,275.59,242.66,111.31c9.96-8.06,11.38-14.86,10.44-17.55M-215.84,794.24C14.53,428.36,190.51,265.19,331.55,153.72c16.13-9.17,18.66-15.02,18.18-16.44-.47-1.9-5.22-4.58-14.23-4.58-8.06,0-17.39,2.06-24.98,6.01C79.36,307.4-106.58,518.01-241.14,764.04c-8.54,17.39-11.54,31.62-7.75,38.11,1.42,2.21,4.27,3.64,7.75,3.64,7.43,0,17.23-4.43,25.3-11.54m226.75-1.93c-5.85,0-10.91-2.84-13.91-7.59-4.74-7.91-3.32-18.98,4.43-33.36,132.34-195.59,268.32-324.13,396.39-438.93,11.86-7.91,20.08-35.1,16.6-47.43l-2.85-1.11c-2.21,0-5.22,1.9-9.8,6.33C188,428.33,35.26,598.93-65.3,792.31c-3.32,14.55-1.27,27.67,6.64,38.26,8.06,10.75,22.61,17.39,39.37,17.39,16.6.32,34.47-4.9,51.55-15.02,32.1-26.09,81.27-83.01,138.03-149.26l3-3c79.69-92.65,170.29-197.8,253.3-264.53,8.7-12.01,9.17-36.05,3-47.43l-3.32-4.43-4.9,3.32c-124.59,110.2-265.95,240.65-373.31,399.87-11.23,15.5-25.3,24.82-37.16,24.82m441.33-329.94c-130.13,101.98-232.59,196.22-308.32,327.77-8.54,27.2-7.27,49.81,3.64,64.99,10.59,14.07,29.25,21.98,55.5,22.29,12.81.48,26.56-1.26,40.95-3.95,31.47-12.65,61.35-35.1,89.02-66.57l180.09-192.74c5.06-7.11,4.43-21.34.16-29.73l-6.64-6.48-6.48,2.85c-23.24,23.88-48.7,50.75-72.89,76.05-55.5,58.5-113.21,118.9-174.08,171.55-8.54,7.75-19.45,12.02-31.15,11.86-16.44-.47-32.26-9.64-38.58-22.92-6.64-13.44-4.11-28.46,6.32-42.38,84.12-114.79,174.08-200.49,266.58-285.24,4.74-7.59,5.06-20.24,1.58-27.04l-3.64-1.74-2.06,1.42Zm46.77,42.35c-98.19,78.9-185.15,166.34-258.83,260.1-2.21,3.8-3.16,8.07-1.26,10.91l5.53,3.16,6.17-2.37c88.54-75.89,173.93-159.69,253.46-248.56,2.21-4.11,1.26-13.44-2.53-19.76l-2.53-3.48Zm29.71,146.62c-97.87,87.75-162.86,159.22-178.19,196.22-9.49,33.36-8.85,58.03,1.9,72.73,9.01,12.02,25.93,18.5,50.44,18.82,16.92.32,37-2.37,59.77-7.43,26.88-9.49,81.9-59.45,162.54-148.63,4.59-6.64,2.85-16.92-.47-23.72-2.37-4.74-4.9-6.96-7.12-7.75l-10.12,10.12c-46.49,45.85-94.71,93.76-145.78,126.02-12.02,6.48-24.03,9.65-35.1,9.65-16.44-.48-29.88-7.12-36.21-18.5-6.48-11.54-5.22-25.14,2.69-39.06,40.32-60.87,91.86-116.21,152.9-165.07,6.01-6.17,8.06-13.76,6.01-20.24-2.53-4.11-6.01-6.96-11.38-7.11-3.48,0-7.59,1.42-11.86,3.95m66.69,67.47c7.12-7.75,8.54-21.82,6.64-30.67-66.57,41.58-121.43,93.76-172.19,164.44l.95,5.22,7.43,3.48,10.28-3.64,146.89-138.83m12.66,306.21c10.44.16,20.71-1.42,29.25-4.9,41.11-20.08,79.22-54.07,113.21-100.72,2.53-5.06,2.69-11.86,0-16.92-2.06-3.8-5.22-5.85-8.54-5.85l-5.53,1.58c-33.2,36.68-62.61,64.83-90.13,84.91-8.38,4.75-16.76,7.27-26.09,7.12-16.6-.32-32.1-8.22-40.95-20.71-7.75-11.54-9.01-25.61-3.48-40.16,8.22-18.02,35.58-49.81,91.07-105.94,2.37-3.48.95-9.33-1.27-12.97-2.06-4.58-5.38-6.96-8.54-6.96l-5.69,1.74c-48.86,42.69-89.18,87.91-120.33,134.56-7.27,17.55-5.53,35.1,4.43,50.12,13.76,20.55,42.85,34.63,72.57,35.1m41.08-90.33c21.66-20.71,39.21-37.79,63.25-64.04,7.91-8.38,12.65-13.6,12.65-19.61,0-6.32-5.38-13.6-13.91-13.6-3,0-6.96,1.11-10.44,3.48-28.93,20.08-53.76,43.16-76.05,70.68-6.32,7.27-8.06,14.39-5.53,20.4,2.37,4.59,7.91,8.22,14.55,8.38,2.85,0,8.85-.79,15.5-5.69m60.76,86.16c-11.38,21.66-8.38,39.21,8.85,53.13l57.87,48.7,7.75,2.21c5.06.48,8.38-2.69,9.8-5.22,3.16-4.74,3.32-11.07.32-16.92-3.48-7.59-13.12-15.97-22.77-23.88l-1.58-1.58c-14.23-12.49-29.09-25.61-29.73-41.74-.47-8.06,3.16-15.81,10.75-23.24l44.11-50.76c2.85-6.16,3.32-12.81.63-17.07-1.9-3.32-5.38-5.38-9.01-5.38l-6.8,1.74-70.2,80.01m131.8-35.19l-.79-8.7c-2.69-3.64-7.27-6.32-11.7-6.32l-7.12,4.11-35.26,61.51c-1.26,3.8-1.11,7.75.63,10.91l7.27,4.11,6.64-3.48,40.32-62.14ZM788.34,19.66c-83.01,20.4-187.52,73.84-269.59,117.95-57.24,39.84-77.16,81.11-60.87,125.38,7.12,10.44,15.34,15.81,24.98,16.13,8.85,0,18.82-3.48,31.15-11.7,83.33-61.19,158.11-104.83,227.53-134.24,11.54-4.11,14.86-14.71,14.23-20.87l-2.85-4.27c-58.34,21.82-135.03,54.55-212.82,114.47-9.96,5.06-18.18,6.96-24.98,6.8-11.07-.16-19.92-5.69-23.56-14.86-4.11-10.12-1.11-21.66,8.06-30.83,70.04-56.45,163.17-96.45,260.57-135.66,18.5-12.02,28.14-23.56,31.46-29.41l-3.32,1.11Zm-53.89,156.63c-108.15,52.81-186.26,104.67-245.39,163.02-15.81,25.62-8.85,84.59,21.5,116.21,5.69,4.11,12.65,6.64,20.08,6.64,15.81,0,37.79-12.33,52.18-20.24l9.17-4.9c30.36-16.6,60.24-37,94.71-64.35,15.34-15.02,21.35-35.89,19.76-43.32l-1.42-.47-3,1.58-131.23,75.74c-7.91,4.43-15.34,6.64-22.14,6.32-11.86-.32-21.35-6.32-27.35-17.39-8.54-16.6-7.59-38.58,2.53-54.07,12.02-23.72,72.26-58.34,130.92-92.02,30.36-17.23,56.45-32.41,74.31-44.75,8.54-6.64,12.02-17.87,9.49-24.35l-4.11-3.64m-152.33,187.92c54.39-30.36,96.29-59.29,129.02-88.7,3.48-4.11,5.38-10.91,6.01-15.5,0,0-142.3,71.79-160.49,99.3-1.74,2.37,7.75,6.32,16.29,6.48l9.17-1.58m125.31,202.5c6.64-6.32,6.64-17.07,3.64-24.66-1.9-4.43-4.59-7.27-7.91-7.91l-64.51,39.69c-6.8,5.53-13.76,8.38-21.03,8.22-9.96-.47-18.34-6.32-23.24-17.07-5.38-12.49-5.38-31.94,7.12-45.85,17.23-21.5,50.28-47.91,83.01-72.89,6.32-8.54,6.96-19.45,4.27-24.82l-3.64-2.53-4.74,2.06-107.99,78.9c-27.04,18.18-35.42,43.01-25.77,75.89,9.49,22.61,21.82,39.84,36.05,50.91,6.17,4.43,13.12,6.64,19.76,6.8,7.75,0,16.29-2.85,25.3-8.7l79.69-58.03m-59.26-28.27l45.85-37.16.16-10.91-7.43-4.9-52.49,30.04c-3.95,3.64-5.38,9.65-3.48,14.55,2.21,5.38,6.96,8.85,12.65,8.85l4.74-.47Zm158.62,174.19c-1.9-6.32-6.17-10.75-9.96-10.75l-6.64,3.64-43.96,32.26c-5.69,4.27-11.86,6.01-18.5,5.85-12.81-.16-25.3-9.01-32.57-22.93-8.38-14.39-8.54-31.15-.79-43.32l40.48-43.16c5.22-5.22,6.32-16.92,3-24.98-1.74-3.95-4.11-6.01-7.27-6.48-35.42,16.6-57.4,40.95-78.42,66.41-24.35,35.58-9.01,59.92,12.17,93.45l10.28,17.08c11.54,10.59,22.93,16.6,32.57,16.76,5.53,0,10.44-1.42,15.97-4.75l79.85-59.13c6.48-4.9,5.22-15.02,3.79-19.92m-31.88-49.03c-1.9-4.27-6.64-7.59-11.54-7.59l-4.9,1.26-27.67,21.03c-5.22,4.59-5.53,11.23-4.11,15.81,1.11,2.06,3.48,6.96,8.38,7.11l7.43-2.69,28.3-21.19c4.43-4.11,5.85-9.17,4.11-13.76m138.45,159.11l-36.52,40.32c-8.54,6.17-16.6,9.33-24.51,9.17-12.33-.32-24.35-7.59-31.47-20.24-9.01-14.55-10.75-33.52-4.11-47.59l27.83-36.84c5.53-7.91,4.11-18.97.63-26.25-2.53-4.27-5.69-7.43-8.38-7.43l-5.06,3.32c-17.23,14.07-37,38.9-62.3,76.05-9.01,15.18-6.8,37,5.85,60.24,16.92,30.67,47.12,53.92,70.52,54.23,9.33.16,16.92-2.85,23.24-9.33l60.56-70.04c4.9-9.65,3.64-18.18,1.27-22.93-1.9-3.64-5.06-5.38-8.38-5.53l-9.17,2.85Zm-58.08,16.43l33.52-31.94c1.58-3.32,1.26-8.54-.95-12.65-1.9-3.8-5.69-6.01-9.17-6.01l-4.59,1.58-32.1,31.47c-2.21,3.8-2.69,7.59-.95,11.7,1.9,3.8,6.17,6.8,10.59,6.8l3.64-.95Zm-112.96,805.74c16.29-150.68,44.27-258.52,84.91-329.35,6.48-13.12,5.53-40.64.79-53.76-48.7,74.79-78.27,159.38-95.66,273.38-6.01,28.78-15.34,34.63-22.61,34.63-11.54-.32-16.76-14.55-19.76-25.14-18.82-94.55,3-208.08,69.1-357.81,3.79-8.38,3.16-17.39-.95-23.88-2.69-3.95-6.48-6.33-9.64-6.48l-6.01,3.16c-84.43,134.08-107.36,405.25-40.64,491.26,8.06,9.33,17.87,14.86,25.61,14.86,10.91.32,13.76-12.97,14.86-20.87m54.55-454.39c-43.96,72.1-70.52,156.53-80.95,256.78l5.53,5.06,2.53-4.11c13.6-84.75,40.79-159.38,80.64-221.68,3.64-9.96,1.27-28.93-3.48-36.84l-2.53-1.11-1.74,1.9ZM1206.42-52.15c30.67-12.01,58.5-23.56,78.9-48.06,17.08-20.4,24.03-43.96,19.76-66.73-4.59-22.45-19.76-42.22-44.11-55.34-21.66-11.7-42.53-11.86-66.72-12.49-268.16-4.27-524.62,62.77-762.59,198.59-46.49,31.15-94.39,45.7-147.2,44.74-5.53,0-11.23-.32-16.6-.79-14.7.79-24.98,4.27-27.35,9.64-2.53,4.43.95,12.97,8.38,23.56,50.12,39.06,103.25,58.82,162.07,59.77,32.57.63,67.04-4.9,102.3-16.6,6.64-.95,8.7-3.8,7.91-10.28l-8.7-44.27c-1.58-6.01-5.38-9.01-7.59-9.01s-4.74,2.53-6.32,7.91l-20.55,33.52c-12.33,11.86-26.09,17.55-45.06,17.55-31.78-1.26-48.38-7.11-53.92-19.13-4.27-8.22-2.53-17.71,5.22-29.09l.95-.95c223.42-151,458.06-220.25,717.68-237.96,19.61-1.58,39.37-3.16,58.98-2.85,29.88.48,52.02,5.06,68.94,13.91,21.03,11.23,33.68,15.18,35.58,34.47,1.58,18.18-6.96,36.05-24.19,50.44l-159.22,74c-60.72,25.3-100.4,64.19-124.75,122.7-30.52,83.64-123.01,339.31-39.21,452.21,33.68,52.97,70.52,88.23,113.05,107.52h2.53-.32c7.12.16,12.65-3.95,15.97-11.54,4.59-9.49,4.74-24.98-5.06-36.05-143.57-115.42-124.59-201.6-92.97-344.22l3.79-15.97c31.94-147.2,79.37-198.28,154.79-241.13,19.29-11.54,39.21-22.29,58.98-32.41,10.28-4.9,21.66-9.65,36.68-15.66m1229.18,366.46c10.75-30.99,2.21-49.33-7.91-65.78-47.75-57.24-89.33-94.71-122.85-111.63h-1.42l-8.38,2.69.79,4.9,14.23,12.65c6.8,7.27,9.64,13.44,8.85,19.13-.95,4.59-3.48,8.54-8.06,11.39l-1.74.32-5.69.95c.79,1.42,3,4.74,6.64,9.96,44.9,55.02,89.97,121.91,64.98,214.24-11.86,43.96-27.2,88.86-58.19,88.07l-82.38,1.74c-7.59,2.69-12.17,9.65-11.86,17.71.63,8.38,5.69,18.18,16.6,20.4h103.41c24.03-3.8,41.43-22.61,52.97-57.87l40-168.87Zm-250.61,87.8c-.47,1.74.16,6.01,5.38,9.49,22.45,17.23,43.8,25.93,63.09,26.4,22.61.32,43.96-10.75,63.4-32.57,3.95-6.8,3.16-13.28,1.26-16.76l-5.53-3.95-5.85,1.9c-15.34,15.97-37.95,24.51-64.67,24.03-15.81-.16-33.68-3.64-52.65-9.8l-4.43,1.26m147.6-94.65c-13.6-36.37-40.64-73.05-62.77-100.87-17.39-25.46-20.87-40.32-15.18-70.2,3.95-26.09-6.96-41.27-37.16-52.65-11.38,0-21.98,7.75-25.77,18.5-1.42,5.85-1.58,14.07,7.12,20.55,9.64,5.85,18.34,12.97,24.98,20.87,7.27,9.65,10.28,16.92,11.23,27.67.32,4.11.63,8.85.47,13.6,0,7.27-.79,11.86-2.69,18.5-2.85,7.59-2.06,11.86,2.69,16.29,12.17,16.76,28.46,34.15,49.17,52.65,12.33,18.02,15.65,30.52,11.7,39.69-1.9,4.59-6.64,10.43-17.39,12.49-34.47-1.74-76.84-16.6-130.29-45.38l-4.9-2.53,4.59,7.27c58.5,46.8,107.2,70.04,148.94,70.83,6.17,0,12.33-.48,18.82-1.58,9.8-2.84,16.13-7.59,19.13-13.75,3.95-7.59,3-18.34-2.69-31.94m-122.05-142.29c-2.06-5.22-5.69-9.17-9.01-10.12-5.53-1.26-11.07,4.43-14.7,9.33-10.59,14.86-14.55,28.93-12.65,42.37,3.79,16.13,10.91,27.99,22.45,37l2.06,1.42c-7.43-28.15-4.11-47.59,10.75-62.46,3-3.95,3.79-11.07,1.11-17.55M1421.28,9.77c47.59-8.06,66.57-37,59.61-92.02-4.74-74-49.49-84.59-96.61-85.54-4.9-.16-9.64,0-14.39,0h-2.69c-5.22,1.58-8.54,4.43-8.22,6.32.32,3,6.64,8.38,19.13,9.01l8.06-.63c40.64.63,67.2,37.79,69.1,73.84,2.06,33.83-18.02,58.82-49.96,62.77-74,19.13-131.55,42.37-170.45,68.94-77.16,38.26-114.32,116.21-111.47,233.06l1.11,10.44,3.95-2.53c17.08-12.65,26.56-43.01,28.14-89.49,26.25-117.32,124.75-162.38,264.68-194.17m-19.31-120.99c-9.01-2.84-18.97-4.27-27.83-4.43-23.56-.32-38.42,9.65-44.11,19.29-3.79,6.48-4.59,13.12-1.26,19.45,6.01,10.28,22.45,16.6,44.9,17.08,8.38,0,17.55-.95,27.51-2.21,4.59-1.74,6.96-3.32,8.06-4.58l-4.74-1.74c-26.72-2.53-35.89-13.91-35.26-23.24.32-8.85,9.96-18.97,35.26-18.66l-2.53-.95m-193.39,137.28c16.76-39.69,127.76-36.84,113.37-44.11-36.52-19.61-124.44,6.01-152.26,41.74l-3,3.48c.63,1.11,7.43,5.22,19.61,5.38,9.64.16,18.03-2.37,22.29-6.48m-23.56,222.58c-25.3,55.02-47.12,94.71-79.06,115.11-1.74,1.74-4.27,7.27-4.27,14.55,0,8.38,3.48,15.65,8.06,19.76l66.72,51.39,1.11.16,4.11.16c8.7.16,16.44-4.43,19.92-11.86,3.16-6.17,2.21-12.97-2.37-18.02-4.9-6.48-11.54-13.12-17.87-18.66l-6.01-5.22c-12.33-16.6-11.07-30.67-9.65-43.32,24.67-99.45,70.2-146.89,127.28-198.91,1.9-2.21,0-11.23-9.96-6.17-40.16,20.4-75.1,58.19-98.03,101.03m186.65,52.57c-10.75,27.04-22.77,65.14-29.57,140.88-4.11,22.77-15.18,27.35-23.88,27.04-9.64,0-21.5-6.48-36.68-19.76-24.67-42.06-10.28-107.36,47.12-212.19,3.16-7.43,3-12.49,2.06-14.55l-1.9-.32c-1.9-.16-4.11.48-8.22,4.9-49.33,61.98-76.84,131.55-85.07,212.35-.79,20.71,7.91,36.05,27.99,49.49,20.4,13.91,43.48,24.35,69.1,30.83,13.12.16,21.98-1.9,26.41-6.8,3.32-2.85,4.43-7.11,4.43-12.33-3.48-74.63,6.17-139.14,15.97-192.27.95-4.11.95-8.06-.16-10.28l-3.16-.32-4.43,3.32Zm-73.08,109.48c3.48,20.71,15.34,7.75,15.81,6.33,11.38-68.46,24.19-117.01,42.06-165.86l1.9-7.43-1.58,2.21c-4.59-6.48-44.27,84.59-57.71,146.1-1.26,6.64-1.26,12.81-.47,18.66m-84.69-42.39c22.93-64.83,47.12-120.48,79.85-170.6-15.02-6.48-77.16,92.65-96.61,158.43-1.9,6.48,8.22,29.09,16.76,12.17m293.21,130.02c-.95,22.14-12.81,29.73-23.72,29.57-13.28-.16-28.3-11.7-39.53-30.2-16.76-49.96-21.5-95.5-16.6-143.88.95-6.8-1.26-14.07-5.38-18.66l-6.48-3.95c-3.79,0-8.38,5.53-11.38,18.34l-1.11,13.76c-4.43,66.41-9.96,141.83,24.19,179.3,15.5,16.92,38.11,25.3,68.46,25.77,7.12.16,14.7-.16,23.4-.95,7.12-.95,12.49-4.43,15.81-10.28,17.23-30.67-12.81-115.9-24.82-141.67-3.79-7.27-7.12-9.49-9.01-10.12-3.79,2.85-4.59,6.48-4.11,12.81l10.28,80.16m-48.86-34.2c.63,8.22,7.75,13.44,14.7,13.44l5.85-2.06c1.74-2.37,1.74-6.32.47-11.39-6.32-30.83-8.38-50.44-9.65-81.59-.79-5.22-5.06-8.38-7.91-8.38-1.26,0-3.95,0-4.43,5.22-2.21,29.89-1.9,57.55.95,84.75m38.98-235.32c23.4-12.65,69.57-38.58,94.24-46.96,3.95-1.9,5.38-5.85,4.74-9.01-.32-.95-1.11-3.32-5.06-2.21-24.67,5.38-77.95,31.47-99.3,40.32-6.32,2.53-8.85,9.8-7.27,15.65l3.48,4.59c2.06.95,5.38.32,9.17-2.37m185.45,337.15c6.96-7.59,6.32-16.13-1.58-28.78-18.03-21.19-31.78-41.58-43.17-63.4-3.16-3.32-6.96-5.85-10.75-6.01l-4.11,1.9c-2.06,2.21-2.69,6.01-1.11,10.12,4.11,17.08,10.91,31.78,20.24,44.11,4.11,5.38,5.06,11.39,2.37,16.6-2.37,4.74-7.75,7.75-13.6,7.43-6.8,0-13.76-3.95-17.87-10.91-17.55-32.41-24.51-52.81-28.78-83.48-3.79-18.18-15.5-26.72-24.35-26.72l-7.43,2.69c-1.9,2.53-2.69,6.17-1.9,11.23l21.66,92.18c13.6,42.38,54.71,46.49,66.57,46.49,18.03.32,34.63-4.58,43.8-13.44m247.21-93.57c-101.19,82.85-120.64,170.76-59.45,268.01,5.53,4.74,12.02,8.06,15.81,8.22l3.16-1.26c1.26-1.58,1.42-5.85-.32-12.18-46.96-98.82-22.45-183.41,72.73-251.56,1.58-2.06,5.22-6.33,4.27-9.96-1.9-3.64-7.59-6.33-15.18-6.33-6.48-.32-13.91,1.74-21.03,5.06m77.89,36.98c-103.41,80.32-133.13,161.28-90.92,246.98,51.55,64.04,111.31,116.05,164.12,161.59l1.58,1.26c112.89,97.4,201.91,174.4,135.82,311.49-4.11,7.75-4.9,12.49-4.59,14.23l6.17-3.16c87.44-100.72,70.04-207.13-52.49-324.77l-184.99-170.45c-24.98-33.99-33.68-67.04-25.46-98.82,7.91-31.62,32.41-62.3,73.68-92.81,9.96-11.54,13.28-25.14,8.38-36.05-2.85-7.91-10.44-12.81-18.66-12.97-4.27,0-8.7,1.1-12.65,3.48m-72.1,697.24c-11.23-.16-22.93,0-35.26.79-81.9,14.7-140.25,66.41-156.06,137.72-14.7,65.46,10.91,132.97,65.46,172.19,4.59,3.32,10.28,4.74,16.92,4.9,12.49,0,23.72-5.53,27.2-13.44,2.85-7.27-1.27-16.6-12.18-26.09-47.75-40-67.83-87.75-57.08-133.92,11.54-49.17,57.4-91.55,114.79-105.14,39.05-4.59,76.37-5.53,109.89-6.48,114.79-2.85,197.33-4.9,196.38-124.91-.79-13.12-6.96-20.24-10.75-21.35-4.43,3.16-6.96,7.59-7.27,20.24-20.71,91.71-56.29,109.73-106.09,108.78-16.29-.16-33.36-2.37-53.6-5.22l-7.91-1.42c-24.98-2.69-52.97-6.32-84.43-6.64m207.83-450.03c-69.89-39.53-121.75-72.89-147.2-110.2-3.79-3.32-8.7-5.85-12.33-5.85l-4.27,2.37c-3.32,4.11-2.37,14.07,1.74,25.62,11.07,34.15,79.53,80.8,137.4,117.64,124.28,75.1,198.91,194,194.8,310.22-3.48,88.23-51.55,159.85-135.19,202.39-24.19,16.44-73.05,22.77-168.23,21.19-27.35-.47-57.55-1.58-93.92-3.16-30.2.95-54.08,15.49-62.77,39.53-9.8,25.93-.63,55.81,24.35,78.58,6.01,4.9,12.49,7.91,17.71,7.91l5.22-1.74c.95-2.37.47-8.38-4.74-16.13-13.6-21.82-11.7-36.21-7.43-44.27,4.74-10.12,15.97-16.44,31.15-17.71l204.76-.79c119.85-12.02,208.55-94.24,231.16-214.88,24.35-129.02-31.94-299.78-212.19-390.7m-73.33,951.15c11.38,0,19.76-4.74,26.41-16.13,0-1.26-.47-1.42-4.27-1.9-9.33,0-21.35,2.69-35.42,9.01-1.11,4.9.16,6.17,2.06,7.59,3.32.63,7.27,1.26,11.23,1.42m-68.8-10.94h6.32c17.55.32,32.41-5.06,43.17-14.55,3.16-3.95,4.27-6.64,3.79-7.91,0-.63-.79-2.06-5.22-4.43h-6.48c-16.44-.16-31.46,4.11-43.64,13.12-3,3.64-4.43,7.75-4.11,9.49l6.17,4.27Zm-14.44-54.06c-22.14-.16-40.48,6.96-54.39,22.3-2.85,3.8-3.16,6.33-2.85,7.11l3.79,2.53c5.53,1.11,12.02,1.9,18.03,2.21,20.55.32,34.79-7.75,44.43-24.66l1.9-6.01-10.91-3.48m-25.19-119.04c14.23.16,22.14-7.11,25.3-23.4,7.12-31.62-3.95-57.71-33.2-79.85l-1.11-.47c-6.8-5.22-13.6-9.96-18.97-11.23l-2.85-.32c-4.27,0-4.74,1.11-5.38,1.74-2.53,3.32-2.53,8.54,0,14.39,9.33,21.35,5.69,41.27-11.07,57.08-4.59,5.22-4.43,9.65,1.11,14.71,6.01,5.69,13.44,11.7,19.76,17.08,6.32,5.22,14.39,8.7,24.19,10.28h2.21Zm146.56,138.35c32.1-5.69,45.38-24.82,41.27-61.19-3-19.45.47-35.42,10.28-46.96,3.48-3.32,4.43-16.6-.47-28.3-2.37-5.22-4.59-8.22-6.01-9.65-20.87,24.51-25.46,52.49-27.67,78.9.47,30.2-7.27,50.75-24.03,63.24l-.63,2.06c1.11.79,3.48,1.58,7.27,1.9m-48.64-17.61c8.54.48,15.97-3.64,23.24-11.38,13.44-13.76,20.55-36.21,18.97-58.34-3.64-15.34,0-30.36,11.23-44.11,12.97-22.61,18.03-41.27,14.55-54.71-2.21-8.22-8.22-15.49-17.23-20.71-4.9-2.06-9.17-3-12.17-3.32l-1.9,3c3.32,15.34,3.95,31.78-10.91,50.12-12.49,17.23-15.34,35.26-8.22,53.13,6.01,30.67-3.95,54.71-30.67,71.15-5.53,3.8-5.85,5.85-5.85,5.85,0,0,.32,3,11.23,7.91l7.75,1.42m-71.66-227.59c41.43,40,44.9,80.8,10.59,124.44-6.01,6.01-9.01,10.91-8.85,15.34.32,3.32,2.37,6.64,6.48,9.96,14.7,19.13,7.91,32.41-.47,40.48l-2.85,4.59c.47.47,3.16,2.21,13.28,2.84,19.76-2.37,35.58-14.39,48.7-36.84,4.59-15.02,4.59-30.36-1.11-45.22-7.59-16.29-6.17-32.25,5.69-49.02,10.75-20.71,11.54-39.21,3.16-53.76-9.8-15.65-30.99-25.61-55.66-25.93-6.8,0-13.6.48-20.08,1.9l-4.59,2.85s0,2.06,5.69,8.38m-205.36,228.6c11.7,14.86,27.04,27.04,45.54,36.05,5.53,3.32,10.91,4.9,16.76,4.9,7.12,0,14.86-1.9,23.24-6.48,10.91-8.85,24.19-18.97,34.94-26.56,39.37-28.62,77.16-55.81,59.13-83.01-20.56-30.2-43.48-45.06-68.78-45.38-5.69-.32-12.33.63-19.45,2.37-23.24,11.23-33.99,27.83-32.73,50.91,1.58,6.8,4.27,6.8,5.85,7.27l7.75-2.69,24.51-11.23c3.79-1.26,6.8-1.58,10.75-1.58,6.8,0,12.18,3,15.02,8.7,2.85,6.96.95,14.39-4.9,22.45l-34.63,29.73c-6.96,5.38-13.76,8.07-20.24,7.91-9.17-.16-17.55-5.69-24.98-15.97-18.34-19.92-49.65-40.95-95.18-64.98-24.82-14.86-31.46-34.79-20.24-59.61l19.92-33.68c2.21-7.11,1.27-16.76-3-23.4-3.32-4.74-8.06-7.27-13.12-7.59-3.64-.16-7.43,1.27-11.54,3.95-39.53,34.47-47.91,77-25.61,128.07,18.03,19.45,37.16,34.15,59.13,44.27,21.5,7.59,38.74,19.61,51.86,35.57m-102.3,45.63c12.33.16,14.39,6.17,14.55,8.38.16,2.21.47,9.49-17.71,14.55-29.88,8.38-54.23,19.61-75.1,34.15l-4.43,9.49c.95,2.85,6.48,5.85,12.65,6.01l5.53-.95,59.29-25.46,86.17-23.24c4.59-2.06,10.59-6.96,10.75-15.49-.16-10.28-9.33-21.03-23.72-27.99-12.17-3.95-24.82-5.53-38.42-5.85-39.53-.63-83.96,13.76-135.66,44.27-5.38,3.32-8.38,7.91-7.59,11.07,1.11,4.9,8.06,7.59,15.65,4.27,36.68-19.45,66.09-29.88,89.49-32.73,3.64-.32,6.32-.63,8.54-.48m-50.33-117.19c-19.76-13.28-36.84-17.55-53.6-14.07-11.23,2.06-21.19,7.75-30.83,16.76-3,3.95-4.43,8.38-2.85,11.54l6.96,3.8.95-.48c14.86-4.9,28.14-7.43,39.84-6.96,13.6.16,24.19,4.43,28.14,12.02,4.43,7.59,3.79,17.39-2.69,30.04-16.13,18.02-41.11,33.84-78.11,49.17l-.32.16-3.48,8.07c1.11,4.43,7.43,7.11,15.65,7.43h3.16l1.42-.48c29.57-7.27,91.23-22.93,106.41-54.39,4.59-9.96,4.59-20.71-.79-32.41-6.17-10.75-15.97-20.71-29.88-30.2m-53.51,33.27c-32.57,11.07-55.97,22.14-77.32,35.58-5.85,2.85-7.59,8.38-6.64,13.12.79,3.95,3.48,6.32,7.27,6.48h2.53l.95-.16c30.52-9.01,57.87-21.19,80.8-35.73,3.79-3.48,5.38-9.01,3.79-13.12-.63-2.21-3.48-6.17-10.28-6.17h-1.11m-16.06,222.12c14.39-.63,25.3-6.8,29.88-16.29,5.85-10.91,3.16-27.04-7.12-44.43-39.53-54.23-89.02-86.49-152.42-98.51-13.28-.48-15.18,8.38-15.34,9.96-1.58,5.22,1.11,11.7,9.8,15.34,50.75,15.81,90.44,39.69,117.95,71.15,6.01,6.8,10.59,17.71,6.96,24.51-.95,2.06-4.11,6.17-11.7,6.01l-7.27-.79c-50.28-15.34-85.22-22.77-109.26-23.08-5.85,0-11.23.16-16.92,1.27-10.28,2.05-14.86,8.54-14.55,13.44.32,5.69,5.85,9.8,14.86,10.75,45.38,3,83.33,11.07,118.74,26.88,10.12,2.37,21.5,3.79,33.36,3.79h3m-80.51-89.48c-5.38-6.32-28.46-12.65-48.86-12.81-18.18-.16-25.3,3.95-26.25,6.17l-.47,1.58,4.11,6.64c6.8,7.27,30.83,15.81,54.23,16.29,11.38,0,19.76-2.06,21.66-6.17.95-2.06-.79-6.17-4.43-11.7m84.97-212.17l-1.42,3.64,3.79.63,7.59-.63c56.45-21.98,83.01-55.18,79.85-101.03-.63-3.32-2.21-5.69-8.38-5.69-24.03,2.21-42.69,12.65-60.56,33.36l-1.74,4.11,4.9.79c6.48.16,15.5,1.9,18.5,9.17,2.85,5.38,1.27,12.02-4.9,19.76l-37.63,35.89Zm107.11-254.61c-17.39,9.01-29.88,19.29-27.04,52.02-.32,23.4-13.76,44.9-27.51,44.59-2.06,0-7.75-.95-10.91-7.11-13.12,5.22-19.29,14.23-23.88,22.93-3,11.54-2.69,20.87,1.26,25.93,1.9,2.85,5.69,4.11,9.96,4.27,12.17.32,29.73-9.33,43.96-24.19,26.41-28.3,39.21-69.57,35.89-114l-1.74-4.43m-136.88,162.21c-6.96,9.33-11.07,18.03-9.8,23.4-4.74,59.92-22.14,101.83-53.92,132.34-5.38,4.75-10.28,7.12-15.34,7.12h-1.26l-6.32-3.48c-3.32-3.64-5.06-8.38-4.74-14.07l1.42-40.64c0-4.11-2.37-6.32-6.64-6.32-5.53-.16-11.38,3-14.7,7.91-11.54,20.87-15.65,46.96-12.49,78.27,1.74,6.01,7.91,24.98,26.72,25.3,5.69,0,11.7-1.11,18.02-4.27,66.88-45.22,88.86-132.34,101.98-212.03v-6.17l-.95-1.58-2.21-.47c-6.17,1.26-13.12,6.64-19.76,14.7m-211.07,393.98c56.92-50.91,64.35-144.83,63.56-230.21,0-9.65-2.69-15.34-6.64-15.34-7.12,0-18.03,12.65-19.76,33.83-2.53,58.34-7.59,119.06-39.21,169.66-6.8,4.9-11.7,7.12-15.97,7.12-8.38-.32-12.97-7.59-12.97-22.14l-1.9-52.81c-1.11-5.38-2.69-7.9-3.64-9.33l-3.95-.79c-2.21,1.74-7.91,7.11-16.44,23.56l-.16.79c-6.32,30.52-6.32,71.78,8.7,90.92,5.85,6.96,12.81,10.43,22.61,10.59,7.27.16,15.81-1.58,24.98-5.69l.79-.16Zm-4.49-96.58c1.9-.16,5.06-1.9,8.85-6.32,8.38-10.43,16.6-32.41,10.91-59.93-1.11-3.32-2.69-8.7-7.75-8.7-4.59,0-9.49,4.43-12.65,10.59l-6.48,42.85c-.16,12.97,3,18.34,4.11,20.24l3,1.26m152.09-187.92c3.48,0,8.38-3,12.65-9.49,6.48-9.49,8.85-22.45,6.01-34.31l-6.8-5.69c-.95,0-3.64.32-7.91,5.69-6.8,8.06-11.38,22.77-10.44,30.67.16,2.06,1.9,13.12,6.48,13.12M1147.36,58.17c-45.85-.63-81.43,9.8-104.99,63.88-4.11,12.97-3.16,24.35,2.85,32.41,4.9,6.96,13.28,10.75,22.77,11.07,7.27,0,14.55-2.53,20.55-6.64l-.79-8.06h-.63c-13.44,0-17.39-2.37-21.82-9.33-2.69-4.43-5.22-11.7.32-23.88,20.71-44.9,51.07-44.27,76.53-43.8,15.81-.16,19.61-8.85,19.61-9.49,0-1.11-2.21-4.43-8.38-6.17h-6.01m-47.56,70.41c5.38-.16,10.28-4.58,13.91-8.38,10.12-12.65,9.64-18.34,9.33-18.97-.16-.48-1.26-2.21-5.69-3.8-17.55,1.74-24.51,12.33-23.88,22.14.16,3.64,1.74,9.33,6.32,9.01m-22.63,72.2c-45.38,1.27-71.47,24.98-78.58,72.73-8.22,36.68-3.79,59.45,12.49,71.47,3.64,3.32,8.54,4.9,16.44,4.9,26.25.48,55.97-15.65,56.92-21.66,1.74-4.27,1.42-6.96.47-8.22-1.11-1.74-5.38-6.17-13.12-4.43-8.38,4.43-16.29,6.48-23.88,6.32-8.85-.16-19.45,1.42-25.14-23.88-.32-52.65,15.18-76.53,56.61-77.95,2.21-.48,7.59-6.48,7.59-10.91,0-3.95-3.95-8.38-9.8-8.38m-19.31,86.77c2.53,0,9.17-.95,22.45-10.91,4.11-5.22,6.64-10.59,4.9-14.39-.95-2.85-5.69-5.85-13.44-9.01-11.38-.16-14.23,1.42-16.13,2.53-3.48,2.84-7.59,9.96-6.17,26.88,3.64,4.9,7.43,4.9,8.38,4.9m-8.49,259.32c2.06,0,6.17,0,6.96-10.12,5.69-21.98-7.91-23.56-35.26-57.55-10.75-17.71-14.7-42.69-10.75-52.33,2.69-7.43,12.02-14.07,21.82-17.55l37.95-7.91c3.95-3,5.38-7.9,4.43-12.49-1.9-6.32-10.28-12.81-23.08-13.12l-7.75.79c-29.73,2.06-49.65,9.17-60.56,22.14-9.49,11.7-12.81,28.15-10.12,50.12,7.43,37.47,30.67,70.2,69.89,96.93l6.48,1.11m16.6-82.3c7.75-3.32,12.97-8.7,12.97-13.91,0-4.9-4.11-9.64-10.44-12.81-6.8-2.21-12.81-3.48-17.08-3.48s-14.7-.47-15.97,21.5c0,4.27,1.26,9.49,16.44,9.8,4.27,0,9.01-.32,14.07-1.11M958.21-19.96c-16.44-.16-26.41-4.43-30.2-12.33-3.79-7.43-1.26-16.29,7.75-27.67,38.42-45.85,93.92-67.36,169.5-66.09,15.34.16,30.67,1.11,45.38,2.69,19.76-.48,37.31-13.6,37.63-20.08,0-1.26-3.48-3-9.17-3.8-14.39-1.26-28.93-2.06-42.22-2.21-84.59-1.42-183.25,14.7-271.48,144.99-1.11,3.8-1.11,7.91.32,10.59,1.42,2.06,5.85,4.9,18.5,5.69,36.37-4.43,62.93-14.23,80.8-29.88l-6.17-1.9h-.63m66.31-59.14c-13.44,0-23.4,1.42-30.83,4.59-9.64,5.53-9.96,8.85-9.96,8.85,0,.32.16,2.06,5.85,5.53,5.38,2.21,12.33,3.48,20.08,3.64,10.59.32,22.93-1.9,37.31-6.64,8.54-4.43,10.59-9.17,10.12-10.44,0-.95-1.11-2.21-4.9-3.16-7.43-.95-18.03-2.06-27.67-2.37m-241.73,26.94c-6.32-.16-11.7-2.84-14.7-7.59-4.74-7.43-4.27-18.34,1.58-32.41-36.52,9.8-56.92,34.47-61.82,75.74-.47,3.64.32,7.11,2.37,9.33,1.74,2.06,5.69,3.16,11.23,3.32,4.43,0,9.96-.63,16.13-1.9,66.25-18.97,121.12-55.97,170.45-116.85l1.74-1.74c-4.11-.16-6.64.16-10.75.79-28.78,6.32-58.5,25.93-90.44,59.93-9.33,7.27-18.34,11.38-25.77,11.38m303.41,1929.17c-4.9-.47-9.8,1.27-12.65,4.75l-69.57,95.66c-5.38,6.96-11.38,10.28-18.03,10.28-5.85-.16-12.02-3.64-17.71-9.81l-4.9-5.85c-2.37,0-6.8,3.32-8.54,11.86-3.16,14.39-1.58,26.4,4.59,33.68,4.43,5.38,10.91,8.38,18.18,8.38,12.81.16,27.67-7.59,38.9-20.87l81.43-110.21c1.9-4.27,1.9-9.01,0-12.33-2.21-3.16-6.32-5.53-11.7-5.53m-251.13,183.82c59.45-31.15,90.6-81.74,123.8-135.19l1.42-2.37c14.86-23.24,30.04-47.59,48.7-70.83,3-6.01,3.95-9.17,3.95-10.91h-2.06c-5.69-.32-11.07,1.42-17.39,3.64-21.5,7.43-40.48,26.09-57.71,56.61l-64.04,93.29c-7.43,8.38-16.13,12.49-23.88,12.17-7.91-.16-14.55-3.8-19.13-10.59-6.96-10.91-6.96-28.3.47-47.12l12.49-24.19c10.12-19.45,19.45-37.95,30.04-54.07,16.76-27.51,22.14-50.6,16.76-72.57-3.95-11.23-7.12-12.97-7.75-13.12-.32.16-2.69,1.74-7.43,11.23l-65.14,145.31c-13.44,35.89-18.03,67.99-11.54,95.97,4.11,22.93,15.02,25.93,22.61,25.93,4.11.16,9.49-.95,15.81-3.16m82.79-203.78l-5.06,2.69-48.54,75.11c-3,4.43-5.53,10.28-3.64,14.86,2.21,3.95,6.8,6.01,10.75,6.01l3.79-1.58,49.02-85.86-.95-9.65-5.38-1.58Zm117.57,25.14l-1.27-9.17-5.38-1.9-4.74,1.42-40.48,62.62c-2.21,3.32-4.9,8.54-2.21,13.12,2.21,4.11,6.32,6.48,9.8,6.96l3.64-.63,40.64-72.42Zm-312.24,110.63c55.5-33.52,79.06-114,97.08-186.73v-3.32l-5.22-.95-4.74.79c-8.54,3.32-18.34,7.27-27.2,41.74-5.85,33.84-14.7,59.61-27.2,78.58-4.59,7.27-12.02,12.17-18.18,12.02h-2.21l-1.58-.47-5.22-4.11c-4.9-6.48-4.74-15.97,0-30.36l32.57-84.75c8.38-23.56,7.27-42.69-2.85-59.93l-8.38-5.38c-4.43,3.32-5.22,7.11-4.43,12.65-2.06,18.5-6.01,33.52-13.6,49.96-19.61,47.75-32.73,102.14-39.84,166.5-.79,6.8.16,10.91,2.53,13.6,1.74,1.9,4.74,3.32,9.49,3.32s11.23-.95,18.97-3.16m130.48-644.82c-1.26,0-3.64,0-6.32,6.17-50.75,93.13-90.13,316.39-55.34,378.05,7.59,14.71,15.97,21.5,26.25,21.5,6.17.32,14.39-2.85,23.24-8.7,28.62-23.56,55.18-82.53,83.17-145.15l.63-1.42c11.7-25.61,25.93-58.03,40.64-86.33,10.59-22.93,13.76-41.27,9.96-56.13-3.32-13.28-6.01-15.02-6.96-15.18,0,0-1.58.48-5.22,5.38-15.97,29.73-31.78,66.57-46.17,99.45l-.79,2.06c-19.29,43.64-38.58,88.7-59.93,123.01-6.32,9.96-15.97,15.81-25.14,15.81-3.64,0-21.66-1.9-21.82-32.25-3.95-93.13,15.34-178.67,60.87-268.79,3.32-6.64,1.74-16.76-3.64-25.46-4.59-7.59-10.28-11.7-13.44-12.02m-1.85,260.34c2.37,0,5.38-2.37,6.64-6.48,17.23-62.62,42.37-118.43,81.43-180.41,3.64-5.85,4.43-12.49,2.21-17.08-1.58-2.69-4.27-4.11-7.91-4.11-2.85-.16-6.17.63-10.12,2.53-49.96,44.9-76.37,108.15-80.64,192.74.79,9.65,4.9,12.65,8.38,12.81m118.43,203.43c81.59-74.47,145.31-158.11,193.85-255.04,4.27-9.96,4.43-21.03.63-27.35l-6.8-3.95c-5.38,0-12.02,4.58-18.97,12.81-16.29,20.4-31.94,46.33-48.23,74l-4.74,7.11c-26.88,44.59-57.08,95.19-94.87,133.61-6.32,6.96-14.86,11.23-22.29,11.07-5.53-.16-10.59-2.69-14.07-7.11-5.22-7.43-6.17-18.5-2.06-33.36,11.7-41.9,27.83-77,45.85-115.58l2.85-5.69c13.6-29.25,27.51-59.93,38.58-93.44,1.74-6.48-1.11-11.07-2.69-13.28-3.79-5.06-10.44-8.22-17.55-8.54-3.16,0-8.85.95-12.49,6.16-65.78,108.47-95.66,206.66-89.97,290.93,5.53,29.09,25.3,32.57,33.2,32.57,7.12.16,13.44-1.58,19.76-4.9m167.7-334.03c-57.24,35.73-101.19,100.88-129.5,193.53-2.69,10.43-.47,15.18.16,16.92l2.85,1.74,6.48-5.38c35.89-75.58,74.63-137.24,126.18-199.07l3.16-7.43-6.01-1.27-3.32.95Zm-33.82,359.44c13.6.32,28.14-7.75,42.06-21.5,70.68-97.87,141.83-179.93,208.08-254.25,4.43-4.74,6.64-9.49,4.74-12.97l-6.8-4.9c-3.79,0-7.59,1.9-11.54,5.69-54.39,57.4-126.33,135.35-193.06,230.85-6.48,7.75-15.5,11.86-24.51,11.86-8.38-.16-15.18-4.43-19.61-10.91-6.32-9.8-6.32-24.35,1.11-41.58,36.68-61.98,76.53-118.27,123.33-172.34l2.21-5.38-5.22-3.48c-2.37,0-6.96.63-14.86,6.17-64.51,71.31-131.39,144.36-136.29,229.42.16,26.88,11.38,43.01,30.36,43.32m200.16-317.32l-160.17,203.65c-5.06,7.59-5.06,11.54-5.06,13.28l2.69,1.42,9.01-4.59,159.85-192.42c4.59-8.85,4.59-18.02,2.53-22.77l-3.95-1.27-4.9,2.69ZM667.21,8.14c4.9-5.53,6.01-12.17,3.48-21.34-3.48-23.4,1.9-33.99,6.8-43.32l.32-.63h-.32c-17.39,10.91-27.83,26.09-32.73,46.64-1.58,16.44-17.08,25.93-30.83,25.93-7.27-.32-14.23-3.16-19.13-8.22-3.64-4.11-7.43-11.54-7.27-23.56h-.47c-19.29,7.91-32.1,21.5-35.42,36.52-2.21,12.18,1.9,23.88,11.23,33.52,2.06,2.53,5.53,3.8,9.8,3.8,22.14.47,64.83-26.25,94.55-49.33m204.2,117.81c-21.5-.16-36.84-11.7-37.63-26.72,0-17.87,21.19-37.16,80.95-38.11,10.28-2.06,15.97-10.12,16.6-15.18l-4.74-2.53c-12.65.79-23.56,1.26-32.41,1.26-9.49-.32-18.03-.95-25.14-2.37-11.86-2.21-19.13-6.96-20.87-13.76l-1.74,1.42c-29.73,24.35-28.78,31.31-28.78,34.31v2.21l-.47,1.58-2.85,6.01c-17.71,30.51-23.72,56.13-15.65,70.52,5.06,8.85,15.02,13.75,29.09,14.07,21.35.16,46.8-10.12,66.41-27.35,2.21-4.11,2.85-6.17,3-7.91l-3.64-.48c-6.96,2.21-14.39,3-22.14,3m4.38,76.84c3.32-3.64,2.37-7.9,1.58-9.49l-6.01-5.38c-18.5,8.85-33.05,15.18-49.65,14.86-9.33-.16-18.02-2.21-27.2-6.32-2.53-1.58-9.33-5.53-13.44-6.32-2.53,2.21-4.27,4.74-4.27,12.96.32,32.73-2.85,73.05-27.67,122.06-7.91,19.76-8.54,35.58-1.58,45.85,4.43,6.96,12.97,11.07,24.03,11.07,24.03.48,58.5-17.08,82.06-57.24,3.79-8.85,3.79-15.65,3.16-20.08-13.12,10.75-23.56,15.65-33.52,15.5-15.02-.16-27.67-12.97-30.04-30.52-3-21.19,9.17-50.75,53.76-64.51l28.78-22.45Zm121.81,708.39l-6.64,4.74c-34.63,45.85-62.14,90.92-83.64,137.08-4.59,9.33-10.75,14.55-17.55,14.39h-1.58l-2.06-.47-4.74-3.8c-3.79-5.85-3.48-13.6,0-22.93,24.51-67.52,53.76-123.49,91.39-176.14,5.06-6.96,4.43-16.29,1.27-22.61l-2.85-4.27c-88.39,126.81-132.97,230.06-136.61,315.6.47,13.75,5.53,24.19,12.02,24.35,4.27,0,9.96-3.64,16.13-10.59,13.28-19.76,31.46-49.81,52.97-86.65l4.27-6.48c26.88-45.69,57.87-97.4,83.17-130.28,5.22-12.33,3-23.08-.16-27.83l-5.38-4.11Zm90.06,172.03c-3.64,0-8.22,2.37-11.54,6.96-27.35,60.4-60.72,131.24-107.04,200.96-8.06,11.86-19.61,18.5-31.15,18.34-10.59,0-20.87-5.85-26.88-15.66-10.12-15.65-10.12-38.74.47-62.61,31.62-75.74,72.1-148.94,128.7-230.37,4.59-10.12,5.06-20.08,1.42-26.09-1.74-3-4.9-4.9-8.38-4.9s-7.43,1.9-10.44,5.22c-64.04,90.44-108.47,165.23-135.19,228.63-20.08,48.38-19.76,96.61,1.58,128.86,11.07,17.08,26.88,26.72,43.64,27.35,18.18.16,36.52-11.23,52.02-31.78,43.48-71.47,79.53-146.73,110.05-211.56,4.59-11.07,5.38-21.82.79-28.46-1.42-2.21-3.95-4.9-8.06-4.9m-127.69,152.33c3.79,0,6.17-1.1,7.59-3.32l92.02-162.54c4.74-10.59,2.21-29.57-3.95-39.05-1.9-3.64-3.79-4.43-4.59-4.43-.16,0-3,1.58-5.85,7.91l-97.4,171.71c-4.59,8.38-5.69,15.49-2.21,21.34,3.32,5.06,8.85,8.38,14.39,8.38m108.55,230.99c24.03.48,46.64-12.49,63.72-37l138.67-214.09c5.53-5.85,7.27-12.01,4.74-17.87-2.69-6.33-9.49-10.75-16.29-10.91-5.69,0-10.44,2.53-14.7,7.43-16.44,23.4-33.05,51.55-49.17,78.27l-6.96,11.7c-26.41,43.48-52.65,88.39-81.43,121.12-9.96,13.12-24.19,20.87-38.58,20.55-12.17-.16-22.29-6.32-28.3-16.29-4.74-8.22-10.59-25.77,4.59-54.23,46.01-84.28,79.69-154.32,102.62-213.93,3.32-5.06,3.32-10.28.79-15.18-3.32-5.85-9.8-9.96-15.02-10.12-7.27-.16-13.91,6.17-18.03,17.24-19.92,57.87-50.91,122.54-97.24,203.65-18.82,34.15-21.03,69.25-5.85,95.97,12.49,20.56,33.52,33.68,56.45,33.68m141.51-298.32c7.91-11.07,5.85-16.13,3.48-21.82-1.74-4.43-3.48-9.33-1.74-15.34l-.95-9.01-4.43-.79c-3,0-4.9,1.42-7.12,5.69l-109.73,203.18c-10.12,21.35-5.85,29.09-5.06,30.83l5.53,2.85c6.01,0,13.28-4.59,18.34-12.02l101.67-183.57m-21.99,346.73c9.65,12.49,24.67,15.02,35.73,15.18,20.55.32,42.69-8.54,53.92-21.5,76.53-80.32,140.72-161.59,191.63-241.91,3.64-7.27,4.74-13.6,2.21-18.5-2.69-4.43-8.22-6.96-13.76-6.96-5.53-.48-10.59,1.9-14.55,5.69-56.92,82.38-116.37,156.85-181.04,227.37-8.38,9.96-17.71,12.17-23.08,12.17-9.33-.16-18.18-5.53-22.93-14.86-6.17-11.23-6.01-24.67.95-35.74,33.99-72.42,76.05-142.14,127.28-212.82,4.27-4.74,4.59-7.75,4.27-8.54-.63-1.26-4.59-3.48-11.7-3.48-7.59-.32-18.82,2.37-24.19,10.44l-9.17,12.97c-44.75,65.78-95.82,140.72-120.17,217.56-7.12,27.35-5.22,49.17,4.59,62.93m233.93-305.11c.95-4.9,0-9.8-1.58-12.65h-7.43c-47.43,59.45-95.82,127.76-143.88,202.54-4.11,7.43-4.11,12.97-2.85,15.81l3.79,2.21c1.11,0,3.79-.79,7.75-3.8,69.57-66.56,117.95-135.34,144.2-204.13m-44.71,305.03c110.21-34.15,198.75-165.23,269.59-270.85l10.91-15.81c3.16-5.22,3.32-10.75.63-15.97-3.16-5.85-9.8-9.96-16.29-9.96-3.32,0-8.22.79-12.17,6.64-61.35,86.49-117,158.11-174.87,224.37-7.27,5.38-12.33,7.27-17.08,7.27l-2.21-.16-2.06-.79-5.38-4.58-1.11-.95c-2.69-5.85-.79-13.92,4.9-21.98,32.73-49.49,75.1-104.04,111.95-151.16,3.16-4.43,3.16-7.75,2.69-8.85l-4.74-2.06c-4.11,0-11.07,2.06-16.29,8.22-79.85,88.23-133.76,160.65-168.71,228.48-6.48,15.34-4.74,21.34-3.16,23.88,1.74,2.69,6.64,4.43,13.91,4.58l9.49-.32Zm-243.28-829.12c-9.8-12.97-20.24-27.2-15.5-59.13.47-17.87.95-36.05,1.42-54.39.63-18.81,1.27-37.79,1.74-56.61l1.42-37.47c.63-8.54-1.42-15.97-5.69-21.03l-8.38-4.11c-4.9,0-9.65,6.17-11.86,16.13l-10.12,167.92c-2.37,33.99,13.76,65.78,49.49,100.09,4.43,2.21,7.43,2.53,9.01,2.53h1.9c.95-1.26,4.11-7.43-.79-32.73-2.69-7.27-7.12-13.6-11.86-19.92l-.79-1.26Zm129.56-152.77c-7.11,4.27-7.75,7.75-7.75,12.18,8.38,42.69,17.87,101.35,16.13,171.24-2.85,28.46-16.13,32.41-23.88,32.41-14.55-.16-31.78-16.44-49.17-45.22-20.87-51.86-19.61-133.61-15.5-206.81.47-6.64-2.06-13.12-5.69-17.39l-8.22-4.27c-6.01-.16-10.59,8.22-11.7,21.5-4.43,62.61-6.48,138.19,11.54,224.05,15.34,46.8,54.23,72.1,84.27,72.73,24.19.32,41.27-14.07,47.91-40.79,4.43-74.47-4.43-145.31-27.35-210.13-2.85-6.01-7.12-9.01-10.59-9.49m-40.92,154.49c1.58,6.64,5.38,9.01,8.22,9.01,2.06,0,5.69-.48,6.48-6.8l-7.75-179.78c-1.74-8.38-6.48-13.28-8.7-13.28-1.11,0-4.43,3.79-6.17,11.86-8.38,74.15-5.85,132.82,7.91,178.98m230.23,102.68c-44.59-.79-71.47-28.14-80.8-83.33l-22.29-133.29c-3.79-14.39-11.23-19.61-16.29-19.76l-7.91,3.64c-4.11,4.11-6.17,10.12-6.17,17.39l25.93,175.19c4.43,41.74,38.74,66.09,105.62,74.47l4.27.32c32.26.32,54.39-7.27,67.99-24.19,3.64-13.12.95-20.71-3.48-34.31-9.49-28.46-17.39-48.86-26.41-71.31-12.33-31.78-23.72-61.51-32.26-92.65-3.79-7.75-9.33-13.28-14.7-13.28l-6.32,3c-2.69,3.16-3.48,7.27-2.69,11.7l37.16,132.82c7.43,19.92,8.22,33.2,2.37,42.69-4.27,6.8-12.17,10.59-24.03,10.91m-64-225.28c-1.26,0-4.59,0-4.9,9.33,4.43,45.85,9.01,96.93,20.08,144.68,4.27,10.59,11.38,17.71,17.39,17.71l5.69-2.85c1.74-2.37,2.53-6.01,1.26-10.43-12.65-47.75-20.55-102.78-26.09-145.31-1.42-7.43-8.7-12.97-13.44-13.12m255.09,230.45c12.02-6.32,19.13-13.75,21.66-22.77,3.48-10.91-.32-24.82-9.96-42.37-27.35-44.11-50.12-89.65-68.94-135.66-2.21-5.53-5.69-8.54-9.01-9.01-5.53,4.43-6.17,8.7-4.43,14.55,13.76,41.74,32.26,83.64,54.23,124.75,6.96,12.81,7.43,25.3,1.74,35.1-5.06,8.07-14.23,12.81-24.51,12.65-11.86-.16-23.72-6.96-32.41-18.97-22.45-37.32-43.96-84.75-65.14-140.25-1.26-4.11-3.64-6.17-5.38-7.12-3.48,2.53-6.32,6.8-3.95,18.5l49.33,140.88c15.02,25.77,33.84,38.58,57.24,38.9,11.7.16,24.98-3.16,39.53-9.17m-91.03-188.06c-.63-4.43-4.11-7.9-7.59-8.22-6.17,3.79-7.91,7.27-7.91,15.81,6.17,35.73,22.29,73.68,49.33,115.27,3.32,4.11,7.12,6.64,10.75,6.64l3.64-1.74c2.69-3.32,2.53-8.7-.16-13.92-23.08-42.37-38.58-78.74-48.07-113.84m79.83-5.65c-5.53,4.43-5.53,7.27-5.38,11.07,11.54,37.16,30.67,70.68,56.6,98.66l6.01,1.11,4.59-1.74c1.42-2.69.47-7.43-1.9-11.7-22.77-32.41-40.16-61.66-54.39-91.71-1.58-3.64-3.79-5.38-5.53-5.69m126.38,137.35c5.69-10.75,3.48-20.87-7.91-34.94-24.19-26.4-47.28-56.92-70.84-90.44-2.69-4.9-6.01-7.75-9.17-7.75l-3.16,2.06c-2.69,4.11-1.42,12.02,3.16,20.56,10.44,20.08,27.51,43.16,50.28,68.62,5.22,7.75,10.28,16.6,8.85,25.3-1.42,5.22-4.43,9.17-9.01,12.33l-22.61,17.23-1.42,7.43c2.06,4.58,9.01,8.38,16.13,9.33,19.13-2.84,33.84-12.65,45.7-29.73m11.73,55.44c-3.79-6.01-10.12-9.17-16.76-9.17-6.8-.16-12.49,2.53-14.7,6.96-2.37,4.43-1.11,10.43,3,17.55l.79,1.11c31.46,55.97,44.43,79.06,40.79,132.97-1.9,28.78-11.86,57.55-23.72,90.76l-.63,1.42c-6.17,16.92-13.44,37.47-20.71,61.35-7.27,19.29-16.92,21.66-21.98,21.66s-9.49-2.37-12.33-7.11c-4.74-5.85-5.85-14.55-2.85-23.08,5.22-24.98,12.65-48.54,18.97-69.57,9.8-31.62,18.97-60.88,18.97-89.02-2.53-56.92-12.02-83.64-41.74-113.21-4.43-5.38-9.49-7.91-15.18-8.22-5.06,0-10.12,2.53-12.49,6.8-3.16,5.22-3.16,11.23,0,17.71,50.75,69.1,47.75,151-10.12,281.44-5.69,15.97-5.85,29.25-.79,40.32,6.17,13.28,20.4,24.03,43.32,32.1,10.59,2.69,20.4,4.58,27.83,4.74,18.82.32,20.24-8.54,20.55-12.02.47-34.63,4.59-59.93,12.49-77.32,6.96-19.29,15.34-36.84,21.98-51.55,12.17-26.56,23.72-50.75,30.83-80.79,7.91-60.08,3.16-108.15-45.54-175.83m-116.18,246.36c14.39-69.57,22.29-132.97-19.13-201.12-4.59-7.27-11.23-11.54-17.55-11.86-4.9,0-9.65,2.37-12.49,6.64-3.95,5.53-3.95,14.07.47,22.77,44.43,87.44,32.1,183.89-37,295.52-8.7,11.7-20.4,17.87-32.1,17.55-9.96-.16-19.13-4.9-25.3-12.96-7.91-10.28-10.28-24.51-6.48-40.32,25.14-94.24,24.67-171.56-.79-242.86-3-6.8-12.02-10.12-19.13-10.28-6.17,0-11.38,2.21-14.07,5.53-2.69,4.27-1.42,9.33-.32,13.28,19.61,78.11,18.66,148.94-2.85,223.26-1.58,6.01-3.64,11.39-5.69,17.39-5.69,15.5-10.44,29.89-7.75,46.49,5.38,30.04,33.36,51.7,68.46,52.18,19.92.47,39.53-6.64,55.02-19.76,40.64-52.34,65.93-105.3,76.69-161.44m-116.89-201.9c-3.16,3.95-3.48,8.86-.95,14.55,30.04,45.38,31.62,119.22,4.27,231.32-3.64,13.6-.63,18.5,0,19.61l3.95,2.06c3.48,0,7.12-1.74,9.49-5.53,41.74-89.65,45.38-170.92,10.44-255.51-3.32-7.27-9.17-11.7-16.29-11.86-4.59,0-8.38,2.06-10.91,5.38m-133.34,23.32c-2.85,3.01-4.9,7.27-4.9,12.97,16.6,86.02,11.7,160.01-13.12,219.78-12.65,17.71-26.4,27.2-40.79,26.88-9.49-.48-18.34-4.9-25.3-13.12-11.7-14.23-8.38-35.1-5.06-53.29.63-6.16,1.26-11.7,1.74-16.13,6.01-79.37,2.53-146.89-11.07-201.44-1.42-9.33-9.49-10.59-12.97-10.91-5.53,0-11.38,2.37-15.34,6.48-3.64,3.8-4.9,8.38-4.9,14.07,8.7,75.74,4.9,158.59-10.91,253.77,6.17,53.76,44.27,74.15,77.95,74.47,37.32.79,81.27-23.24,91.71-70.36,20.71-89.34,20.71-167.44,0-232.11-2.21-9.65-10.44-14.39-17.55-14.39-3.79,0-7.12,1.27-9.49,3.32m-59.58-13.05c6.32,70.2,5.38,137.4-3.16,199.38,1.42,12.49,8.85,17.55,15.65,17.55,5.53.16,12.81-2.84,15.18-12.17,7.75-68.3,4.43-136.93-8.54-202.39-2.06-8.06-7.43-11.07-11.38-11.07l-5.53,2.05-2.21,6.64Zm-192.27-69.05l-7.75,4.59c-51.23,100.72-67.04,175.98-49.81,236.54,20.56,43.96,49.96,70.52,78.11,70.83,14.7.47,28.46-6.48,39.84-19.61,37.95-68.46,37.79-154.16,37.47-229.9.32-5.69-.95-9.8-3.95-12.81-2.37-2.85-6.8-4.9-10.91-5.06-7.11,0-15.34,3.79-17.39,14.86.79,50.28-.16,106.1-16.76,169.18-5.85,15.34-18.18,24.35-32.41,24.19-17.39-.32-32.26-13.75-37-34.31-4.27-56.45,4.11-111.31,27.35-178.35,2.85-15.65,1.9-32.25-2.85-39.53l-3.95-.63Zm23.35,187.54c13.12-46.96,18.97-91.23,20.71-153.37,0-6.01-3.64-9.49-5.69-9.65-2.53-.16-6.64,3-9.49,14.07-3.95,46.8-10.44,91.23-19.76,139.3,0,5.06,3,13.44,6.17,13.44l8.06-3.79Zm-121-266.35s-2.53.63-6.64,4.75c-45.38,56.76-52.65,116.53-21.82,181.67,7.12,8.54,14.23,13.28,20.71,13.44,3.79,0,8.22-1.74,11.86-4.59,29.73-36.37,48.86-76.84,56.61-120.48,4.9-15.65,0-21.5-8.54-24.98-8.22-5.53-14.07-7.9-18.97-8.06-4.43,0-10.91,0-14.86,4.74,0,0-17.71,43.96-7.59,42.85,2.37,1.58,7.12-3.64,11.07-9.96,2.69-3.8,12.49,4.9,11.23,10.91-2.69,13.75-12.81,45.22-29.25,46.64-3,1.42-6.96,2.21-10.28,2.21-4.43,0-14.86-2.06-17.71-17.39-.63-23.72,6.64-41.11,13.44-57.39l1.11-1.58c6.48-16.29,13.12-31.78,12.81-52.18-.79-7.43-2.53-10.12-3.16-10.59m-72.95-29.19c-13.6,5.38-24.51,19.29-35.26,33.05-12.65,16.29-26.09,34.47-45.85,36.05-4.59,0-5.06,1.58-5.69,2.06l3.32,9.17,31.47,39.84c6.8,3.95,13.12,6.01,18.97,6.32,7.43,0,12.81-3.64,18.18-11.86,5.69-8.85,5.53-10.75-1.11-15.18-23.88-24.03-3.79-46.8,12.33-65.14,7.59-9.01,14.39-16.44,18.03-23.56,2.06-3.95,3.16-6.48,1.74-8.38-.95-2.37-4.27-3.8-8.22-3.8l-7.91,1.42m-92.5-4.71c-9.17-.16-18.82-6.32-23.72-15.49-5.22-8.85-4.9-19.92.63-28.93l38.11-40.16c3.32-5.22.63-10.59-.32-12.18-2.69-5.06-7.75-8.7-13.12-8.7l-7.12,2.69c-23.4,20.71-45.69,40.16-78.42,42.06-8.54,0-10.28.79-11.38,1.9-.79,1.11-1.9,4.59-.47,14.39,8.22,23.72,24.03,38.58,40.95,54.23,10.91,10.91,21.03,20.87,30.99,33.52,5.06,4.27,10.44,6.64,16.13,6.64,6.01.16,12.17-2.37,19.61-8.06,21.35-16.92,40-35.89,57.24-58.03,2.53-3.48,2.69-7.75,1.11-12.33-1.42-3.48-5.22-7.43-10.44-7.43l-7.75,1.9-38.26,29.41c-3.95,3.16-8.54,4.58-13.76,4.58m-81.84-150.7c-9.64-.47-17.87-6.48-22.14-16.44-5.85-12.97-5.22-33.52,9.01-49.49l36.21-29.57c7.75-6.01,9.49-15.34,5.85-30.36l-1.11-3.8c-25.3,18.5-47.12,34.31-72.57,46.01l-6.96,2.69-2.53.79c-4.11,1.58-10.91,3.8-13.28,5.85-2.37,3-3.32,8.22-2.37,15.18,3.64,37.63,12.02,68.94,23.72,92.97,10.75,16.29,22.45,24.67,35.42,24.98,16.92.16,37.16-12.02,61.51-37,5.53-7.43,9.49-18.5-9.33-35.57-5.06-5.06-7.59-5.22-8.22-5.22-2.06,0-4.27,1.58-6.96,5.53-9.01,9.01-17.71,13.44-26.25,13.44"/></g></g></g></svg>