<svg xmlns="http://www.w3.org/2000/svg" xmlns:xlink="http://www.w3.org/1999/xlink" viewBox="0 0 1680 1050"><defs><style>.cls-1{fill:none;}.cls-2{clip-path:url(#clippath);}.cls-3,.cls-4{fill:#f8f2e9;}.cls-5{fill:#e3d1b0;}.cls-6{fill:#fff;}.cls-7{fill:#9f2242;}.cls-8{fill:#dec69b;}.cls-9{clip-path:url(#clippath-1);}.cls-10{clip-path:url(#clippath-3);}.cls-11{clip-path:url(#clippath-2);}.cls-12{fill:url(#Degradado_sin_nombre_94);}.cls-12,.cls-13,.cls-14{mix-blend-mode:multiply;}.cls-13{fill:url(#Degradado_sin_nombre_96);}.cls-14{fill:url(#Degradado_sin_nombre_97);}.cls-15{fill:url(#Degradado_sin_nombre_91);}.cls-16{fill:url(#Degradado_sin_nombre_80);}.cls-17{fill:url(#Degradado_sin_nombre_30);}.cls-18{fill:url(#Degradado_sin_nombre_38);}.cls-19{fill:url(#Degradado_sin_nombre_34);}.cls-20,.cls-4{opacity:.5;}.cls-21{fill:url(#Degradado_sin_nombre_7);}.cls-22{fill:url(#Degradado_sin_nombre_2);}.cls-23{fill:url(#Degradado_sin_nombre_8);}.cls-24{isolation:isolate;}.cls-25{fill:url(#Degradado_sin_nombre_38-2);}</style></defs><g class="cls-24"><g id="Capa_1"><g><g><g class="cls-10"><path class="cls-4" d="m632.71,423.31c1.45-20.55,6.26-40.8,14.38-60.08.8-1.36,3.02-2.35,5.34-2.28,1.36,0,2.44.43,2.99,1.11v2.34c-6.54,16.17-10.95,34.84-13.27,55.52-1.17,9.87.59,22.03,5.59,38.08,1.67,9.1,1.05,20.58.4,29.53.12,3.95,1.94,5.8,3.64,5.8,1.76.06,3.64-1.54,3.89-6.11.83-11.23,1.17-20.89,1.45-29.44l.03-.89c.52-15.86.93-28.36,4.07-40.8,1.54-6.67,7.99-16.54,19.1-29.41,5.09-7.96,8.46-15.18,10.58-22.77.52-1.7.93-3.52,1.42-5.52.59-2.44,1.17-4.57,1.82-6.7l3.92-12.59c.65-.99,1.73-1.2,2.53-1.2,1.98.03,4.1,1.2,5.37,2.81.56.86,1.3,2.22.93,3.8l-10.74,36.41c-2.44,6.57-7.62,12.47-13.11,18.73l-.25.28c-2.99,3.36-5.65,6.42-8.15,9.75-4.51,5.89-5.15,10.43-6.14,17.25-1.79,12.44-3.21,30.18-4.54,55.79l-7.28,36.78c-1.82,11.88-1.27,25.21,1.6,40.83.37,5.46-.37,7.25-.89,7.84l-.8.22c-.62,0-2.47-.4-6.33-4.14-10.21-12.44-9.66-54.59-9.16-88.5-.83-10.55-2.93-19.41-4.84-27.49-2.1-8.7-4.1-16.91-3.55-24.93m36.63-55.43c-.19,2.35-.8,3.92-1.76,6.14l-4.66,10.95c-.43,2.44-.15,3.3-.06,3.61l.28.09,1.23-.4c9.6-9.26,15.34-20.52,17.37-34.44.15-1.05-.06-1.45-.19-1.57l-.96-.25c-.65,0-1.42.12-2.35.4-3.02.8-5.25,2.59-7.1,5.59-.74,1.3-.99,2.01-1.17,3.46l-.65,6.42m43.96,97.49c-1.11-1.11-1.45-2.9-1.33-5.28,1.14-18.11,5.15-35.12,12.37-52.09,1.14-2.5,1.02-3.64.93-4.14l-.52-.09c-1.82,0-3.7,1.36-5.18,3.7-5.86,8.7-10.43,25.49-13.73,51.38-3.64,36.07-3.58,50.21-3.09,64.9-.12,2.72.43,4.88,1.42,5.99l1.05.49c.93.03,2.78-1.42,3.76-7.07l3.27-21.85c.86-5.77,2.59-11.33,5.15-16.88,10.03-19.87,14.9-33.39,18.52-51.69l.22-1.11c.19-1.51.56-2.99.77-4.51,1.08-6.97,2.13-13.52,6.48-19.81,3.98-5.77,9.97-10.86,18.36-17.87l1.17-.96c1.73-1.42,3.76-3.21,5.65-5.68,4.88-6.2,9.32-14.16,13.15-23.85.8-2.78.49-5.83-.99-7.68-.59-.86-1.23-1.27-2.01-1.3-1.54-.03-3.58,2.19-5.28,5.92-8.52,18.36-18.79,31.82-30.4,40.09-6.02,4.78-8.58,10.4-11.66,20.4-1.39,4.51-2.25,8.95-3.15,13.55-3.49,18.36-6.39,28.58-9.07,32.09-.74,2.47-2.38,4.17-4.1,4.17h-.34l-.31-.12-1.11-.71Zm41.24-111.08c-2.16,9.63-5.49,17.56-10.28,24.04-.68,1.36-.68,2.22-.59,2.65l.52.28,1.88-1.02c7.44-6.63,12.65-15.43,16.08-26.91l-.15-1.14c-.37-.49-1.42-1.08-2.87-1.14-1.79,0-4.1.77-4.6,3.24m-71.49,112.92c-1.14-1.2-1.54-3.18-1.3-5.96,1.3-17.81,4.72-33.98,8.3-48.79.19-2.44-.06-3.49-.22-3.86-.52.09-1.6.71-3.92,3.46-3.39,4.44-5.8,9.69-7.16,15.65-2.31,10.92-3.8,22.84-4.75,38.42-2.44,28.05-2.31,52,.28,71.04.74,5.12,2.41,7.13,3.3,7.13,1.17,0,3.09-2.47,3.73-8.12.83-7.13,1.54-15.68,2.31-29.69.59-6.51,1.94-12.41,4.29-17.43,7.56-17.96,11.76-38.57,15.77-58.57l.12-.28c.86-4.54,1.82-8.98,2.72-13.39l.06-.37c1.48-9.41,5.59-16.88,12.68-22.84,10.15-9.29,17.81-23.02,24.01-43.26.68-2.16.96-3.61.59-5.86-.43-2.93-1.6-4.47-2.47-4.51-.83,0-2.72,1.36-4.04,6.57-9.01,22.4-17.06,36.26-27.22,46.32-6.51,7.28-9.91,14.38-14.01,29.07l-6.08,37.59c-.28,1.73-.52,3.21-1.42,4.91-1.42,2.99-2.87,3.58-3.92,3.58h-.31l-.34-.03-1.02-.77Zm25.16-90.38c-.93,1.48-1.51,2.56-1.79,4.04-.22,1.36-.12,1.94,0,2.13l.56.25h.03c.8-.06,1.27-.46,2.04-1.2l.22-.15c8.24-7.47,14.38-19.38,18.02-35.39.25-1.11.12-1.98-.34-2.56-.4-.49-1.11-.74-2.04-.74-1.82-.06-4.17,1.14-5.74,2.87-1.2,1.33-1.54,2.53-2.04,4.69l-1.85,9.54c-1.17,4.75-3.49,10.12-7.07,16.54m40.61,88.84c2.41-7.62,6.08-19.1,12.37-33.94,5.83-13.52,17.13-24.38,33.51-32.28,9.41-4.6,17.31-12.9,24.22-25.34.83-1.42.99-1.97.62-3.33-.52-2.5-2.59-4.97-4.07-5.03-1.08.28-1.42.96-1.88,1.88-2.72,5.06-4.91,8.58-7.59,11.88-6.79,7.41-16.23,14.6-28.64,22-8.36,4.57-14.53,12.16-19.6,23.88-1.17,2.72-2.72,4.29-4.23,4.23h-.4l-.31-.12-.89-.59c-.93-1.08-1.11-2.68-.71-5.03.89-5.15,2.93-10.86,6.02-17.16.89-1.7,1.27-2.41,1.2-3.83-.12-1.51-.43-1.76-.43-1.76-.06,0-1.02.09-3.09,2.13-9.44,10.37-14.66,31.88-16.69,69.52-.12,2.44-.25,4.04.28,5.62.28.77.86,2.07,2.1,2.13.8.09,1.79-.52,2.68-1.54,1.36-1.51,2.07-3.21,2.81-5.46.83-2.35,1.57-4.63,2.41-7.1l.31-.77m50.81-104.89c-.8,0-2.84.19-3.8,1.88-3.89,7.22-7.07,12.78-13.02,18.05-1.27,1.14-1.39,1.91-1.2,2.13l.65.19,1.82-.4c7.78-3.86,13.15-10.34,19.16-19.56l.06-.74c-.4-.71-1.88-1.45-3.67-1.54m34.31,38.41c2.72-.96,4.66-1.7,6.57-2.84,4.47-2.62,8.02-6.08,10.83-10.55.93-1.82,1.08-3.83.34-5.03-.34-.71-.99-1.02-1.7-1.02s-1.42.28-2.16.8c-3.92,3.73-7.59,6.94-10.92,9.81-2.47,1.85-5.71,3.86-10.28,6.3-5.65,2.07-10.25,3.83-14.01,5.49-2.56,1.23-4.17,2.07-6.14,4.1-3.76,3.46-7.19,7.59-10.46,12.5l-.34.37-.22.19-1.54.68-.28.09c-.74-.03-1.6-.46-1.98-1.23l-.15-.37-.03-.43.37-1.7,3.98-7.31.12-.8h-.49c-3.43-.03-6.6,1.88-7.5,3.7-9.47,19.38-14.97,32.59-16.85,40.39-.4,1.51-.25,2.75.4,3.58.4.62,1.05.89,1.88.89,1.05.06,2.19-.52,3.02-1.54,5.89-6.7,10.86-13.58,15.61-20.24l1.08-1.45c6.11-8.42,11.91-16.39,18.82-23.05,2.96-2.96,5.77-4.78,9.84-6.57,3.02-1.42,6.73-2.87,11.02-4.38l1.14-.37m-138.96,150.57c-2.65,2.25-3.18,5.22-1.23,7.87,8.58,7.13,17.68,10.77,26.69,10.89,6.94.15,14.1-1.76,21.32-5.83,31.82-26.2,64.59-52.95,97.24-79.31,1.79-1.54,2.72-2.44,3.39-4.54.8-2.01.86-3.89.22-4.78l-.68-.4c-.65,0-1.51.31-2.31,1.02-31.11,25.12-64.53,52.06-98.16,78.44-7.41,5.65-14.66,8.39-21.69,8.3-4.2-.09-8.33-1.08-12.28-3.24-3.52-2.59-2.78-5.09-2.25-6.08.77-1.54,2.68-2.75,4.66-3.89l1.48-.96,126.15-92.58c3.33-2.01,4.47-5.65,4.04-7.41-.25-.74-.52-.74-.71-.74-.34,0-.99.12-2.25.99-42.18,29.13-81.78,57.77-120.94,87.33-5.55,4.04-12.59,8.64-22.68,14.9m142.01-81.7c2.99-2.78,3.52-5.37,3.24-6.33l-.77-.49-1.51.59-112.88,87.33c-1.64,1.42-2.01,2.65-1.79,3.12.12.34.62.59,1.42.59.89,0,1.88-.25,2.87-.65,3.89-1.79,8.76-4.81,14.44-8.95l94.98-75.2Zm-78.19,88.57c-.65.74-.46,1.23-.37,1.39.28.77,1.36,1.33,2.68,1.33,1.33.03,2.62-.31,3.98-1.05,2.93-1.82,6.23-4.23,9.97-7.5,24.13-20.46,47.31-40.7,68.57-60.27,2.04-2.01,2.28-3.67,2.07-4.32l-.62-.34c-.46,0-1.27.22-2.25.9l-73.41,61.47-10.62,8.39Zm67.33-168.59c4.44-2.1,8.39-5.06,11.66-8.92l.31-1.3c-.15-.22-.56-.46-1.45-.46-1.17,0-2.59.25-4.04.77-2.35.77-3.92,1.82-5.65,3.67-1.39,1.67-2.5,3.33-3.15,4.97-.19.74-.19,1.17-.19,1.39l.68.19,1.82-.31m-70.23,187.13c2.72,0,5.65-.37,8.95-1.2,4.38-1.39,8.42-4.94,14.66-10.49,20.68-18.3,40.55-37.06,62.64-57.77l4.32-4.41c1.3-1.39,1.94-1.91,2.1-2.78.25-1.02.31-1.85.06-2.38l-.83-.06c-.56-.06-1.14.09-1.88.74-9.6,8.24-18.42,16.39-27.8,24.96l-1.2.96c-12.47,11.48-26.54,24.44-44.59,39.56-5.62,4.51-10.92,6.45-16.66,6.36-1.6-.06-3.18-.28-4.94-.56l-1.14-.31c-1.17-.25-1.76-.37-2.22-.37l-1.76.31c-1.08.56-1.82,1.3-1.91,2.07-.15.65.28,1.33,1.2,2.16,3.21,2.07,6.82,3.09,11.02,3.21m99.3-71.19c.49-.74.56-1.45.4-1.97l-1.54-.15c-3.76,2.72-6.97,6.36-9.66,9.26l-1.11,1.11c-.99,1.14-2.04,2.1-3.02,3.24-15.21,15.34-33.08,33.05-49.93,47.4-.8.74-1.14,1.23-1.27,1.51l.93.4c2.9,0,7.28-2.59,13.02-7.71,18.98-18.08,36.01-35.46,52.18-53.08m-72.99,74.13c4.1.09,8.55-1.17,13.73-3.64,7.28-3.61,12.03-8.02,17.47-13.39,18.18-17.71,32.25-31.85,42.92-43.17l.43-.34c1.3-1.45,2.19-2.35,2.72-3.49,1.23-2.41,1.36-4.47,1.14-5.34l-.56-.06c-.43,0-1.02.31-1.85,1.08-18.3,19.07-37.4,37.86-56.87,55.79-6.7,5.15-13.45,7.71-20.98,8.02-1.85,0-3.12,1.3-3.3,2.53-.12.71.12,1.14.89,1.42,1.27.31,2.81.52,4.26.59m27.91-5.89c6.51.12,12.04-2.41,17.81-8.02l26.04-29.93c.4-.74.49-1.57.15-2.19l-1.02-1.2-1.36.65-6.48,7.31c-12.37,14.07-24.04,27.25-32.96,28.73-2.25.34-3.7,2.53-3.61,3.67,0,.56.37.86,1.33.99h.09Zm326.91-320.29l-.22-.09c-1.27-.46-2.38-.74-3.58-.74-1.42-.03-2.81.31-3.98.93-.8.34-1.57.53-2.19.53-1.14-.06-2.19-.43-2.99-1.08-3.05-3.55-6.26-6.08-9.72-7.62-1.67-.46-3.33-.77-4.88-.8-3.55-.06-6.97,1.17-10.43,3.83-1.3,1.54-1.76,2.93-1.23,4.07.4,1.23,1.67,1.94,3.92,2.28,1.3-.09,2.59-.12,4.01-.09,3.36.06,6.42.49,10.31,1.42,9.44,2.68,13.86,8.95,13.55,19.16v.25c.09,1.67.22,6.11,3.55,6.17,1.3,0,2.72-.77,4.54-2.41,4.54-4.51,6.76-9.04,6.6-13.39-.22-4.29-2.62-8.46-7.25-12.41m11.54,8.27c2.99,4.91,2.75,8.76,1.6,12.96-6.3,12.84-15.12,18.73-27.9,18.55h-.65c-3.24-.06-5.68-.99-6.2-2.35-.56-1.27.93-2.9,1.7-3.7,6.33-5.22,8.7-11.63,6.6-17.71-2.25-6.39-9.07-10.65-17.44-10.77-1.82-.03-3.67.12-5.22.46-4.04-.15-7.38-1.17-10.37-3.02-5.46-4.47-10-6.48-14.5-6.57-2.22,0-4.29.4-6.82,1.39l-.25.12c-2.16,2.28-2.07,4.84.25,7.16,1.79,1.94,3.55,2.41,5.99,3.02,5.83,1.67,9.87,3.46,11.7,5.18.46.74.74,1.42.62,1.76-.12.19-.56.59-3.02.99-1.42.25-2.65.46-4.04.43-1.33,0-2.68-.22-4.17-.71-7.22-3.05-13.95-7.28-21.85-13.86-2.31-2.07-2.38-3.58-.34-6.02,6.6-5.74,12.62-8.3,19.29-8.18,2.47.03,4.97.4,7.62,1.17,4.04.93,7.59,1.48,10.62,1.48,2.68.09,5.25-.22,7.53-.96l15.49-4.6c2.56-1.02,4.69-1.48,6.82-1.42,2.41.03,4.44.83,6.08,2.38l.96.96c-.15.12-.62.49-1.7,1.2-1.45,1.3-2.01,2.62-1.54,3.76.52,1.73,2.78,2.16,4.63,2.38,1.17-.06,2.44-.22,3.58-.15,2.28.03,3.52.46,4.72,1.7,4.35,4.07,7.9,8.52,10.21,12.96m-27.27-33.9c1.05-.71,1.64-1.67,1.7-2.68.12-1.73-1.08-3.83-3.49-6.02-1.94-2.16-4.54-4.01-8.49-6.88l-3.24-2.25c-5.4-3.92-12.74-10.43-14.19-22.25l.09-.71v-1.97c-4.01,2.9-5.18,7.04-3.67,13.55,1.02,3.83,2.1,5.12,4.29,7.68l1.6,1.85c3.27,3.89,5.49,8.21,6.51,12.81,1.14,4.94,2.44,8.12,3.8,9.47,1.05,1.2,2.04,1.82,3.05,1.82l1.11-.15c4.75-1.11,8.21-2.81,10.92-4.26m-27.09-14.19c-1.05-.18-2.78.4-4.04,2.84-3.52,7.38-1.54,13.39,6.67,17.44.96.43,1.76.56,2.47.49,2.53.31,4.14-2.44,1.27-3.27-7.71-3.58-10.09-7.07-4.91-16.05.56-.83-.25-1.6-1.45-1.45m-11.62-17.61c.34-.09.46-.56.52-1.79-.62-6.48-1.6-14.57-3.95-19.47-.49-1.33-.89-1.48-.93-1.48l-.77.46c-3.55,3.18-5.31,7.22-5.31,12.37.34,1.39,1.54,2.07,2.1,1.79,1.05-.53.62-4.47,2.56-4.01,3.12.65,2.87,5.15,3.36,7.93.37,1.94,1.05,4.26,2.41,4.2m.87,13.15c1.33,0,2.84-.96,3.21-2.07.31-.8,0-1.48-.8-2.16l-2.41-1.73c-5.49-3.98-10.92-8.12-15.52-11.88-6.14-7.71-7.78-16.11-5.55-27.34v-.09s-.28.15-.28.15c-3.92,3.09-6.02,9.69-5.22,16.26.74,6.6,5.06,19.04,25.92,28.79l.65.06m-25.75,1.1c-2.31-1.7-4.38-3.43-3.76-4.84.31-.65.99-1.36,5.68.74,3.27,1.57,17.03,10.31,20.31,11.14,1.54.62,1.76-.99,1.76-1.08,0-.31-.28-.99-1.67-2.07-3.76-2.99-24.59-13.82-29.62-18.64-.74-.59-1.54-.89-2.1-.93-.4,0-.93.09-1.64.99-2.56,5.09-.83,10.03,5.34,15.03,12.62,9.07,22.31,14.38,29.53,16.11h.25s.8-.12.8-.12c0-.03,0-.46-.52-1.45-.96-1.57-4.17-3.73-8.33-5.43-5.37-2.28-10.09-5-16.02-9.44m28.72,28.32c5.68.8,1.91-2.56.59-3.33-1.91-1.2-4.63-2.62-7.19-3.58-5.68-2.1-15.06-7.38-21.2-9.81-5.37-2.19-8.64-2.04-10.68-1.82-3.46.28-5.77,2.25-6.23,3.98-1.48,7.13,3.21,11.97,15.61,14.84h.43c2.84.09,4.04-.68,4.1-.89,0-.06-.15-.46-.86-1.02l-12.41-5.52c-4.29-2.16-2.04-6.42-1.11-6.97.62-.49,2.1.09,3.21.18,5.8.56,25.95,10.83,28.88,12.31,2.28,1.02,4.6,1.33,6.85,1.64m-39.1-55.45c2.41,2.01,3.52,3.09,3.43,1.14,0-1.7-1.02-3.36-2.93-5.31-1.48-1.23-2.78-3.55-3.86-6.97l-1.98-7.16c-.52-.96-1.23-1.54-1.76-1.57l-1.67.77c-3.43,2.28-4.78,6.45-5.37,9.54-1.23,6.79.22,14.81,3.52,19.16.52.71.99.99,1.23.99l.8-.43c1.67-.9,3.18-2.16,1.67-4.41-1.73-2.22-4.38-9.2-2.47-12.81,2.31-4.41,5.83,4.01,9.38,7.07m-19.32,9.27c.4-.18,1.39-1.39,1.17-2.28-.06-.34-.37-.93-1.51-.93h-.25c-2.44.06-20.86,7.41-31.78,12.71l-1.67.77-1.6.65c-1.33,0-1.94-.37-2.68-1.05l-.34-.8c.12-1.02,2.07-2.19,2.93-2.72l.49-.31c10.34-6.97,20.37-9.91,33.48-13.3l.46-.4-.15-1.14-.12-.22v-.12l-.34-.43-1.33-.19c-9.29,1.23-20.06,3.12-31.85,10.28-2.31.83-4.63,1.23-6.85,1.23-2.16-.06-3.92-.37-5.92-1.11h-.56s-.37.49-.37.49c.93,5.86,3.43,10.77,7.65,15.15l.12.12c.71.77,1.39,1.42,2.04,1.45l1.85-.56c5.62-2.44,10.83-5.12,15.37-7.59,1.39-.68,2.68-1.39,3.89-2.04,6.36-3.43,11.79-6.39,17.87-7.68m13.14,57.85c-.83-.06-1.91.03-2.38-1.48-.52-2.07,1.3-7.5,2.16-8.89l-.37-.46c-4.04,3.33-6.3,7.71-5.92,12.25.62,2.75,2.75,4.57,5.25,4.63,1.05.03,2.22-.31,3.18-.93,2.62-1.76,4.51-4.97,5.65-9.6.15-.77,0-1.6-.49-2.16l-1.08-.65-.99.65c-1.11,2.75-3.61,6.76-5,6.63m-16.83-8.83c-2.65-.4-4.75-2.9-5.15-3.83-.56-1.51-.25-3.21.83-4.75,2.41-3.05,5.71-5.31,9.2-7.71l.22-.22c2.62-1.76,5.09-3.52,7.34-5.55l.25-.25-.31-.09-.83.19c-7.78,3.36-17.44,8.12-22.22,14.66-1.08,1.7-2.53,5.06-.59,7.71,3.98,4.44,7.56,6.7,10.58,6.73,1.39.06,2.75-.37,3.95-1.3,3.89-3.58,5.46-8.52,6.51-12.84.34-1.11.34-2.04.12-2.5l-.68-.09-1.42.77c-1.2,2.25-5.03,9.07-7.81,9.07m12.87-31.11c-2.78-.09-12.04,4.63-19.47,8.39l-.19.03-1.67.93c-3.06,1.57-6.79,3.52-9.17,3.49l-1.45-.4c-1.48-1.08-2.56-3.18-2.72-3.58-.62-2.47,1.23-3.92,2.87-5.25l.46-.4c8.12-6.6,18.73-11.6,25.92-14.1,1.02-.34,1.64-.74,1.82-1.14l-.22-.8-.09-.22v-.12s-.06-.06-.06-.06l-.68-.09v.06c-17.65,4.88-29.9,11.73-36.57,20.4-2.56,3.98-.86,8.7,1.98,11.23,1.36,1.26,2.56,1.88,3.86,1.91,1.17,0,2.44-.37,4.26-1.23,3.21-1.51,30.77-14.84,31.85-18.27v-.43s-.74-.34-.74-.34Zm-265.91-20.55c-.19-.49-.8-.8-1.7-.83-1.05,0-2.22.37-3.46,1.11-32.53,22.59-78.01,63.72-109.76,130.87-3.46,11.29-10.28,20.95-20.24,28.48-1.64,1.2-2.13,2.1-2.04,2.47,0,0,.4.99,4.01,1.82,2.22.22,4.47.34,6.6.4,22.28.34,39.59-8.36,52.92-26.51,38.54-58.23,72.27-96.65,102.98-117.54,2.38-2.16,2.99-5.34,2.65-6.73l-.86-.28c-.62-.03-1.23.34-2.22,1.23-32.68,25.52-70.02,56.97-101.28,107.6-8.21,11.29-16.66,19.66-25.92,25.55-3.67,2.28-6.39,3.36-8.39,3.36-1.14,0-2.01-.46-2.78-1.2-.89-1.17-1.17-2.93-.71-5.49,28.48-62.86,63.85-108.84,108.16-140.9,1.94-1.57,2.22-2.9,2.04-3.43m-91.52,136.71c44.96-71.41,79.31-103.25,106.83-125.01,3.15-1.79,3.64-2.93,3.55-3.21-.09-.37-1.02-.89-2.78-.89-1.57,0-3.39.4-4.88,1.17-45.12,32.93-81.41,74.03-107.67,122.05-1.67,3.39-2.25,6.17-1.51,7.44.28.43.83.71,1.51.71,1.45,0,3.36-.86,4.94-2.25m129.54-64.77c-25.4,19.9-45.39,38.3-60.17,63.97-1.67,5.31-1.42,9.72.71,12.68,2.07,2.75,5.71,4.29,10.83,4.35,2.5.09,5.18-.25,7.99-.77,6.14-2.47,11.97-6.85,17.37-12.99l35.15-37.62c.99-1.39.86-4.17.03-5.8l-1.3-1.27-1.27.56c-4.54,4.66-9.5,9.91-14.23,14.84-10.83,11.42-22.09,23.21-33.98,33.48-1.67,1.51-3.8,2.35-6.08,2.31-3.21-.09-6.3-1.88-7.53-4.47-1.3-2.62-.8-5.55,1.23-8.27,16.42-22.4,33.98-39.13,52.03-55.67.93-1.48.99-3.95.31-5.28l-.71-.34-.4.28Zm8.49,8.58c-19.16,15.4-36.14,32.46-50.52,50.76-.43.74-.62,1.57-.25,2.13l1.08.62,1.2-.46c17.28-14.81,33.94-31.17,49.47-48.51.43-.8.25-2.62-.49-3.86l-.49-.68Zm7.28,28.3c-19.1,17.13-31.78,31.07-34.78,38.3-1.85,6.51-1.73,11.32.37,14.19,1.76,2.35,5.06,3.61,9.84,3.67,3.3.06,7.22-.46,11.66-1.45,5.25-1.85,15.98-11.6,31.72-29.01.89-1.3.56-3.3-.09-4.63-.46-.93-.96-1.36-1.39-1.51l-1.98,1.98c-9.07,8.95-18.48,18.3-28.45,24.59-2.35,1.27-4.69,1.88-6.85,1.88-3.21-.09-5.83-1.39-7.07-3.61-1.27-2.25-1.02-4.91.52-7.62,7.87-11.88,17.93-22.68,29.84-32.22,1.17-1.2,1.57-2.68,1.17-3.95-.49-.8-1.17-1.36-2.22-1.39-.68,0-1.48.28-2.31.77m13.02,13.17c1.39-1.51,1.67-4.26,1.3-5.99-12.99,8.12-23.7,18.3-33.61,32.09l.19,1.02,1.45.68,2.01-.71,28.67-27.09m3.47,58.12c1.95-.03,3.85-.39,5.43-1.1,7.55-4.07,14.45-10.77,20.51-19.85.44-.98.43-2.28-.1-3.22-.41-.71-1.01-1.08-1.63-1.07l-1.02.33c-5.97,7.18-11.29,12.72-16.3,16.7-1.53.95-3.08,1.48-4.82,1.51-3.1.04-6.03-1.38-7.76-3.71-1.51-2.15-1.83-4.83-.89-7.63,1.43-3.48,6.34-9.7,16.35-20.72.42-.68.12-1.78-.31-2.46-.41-.86-1.04-1.29-1.63-1.28l-1.05.36c-8.86,8.42-16.11,17.27-21.64,26.34-1.25,3.39-.82,6.72,1.12,9.53,2.69,3.84,8.2,6.35,13.74,6.27m7.12-17.45c3.92-4.07,7.09-7.43,11.41-12.57,1.42-1.64,2.28-2.66,2.24-3.81-.04-1.21-1.08-2.56-2.68-2.51-.56.02-1.29.25-1.93.72-5.28,3.99-9.77,8.54-13.76,13.91-1.14,1.42-1.42,2.79-.91,3.92.47.86,1.52,1.52,2.76,1.51.53-.02,1.65-.2,2.86-1.18m11.75,18.28c-2.22,4.23-1.64,7.65,1.73,10.37l11.29,9.5,1.51.43c.99.09,1.64-.52,1.91-1.02.62-.93.65-2.16.06-3.3-.68-1.48-2.56-3.12-4.44-4.66l-.31-.31c-2.78-2.44-5.68-5-5.8-8.15-.09-1.57.62-3.09,2.1-4.54l8.61-9.91c.56-1.2.65-2.5.12-3.33-.37-.65-1.05-1.05-1.76-1.05l-1.33.34-13.7,15.61m25.72-6.87l-.15-1.7c-.52-.71-1.42-1.23-2.28-1.23l-1.39.8-6.88,12c-.25.74-.22,1.51.12,2.13l1.42.8,1.3-.68,7.87-12.13Zm-10.42-188.53c-16.2,3.98-36.6,14.41-52.61,23.02-11.17,7.78-15.06,15.83-11.88,24.47,1.39,2.04,2.99,3.09,4.88,3.15,1.73,0,3.67-.68,6.08-2.28,16.26-11.94,30.86-20.46,44.41-26.2,2.25-.8,2.9-2.87,2.78-4.07l-.56-.83c-11.39,4.26-26.35,10.65-41.54,22.34-1.94.99-3.55,1.36-4.88,1.33-2.16-.03-3.89-1.11-4.6-2.9-.8-1.98-.22-4.23,1.57-6.02,13.67-11.02,31.85-18.82,50.86-26.48,3.61-2.35,5.49-4.6,6.14-5.74l-.65.22Zm-10.52,30.57c-21.11,10.31-36.35,20.43-47.89,31.82-3.09,5-1.73,16.51,4.2,22.68,1.11.8,2.47,1.3,3.92,1.3,3.09,0,7.38-2.41,10.18-3.95l1.79-.96c5.92-3.24,11.76-7.22,18.48-12.56,2.99-2.93,4.17-7,3.86-8.46l-.28-.09-.59.31-25.61,14.78c-1.54.86-2.99,1.3-4.32,1.23-2.31-.06-4.17-1.23-5.34-3.39-1.67-3.24-1.48-7.53.49-10.55,2.35-4.63,14.1-11.39,25.55-17.96,5.92-3.36,11.02-6.33,14.5-8.73,1.67-1.3,2.35-3.49,1.85-4.75l-.8-.71m-29.73,36.68c10.62-5.92,18.79-11.57,25.18-17.31.68-.8,1.05-2.13,1.17-3.02,0,0-27.77,14.01-31.32,19.38-.34.46,1.51,1.23,3.18,1.27l1.79-.31m24.46,39.52c1.3-1.23,1.3-3.33.71-4.81-.37-.86-.89-1.42-1.54-1.54l-12.59,7.75c-1.33,1.08-2.68,1.64-4.1,1.6-1.94-.09-3.58-1.23-4.54-3.33-1.05-2.44-1.05-6.23,1.39-8.95,3.36-4.2,9.81-9.35,16.2-14.23,1.23-1.67,1.36-3.8.83-4.84l-.71-.49-.93.4-21.08,15.4c-5.28,3.55-6.91,8.39-5.03,14.81,1.85,4.41,4.26,7.78,7.04,9.94,1.2.86,2.56,1.3,3.86,1.33,1.51,0,3.18-.56,4.94-1.7l15.55-11.33m-11.57-5.52l8.95-7.25.03-2.13-1.45-.96-10.25,5.86c-.77.71-1.05,1.88-.68,2.84.43,1.05,1.36,1.73,2.47,1.73l.93-.09Zm-38.61-31.92c1.25-1.22,1.22-3.28.63-4.72-.37-.84-.89-1.38-1.53-1.49l-12.21,7.75c-1.28,1.07-2.6,1.64-3.99,1.62-1.9-.06-3.52-1.16-4.48-3.2-1.06-2.37-1.11-6.08,1.24-8.77,3.23-4.15,9.47-9.28,15.65-14.13,1.18-1.65-.4-4.5-.93-5.52l-.7-.47-.9.4-18.72,16.11c-5.11,3.54-6.65,8.3-4.72,14.55,1.87,4.29,4.27,7.55,7.02,9.62,1.19.83,2.52,1.23,3.79,1.25,1.48-.02,3.1-.59,4.81-1.73l15.05-11.29m-13.48-9.27c-.39,1.02-.09,2.1.72,2.86.75.67,1.91.83,2.83.37l8.92-7.32s.59-.75-.37-1.66-1.96-.71-1.96-.71l-9.74,5.66-.41.81Zm83.05,75.19c-.37-1.23-1.2-2.1-1.94-2.1l-1.3.71-8.58,6.3c-1.11.83-2.31,1.17-3.61,1.14-2.5-.03-4.94-1.76-6.36-4.47-1.64-2.81-1.67-6.08-.15-8.46l7.9-8.42c1.02-1.02,1.23-3.3.59-4.88-.34-.77-.8-1.17-1.42-1.27-6.91,3.24-11.2,7.99-15.31,12.96-4.75,6.94-1.76,11.7,2.38,18.24l2.01,3.33c2.25,2.07,4.47,3.24,6.36,3.27,1.08,0,2.04-.28,3.12-.93l15.58-11.54c1.27-.96,1.02-2.93.74-3.89m-6.22-9.57c-.37-.83-1.3-1.48-2.25-1.48l-.96.25-5.4,4.1c-1.02.9-1.08,2.19-.8,3.09.22.4.68,1.36,1.64,1.39l1.45-.52,5.52-4.14c.86-.8,1.14-1.79.8-2.68m27.02,31.05l-7.13,7.87c-1.67,1.2-3.24,1.82-4.78,1.79-2.41-.06-4.75-1.48-6.14-3.95-1.76-2.84-2.1-6.54-.8-9.29l5.43-7.19c1.08-1.54.8-3.7.12-5.12-.49-.83-1.11-1.45-1.64-1.45l-.99.65c-3.36,2.75-7.22,7.59-12.16,14.84-1.76,2.96-1.33,7.22,1.14,11.76,3.3,5.99,9.2,10.52,13.76,10.58,1.82.03,3.3-.56,4.54-1.82l11.82-13.67c.96-1.88.71-3.55.25-4.47-.37-.71-.99-1.05-1.64-1.08l-1.79.56Zm-11.33,3.21l6.54-6.23c.31-.65.25-1.67-.19-2.47-.37-.74-1.11-1.17-1.79-1.17l-.89.31-6.26,6.14c-.43.74-.52,1.48-.19,2.28.37.74,1.2,1.33,2.07,1.33l.71-.18Zm-22.05,157.25c3.18-29.41,8.64-50.45,16.57-64.28,1.27-2.56,1.08-7.93.15-10.49-9.5,14.6-15.28,31.11-18.67,53.36-1.17,5.62-2.99,6.76-4.41,6.76-2.25-.06-3.27-2.84-3.86-4.91-3.67-18.45.59-40.61,13.49-69.83.74-1.64.62-3.39-.19-4.66-.52-.77-1.27-1.23-1.88-1.27l-1.17.62c-16.48,26.17-20.95,79.09-7.93,95.88,1.57,1.82,3.49,2.9,5,2.9,2.13.06,2.68-2.53,2.9-4.07m10.65-88.68c-8.58,14.07-13.76,30.55-15.8,50.11l1.08.99.49-.8c2.65-16.54,7.96-31.11,15.74-43.26.71-1.94.25-5.65-.68-7.19l-.49-.22-.34.37Zm79.93-242.52c5.99-2.34,11.42-4.6,15.4-9.38,3.33-3.98,4.69-8.58,3.86-13.02-.89-4.38-3.86-8.24-8.61-10.8-4.23-2.28-8.3-2.31-13.02-2.44-52.34-.83-102.39,12.25-148.83,38.76-9.07,6.08-18.42,8.92-28.73,8.73-1.08,0-2.19-.06-3.24-.15-2.87.15-4.88.83-5.34,1.88-.49.86.19,2.53,1.64,4.6,9.78,7.62,20.15,11.48,31.63,11.66,6.36.12,13.08-.96,19.97-3.24,1.3-.19,1.7-.74,1.54-2.01l-1.7-8.64c-.31-1.17-1.05-1.76-1.48-1.76s-.93.49-1.23,1.54l-4.01,6.54c-2.41,2.31-5.09,3.43-8.79,3.43-6.2-.25-9.44-1.39-10.52-3.73-.83-1.6-.49-3.46,1.02-5.68l.19-.19c43.6-29.47,89.4-42.99,140.07-46.44,3.83-.31,7.68-.62,11.51-.56,5.83.09,10.15.99,13.45,2.72,4.1,2.19,6.57,2.96,6.94,6.73.31,3.55-1.36,7.04-4.72,9.84l-31.07,14.44c-11.85,4.94-19.6,12.53-24.35,23.95-5.96,16.32-24.01,66.22-7.65,88.26,6.57,10.34,13.76,17.22,22.06,20.98h.49s-.06,0-.06,0c1.39.03,2.47-.77,3.12-2.25.89-1.85.93-4.88-.99-7.04-28.02-22.53-24.32-39.35-18.15-67.18l.74-3.12c6.23-28.73,15.49-38.7,30.21-47.06,3.76-2.25,7.65-4.35,11.51-6.33,2.01-.96,4.23-1.88,7.16-3.06m239.9,71.52c2.1-6.05.43-9.63-1.54-12.84-9.32-11.17-17.44-18.48-23.98-21.79h-.28s-1.64.52-1.64.52l.15.96,2.78,2.47c1.33,1.42,1.88,2.62,1.73,3.73-.19.9-.68,1.67-1.57,2.22l-.34.06-1.11.18c.15.28.59.93,1.3,1.94,8.76,10.74,17.56,23.79,12.68,41.81-2.31,8.58-5.31,17.34-11.36,17.19l-16.08.34c-1.48.52-2.38,1.88-2.31,3.46.12,1.64,1.11,3.55,3.24,3.98h20.18c4.69-.74,8.08-4.41,10.34-11.29l7.81-32.96Zm-48.91,17.14c-.09.34.03,1.17,1.05,1.85,4.38,3.36,8.55,5.06,12.31,5.15,4.41.06,8.58-2.1,12.37-6.36.77-1.33.62-2.59.25-3.27l-1.08-.77-1.14.37c-2.99,3.12-7.41,4.78-12.62,4.69-3.09-.03-6.57-.71-10.28-1.91l-.86.25m28.81-18.47c-2.65-7.1-7.93-14.26-12.25-19.69-3.39-4.97-4.07-7.87-2.96-13.7.77-5.09-1.36-8.05-7.25-10.28-2.22,0-4.29,1.51-5.03,3.61-.28,1.14-.31,2.75,1.39,4.01,1.88,1.14,3.58,2.53,4.88,4.07,1.42,1.88,2.01,3.3,2.19,5.4.06.8.12,1.73.09,2.65,0,1.42-.15,2.31-.52,3.61-.56,1.48-.4,2.31.52,3.18,2.38,3.27,5.55,6.67,9.6,10.28,2.41,3.52,3.05,5.96,2.28,7.75-.37.9-1.3,2.04-3.39,2.44-6.73-.34-15-3.24-25.43-8.86l-.96-.49.89,1.42c11.42,9.13,20.92,13.67,29.07,13.82,1.2,0,2.41-.09,3.67-.31,1.91-.56,3.15-1.48,3.73-2.68.77-1.48.59-3.58-.52-6.23m-23.82-27.77c-.4-1.02-1.11-1.79-1.76-1.97-1.08-.25-2.16.86-2.87,1.82-2.07,2.9-2.84,5.65-2.47,8.27.74,3.15,2.13,5.46,4.38,7.22l.4.28c-1.45-5.49-.8-9.29,2.1-12.19.59-.77.74-2.16.22-3.43m-155.52-27.59c9.29-1.57,12.99-7.22,11.63-17.96-.93-14.44-9.66-16.51-18.85-16.69-.96-.03-1.88,0-2.81,0h-.52c-1.02.31-1.67.86-1.6,1.23.06.59,1.3,1.64,3.73,1.76l1.57-.12c7.93.12,13.11,7.38,13.49,14.41.4,6.6-3.52,11.48-9.75,12.25-14.44,3.73-25.67,8.27-33.27,13.45-15.06,7.47-22.31,22.68-21.76,45.49l.22,2.04.77-.49c3.33-2.47,5.18-8.39,5.49-17.47,5.12-22.9,24.35-31.69,51.66-37.89m-2.29-26.36c-1.76-.56-3.7-.83-5.43-.86-4.6-.06-7.5,1.88-8.61,3.77-.74,1.27-.89,2.56-.25,3.8,1.17,2.01,4.38,3.24,8.76,3.33,1.64,0,3.43-.19,5.37-.43.89-.34,1.36-.65,1.57-.89l-.93-.34c-5.22-.49-7-2.72-6.88-4.54.06-1.73,1.94-3.7,6.88-3.64l-.49-.19m-37.74,26.79c3.27-7.75,24.93-7.19,22.13-8.61-7.13-3.83-24.29,1.17-29.72,8.15l-.59.68c.12.22,1.45,1.02,3.83,1.05,1.88.03,3.52-.46,4.35-1.27m-3.12,43.65c-4.94,10.74-9.2,18.48-15.43,22.47-.34.34-.83,1.42-.83,2.84,0,1.64.68,3.05,1.57,3.86l13.02,10.03.22.03.8.03c1.7.03,3.21-.86,3.89-2.31.62-1.2.43-2.53-.46-3.52-.96-1.27-2.25-2.56-3.49-3.64l-1.17-1.02c-2.41-3.24-2.16-5.99-1.88-8.46,4.81-19.41,13.7-28.67,24.84-38.82.37-.43,0-2.19-1.94-1.2-7.84,3.98-14.66,11.36-19.13,19.72m34.95,10.05c-2.1,5.28-4.44,12.71-5.77,27.49-.8,4.44-2.96,5.34-4.66,5.28-1.88,0-4.2-1.27-7.16-3.86-4.81-8.21-2.01-20.95,9.2-41.41.62-1.45.59-2.44.4-2.84l-.37-.06c-.37-.03-.8.09-1.6.96-9.63,12.1-15,25.67-16.6,41.44-.15,4.04,1.54,7.04,5.46,9.66,3.98,2.72,8.49,4.75,13.49,6.02,2.56.03,4.29-.37,5.15-1.33.65-.56.86-1.39.86-2.41-.68-14.57,1.2-27.16,3.12-37.52.19-.8.19-1.57-.03-2.01l-.62-.06-.86.65Zm-14.26,21.37c.68,4.04,2.99,1.51,3.09,1.23,2.22-13.36,4.72-22.84,8.21-32.37l.37-1.45-.31.43c-.89-1.27-8.64,16.51-11.26,28.51-.25,1.3-.25,2.5-.09,3.64m40.7,17.1c-.19,4.32-2.5,5.8-4.63,5.77-2.59-.03-5.52-2.28-7.71-5.89-3.27-9.75-4.2-18.64-3.24-28.08.19-1.33-.25-2.75-1.05-3.64l-1.27-.77c-.74,0-1.64,1.08-2.22,3.58l-.22,2.68c-.86,12.96-1.94,27.68,4.72,34.99,3.02,3.3,7.44,4.94,13.36,5.03,1.39.03,2.87-.03,4.57-.19,1.39-.18,2.44-.86,3.09-2.01,3.36-5.99-2.5-22.62-4.84-27.65-.74-1.42-1.39-1.85-1.76-1.98-.74.56-.89,1.27-.8,2.5l2.01,15.65m-9.54-6.68c.12,1.6,1.51,2.62,2.87,2.62l1.14-.4c.34-.46.34-1.23.09-2.22-1.23-6.02-1.64-9.84-1.88-15.92-.15-1.02-.99-1.64-1.54-1.64-.25,0-.77,0-.86,1.02-.43,5.83-.37,11.23.19,16.54m7.61-45.93c4.57-2.47,13.58-7.53,18.39-9.16.77-.37,1.05-1.14.93-1.76-.06-.18-.22-.65-.99-.43-4.81,1.05-15.21,6.14-19.38,7.87-1.23.49-1.73,1.91-1.42,3.05l.68.9c.4.18,1.05.06,1.79-.46m36.19,65.8c1.36-1.48,1.23-3.15-.31-5.62-3.52-4.14-6.2-8.12-8.42-12.37-.62-.65-1.36-1.14-2.1-1.17l-.8.37c-.4.43-.52,1.17-.22,1.97.8,3.33,2.13,6.2,3.95,8.61.8,1.05.99,2.22.46,3.24-.46.93-1.51,1.51-2.65,1.45-1.33,0-2.68-.77-3.49-2.13-3.43-6.33-4.78-10.31-5.62-16.29-.74-3.55-3.02-5.21-4.75-5.21l-1.45.52c-.37.49-.52,1.2-.37,2.19l4.23,17.99c2.65,8.27,10.68,9.07,12.99,9.07,3.52.06,6.76-.89,8.55-2.62m48.25-18.26c-19.75,16.17-23.55,33.33-11.6,52.31,1.08.93,2.35,1.57,3.09,1.6l.62-.25c.25-.31.28-1.14-.06-2.38-9.17-19.29-4.38-35.8,14.2-49.1.31-.4,1.02-1.23.83-1.94-.37-.71-1.48-1.23-2.96-1.23-1.27-.06-2.72.34-4.1.99m15.2,7.22c-20.18,15.68-25.98,31.48-17.74,48.2,10.06,12.5,21.72,22.65,32.03,31.54l.31.25c22.03,19.01,39.41,34.04,26.51,60.79-.8,1.51-.96,2.44-.89,2.78l1.2-.62c17.07-19.66,13.67-40.43-10.25-63.38l-36.1-33.27c-4.88-6.63-6.57-13.08-4.97-19.29,1.54-6.17,6.33-12.16,14.38-18.11,1.94-2.25,2.59-4.91,1.64-7.04-.56-1.54-2.04-2.5-3.64-2.53-.83,0-1.7.22-2.47.68m-14.07,136.08c-2.19-.03-4.47,0-6.88.15-15.98,2.87-27.37,12.96-30.46,26.88-2.87,12.78,2.13,25.95,12.78,33.61.89.65,2.01.93,3.3.96,2.44,0,4.63-1.08,5.31-2.62.56-1.42-.25-3.24-2.38-5.09-9.32-7.81-13.24-17.13-11.14-26.14,2.25-9.6,11.2-17.87,22.4-20.52,7.62-.9,14.9-1.08,21.45-1.27,22.4-.56,38.51-.96,38.33-24.38-.15-2.56-1.36-3.95-2.1-4.17-.86.62-1.36,1.48-1.42,3.95-4.04,17.9-10.99,21.42-20.71,21.23-3.18-.03-6.51-.46-10.46-1.02l-1.54-.28c-4.88-.52-10.34-1.23-16.48-1.3m40.56-87.83c-13.64-7.71-23.76-14.23-28.73-21.51-.74-.65-1.7-1.14-2.41-1.14l-.83.46c-.65.8-.46,2.75.34,5,2.16,6.67,15.52,15.77,26.82,22.96,24.25,14.66,38.82,37.86,38.02,60.54-.68,17.22-10.06,31.2-26.38,39.5-4.72,3.21-14.26,4.44-32.83,4.14-5.34-.09-11.23-.31-18.33-.62-5.89.19-10.55,3.02-12.25,7.71-1.91,5.06-.12,10.89,4.75,15.34,1.17.96,2.44,1.54,3.46,1.54l1.02-.34c.19-.46.09-1.64-.93-3.15-2.65-4.26-2.28-7.07-1.45-8.64.93-1.97,3.12-3.21,6.08-3.46l39.96-.15c23.39-2.34,40.7-18.39,45.12-41.94,4.75-25.18-6.23-58.51-41.41-76.25m-14.31,185.63c2.22,0,3.86-.93,5.15-3.15,0-.25-.09-.28-.83-.37-1.82,0-4.17.52-6.91,1.76-.22.96.03,1.2.4,1.48.65.12,1.42.25,2.19.28m-13.43-2.14h1.23c3.43.06,6.33-.99,8.42-2.84.62-.77.83-1.3.74-1.54,0-.12-.15-.4-1.02-.86h-1.27c-3.21-.03-6.14.8-8.52,2.56-.59.71-.86,1.51-.8,1.85l1.2.83Zm-2.82-10.55c-4.32-.03-7.9,1.36-10.62,4.35-.56.74-.62,1.23-.56,1.39l.74.49c1.08.22,2.35.37,3.52.43,4.01.06,6.79-1.51,8.67-4.81l.37-1.17-2.13-.68m-4.92-23.23c2.78.03,4.32-1.39,4.94-4.57,1.39-6.17-.77-11.26-6.48-15.58l-.22-.09c-1.33-1.02-2.65-1.94-3.7-2.19l-.56-.06c-.83,0-.93.22-1.05.34-.49.65-.49,1.67,0,2.81,1.82,4.17,1.11,8.05-2.16,11.14-.89,1.02-.86,1.88.22,2.87,1.17,1.11,2.62,2.28,3.86,3.33,1.23,1.02,2.81,1.7,4.72,2.01h.43Zm28.6,27c6.26-1.11,8.86-4.84,8.05-11.94-.59-3.8.09-6.91,2.01-9.16.68-.65.86-3.24-.09-5.52-.46-1.02-.89-1.6-1.17-1.88-4.07,4.78-4.97,10.25-5.4,15.4.09,5.89-1.42,9.91-4.69,12.34l-.12.4c.22.15.68.31,1.42.37m-9.49-3.44c1.67.09,3.12-.71,4.54-2.22,2.62-2.68,4.01-7.07,3.7-11.39-.71-2.99,0-5.93,2.19-8.61,2.53-4.41,3.52-8.05,2.84-10.68-.43-1.6-1.6-3.02-3.36-4.04-.96-.4-1.79-.59-2.38-.65l-.37.59c.65,2.99.77,6.2-2.13,9.78-2.44,3.36-2.99,6.88-1.6,10.37,1.17,5.99-.77,10.68-5.99,13.89-1.08.74-1.14,1.14-1.14,1.14,0,0,.06.59,2.19,1.54l1.51.28m-13.99-44.42c8.09,7.81,8.76,15.77,2.07,24.29-1.17,1.17-1.76,2.13-1.73,2.99.06.65.46,1.3,1.27,1.94,2.87,3.73,1.54,6.33-.09,7.9l-.56.9c.09.09.62.43,2.59.56,3.86-.46,6.94-2.81,9.5-7.19.89-2.93.89-5.92-.22-8.83-1.48-3.18-1.2-6.3,1.11-9.57,2.1-4.04,2.25-7.65.62-10.49-1.91-3.06-6.05-5-10.86-5.06-1.33,0-2.65.09-3.92.37l-.89.56s0,.4,1.11,1.64m-40.08,44.62c2.28,2.9,5.28,5.28,8.89,7.04,1.08.65,2.13.96,3.27.96,1.39,0,2.9-.37,4.54-1.27,2.13-1.73,4.72-3.7,6.82-5.18,7.68-5.59,15.06-10.89,11.54-16.2-4.01-5.89-8.49-8.79-13.42-8.86-1.11-.06-2.41.12-3.8.46-4.54,2.19-6.63,5.43-6.39,9.94.31,1.33.83,1.33,1.14,1.42l1.51-.52,4.78-2.19c.74-.25,1.33-.31,2.1-.31,1.33,0,2.38.59,2.93,1.7.56,1.36.19,2.81-.96,4.38l-6.76,5.8c-1.36,1.05-2.68,1.57-3.95,1.54-1.79-.03-3.43-1.11-4.88-3.12-3.58-3.89-9.69-7.99-18.58-12.68-4.84-2.9-6.14-6.79-3.95-11.63l3.89-6.57c.43-1.39.25-3.27-.59-4.57-.65-.93-1.57-1.42-2.56-1.48-.71-.03-1.45.25-2.25.77-7.71,6.73-9.35,15.03-5,25,3.52,3.8,7.25,6.67,11.54,8.64,4.2,1.48,7.56,3.83,10.12,6.94m-19.97,8.91c2.41.03,2.81,1.2,2.84,1.64.03.43.09,1.85-3.46,2.84-5.83,1.64-10.58,3.83-14.66,6.67l-.86,1.85c.19.56,1.27,1.14,2.47,1.17l1.08-.19,11.57-4.97,16.82-4.54c.89-.4,2.07-1.36,2.1-3.02-.03-2.01-1.82-4.1-4.63-5.46-2.38-.77-4.84-1.08-7.5-1.14-7.71-.12-16.39,2.68-26.48,8.64-1.05.65-1.64,1.54-1.48,2.16.22.96,1.57,1.48,3.05.83,7.16-3.8,12.9-5.83,17.47-6.39.71-.06,1.23-.12,1.67-.09m-9.82-22.87c-3.86-2.59-7.19-3.43-10.46-2.75-2.19.4-4.14,1.51-6.02,3.27-.59.77-.86,1.64-.56,2.25l1.36.74.19-.09c2.9-.96,5.49-1.45,7.78-1.36,2.65.03,4.72.86,5.49,2.35.86,1.48.74,3.39-.52,5.86-3.15,3.52-8.02,6.6-15.24,9.6l-.06.03-.68,1.57c.22.86,1.45,1.39,3.06,1.45h.62s.28-.09.28-.09c5.77-1.42,17.81-4.47,20.77-10.62.89-1.94.89-4.04-.15-6.33-1.2-2.1-3.12-4.04-5.83-5.89m-10.44,6.49c-6.36,2.16-10.92,4.32-15.09,6.94-1.14.56-1.48,1.64-1.3,2.56.15.77.68,1.23,1.42,1.27h.49s.19-.03.19-.03c5.96-1.76,11.29-4.14,15.77-6.97.74-.68,1.05-1.76.74-2.56-.12-.43-.68-1.2-2.01-1.2h-.22m-3.14,43.35c2.81-.12,4.94-1.33,5.83-3.18,1.14-2.13.62-5.28-1.39-8.67-7.71-10.58-17.37-16.88-29.75-19.23-2.59-.09-2.96,1.64-2.99,1.94-.31,1.02.22,2.28,1.91,2.99,9.91,3.09,17.65,7.75,23.02,13.89,1.17,1.33,2.07,3.46,1.36,4.78-.19.4-.8,1.2-2.28,1.17l-1.42-.15c-9.81-2.99-16.63-4.44-21.32-4.51-1.14,0-2.19.03-3.3.25-2.01.4-2.9,1.67-2.84,2.62.06,1.11,1.14,1.91,2.9,2.1,8.86.59,16.26,2.16,23.17,5.25,1.98.46,4.2.74,6.51.74h.59m-15.71-17.46c-1.05-1.23-5.55-2.47-9.54-2.5-3.55-.03-4.94.77-5.12,1.2l-.09.31.8,1.3c1.33,1.42,6.02,3.09,10.58,3.18,2.22,0,3.86-.4,4.23-1.2.19-.4-.15-1.2-.86-2.28m16.58-41.41l-.28.71.74.12,1.48-.12c11.02-4.29,16.2-10.77,15.58-19.72-.12-.65-.43-1.11-1.64-1.11-4.69.43-8.33,2.47-11.82,6.51l-.34.8.96.15c1.27.03,3.02.37,3.61,1.79.56,1.05.25,2.35-.96,3.86l-7.34,7.01Zm20.9-49.69c-3.39,1.76-5.83,3.77-5.28,10.15-.06,4.57-2.68,8.76-5.37,8.7-.4,0-1.51-.19-2.13-1.39-2.56,1.02-3.76,2.78-4.66,4.47-.59,2.25-.52,4.07.25,5.06.37.56,1.11.8,1.94.83,2.38.06,5.8-1.82,8.58-4.72,5.15-5.52,7.65-13.58,7-22.25l-.34-.86m-26.71,31.66c-1.36,1.82-2.16,3.52-1.91,4.57-.93,11.7-4.32,19.87-10.52,25.83-1.05.93-2.01,1.39-2.99,1.39h-.25l-1.23-.68c-.65-.71-.99-1.64-.93-2.75l.28-7.93c0-.8-.46-1.23-1.3-1.23-1.08-.03-2.22.59-2.87,1.54-2.25,4.07-3.06,9.16-2.44,15.27.34,1.17,1.54,4.88,5.22,4.94,1.11,0,2.28-.22,3.52-.83,13.05-8.83,17.34-25.83,19.9-41.38v-1.2s-.19-.31-.19-.31l-.43-.09c-1.2.25-2.56,1.3-3.86,2.87m-41.19,76.89c11.11-9.94,12.56-28.27,12.41-44.93,0-1.88-.52-2.99-1.3-2.99-1.39,0-3.52,2.47-3.86,6.6-.49,11.39-1.48,23.24-7.65,33.11-1.33.96-2.28,1.39-3.12,1.39-1.64-.06-2.53-1.48-2.53-4.32l-.37-10.31c-.22-1.05-.52-1.54-.71-1.82l-.77-.15c-.43.34-1.54,1.39-3.21,4.6l-.03.15c-1.23,5.96-1.23,14.01,1.7,17.74,1.14,1.36,2.5,2.04,4.41,2.07,1.42.03,3.09-.31,4.88-1.11l.15-.03Zm-.88-18.85c.37-.03.99-.37,1.73-1.23,1.64-2.04,3.24-6.33,2.13-11.7-.22-.65-.52-1.7-1.51-1.7-.89,0-1.85.86-2.47,2.07l-1.27,8.36c-.03,2.53.59,3.58.8,3.95l.59.25m29.68-36.68c.68,0,1.64-.59,2.47-1.85,1.27-1.85,1.73-4.38,1.17-6.7l-1.33-1.11c-.19,0-.71.06-1.54,1.11-1.33,1.57-2.22,4.44-2.04,5.99.03.4.37,2.56,1.27,2.56m-63.3-290.12c-8.95-.12-15.89,1.91-20.49,12.47-.8,2.53-.62,4.75.56,6.33.96,1.36,2.59,2.1,4.44,2.16,1.42,0,2.84-.49,4.01-1.3l-.15-1.57h-.12c-2.62,0-3.39-.46-4.26-1.82-.52-.86-1.02-2.28.06-4.66,4.04-8.76,9.97-8.64,14.94-8.55,3.09-.03,3.83-1.73,3.83-1.85,0-.22-.43-.86-1.64-1.2h-1.17m-9.28,13.74c1.05-.03,2.01-.89,2.72-1.64,1.97-2.47,1.88-3.58,1.82-3.7-.03-.09-.25-.43-1.11-.74-3.43.34-4.78,2.41-4.66,4.32.03.71.34,1.82,1.23,1.76m-4.37,9.34c-10.04.28-15.82,5.53-17.39,16.1-1.82,8.12-.84,13.16,2.76,15.82.8.74,1.89,1.09,3.64,1.09,5.81.11,12.39-3.46,12.6-4.79.38-.95.31-1.54.11-1.82-.25-.38-1.19-1.36-2.9-.98-1.85.98-3.6,1.43-5.28,1.4-1.96-.03-4.3.32-5.56-5.28-.07-11.65,3.36-16.94,12.53-17.25.49-.11,1.68-1.43,1.68-2.41,0-.87-.87-1.86-2.17-1.86m-4.27,19.21c.56,0,2.03-.21,4.97-2.41.91-1.16,1.47-2.34,1.08-3.18-.21-.63-1.26-1.29-2.97-1.99-2.52-.03-3.15.32-3.57.56-.77.63-1.68,2.2-1.36,5.95.8,1.08,1.64,1.08,1.85,1.08m-1.83,53.09c.4,0,1.2,0,1.36-1.97,1.11-4.29-1.54-4.6-6.88-11.23-2.1-3.46-2.87-8.33-2.1-10.21.52-1.45,2.35-2.75,4.26-3.43l7.41-1.54c.77-.59,1.05-1.54.86-2.44-.37-1.23-2.01-2.5-4.51-2.56l-1.51.15c-5.8.4-9.69,1.79-11.82,4.32-1.85,2.28-2.5,5.49-1.98,9.78,1.45,7.31,5.99,13.7,13.64,18.92l1.27.22m3.24-16.06c1.51-.65,2.53-1.7,2.53-2.72s-.8-1.88-2.04-2.5c-1.33-.43-2.5-.68-3.33-.68s-2.87-.09-3.12,4.2c0,.83.25,1.85,3.21,1.91.83,0,1.76-.06,2.75-.22m-20.4-94.56c-3.21-.03-5.15-.86-5.89-2.41-.74-1.45-.25-3.18,1.51-5.4,7.5-8.95,18.33-13.15,33.08-12.9,2.99.03,5.99.22,8.86.52,3.86-.09,7.28-2.65,7.34-3.92,0-.25-.68-.59-1.79-.74-2.81-.25-5.65-.4-8.24-.43-16.51-.28-35.77,2.87-52.98,28.3-.22.74-.22,1.54.06,2.07.28.4,1.14.96,3.61,1.11,7.1-.86,12.28-2.78,15.77-5.83l-1.2-.37h-.12m12.94-11.54c-2.62,0-4.57.28-6.02.9-1.88,1.08-1.94,1.73-1.94,1.73,0,.06.03.4,1.14,1.08,1.05.43,2.41.68,3.92.71,2.07.06,4.47-.37,7.28-1.3,1.67-.86,2.07-1.79,1.98-2.04,0-.18-.22-.43-.96-.62-1.45-.19-3.52-.4-5.4-.46m-47.18,5.26c-1.23-.03-2.28-.56-2.87-1.48-.93-1.45-.83-3.58.31-6.33-7.13,1.91-11.11,6.73-12.07,14.78-.09.71.06,1.39.46,1.82.34.4,1.11.62,2.19.65.86,0,1.94-.12,3.15-.37,12.93-3.7,23.64-10.92,33.27-22.8l.34-.34c-.8-.03-1.3.03-2.1.15-5.62,1.23-11.42,5.06-17.65,11.7-1.82,1.42-3.58,2.22-5.03,2.22m59.21,376.51c-.96-.09-1.91.25-2.47.93l-13.58,18.67c-1.05,1.36-2.22,2.01-3.52,2.01-1.14-.03-2.35-.71-3.46-1.91l-.96-1.14c-.46,0-1.33.65-1.67,2.31-.62,2.81-.31,5.15.89,6.57.86,1.05,2.13,1.64,3.55,1.64,2.5.03,5.4-1.48,7.59-4.07l15.89-21.51c.37-.83.37-1.76,0-2.41-.43-.62-1.23-1.08-2.28-1.08m-49.01,35.88c11.6-6.08,17.68-15.95,24.16-26.38l.28-.46c2.9-4.54,5.86-9.29,9.5-13.82.59-1.17.77-1.79.77-2.13h-.4c-1.11-.06-2.16.28-3.39.71-4.2,1.45-7.9,5.09-11.26,11.05l-12.5,18.21c-1.45,1.64-3.15,2.44-4.66,2.38-1.54-.03-2.84-.74-3.73-2.07-1.36-2.13-1.36-5.52.09-9.2l2.44-4.72c1.97-3.8,3.8-7.41,5.86-10.55,3.27-5.37,4.32-9.88,3.27-14.16-.77-2.19-1.39-2.53-1.51-2.56-.06.03-.52.34-1.45,2.19l-12.71,28.36c-2.62,7.01-3.52,13.27-2.25,18.73.8,4.47,2.93,5.06,4.41,5.06.8.03,1.85-.18,3.09-.62m16.16-39.77l-.99.52-9.47,14.66c-.59.86-1.08,2.01-.71,2.9.43.77,1.33,1.17,2.1,1.17l.74-.31,9.57-16.76-.19-1.88-1.05-.31Zm22.95,4.91l-.25-1.79-1.05-.37-.93.28-7.9,12.22c-.43.65-.96,1.67-.43,2.56.43.8,1.23,1.27,1.91,1.36l.71-.12,7.93-14.13Zm-60.94,21.59c10.83-6.54,15.43-22.25,18.95-36.44v-.65s-1.02-.19-1.02-.19l-.93.15c-1.67.65-3.58,1.42-5.31,8.15-1.14,6.6-2.87,11.63-5.31,15.34-.89,1.42-2.35,2.38-3.55,2.34h-.43s-.31-.09-.31-.09l-1.02-.8c-.96-1.27-.93-3.12,0-5.92l6.36-16.54c1.64-4.6,1.42-8.33-.56-11.7l-1.64-1.05c-.86.65-1.02,1.39-.86,2.47-.4,3.61-1.17,6.54-2.65,9.75-3.83,9.32-6.39,19.94-7.78,32.49-.15,1.33.03,2.13.49,2.65.34.37.93.65,1.85.65s2.19-.18,3.7-.62m25.46-125.85c-.25,0-.71,0-1.23,1.2-9.91,18.18-17.59,61.75-10.8,73.78,1.48,2.87,3.12,4.2,5.12,4.2,1.2.06,2.81-.56,4.54-1.7,5.59-4.6,10.77-16.11,16.23-28.33l.12-.28c2.28-5,5.06-11.33,7.93-16.85,2.07-4.47,2.68-8.05,1.94-10.95-.65-2.59-1.17-2.93-1.36-2.96,0,0-.31.09-1.02,1.05-3.12,5.8-6.2,12.99-9.01,19.41l-.15.4c-3.76,8.52-7.53,17.31-11.7,24.01-1.23,1.94-3.12,3.09-4.91,3.09-.71,0-4.23-.37-4.26-6.3-.77-18.18,2.99-34.87,11.88-52.46.65-1.3.34-3.27-.71-4.97-.89-1.48-2.01-2.28-2.62-2.35m-.36,50.81c.46,0,1.05-.46,1.3-1.26,3.36-12.22,8.27-23.11,15.89-35.21.71-1.14.86-2.44.43-3.33-.31-.52-.83-.8-1.54-.8-.56-.03-1.2.12-1.98.49-9.75,8.76-14.9,21.11-15.74,37.62.15,1.88.96,2.47,1.64,2.5m23.11,39.7c15.92-14.53,28.36-30.86,37.83-49.78.83-1.94.86-4.1.12-5.34l-1.33-.77c-1.05,0-2.35.89-3.7,2.5-3.18,3.98-6.23,9.04-9.41,14.44l-.93,1.39c-5.25,8.7-11.14,18.58-18.52,26.08-1.23,1.36-2.9,2.19-4.35,2.16-1.08-.03-2.07-.52-2.75-1.39-1.02-1.45-1.2-3.61-.4-6.51,2.28-8.18,5.43-15.03,8.95-22.56l.56-1.11c2.65-5.71,5.37-11.7,7.53-18.24.34-1.27-.22-2.16-.52-2.59-.74-.99-2.04-1.6-3.43-1.67-.62,0-1.73.18-2.44,1.2-12.84,21.17-18.67,40.33-17.56,56.78,1.08,5.68,4.94,6.36,6.48,6.36,1.39.03,2.62-.31,3.86-.96m32.73-65.19c-11.17,6.97-19.75,19.69-25.27,37.77-.52,2.04-.09,2.96.03,3.3l.56.34,1.27-1.05c7-14.75,14.57-26.79,24.63-38.85l.62-1.45-1.17-.25-.65.19Zm-6.6,70.15c2.65.06,5.49-1.51,8.21-4.2,13.79-19.1,27.68-35.12,40.61-49.62.86-.93,1.3-1.85.93-2.53l-1.33-.96c-.74,0-1.48.37-2.25,1.11-10.62,11.2-24.66,26.42-37.68,45.05-1.27,1.51-3.02,2.31-4.78,2.31-1.64-.03-2.96-.86-3.83-2.13-1.23-1.91-1.23-4.75.22-8.12,7.16-12.1,14.94-23.08,24.07-33.64l.43-1.05-1.02-.68c-.46,0-1.36.12-2.9,1.2-12.59,13.92-25.64,28.17-26.6,44.78.03,5.25,2.22,8.39,5.92,8.45m39.06-61.93l-31.26,39.75c-.99,1.48-.99,2.25-.99,2.59l.52.28,1.76-.9,31.2-37.56c.89-1.73.89-3.52.49-4.44l-.77-.25-.96.53Zm-124.33-295.04c.96-1.08,1.17-2.38.68-4.17-.68-4.57.37-6.63,1.33-8.46l.06-.12h-.06c-3.39,2.13-5.43,5.09-6.39,9.1-.31,3.21-3.33,5.06-6.02,5.06-1.42-.06-2.78-.62-3.73-1.6-.71-.8-1.45-2.25-1.42-4.6h-.09c-3.76,1.54-6.26,4.2-6.91,7.13-.43,2.38.37,4.66,2.19,6.54.4.49,1.08.74,1.91.74,4.32.09,12.65-5.12,18.45-9.63m39.85,22.99c-4.2-.03-7.19-2.28-7.34-5.21,0-3.49,4.14-7.25,15.8-7.44,2.01-.4,3.12-1.98,3.24-2.96l-.93-.49c-2.47.15-4.6.25-6.33.25-1.85-.06-3.52-.18-4.91-.46-2.31-.43-3.73-1.36-4.07-2.68l-.34.28c-5.8,4.75-5.62,6.11-5.62,6.7v.43l-.09.31-.56,1.17c-3.46,5.96-4.63,10.95-3.06,13.76.99,1.73,2.93,2.68,5.68,2.75,4.17.03,9.13-1.97,12.96-5.34.43-.8.56-1.2.59-1.54l-.71-.09c-1.36.43-2.81.59-4.32.59m.85,15c.65-.71.46-1.54.31-1.85l-1.17-1.05c-3.61,1.73-6.45,2.96-9.69,2.9-1.82-.03-3.52-.43-5.31-1.23-.49-.31-1.82-1.08-2.62-1.23-.49.43-.83.93-.83,2.53.06,6.39-.56,14.26-5.4,23.82-1.54,3.86-1.67,6.94-.31,8.95.86,1.36,2.53,2.16,4.69,2.16,4.69.09,11.42-3.33,16.02-11.17.74-1.73.74-3.05.62-3.92-2.56,2.1-4.6,3.05-6.54,3.02-2.93-.03-5.4-2.53-5.86-5.96-.59-4.14,1.79-9.91,10.49-12.59l5.62-4.38Zm23.77,138.25l-1.3.93c-6.76,8.95-12.13,17.74-16.32,26.75-.89,1.82-2.1,2.84-3.43,2.81h-.31l-.4-.09-.93-.74c-.74-1.14-.68-2.65,0-4.47,4.78-13.18,10.49-24.1,17.84-34.38.99-1.36.86-3.18.25-4.41l-.56-.83c-17.25,24.75-25.95,44.9-26.66,61.59.09,2.68,1.08,4.72,2.35,4.75.83,0,1.94-.71,3.15-2.07,2.59-3.86,6.14-9.72,10.34-16.91l.83-1.27c5.25-8.92,11.29-19.01,16.23-25.43,1.02-2.41.59-4.51-.03-5.43l-1.05-.8Zm17.58,33.57c-.71,0-1.6.46-2.25,1.36-5.34,11.79-11.85,25.61-20.89,39.22-1.57,2.31-3.83,3.61-6.08,3.58-2.07,0-4.07-1.14-5.25-3.06-1.97-3.05-1.97-7.56.09-12.22,6.17-14.78,14.07-29.07,25.12-44.96.89-1.97.99-3.92.28-5.09-.34-.59-.96-.96-1.64-.96s-1.45.37-2.04,1.02c-12.5,17.65-21.17,32.25-26.38,44.62-3.92,9.44-3.86,18.85.31,25.15,2.16,3.33,5.25,5.21,8.52,5.34,3.55.03,7.13-2.19,10.15-6.2,8.49-13.95,15.52-28.64,21.48-41.29.89-2.16,1.05-4.26.15-5.55-.28-.43-.77-.96-1.57-.96m-24.92,29.73c.74,0,1.2-.22,1.48-.65l17.96-31.72c.93-2.07.43-5.77-.77-7.62-.37-.71-.74-.86-.89-.86-.03,0-.59.31-1.14,1.54l-19.01,33.51c-.89,1.64-1.11,3.02-.43,4.17.65.99,1.73,1.64,2.81,1.64m21.18,45.08c4.69.09,9.1-2.44,12.44-7.22l27.06-41.78c1.08-1.14,1.42-2.34.93-3.49-.52-1.23-1.85-2.1-3.18-2.13-1.11,0-2.04.49-2.87,1.45-3.21,4.57-6.45,10.06-9.6,15.27l-1.36,2.28c-5.15,8.49-10.28,17.25-15.89,23.64-1.94,2.56-4.72,4.07-7.53,4.01-2.38-.03-4.35-1.23-5.52-3.18-.93-1.6-2.07-5.03.89-10.58,8.98-16.45,15.55-30.12,20.03-41.75.65-.99.65-2.01.15-2.96-.65-1.14-1.91-1.94-2.93-1.97-1.42-.03-2.72,1.2-3.52,3.36-3.89,11.29-9.94,23.92-18.98,39.75-3.67,6.67-4.1,13.52-1.14,18.73,2.44,4.01,6.54,6.57,11.02,6.57m27.62-58.22c1.54-2.16,1.14-3.15.68-4.26-.34-.86-.68-1.82-.34-2.99l-.19-1.76-.86-.15c-.59,0-.96.28-1.39,1.11l-21.42,39.65c-1.97,4.17-1.14,5.68-.99,6.02l1.08.56c1.17,0,2.59-.9,3.58-2.35l19.84-35.83m-4.29,67.67c1.88,2.44,4.81,2.93,6.97,2.96,4.01.06,8.33-1.67,10.52-4.2,14.94-15.68,27.46-31.54,37.4-47.21.71-1.42.93-2.65.43-3.61-.52-.86-1.6-1.36-2.68-1.36-1.08-.09-2.07.37-2.84,1.11-11.11,16.08-22.71,30.61-35.33,44.38-1.64,1.94-3.46,2.38-4.51,2.38-1.82-.03-3.55-1.08-4.47-2.9-1.2-2.19-1.17-4.81.19-6.97,6.63-14.13,14.84-27.74,24.84-41.54.83-.93.89-1.51.83-1.67-.12-.25-.89-.68-2.28-.68-1.48-.06-3.67.46-4.72,2.04l-1.79,2.53c-8.73,12.84-18.7,27.46-23.45,42.46-1.39,5.34-1.02,9.6.89,12.28m45.66-59.55c.19-.96,0-1.91-.31-2.47h-1.45c-9.26,11.6-18.7,24.93-28.08,39.53-.8,1.45-.8,2.53-.56,3.09l.74.43c.22,0,.74-.15,1.51-.74,13.58-12.99,23.02-26.41,28.14-39.84m-8.73,59.53c21.51-6.67,38.79-32.25,52.61-52.86l2.13-3.09c.62-1.02.65-2.1.12-3.12-.62-1.14-1.91-1.94-3.18-1.94-.65,0-1.6.15-2.38,1.3-11.97,16.88-22.84,30.86-34.13,43.79-1.42,1.05-2.41,1.42-3.33,1.42l-.43-.03-.4-.15-1.05-.89-.22-.18c-.52-1.14-.15-2.72.96-4.29,6.39-9.66,14.66-20.31,21.85-29.5.62-.86.62-1.51.52-1.73l-.93-.4c-.8,0-2.16.4-3.18,1.6-15.58,17.22-26.11,31.35-32.93,44.59-1.27,2.99-.93,4.17-.62,4.66.34.52,1.3.86,2.72.89l1.85-.06Zm-47.48-161.82c-1.91-2.53-3.95-5.31-3.02-11.54.09-3.49.19-7.04.28-10.62.12-3.67.25-7.38.34-11.05l.28-7.31c.12-1.67-.28-3.12-1.11-4.1l-1.64-.8c-.96,0-1.88,1.2-2.31,3.15l-1.98,32.77c-.46,6.63,2.68,12.84,9.66,19.53.86.43,1.45.49,1.76.49h.37c.19-.25.8-1.45-.15-6.39-.52-1.42-1.39-2.65-2.31-3.89l-.15-.25Zm25.29-29.82c-1.39.83-1.51,1.51-1.51,2.38,1.64,8.33,3.49,19.78,3.15,33.42-.56,5.55-3.15,6.33-4.66,6.33-2.84-.03-6.2-3.21-9.6-8.83-4.07-10.12-3.83-26.08-3.02-40.36.09-1.3-.4-2.56-1.11-3.39l-1.6-.83c-1.17-.03-2.07,1.6-2.28,4.2-.86,12.22-1.27,26.97,2.25,43.73,2.99,9.13,10.58,14.07,16.45,14.19,4.72.06,8.05-2.75,9.35-7.96.86-14.53-.86-28.36-5.34-41.01-.56-1.17-1.39-1.76-2.07-1.85m-7.99,30.15c.31,1.3,1.05,1.76,1.6,1.76.4,0,1.11-.09,1.27-1.33l-1.51-35.09c-.34-1.64-1.27-2.59-1.7-2.59-.22,0-.86.74-1.2,2.31-1.64,14.47-1.14,25.92,1.54,34.93m44.93,20.04c-8.7-.15-13.95-5.49-15.77-16.26l-4.35-26.01c-.74-2.81-2.19-3.83-3.18-3.86l-1.54.71c-.8.8-1.2,1.97-1.2,3.39l5.06,34.19c.86,8.15,7.56,12.9,20.61,14.53l.83.06c6.3.06,10.62-1.42,13.27-4.72.71-2.56.19-4.04-.68-6.7-1.85-5.55-3.39-9.54-5.15-13.92-2.41-6.2-4.63-12-6.3-18.08-.74-1.51-1.82-2.59-2.87-2.59l-1.23.59c-.52.62-.68,1.42-.52,2.28l7.25,25.92c1.45,3.89,1.6,6.48.46,8.33-.83,1.33-2.38,2.07-4.69,2.13m-12.49-43.97c-.25,0-.89,0-.96,1.82.86,8.95,1.76,18.92,3.92,28.24.83,2.07,2.22,3.46,3.39,3.46l1.11-.56c.34-.46.49-1.17.25-2.04-2.47-9.32-4.01-20.06-5.09-28.36-.28-1.45-1.7-2.53-2.62-2.56m49.78,44.98c2.35-1.23,3.73-2.68,4.23-4.44.68-2.13-.06-4.84-1.94-8.27-5.34-8.61-9.78-17.5-13.45-26.48-.43-1.08-1.11-1.67-1.76-1.76-1.08.86-1.2,1.7-.86,2.84,2.68,8.15,6.3,16.32,10.58,24.35,1.36,2.5,1.45,4.94.34,6.85-.99,1.57-2.78,2.5-4.78,2.47-2.31-.03-4.63-1.36-6.33-3.7-4.38-7.28-8.58-16.54-12.71-27.37-.25-.8-.71-1.2-1.05-1.39-.68.49-1.23,1.33-.77,3.61l9.63,27.5c2.93,5.03,6.6,7.53,11.17,7.59,2.28.03,4.88-.62,7.71-1.79m-17.77-36.7c-.12-.86-.8-1.54-1.48-1.6-1.2.74-1.54,1.42-1.54,3.09,1.2,6.97,4.35,14.38,9.63,22.5.65.8,1.39,1.3,2.1,1.3l.71-.34c.52-.65.49-1.7-.03-2.72-4.51-8.27-7.53-15.37-9.38-22.22m15.58-1.1c-1.08.86-1.08,1.42-1.05,2.16,2.25,7.25,5.99,13.79,11.05,19.26l1.17.22.89-.34c.28-.52.09-1.45-.37-2.28-4.44-6.33-7.84-12.03-10.62-17.9-.31-.71-.74-1.05-1.08-1.11m24.67,26.81c1.11-2.1.68-4.07-1.54-6.82-4.72-5.15-9.23-11.11-13.82-17.65-.52-.96-1.17-1.51-1.79-1.51l-.62.4c-.52.8-.28,2.35.62,4.01,2.04,3.92,5.37,8.42,9.81,13.39,1.02,1.51,2.01,3.24,1.73,4.94-.28,1.02-.86,1.79-1.76,2.41l-4.41,3.36-.28,1.45c.4.89,1.76,1.64,3.15,1.82,3.73-.56,6.6-2.47,8.92-5.8m2.29,10.82c-.74-1.17-1.97-1.79-3.27-1.79-1.33-.03-2.44.49-2.87,1.36-.46.86-.22,2.04.59,3.43l.15.22c6.14,10.92,8.67,15.43,7.96,25.95-.37,5.62-2.31,11.23-4.63,17.71l-.12.28c-1.2,3.3-2.62,7.31-4.04,11.97-1.42,3.77-3.3,4.23-4.29,4.23-.99,0-1.85-.46-2.41-1.39-.93-1.14-1.14-2.84-.56-4.51,1.02-4.88,2.47-9.47,3.7-13.58,1.91-6.17,3.7-11.88,3.7-17.37-.49-11.11-2.35-16.32-8.15-22.09-.86-1.05-1.85-1.54-2.96-1.6-.99,0-1.97.49-2.44,1.33-.62,1.02-.62,2.19,0,3.46,9.91,13.49,9.32,29.47-1.97,54.93-1.11,3.12-1.14,5.71-.15,7.87,1.2,2.59,3.98,4.69,8.46,6.26,2.07.52,3.98.89,5.43.93,3.67.06,3.95-1.67,4.01-2.35.09-6.76.89-11.7,2.44-15.09,1.36-3.76,2.99-7.19,4.29-10.06,2.38-5.18,4.63-9.91,6.02-15.77,1.54-11.73.62-21.11-8.89-34.32m-22.68,48.08c2.81-13.58,4.35-25.95-3.73-39.25-.89-1.42-2.19-2.25-3.43-2.31-.96,0-1.88.46-2.44,1.3-.77,1.08-.77,2.75.09,4.44,8.67,17.07,6.26,35.89-7.22,57.68-1.7,2.28-3.98,3.49-6.26,3.43-1.94-.03-3.73-.96-4.94-2.53-1.54-2.01-2.01-4.78-1.27-7.87,4.91-18.39,4.81-33.48-.15-47.4-.59-1.33-2.35-1.98-3.73-2.01-1.2,0-2.22.43-2.75,1.08-.52.83-.28,1.82-.06,2.59,3.83,15.24,3.64,29.07-.56,43.57-.31,1.17-.71,2.22-1.11,3.39-1.11,3.02-2.04,5.83-1.51,9.07,1.05,5.86,6.51,10.09,13.36,10.18,3.89.09,7.71-1.3,10.74-3.86,7.93-10.21,12.87-20.55,14.97-31.51m-22.81-39.4c-.62.77-.68,1.73-.19,2.84,5.86,8.86,6.17,23.27.83,45.15-.71,2.65-.12,3.61,0,3.83l.77.4c.68,0,1.39-.34,1.85-1.08,8.15-17.5,8.86-33.36,2.04-49.87-.65-1.42-1.79-2.28-3.18-2.31-.89,0-1.64.4-2.13,1.05m-26.02,4.55c-.56.59-.96,1.42-.96,2.53,3.24,16.79,2.28,31.23-2.56,42.89-2.47,3.46-5.15,5.31-7.96,5.25-1.85-.09-3.58-.96-4.94-2.56-2.28-2.78-1.64-6.85-.99-10.4.12-1.2.25-2.28.34-3.15,1.17-15.49.49-28.67-2.16-39.31-.28-1.82-1.85-2.07-2.53-2.13-1.08,0-2.22.46-2.99,1.27-.71.74-.96,1.64-.96,2.75,1.7,14.78.96,30.95-2.13,49.53,1.2,10.49,8.64,14.47,15.21,14.53,7.28.15,15.86-4.54,17.9-13.73,4.04-17.44,4.04-32.68,0-45.3-.43-1.88-2.04-2.81-3.43-2.81-.74,0-1.39.25-1.85.65m-11.63-2.55c1.23,13.7,1.05,26.82-.62,38.91.28,2.44,1.73,3.43,3.05,3.43,1.08.03,2.5-.56,2.96-2.38,1.51-13.33.86-26.72-1.67-39.5-.4-1.57-1.45-2.16-2.22-2.16l-1.08.4-.43,1.3Zm-37.52-13.48l-1.51.9c-10,19.66-13.08,34.35-9.72,46.16,4.01,8.58,9.75,13.76,15.24,13.82,2.87.09,5.55-1.27,7.78-3.83,7.41-13.36,7.38-30.09,7.31-44.87.06-1.11-.19-1.91-.77-2.5-.46-.56-1.33-.96-2.13-.99-1.39,0-2.99.74-3.39,2.9.15,9.81-.03,20.71-3.27,33.02-1.14,2.99-3.55,4.75-6.33,4.72-3.39-.06-6.3-2.68-7.22-6.7-.83-11.02.8-21.72,5.34-34.81.56-3.05.37-6.3-.56-7.71l-.77-.12Zm4.56,36.6c2.56-9.17,3.7-17.81,4.04-29.93,0-1.17-.71-1.85-1.11-1.88-.49-.03-1.3.59-1.85,2.75-.77,9.13-2.04,17.81-3.86,27.19,0,.99.59,2.62,1.2,2.62l1.57-.74Zm-23.62-51.98s-.49.12-1.3.93c-8.86,11.08-10.28,22.74-4.26,35.46,1.39,1.67,2.78,2.59,4.04,2.62.74,0,1.6-.34,2.31-.9,5.8-7.1,9.54-15,11.05-23.51.96-3.06,0-4.2-1.67-4.88-1.6-1.08-2.75-1.54-3.7-1.57-.86,0-2.13,0-2.9.93,0,0-3.46,8.58-1.48,8.36.46.31,1.39-.71,2.16-1.94.52-.74,2.44.96,2.19,2.13-.52,2.68-2.5,8.83-5.71,9.1-.59.28-1.36.43-2.01.43-.86,0-2.9-.4-3.46-3.39-.12-4.63,1.3-8.02,2.62-11.2l.22-.31c1.27-3.18,2.56-6.2,2.5-10.18-.15-1.45-.49-1.97-.62-2.07m-14.24-5.7c-2.65,1.05-4.78,3.77-6.88,6.45-2.47,3.18-5.09,6.73-8.95,7.04-.89,0-.99.31-1.11.4l.65,1.79,6.14,7.78c1.33.77,2.56,1.17,3.7,1.23,1.45,0,2.5-.71,3.55-2.31,1.11-1.73,1.08-2.1-.22-2.96-4.66-4.69-.74-9.13,2.41-12.71,1.48-1.76,2.81-3.21,3.52-4.6.4-.77.62-1.27.34-1.64-.19-.46-.83-.74-1.6-.74l-1.54.28m-18.05-.92c-1.79-.03-3.67-1.23-4.63-3.02-1.02-1.73-.96-3.89.12-5.65l7.44-7.84c.65-1.02.12-2.07-.06-2.38-.52-.99-1.51-1.7-2.56-1.7l-1.39.52c-4.57,4.04-8.92,7.84-15.31,8.21-1.67,0-2.01.15-2.22.37-.15.22-.37.9-.09,2.81,1.6,4.63,4.69,7.53,7.99,10.58,2.13,2.13,4.1,4.07,6.05,6.54.99.83,2.04,1.3,3.15,1.3,1.17.03,2.38-.46,3.83-1.57,4.17-3.3,7.81-7.01,11.17-11.33.49-.68.52-1.51.22-2.41-.28-.68-1.02-1.45-2.04-1.45l-1.51.37-7.47,5.74c-.77.62-1.67.89-2.68.89m-15.97-29.41c-1.88-.09-3.49-1.26-4.32-3.21-1.14-2.53-1.02-6.54,1.76-9.66l7.07-5.77c1.51-1.17,1.85-2.99,1.14-5.92l-.22-.74c-4.94,3.61-9.2,6.7-14.16,8.98l-1.36.52-.49.15c-.8.31-2.13.74-2.59,1.14-.46.59-.65,1.6-.46,2.96.71,7.34,2.35,13.45,4.63,18.14,2.1,3.18,4.38,4.81,6.91,4.88,3.3.03,7.25-2.35,12-7.22,1.08-1.45,1.85-3.61-1.82-6.94-.99-.99-1.48-1.02-1.6-1.02-.4,0-.83.31-1.36,1.08-1.76,1.76-3.46,2.62-5.12,2.62"/></g></g></g></g></g></svg>