<svg xmlns="http://www.w3.org/2000/svg" xmlns:xlink="http://www.w3.org/1999/xlink" viewBox="0 0 1680 1050"><defs><style>.cls-1{fill:none;}.cls-2{clip-path:url(#clippath);}.cls-3,.cls-4{fill:#f8f2e9;}.cls-5{fill:#e3d1b0;}.cls-6{fill:#fff;}.cls-7{fill:#9f2242;}.cls-8{fill:#dec69b;}.cls-9{clip-path:url(#clippath-1);}.cls-10{clip-path:url(#clippath-3);}.cls-11{clip-path:url(#clippath-2);}.cls-12{fill:url(#Degradado_sin_nombre_94);}.cls-12,.cls-13,.cls-14{mix-blend-mode:multiply;}.cls-13{fill:url(#Degradado_sin_nombre_96);}.cls-14{fill:url(#Degradado_sin_nombre_97);}.cls-15{fill:url(#Degradado_sin_nombre_91);}.cls-16{fill:url(#Degradado_sin_nombre_80);}.cls-17{fill:url(#Degradado_sin_nombre_30);}.cls-18{fill:url(#Degradado_sin_nombre_38);}.cls-19{fill:url(#Degradado_sin_nombre_34);}.cls-20,.cls-4{opacity:.5;}.cls-21{fill:url(#Degradado_sin_nombre_7);}.cls-22{fill:url(#Degradado_sin_nombre_2);}.cls-23{fill:url(#Degradado_sin_nombre_8);}.cls-24{isolation:isolate;}.cls-25{fill:url(#Degradado_sin_nombre_38-2);}</style></defs><g class="cls-24"><g id="Capa_1"><g><g><g class="cls-9"><path class="cls-4" d="m705.46,248.87c1.08-15.29,4.66-30.35,10.7-44.7.6-1.01,2.25-1.75,3.97-1.7,1.01,0,1.81.32,2.23.83v1.74c-4.87,12.03-8.15,25.92-9.87,41.3-.87,7.35.44,16.39,4.16,28.33,1.24,6.77.78,15.31.3,21.97.09,2.94,1.45,4.32,2.71,4.32,1.31.05,2.71-1.15,2.89-4.55.62-8.36.87-15.54,1.08-21.9l.02-.67c.39-11.8.69-21.1,3.03-30.35,1.15-4.96,5.95-12.31,14.21-21.88,3.79-5.92,6.29-11.3,7.88-16.94.39-1.26.69-2.62,1.06-4.11.44-1.81.87-3.4,1.35-4.98l2.92-9.37c.48-.73,1.29-.9,1.88-.9,1.47.02,3.05.9,3.99,2.09.41.64.96,1.65.69,2.82l-7.99,27.09c-1.81,4.89-5.67,9.28-9.76,13.94l-.18.21c-2.23,2.5-4.2,4.78-6.06,7.26-3.35,4.39-3.83,7.76-4.57,12.83-1.33,9.25-2.39,22.45-3.38,41.51l-5.42,27.37c-1.35,8.84-.94,18.76,1.19,30.38.28,4.06-.28,5.4-.67,5.83l-.6.16c-.46,0-1.84-.3-4.71-3.08-7.6-9.25-7.19-40.62-6.82-65.85-.62-7.85-2.18-14.44-3.6-20.46-1.56-6.47-3.05-12.58-2.64-18.55m27.26-41.24c-.14,1.74-.6,2.92-1.31,4.57l-3.47,8.15c-.32,1.81-.11,2.46-.05,2.69l.21.07.92-.3c7.14-6.89,11.41-15.27,12.93-25.62.11-.78-.05-1.08-.14-1.17l-.71-.18c-.48,0-1.06.09-1.74.3-2.25.6-3.9,1.93-5.28,4.16-.55.96-.73,1.49-.87,2.57l-.48,4.78m32.7,72.53c-.83-.83-1.08-2.16-.99-3.93.85-13.48,3.83-26.13,9.21-38.76.85-1.86.76-2.71.69-3.08l-.39-.07c-1.35,0-2.76,1.01-3.86,2.76-4.36,6.47-7.76,18.96-10.22,38.23-2.71,26.84-2.66,37.36-2.3,48.28-.09,2.02.32,3.63,1.06,4.45l.78.37c.69.02,2.07-1.06,2.8-5.26l2.43-16.26c.64-4.29,1.93-8.43,3.83-12.56,7.46-14.79,11.09-24.84,13.78-38.46l.16-.83c.14-1.12.41-2.23.57-3.35.8-5.19,1.58-10.06,4.82-14.74,2.96-4.29,7.42-8.08,13.66-13.29l.87-.71c1.29-1.06,2.8-2.39,4.2-4.22,3.63-4.61,6.93-10.54,9.78-17.75.6-2.07.37-4.34-.73-5.72-.44-.64-.92-.94-1.49-.96-1.15-.02-2.66,1.63-3.93,4.41-6.34,13.66-13.98,23.67-22.62,29.82-4.48,3.56-6.38,7.74-8.68,15.18-1.03,3.35-1.68,6.66-2.34,10.08-2.59,13.66-4.75,21.26-6.75,23.88-.55,1.84-1.77,3.1-3.05,3.1h-.25l-.23-.09-.83-.53Zm30.68-82.64c-1.61,7.16-4.09,13.06-7.65,17.89-.51,1.01-.51,1.65-.44,1.97l.39.21,1.4-.76c5.53-4.94,9.41-11.48,11.96-20.02l-.11-.85c-.28-.37-1.06-.8-2.14-.85-1.33,0-3.05.57-3.42,2.41m-53.19,84.01c-.85-.9-1.15-2.36-.96-4.43.96-13.25,3.51-25.28,6.18-36.3.14-1.81-.05-2.59-.16-2.87-.39.07-1.19.53-2.92,2.57-2.53,3.31-4.32,7.21-5.33,11.64-1.72,8.13-2.82,16.99-3.54,28.58-1.81,20.87-1.72,38.69.21,52.85.55,3.81,1.79,5.3,2.46,5.3.87,0,2.3-1.84,2.78-6.04.62-5.3,1.15-11.66,1.72-22.09.44-4.84,1.45-9.23,3.19-12.97,5.63-13.36,8.75-28.7,11.73-43.58l.09-.21c.64-3.37,1.35-6.68,2.02-9.96l.05-.28c1.1-7,4.16-12.56,9.44-16.99,7.55-6.91,13.25-17.13,17.86-32.19.51-1.61.71-2.69.44-4.36-.32-2.18-1.19-3.33-1.84-3.35-.62,0-2.02,1.01-3.01,4.89-6.7,16.67-12.7,26.98-20.25,34.46-4.84,5.42-7.37,10.7-10.42,21.63l-4.52,27.96c-.21,1.29-.39,2.39-1.06,3.65-1.06,2.23-2.14,2.66-2.92,2.66h-.23l-.25-.02-.76-.57Zm18.72-67.24c-.69,1.1-1.12,1.91-1.33,3.01-.16,1.01-.09,1.45,0,1.58l.41.18h.02c.6-.05.94-.34,1.52-.9l.16-.11c6.13-5.56,10.7-14.42,13.41-26.33.18-.83.09-1.47-.25-1.91-.3-.37-.83-.55-1.52-.55-1.35-.05-3.1.85-4.27,2.14-.9.99-1.15,1.88-1.52,3.49l-1.38,7.09c-.87,3.54-2.59,7.53-5.26,12.31m30.21,66.1c1.79-5.67,4.52-14.21,9.21-25.26,4.34-10.06,12.74-18.14,24.93-24.02,7-3.42,12.88-9.6,18.02-18.85.62-1.06.73-1.47.46-2.48-.39-1.86-1.93-3.7-3.03-3.74-.8.21-1.06.71-1.4,1.4-2.02,3.77-3.65,6.38-5.65,8.84-5.05,5.51-12.08,10.86-21.31,16.37-6.22,3.4-10.81,9.05-14.58,17.77-.87,2.02-2.02,3.19-3.15,3.15h-.3l-.23-.09-.67-.44c-.69-.8-.83-2-.53-3.74.67-3.83,2.18-8.08,4.48-12.77.67-1.26.94-1.79.9-2.85-.09-1.12-.32-1.31-.32-1.31-.05,0-.76.07-2.3,1.58-7.03,7.71-10.91,23.72-12.42,51.73-.09,1.81-.18,3.01.21,4.18.21.57.64,1.54,1.56,1.58.6.07,1.33-.39,2-1.15,1.01-1.12,1.54-2.39,2.09-4.06.62-1.75,1.17-3.44,1.79-5.28l.23-.57m40.72-75.07c-.6,0-2.11.14-2.82,1.4-2.89,5.37-5.26,9.51-9.69,13.43-.94.85-1.03,1.42-.9,1.58l.48.14,1.35-.3c5.79-2.87,9.78-7.69,14.26-14.56l.05-.55c-.3-.53-1.4-1.08-2.73-1.15m22.61,25.61c2.02-.71,3.47-1.26,4.89-2.11,3.33-1.95,5.97-4.52,8.06-7.85.69-1.35.8-2.85.25-3.74-.25-.53-.73-.76-1.26-.76s-1.06.21-1.61.6c-2.92,2.78-5.65,5.17-8.13,7.3-1.84,1.38-4.25,2.87-7.65,4.68-4.2,1.54-7.62,2.85-10.42,4.09-1.91.92-3.1,1.54-4.57,3.05-2.8,2.57-5.35,5.65-7.78,9.3l-.25.28-.16.14-1.15.51-.21.07c-.55-.02-1.19-.34-1.47-.92l-.11-.28-.02-.32.28-1.26,2.96-5.44.09-.6h-.37c-2.55-.02-4.91,1.4-5.58,2.76-7.05,14.42-11.14,24.25-12.54,30.05-.3,1.13-.18,2.04.3,2.66.3.46.78.67,1.4.67.78.05,1.63-.39,2.25-1.15,4.39-4.98,8.08-10.1,11.62-15.06l.8-1.08c4.55-6.27,8.86-12.19,14.01-17.15,2.2-2.2,4.29-3.56,7.32-4.89,2.25-1.06,5.01-2.14,8.2-3.26l.85-.28m-103.39,112.03c-1.97,1.68-2.36,3.88-.92,5.85,6.38,5.3,13.16,8.01,19.86,8.1,5.17.11,10.49-1.31,15.87-4.34,23.67-19.49,48.05-39.4,72.35-59.01,1.33-1.15,2.02-1.81,2.53-3.38.6-1.49.64-2.89.16-3.56l-.51-.3c-.48,0-1.13.23-1.72.76-23.14,18.69-48.01,38.73-73.03,58.36-5.51,4.2-10.91,6.25-16.14,6.18-3.12-.07-6.2-.8-9.14-2.41-2.62-1.93-2.07-3.79-1.68-4.52.57-1.15,2-2.04,3.47-2.89l1.1-.71,93.86-68.88c2.48-1.49,3.33-4.2,3.01-5.51-.18-.55-.39-.55-.53-.55-.25,0-.73.09-1.68.73-31.39,21.67-60.84,42.98-89.98,64.98-4.13,3.01-9.37,6.43-16.88,11.09m105.66-60.78c2.23-2.07,2.62-3.99,2.41-4.71l-.57-.37-1.13.44-83.99,64.98c-1.22,1.06-1.49,1.97-1.33,2.32.09.25.46.44,1.06.44.67,0,1.4-.18,2.14-.48,2.89-1.33,6.52-3.58,10.75-6.66l70.67-55.95Zm-58.18,65.9c-.48.55-.34.92-.28,1.03.21.57,1.01.99,2,.99.99.02,1.95-.23,2.96-.78,2.18-1.35,4.64-3.15,7.42-5.58,17.95-15.22,35.2-30.28,51.02-44.84,1.52-1.49,1.7-2.73,1.54-3.21l-.46-.25c-.34,0-.94.16-1.68.67l-54.62,45.74-7.9,6.25Zm50.1-125.44c3.31-1.56,6.25-3.77,8.68-6.64l.23-.96c-.11-.16-.41-.34-1.08-.34-.87,0-1.93.18-3.01.57-1.74.57-2.92,1.35-4.2,2.73-1.03,1.24-1.86,2.48-2.34,3.7-.14.55-.14.87-.14,1.03l.51.14,1.35-.23m-52.25,139.23c2.02,0,4.2-.28,6.66-.9,3.26-1.03,6.27-3.67,10.91-7.81,15.38-13.61,30.17-27.57,46.61-42.98l3.21-3.28c.96-1.03,1.45-1.42,1.56-2.07.18-.76.23-1.38.05-1.77l-.62-.05c-.41-.05-.85.07-1.4.55-7.14,6.13-13.71,12.19-20.69,18.57l-.9.71c-9.28,8.54-19.75,18.18-33.18,29.43-4.18,3.35-8.13,4.8-12.4,4.73-1.19-.05-2.36-.21-3.67-.41l-.85-.23c-.87-.18-1.31-.28-1.65-.28l-1.31.23c-.8.41-1.35.96-1.42,1.54-.11.48.21.99.9,1.61,2.39,1.54,5.07,2.3,8.2,2.39m73.88-52.97c.37-.55.41-1.08.3-1.47l-1.15-.11c-2.8,2.02-5.19,4.73-7.19,6.89l-.83.83c-.73.85-1.52,1.56-2.25,2.41-11.32,11.41-24.61,24.59-37.15,35.27-.6.55-.85.92-.94,1.12l.69.3c2.16,0,5.42-1.93,9.69-5.74,14.12-13.45,26.79-26.38,38.82-39.49m-54.3,55.16c3.05.07,6.36-.87,10.22-2.71,5.42-2.69,8.95-5.97,13-9.96,13.52-13.18,23.99-23.69,31.94-32.12l.32-.25c.96-1.08,1.63-1.74,2.02-2.59.92-1.79,1.01-3.33.85-3.97l-.41-.05c-.32,0-.76.23-1.38.8-13.61,14.19-27.83,28.17-42.31,41.51-4.98,3.83-10.01,5.74-15.61,5.97-1.38,0-2.32.96-2.46,1.88-.09.53.09.85.67,1.06.94.23,2.09.39,3.17.44m20.76-4.38c4.84.09,8.95-1.79,13.25-5.97l19.38-22.27c.3-.55.37-1.17.11-1.63l-.76-.9-1.01.48-4.82,5.44c-9.21,10.47-17.89,20.27-24.52,21.38-1.68.25-2.76,1.88-2.69,2.73,0,.41.28.64.99.73h.07Zm243.23-238.3l-.16-.07c-.94-.34-1.77-.55-2.66-.55-1.06-.02-2.09.23-2.96.69-.6.25-1.17.39-1.63.39-.85-.05-1.63-.32-2.23-.8-2.27-2.64-4.66-4.52-7.23-5.67-1.24-.34-2.48-.57-3.63-.6-2.64-.05-5.19.87-7.76,2.85-.96,1.15-1.31,2.18-.92,3.03.3.92,1.24,1.45,2.92,1.7.96-.07,1.93-.09,2.98-.07,2.5.05,4.78.37,7.67,1.06,7.03,2,10.31,6.66,10.08,14.26v.18c.07,1.24.16,4.55,2.64,4.59.96,0,2.02-.57,3.38-1.79,3.38-3.35,5.03-6.73,4.91-9.96-.16-3.19-1.95-6.29-5.4-9.23m8.59,6.15c2.23,3.65,2.04,6.52,1.19,9.64-4.68,9.55-11.25,13.94-20.76,13.8h-.48c-2.41-.05-4.22-.73-4.61-1.74-.41-.94.69-2.16,1.26-2.76,4.71-3.88,6.47-8.66,4.91-13.18-1.68-4.75-6.75-7.92-12.97-8.01-1.35-.02-2.73.09-3.88.34-3.01-.11-5.49-.87-7.71-2.25-4.06-3.33-7.44-4.82-10.79-4.89-1.65,0-3.19.3-5.07,1.03l-.18.09c-1.61,1.7-1.54,3.6.18,5.33,1.33,1.45,2.64,1.79,4.45,2.25,4.34,1.24,7.35,2.57,8.7,3.86.34.55.55,1.06.46,1.31-.09.14-.41.44-2.25.73-1.06.18-1.97.34-3.01.32-.99,0-2-.16-3.1-.53-5.37-2.27-10.38-5.42-16.26-10.31-1.72-1.54-1.77-2.66-.25-4.48,4.91-4.27,9.39-6.18,14.35-6.08,1.84.02,3.7.3,5.67.87,3.01.69,5.65,1.1,7.9,1.1,2,.07,3.9-.16,5.6-.71l11.53-3.42c1.91-.76,3.49-1.1,5.07-1.06,1.79.02,3.31.62,4.52,1.77l.71.71c-.11.09-.46.37-1.26.9-1.08.96-1.49,1.95-1.15,2.8.39,1.29,2.07,1.61,3.44,1.77.87-.05,1.81-.16,2.66-.11,1.7.02,2.62.34,3.51,1.26,3.24,3.03,5.88,6.34,7.6,9.64m-20.29-25.23c.78-.53,1.22-1.24,1.26-2,.09-1.29-.8-2.85-2.59-4.48-1.45-1.61-3.38-2.98-6.31-5.12l-2.41-1.68c-4.02-2.92-9.48-7.76-10.56-16.55l.07-.53v-1.47c-2.98,2.16-3.86,5.23-2.73,10.08.76,2.85,1.56,3.81,3.19,5.72l1.19,1.38c2.43,2.89,4.09,6.11,4.84,9.53.85,3.67,1.81,6.04,2.82,7.05.78.9,1.52,1.35,2.27,1.35l.83-.11c3.54-.83,6.11-2.09,8.13-3.17m-20.16-10.56c-.78-.14-2.07.3-3.01,2.11-2.62,5.49-1.15,9.96,4.96,12.97.71.32,1.31.41,1.84.37,1.88.23,3.08-1.81.94-2.43-5.74-2.66-7.51-5.26-3.65-11.94.41-.62-.18-1.19-1.08-1.08m-8.64-13.1c.25-.07.34-.41.39-1.33-.46-4.82-1.19-10.84-2.94-14.49-.37-.99-.67-1.1-.69-1.1l-.57.34c-2.64,2.36-3.95,5.37-3.95,9.21.25,1.03,1.15,1.54,1.56,1.33.78-.39.46-3.33,1.91-2.98,2.32.48,2.14,3.83,2.5,5.9.28,1.45.78,3.17,1.79,3.12m.65,9.79c.99,0,2.11-.71,2.39-1.54.23-.6,0-1.1-.6-1.61l-1.79-1.29c-4.09-2.96-8.13-6.04-11.55-8.84-4.57-5.74-5.79-11.98-4.13-20.34v-.07s-.21.11-.21.11c-2.92,2.3-4.48,7.21-3.88,12.1.55,4.91,3.77,14.17,19.29,21.42l.48.05m-19.16.82c-1.72-1.26-3.26-2.55-2.8-3.6.23-.48.73-1.01,4.22.55,2.43,1.17,12.67,7.67,15.11,8.29,1.15.46,1.31-.73,1.31-.8,0-.23-.21-.73-1.24-1.54-2.8-2.23-18.3-10.29-22.04-13.87-.55-.44-1.15-.67-1.56-.69-.3,0-.69.07-1.22.73-1.91,3.79-.62,7.46,3.97,11.18,9.39,6.75,16.6,10.7,21.97,11.98h.18s.6-.09.6-.09c0-.02,0-.34-.39-1.08-.71-1.17-3.1-2.78-6.2-4.04-3.99-1.7-7.51-3.72-11.92-7.03m21.37,21.07c4.22.6,1.42-1.91.44-2.48-1.42-.9-3.44-1.95-5.35-2.66-4.22-1.56-11.2-5.49-15.77-7.3-3.99-1.63-6.43-1.52-7.94-1.35-2.57.21-4.29,1.68-4.64,2.96-1.1,5.3,2.39,8.91,11.62,11.04h.32c2.11.07,3.01-.5,3.05-.67,0-.05-.11-.34-.64-.76l-9.23-4.11c-3.19-1.61-1.52-4.78-.83-5.19.46-.37,1.56.07,2.39.14,4.32.41,19.31,8.06,21.49,9.16,1.7.76,3.42.99,5.1,1.22m-29.09-41.25c1.79,1.49,2.62,2.3,2.55.85,0-1.26-.76-2.5-2.18-3.95-1.1-.92-2.07-2.64-2.87-5.19l-1.47-5.33c-.39-.71-.92-1.15-1.31-1.17l-1.24.57c-2.55,1.7-3.56,4.8-3.99,7.09-.92,5.05.16,11.02,2.62,14.26.39.53.73.73.92.73l.6-.32c1.24-.67,2.36-1.61,1.24-3.28-1.29-1.65-3.26-6.84-1.84-9.53,1.72-3.28,4.34,2.98,6.98,5.26m-14.37,6.89c.3-.14,1.03-1.03.87-1.7-.05-.25-.28-.69-1.12-.69h-.18c-1.81.05-15.52,5.51-23.65,9.46l-1.24.57-1.19.48c-.99,0-1.45-.28-2-.78l-.25-.6c.09-.76,1.54-1.63,2.18-2.02l.37-.23c7.69-5.19,15.15-7.37,24.91-9.9l.34-.3-.11-.85-.09-.16v-.09l-.25-.32-.99-.14c-6.91.92-14.92,2.32-23.69,7.65-1.72.62-3.44.92-5.1.92-1.61-.05-2.92-.28-4.41-.83h-.41s-.28.37-.28.37c.69,4.36,2.55,8.01,5.69,11.27l.09.09c.53.57,1.03,1.06,1.52,1.08l1.38-.41c4.18-1.81,8.06-3.81,11.43-5.65,1.03-.5,2-1.03,2.89-1.52,4.73-2.55,8.77-4.75,13.29-5.72m9.78,43.04c-.62-.05-1.42.02-1.77-1.1-.39-1.54.96-5.58,1.61-6.61l-.28-.34c-3.01,2.48-4.68,5.74-4.41,9.12.46,2.04,2.04,3.4,3.9,3.44.78.02,1.65-.23,2.36-.69,1.95-1.31,3.35-3.7,4.2-7.14.11-.57,0-1.19-.37-1.61l-.8-.48-.73.48c-.83,2.04-2.69,5.03-3.72,4.94m-12.52-6.57c-1.97-.3-3.54-2.16-3.83-2.85-.41-1.12-.18-2.39.62-3.54,1.79-2.27,4.25-3.95,6.84-5.74l.16-.16c1.95-1.31,3.79-2.62,5.46-4.13l.18-.18-.23-.07-.62.14c-5.79,2.5-12.97,6.04-16.53,10.91-.8,1.26-1.88,3.77-.44,5.74,2.96,3.31,5.63,4.98,7.88,5.01,1.03.05,2.04-.28,2.94-.96,2.89-2.66,4.06-6.34,4.84-9.55.25-.83.25-1.52.09-1.86l-.51-.07-1.06.57c-.9,1.68-3.74,6.75-5.81,6.75m9.57-23.14c-2.07-.07-8.95,3.44-14.49,6.24l-.14.02-1.24.69c-2.27,1.17-5.05,2.62-6.82,2.59l-1.08-.3c-1.1-.8-1.91-2.37-2.02-2.66-.46-1.84.92-2.92,2.14-3.9l.34-.3c6.04-4.91,13.94-8.63,19.29-10.49.76-.25,1.22-.55,1.35-.85l-.16-.6-.07-.16v-.09s-.05-.05-.05-.05l-.51-.07v.05c-13.13,3.63-22.25,8.72-27.21,15.18-1.91,2.96-.64,6.47,1.47,8.36,1.01.94,1.91,1.4,2.87,1.42.87,0,1.81-.28,3.17-.92,2.39-1.12,22.89-11.04,23.69-13.59v-.32s-.55-.25-.55-.25Zm-197.84-15.29c-.14-.37-.6-.6-1.26-.62-.78,0-1.65.28-2.57.83-24.2,16.81-58.04,47.41-81.67,97.37-2.57,8.4-7.65,15.59-15.06,21.19-1.22.9-1.58,1.56-1.52,1.84,0,0,.3.73,2.98,1.35,1.65.16,3.33.25,4.91.3,16.58.25,29.46-6.22,39.38-19.72,28.68-43.32,53.77-71.91,76.62-87.45,1.77-1.61,2.23-3.97,1.97-5.01l-.64-.21c-.46-.02-.92.25-1.65.92-24.31,18.99-52.1,42.38-75.35,80.06-6.11,8.4-12.4,14.63-19.29,19.01-2.73,1.7-4.75,2.5-6.25,2.5-.85,0-1.49-.34-2.07-.9-.67-.87-.87-2.18-.53-4.09,21.19-46.77,47.5-80.98,80.47-104.83,1.45-1.17,1.65-2.16,1.52-2.55m-68.09,101.72c33.45-53.13,59.01-76.82,79.49-93.01,2.34-1.33,2.71-2.18,2.64-2.39-.07-.28-.76-.67-2.07-.67-1.17,0-2.53.3-3.63.87-33.57,24.5-60.57,55.08-80.11,90.81-1.24,2.53-1.68,4.59-1.12,5.53.21.32.62.53,1.12.53,1.08,0,2.5-.64,3.67-1.68m32.93-.28c-.85,0-1.58-.41-2.02-1.1-.69-1.15-.48-2.76.64-4.84,19.22-28.4,38.96-47.07,57.56-63.74,1.72-1.15,2.92-5.1,2.41-6.89l-.41-.16c-.32,0-.76.28-1.42.92-31.04,22.96-53.22,47.73-67.82,75.81-.48,2.11-.18,4.02.96,5.56,1.17,1.56,3.28,2.53,5.72,2.53,2.41.05,5.01-.71,7.48-2.18,4.66-3.79,11.8-12.05,20.04-21.67l.44-.44c11.57-13.45,24.73-28.72,36.78-38.41,1.26-1.74,1.33-5.23.44-6.89l-.48-.64-.71.48c-18.09,16-38.62,34.94-54.21,58.06-1.63,2.25-3.67,3.6-5.4,3.6m64.08-47.91c-18.9,14.81-33.77,28.49-44.77,47.6-1.24,3.95-1.06,7.23.53,9.44,1.54,2.04,4.25,3.19,8.06,3.24,1.86.07,3.86-.18,5.95-.57,4.57-1.84,8.91-5.1,12.93-9.67l26.15-27.99c.73-1.03.64-3.1.02-4.32l-.96-.94-.94.41c-3.38,3.47-7.07,7.37-10.58,11.04-8.06,8.49-16.44,17.27-25.28,24.91-1.24,1.12-2.82,1.74-4.52,1.72-2.39-.07-4.68-1.4-5.6-3.33-.96-1.95-.6-4.13.92-6.15,12.21-16.67,25.28-29.11,38.71-41.42.69-1.1.73-2.94.23-3.93l-.53-.25-.3.21Zm6.79,6.15c-14.26,11.46-26.89,24.15-37.58,37.77-.32.55-.46,1.17-.18,1.58l.8.46.9-.34c12.86-11.02,25.26-23.19,36.8-36.09.32-.6.18-1.95-.37-2.87l-.37-.5Zm4.31,21.29c-14.21,12.74-23.65,23.12-25.88,28.49-1.38,4.84-1.29,8.43.28,10.56,1.31,1.74,3.77,2.69,7.32,2.73,2.46.05,5.37-.34,8.68-1.08,3.9-1.38,11.89-8.63,23.6-21.58.67-.96.41-2.46-.07-3.44-.34-.69-.71-1.01-1.03-1.13l-1.47,1.47c-6.75,6.66-13.75,13.61-21.17,18.3-1.74.94-3.49,1.4-5.1,1.4-2.39-.07-4.34-1.03-5.26-2.69-.94-1.68-.76-3.65.39-5.67,5.85-8.84,13.34-16.88,22.2-23.97.87-.9,1.17-2,.87-2.94-.37-.6-.87-1.01-1.65-1.03-.51,0-1.1.21-1.72.57m9.68,9.8c1.03-1.12,1.24-3.17.96-4.45-9.67,6.04-17.63,13.61-25,23.88l.14.76,1.08.5,1.49-.53,21.33-20.16m1.84,44.46c1.52.02,3.01-.21,4.25-.71,5.97-2.92,11.5-7.85,16.44-14.63.37-.73.39-1.72,0-2.46-.3-.55-.76-.85-1.24-.85l-.8.23c-4.82,5.33-9.09,9.41-13.09,12.33-1.22.69-2.43,1.06-3.79,1.03-2.41-.05-4.66-1.19-5.95-3.01-1.12-1.68-1.31-3.72-.51-5.83,1.19-2.62,5.17-7.23,13.22-15.38.34-.51.14-1.35-.18-1.88-.3-.67-.78-1.01-1.24-1.01l-.83.25c-7.09,6.2-12.95,12.77-17.47,19.54-1.06,2.55-.8,5.1.64,7.28,2,2.98,6.22,5.03,10.54,5.1m5.96-13.12c3.15-3.01,5.69-5.49,9.18-9.3,1.15-1.22,1.84-1.97,1.84-2.85,0-.92-.78-1.97-2.02-1.97-.44,0-1.01.16-1.52.51-4.2,2.92-7.81,6.27-11.04,10.26-.92,1.06-1.17,2.09-.8,2.96.34.67,1.15,1.19,2.11,1.22.41,0,1.29-.11,2.25-.83m8.82,12.51c-1.65,3.15-1.22,5.69,1.29,7.71l8.4,7.07,1.12.32c.73.07,1.22-.39,1.42-.76.46-.69.48-1.61.05-2.46-.51-1.1-1.91-2.32-3.31-3.47l-.23-.23c-2.07-1.81-4.22-3.72-4.32-6.06-.07-1.17.46-2.3,1.56-3.37l6.41-7.37c.41-.9.48-1.86.09-2.48-.28-.48-.78-.78-1.31-.78l-.99.25-10.19,11.62m19.14-5.11l-.11-1.26c-.39-.53-1.06-.92-1.7-.92l-1.03.6-5.12,8.93c-.18.55-.16,1.13.09,1.58l1.06.6.96-.51,5.85-9.02Zm-7.75-140.27c-12.05,2.96-27.23,10.72-39.15,17.13-8.31,5.79-11.2,11.78-8.84,18.21,1.03,1.52,2.23,2.3,3.63,2.34,1.29,0,2.73-.51,4.52-1.7,12.1-8.89,22.96-15.22,33.04-19.49,1.68-.6,2.16-2.14,2.07-3.03l-.41-.62c-8.47,3.17-19.61,7.92-30.9,16.62-1.45.73-2.64,1.01-3.63.99-1.61-.02-2.89-.83-3.42-2.16-.6-1.47-.16-3.15,1.17-4.48,10.17-8.2,23.69-14.01,37.84-19.7,2.69-1.75,4.09-3.42,4.57-4.27l-.48.16Zm-7.82,22.74c-15.7,7.67-27.05,15.2-35.63,23.67-2.3,3.72-1.29,12.28,3.12,16.88.83.6,1.84.96,2.92.96,2.3,0,5.49-1.79,7.58-2.94l1.33-.71c4.41-2.41,8.75-5.37,13.75-9.34,2.23-2.18,3.1-5.21,2.87-6.29l-.21-.07-.44.23-19.06,11c-1.15.64-2.23.96-3.21.92-1.72-.05-3.1-.92-3.97-2.53-1.24-2.41-1.1-5.6.37-7.85,1.74-3.44,10.49-8.47,19.01-13.36,4.41-2.5,8.2-4.71,10.79-6.5,1.24-.96,1.74-2.59,1.38-3.54l-.6-.53m-22.12,27.29c7.9-4.41,13.98-8.61,18.73-12.88.51-.6.78-1.58.87-2.25,0,0-20.66,10.42-23.3,14.42-.25.34,1.12.92,2.36.94l1.33-.23m18.2,29.4c.96-.92.96-2.48.53-3.58-.28-.64-.67-1.06-1.15-1.15l-9.37,5.76c-.99.8-2,1.22-3.05,1.19-1.45-.07-2.66-.92-3.38-2.48-.78-1.81-.78-4.64,1.03-6.66,2.5-3.12,7.3-6.96,12.05-10.58.92-1.24,1.01-2.82.62-3.6l-.53-.37-.69.3-15.68,11.46c-3.93,2.64-5.14,6.25-3.74,11.02,1.38,3.28,3.17,5.79,5.23,7.39.9.64,1.91.96,2.87.99,1.13,0,2.36-.41,3.67-1.26l11.57-8.43m-8.61-4.1l6.66-5.4.02-1.58-1.08-.71-7.62,4.36c-.57.53-.78,1.4-.51,2.11.32.78,1.01,1.29,1.84,1.29l.69-.07Zm23.03,25.29c-.28-.92-.9-1.56-1.45-1.56l-.96.53-6.38,4.68c-.83.62-1.72.87-2.69.85-1.86-.02-3.67-1.31-4.73-3.33-1.22-2.09-1.24-4.52-.11-6.29l5.88-6.27c.76-.76.92-2.46.44-3.63-.25-.57-.6-.87-1.06-.94-5.14,2.41-8.33,5.95-11.39,9.64-3.54,5.17-1.31,8.7,1.77,13.57l1.49,2.48c1.68,1.54,3.33,2.41,4.73,2.43.8,0,1.52-.21,2.32-.69l11.59-8.59c.94-.71.76-2.18.55-2.89m-4.63-7.12c-.28-.62-.96-1.1-1.68-1.1l-.71.18-4.02,3.05c-.76.67-.8,1.63-.6,2.3.16.3.51,1.01,1.22,1.03l1.08-.39,4.11-3.08c.64-.6.85-1.33.6-2m20.1,23.1l-5.3,5.85c-1.24.9-2.41,1.35-3.56,1.33-1.79-.05-3.54-1.1-4.57-2.94-1.31-2.11-1.56-4.87-.6-6.91l4.04-5.35c.8-1.15.6-2.76.09-3.81-.37-.62-.83-1.08-1.22-1.08l-.73.48c-2.5,2.04-5.37,5.65-9.05,11.04-1.31,2.2-.99,5.37.85,8.75,2.46,4.45,6.84,7.83,10.24,7.88,1.35.02,2.46-.41,3.38-1.35l8.79-10.17c.71-1.4.53-2.64.18-3.33-.28-.53-.73-.78-1.22-.8l-1.33.41Zm-8.43,2.39l4.87-4.64c.23-.48.18-1.24-.14-1.84-.28-.55-.83-.87-1.33-.87l-.67.23-4.66,4.57c-.32.55-.39,1.1-.14,1.7.28.55.9.99,1.54.99l.53-.14Zm-16.4,117c2.36-21.88,6.43-37.54,12.33-47.82.94-1.91.8-5.9.11-7.81-7.07,10.86-11.36,23.14-13.89,39.7-.87,4.18-2.23,5.03-3.28,5.03-1.68-.05-2.43-2.11-2.87-3.65-2.73-13.73.44-30.22,10.03-51.96.55-1.22.46-2.53-.14-3.47-.39-.57-.94-.92-1.4-.94l-.87.46c-12.26,19.47-15.59,58.85-5.9,71.34,1.17,1.35,2.59,2.16,3.72,2.16,1.58.05,2-1.88,2.16-3.03m7.92-65.98c-6.38,10.47-10.24,22.73-11.76,37.29l.8.73.37-.6c1.97-12.31,5.92-23.14,11.71-32.19.53-1.45.18-4.2-.51-5.35l-.37-.16-.25.28Zm59.47-180.44c4.45-1.74,8.49-3.42,11.46-6.98,2.48-2.96,3.49-6.38,2.87-9.69-.67-3.26-2.87-6.13-6.41-8.04-3.15-1.7-6.18-1.72-9.69-1.81-38.94-.62-76.18,9.12-110.73,28.84-6.75,4.52-13.71,6.64-21.38,6.5-.8,0-1.63-.05-2.41-.11-2.14.11-3.63.62-3.97,1.4-.37.64.14,1.88,1.22,3.42,7.28,5.67,14.99,8.54,23.53,8.68,4.73.09,9.73-.71,14.85-2.41.96-.14,1.26-.55,1.15-1.49l-1.26-6.43c-.23-.87-.78-1.31-1.1-1.31s-.69.37-.92,1.15l-2.98,4.87c-1.79,1.72-3.79,2.55-6.54,2.55-4.61-.18-7.03-1.03-7.83-2.78-.62-1.19-.37-2.57.76-4.22l.14-.14c32.44-21.93,66.51-31.98,104.21-34.55,2.85-.23,5.72-.46,8.56-.41,4.34.07,7.55.73,10.01,2.02,3.05,1.63,4.89,2.2,5.17,5.01.23,2.64-1.01,5.23-3.51,7.32l-23.12,10.75c-8.82,3.67-14.58,9.32-18.12,17.82-4.43,12.15-17.86,49.27-5.69,65.66,4.89,7.69,10.24,12.81,16.42,15.61h.37s-.05,0-.05,0c1.03.02,1.84-.57,2.32-1.68.67-1.38.69-3.63-.73-5.23-20.85-16.76-18.09-29.27-13.5-49.98l.55-2.32c4.64-21.38,11.53-28.79,22.48-35.01,2.8-1.68,5.69-3.24,8.56-4.71,1.49-.71,3.15-1.4,5.33-2.27m178.49,53.21c1.56-4.5.32-7.16-1.15-9.55-6.93-8.31-12.97-13.75-17.84-16.21h-.21s-1.22.39-1.22.39l.11.71,2.07,1.84c.99,1.06,1.4,1.95,1.29,2.78-.14.67-.51,1.24-1.17,1.65l-.25.05-.83.14c.11.21.44.69.96,1.45,6.52,7.99,13.06,17.7,9.44,31.11-1.72,6.38-3.95,12.9-8.45,12.79l-11.96.25c-1.1.39-1.77,1.4-1.72,2.57.09,1.22.83,2.64,2.41,2.96h15.02c3.49-.55,6.02-3.28,7.69-8.4l5.81-24.52Zm-36.39,12.75c-.07.25.02.87.78,1.38,3.26,2.5,6.36,3.77,9.16,3.83,3.28.05,6.38-1.56,9.21-4.73.57-.99.46-1.93.18-2.43l-.8-.57-.85.28c-2.23,2.32-5.51,3.56-9.39,3.49-2.3-.02-4.89-.53-7.65-1.42l-.64.18m21.43-13.74c-1.97-5.28-5.9-10.61-9.11-14.65-2.53-3.7-3.03-5.85-2.2-10.19.57-3.79-1.01-5.99-5.4-7.65-1.65,0-3.19,1.12-3.74,2.69-.21.85-.23,2.04,1.03,2.98,1.4.85,2.66,1.88,3.63,3.03,1.06,1.4,1.49,2.46,1.63,4.02.05.6.09,1.29.07,1.97,0,1.06-.11,1.72-.39,2.69-.41,1.1-.3,1.72.39,2.36,1.77,2.43,4.13,4.96,7.14,7.65,1.79,2.62,2.27,4.43,1.7,5.76-.28.67-.96,1.52-2.53,1.81-5.01-.25-11.16-2.41-18.92-6.59l-.71-.37.67,1.06c8.49,6.8,15.57,10.17,21.63,10.29.9,0,1.79-.07,2.73-.23,1.42-.41,2.34-1.1,2.78-2,.57-1.1.44-2.66-.39-4.64m-17.72-20.66c-.3-.76-.83-1.33-1.31-1.47-.8-.18-1.61.64-2.14,1.35-1.54,2.16-2.11,4.2-1.84,6.15.55,2.34,1.58,4.06,3.26,5.37l.3.21c-1.08-4.09-.6-6.91,1.56-9.07.44-.57.55-1.61.16-2.55m-114.61-22.57c6.91-1.17,9.67-5.37,8.66-13.36-.69-10.75-7.19-12.28-14.03-12.42-.71-.02-1.4,0-2.09,0h-.39c-.76.23-1.24.64-1.19.92.05.44.96,1.22,2.78,1.31l1.17-.09c5.9.09,9.76,5.49,10.03,10.72.3,4.91-2.62,8.54-7.26,9.12-10.74,2.78-19.1,6.15-24.75,10.01-11.2,5.56-16.6,16.88-16.19,33.84l.16,1.52.57-.37c2.48-1.84,3.86-6.25,4.09-13,3.81-17.04,18.12-23.58,38.43-28.19m-2.8-17.57c-1.31-.41-2.76-.62-4.04-.64-3.42-.05-5.58,1.4-6.41,2.8-.55.94-.67,1.91-.18,2.82.87,1.49,3.26,2.41,6.52,2.48,1.22,0,2.55-.14,3.99-.32.67-.25,1.01-.48,1.17-.67l-.69-.25c-3.88-.37-5.21-2.02-5.12-3.38.05-1.29,1.45-2.76,5.12-2.71l-.37-.14m-28.08,19.93c2.43-5.76,18.55-5.35,16.46-6.41-5.3-2.85-18.07.87-22.11,6.06l-.44.51c.09.16,1.08.76,2.85.78,1.4.02,2.62-.34,3.24-.94m-3.42,32.32c-3.67,7.99-6.84,13.75-11.48,16.71-.25.25-.62,1.06-.62,2.11,0,1.22.51,2.27,1.17,2.87l9.69,7.46.16.02.6.02c1.26.02,2.39-.64,2.89-1.72.46-.9.32-1.88-.34-2.62-.71-.94-1.68-1.91-2.59-2.71l-.87-.76c-1.79-2.41-1.61-4.45-1.4-6.29,3.58-14.44,10.19-21.33,18.48-28.88.28-.32,0-1.63-1.45-.9-5.83,2.96-10.91,8.45-14.23,14.67m27.1,7.63c-1.56,3.93-3.31,9.46-4.29,20.46-.6,3.31-2.2,3.97-3.47,3.93-1.4,0-3.12-.94-5.33-2.87-3.58-6.11-1.49-15.59,6.84-30.81.46-1.08.44-1.81.3-2.11l-.28-.05c-.28-.02-.6.07-1.19.71-7.16,9-11.16,19.1-12.35,30.83-.11,3.01,1.15,5.23,4.06,7.19,2.96,2.02,6.31,3.54,10.03,4.48,1.91.02,3.19-.28,3.83-.99.48-.41.64-1.03.64-1.79-.51-10.84.9-20.2,2.32-27.92.14-.6.14-1.17-.02-1.49l-.46-.05-.64.48Zm-10.61,15.9c.51,3.01,2.23,1.13,2.3.92,1.65-9.94,3.51-16.99,6.11-24.08l.28-1.08-.23.32c-.67-.94-6.43,12.28-8.38,21.21-.18.96-.18,1.86-.07,2.71m30.28,12.72c-.14,3.21-1.86,4.32-3.44,4.29-1.93-.02-4.11-1.7-5.74-4.39-2.43-7.26-3.12-13.87-2.41-20.89.14-.99-.18-2.04-.78-2.71l-.94-.57c-.55,0-1.22.8-1.65,2.66l-.16,2c-.64,9.64-1.45,20.59,3.51,26.04,2.25,2.46,5.53,3.67,9.94,3.74,1.03.02,2.14-.02,3.4-.14,1.03-.14,1.81-.64,2.3-1.49,2.5-4.45-1.86-16.83-3.6-20.57-.55-1.06-1.03-1.38-1.31-1.47-.55.41-.67.94-.6,1.86l1.49,11.64m-7.09-4.97c.09,1.19,1.13,1.95,2.14,1.95l.85-.3c.25-.34.25-.92.07-1.65-.92-4.48-1.22-7.32-1.4-11.85-.11-.76-.73-1.22-1.15-1.22-.18,0-.57,0-.64.76-.32,4.34-.28,8.36.14,12.31m5.66-34.17c3.4-1.84,10.1-5.6,13.68-6.82.57-.28.78-.85.69-1.31-.05-.14-.16-.48-.73-.32-3.58.78-11.32,4.57-14.42,5.85-.92.37-1.29,1.42-1.06,2.27l.51.67c.3.14.78.05,1.33-.34m26.93,48.96c1.01-1.1.92-2.34-.23-4.18-2.62-3.08-4.61-6.04-6.27-9.21-.46-.48-1.01-.85-1.56-.87l-.6.28c-.3.32-.39.87-.16,1.47.6,2.48,1.58,4.61,2.94,6.41.6.78.73,1.65.34,2.41-.34.69-1.12,1.12-1.97,1.08-.99,0-2-.57-2.59-1.58-2.55-4.71-3.56-7.67-4.18-12.12-.55-2.64-2.25-3.88-3.54-3.88l-1.08.39c-.28.37-.39.9-.28,1.63l3.15,13.39c1.97,6.15,7.94,6.75,9.67,6.75,2.62.05,5.03-.67,6.36-1.95m35.9-13.59c-14.69,12.03-17.52,24.8-8.63,38.92.8.69,1.74,1.17,2.3,1.19l.46-.18c.18-.23.21-.85-.05-1.77-6.82-14.35-3.26-26.63,10.56-36.53.23-.3.76-.92.62-1.45-.28-.53-1.1-.92-2.2-.92-.94-.05-2.02.25-3.05.73m11.31,5.37c-15.02,11.66-19.33,23.42-13.2,35.86,7.48,9.3,16.16,16.85,23.83,23.46l.23.18c16.39,14.14,29.32,25.32,19.72,45.23-.6,1.12-.71,1.81-.67,2.07l.9-.46c12.7-14.63,10.17-30.08-7.62-47.16l-26.86-24.75c-3.63-4.94-4.89-9.73-3.7-14.35,1.15-4.59,4.71-9.05,10.7-13.48,1.45-1.68,1.93-3.65,1.22-5.23-.41-1.15-1.52-1.86-2.71-1.88-.62,0-1.26.16-1.84.5m-10.47,101.24c-1.63-.02-3.33,0-5.12.11-11.89,2.14-20.37,9.64-22.66,20-2.14,9.51,1.58,19.31,9.51,25,.67.48,1.49.69,2.46.71,1.81,0,3.44-.8,3.95-1.95.41-1.06-.18-2.41-1.77-3.79-6.93-5.81-9.85-12.74-8.29-19.45,1.68-7.14,8.33-13.29,16.67-15.27,5.67-.67,11.09-.8,15.96-.94,16.67-.41,28.65-.71,28.52-18.14-.11-1.91-1.01-2.94-1.56-3.1-.64.46-1.01,1.1-1.06,2.94-3.01,13.32-8.17,15.93-15.41,15.8-2.36-.02-4.84-.34-7.78-.76l-1.15-.21c-3.63-.39-7.69-.92-12.26-.96m30.18-65.35c-10.15-5.74-17.68-10.58-21.38-16-.55-.48-1.26-.85-1.79-.85l-.62.34c-.48.6-.34,2.04.25,3.72,1.61,4.96,11.55,11.73,19.95,17.08,18.05,10.91,28.88,28.17,28.29,45.05-.51,12.81-7.48,23.21-19.63,29.39-3.51,2.39-10.61,3.31-24.43,3.08-3.97-.07-8.36-.23-13.64-.46-4.39.14-7.85,2.25-9.11,5.74-1.42,3.77-.09,8.1,3.54,11.41.87.71,1.81,1.15,2.57,1.15l.76-.25c.14-.34.07-1.22-.69-2.34-1.97-3.17-1.7-5.26-1.08-6.43.69-1.47,2.32-2.39,4.52-2.57l29.73-.11c17.4-1.74,30.28-13.68,33.57-31.2,3.54-18.73-4.64-43.53-30.81-56.73m-10.65,138.12c1.65,0,2.87-.69,3.83-2.34,0-.18-.07-.21-.62-.28-1.35,0-3.1.39-5.14,1.31-.16.71.02.9.3,1.1.48.09,1.06.18,1.63.21m-9.99-1.59h.92c2.55.05,4.71-.73,6.27-2.11.46-.57.62-.96.55-1.15,0-.09-.11-.3-.76-.64h-.94c-2.39-.02-4.57.6-6.34,1.91-.44.53-.64,1.13-.6,1.38l.9.62Zm-2.1-7.85c-3.21-.02-5.88,1.01-7.9,3.24-.41.55-.46.92-.41,1.03l.55.37c.8.16,1.74.28,2.62.32,2.98.05,5.05-1.12,6.45-3.58l.28-.87-1.58-.51m-3.66-17.29c2.07.02,3.21-1.03,3.67-3.4,1.03-4.59-.57-8.38-4.82-11.59l-.16-.07c-.99-.76-1.97-1.45-2.76-1.63l-.41-.05c-.62,0-.69.16-.78.25-.37.48-.37,1.24,0,2.09,1.35,3.1.83,5.99-1.61,8.29-.67.76-.64,1.4.16,2.14.87.83,1.95,1.7,2.87,2.48.92.76,2.09,1.26,3.51,1.49h.32Zm21.28,20.09c4.66-.83,6.59-3.6,5.99-8.89-.44-2.82.07-5.14,1.49-6.82.51-.48.64-2.41-.07-4.11-.34-.76-.67-1.19-.87-1.4-3.03,3.56-3.7,7.62-4.02,11.46.07,4.39-1.06,7.37-3.49,9.18l-.09.3c.16.11.51.23,1.06.28m-7.06-2.56c1.24.07,2.32-.53,3.38-1.65,1.95-2,2.98-5.26,2.76-8.47-.53-2.23,0-4.41,1.63-6.41,1.88-3.28,2.62-5.99,2.11-7.94-.32-1.19-1.19-2.25-2.5-3.01-.71-.3-1.33-.44-1.77-.48l-.28.44c.48,2.23.57,4.61-1.58,7.28-1.81,2.5-2.23,5.12-1.19,7.71.87,4.45-.57,7.94-4.45,10.33-.8.55-.85.85-.85.85,0,0,.05.44,1.63,1.15l1.13.21m-10.41-33.05c6.02,5.81,6.52,11.73,1.54,18.07-.87.87-1.31,1.58-1.29,2.23.05.48.34.96.94,1.45,2.14,2.78,1.15,4.71-.07,5.88l-.41.67c.07.07.46.32,1.93.41,2.87-.34,5.17-2.09,7.07-5.35.67-2.18.67-4.41-.16-6.57-1.1-2.36-.9-4.68.83-7.12,1.56-3.01,1.68-5.69.46-7.81-1.42-2.27-4.5-3.72-8.08-3.77-.99,0-1.97.07-2.92.28l-.67.41s0,.3.83,1.22m-29.82,33.19c1.7,2.16,3.93,3.93,6.61,5.24.8.48,1.58.71,2.43.71,1.03,0,2.16-.28,3.38-.94,1.58-1.29,3.51-2.76,5.07-3.86,5.72-4.16,11.2-8.1,8.59-12.05-2.98-4.39-6.31-6.54-9.99-6.59-.83-.05-1.79.09-2.82.34-3.38,1.63-4.94,4.04-4.75,7.39.23.99.62.99.85,1.06l1.12-.39,3.56-1.63c.55-.18.99-.23,1.56-.23.99,0,1.77.44,2.18,1.26.41,1.01.14,2.09-.71,3.26l-5.03,4.32c-1.01.78-2,1.17-2.94,1.15-1.33-.02-2.55-.83-3.63-2.32-2.66-2.89-7.21-5.95-13.82-9.44-3.6-2.16-4.57-5.05-2.94-8.66l2.89-4.89c.32-1.03.18-2.43-.44-3.4-.48-.69-1.17-1.06-1.91-1.1-.53-.02-1.08.18-1.68.57-5.74,5.01-6.96,11.18-3.72,18.6,2.62,2.82,5.4,4.96,8.59,6.43,3.12,1.1,5.63,2.85,7.53,5.17m-14.85,6.63c1.79.02,2.09.9,2.11,1.22.02.32.07,1.38-2.57,2.11-4.34,1.22-7.88,2.85-10.91,4.96l-.64,1.38c.14.41.94.85,1.84.87l.8-.14,8.61-3.7,12.51-3.38c.67-.3,1.54-1.01,1.56-2.25-.02-1.49-1.35-3.05-3.44-4.06-1.77-.57-3.6-.8-5.58-.85-5.74-.09-12.19,2-19.7,6.43-.78.48-1.22,1.15-1.1,1.61.16.71,1.17,1.1,2.27.62,5.33-2.82,9.6-4.34,13-4.75.53-.05.92-.09,1.24-.07m-7.31-17.02c-2.87-1.93-5.35-2.55-7.78-2.04-1.63.3-3.08,1.12-4.48,2.43-.44.57-.64,1.22-.41,1.68l1.01.55.14-.07c2.16-.71,4.09-1.08,5.79-1.01,1.97.02,3.51.64,4.09,1.74.64,1.1.55,2.53-.39,4.36-2.34,2.62-5.97,4.91-11.34,7.14l-.05.02-.51,1.17c.16.64,1.08,1.03,2.27,1.08h.46s.21-.07.21-.07c4.29-1.06,13.25-3.33,15.45-7.9.67-1.45.67-3.01-.11-4.71-.9-1.56-2.32-3.01-4.34-4.39m-7.77,4.83c-4.73,1.61-8.13,3.21-11.23,5.17-.85.41-1.1,1.22-.96,1.91.11.57.51.92,1.06.94h.37s.14-.02.14-.02c4.43-1.31,8.4-3.08,11.73-5.19.55-.51.78-1.31.55-1.91-.09-.32-.51-.9-1.49-.9h-.16m-2.33,32.25c2.09-.09,3.67-.99,4.34-2.36.85-1.58.46-3.93-1.03-6.45-5.74-7.88-12.93-12.56-22.13-14.3-1.93-.07-2.2,1.22-2.23,1.45-.23.76.16,1.7,1.42,2.23,7.37,2.3,13.13,5.76,17.13,10.33.87.99,1.54,2.57,1.01,3.56-.14.3-.6.9-1.7.87l-1.06-.11c-7.3-2.23-12.38-3.31-15.87-3.35-.85,0-1.63.02-2.46.18-1.49.3-2.16,1.24-2.11,1.95.05.83.85,1.42,2.16,1.56,6.59.44,12.1,1.61,17.24,3.9,1.47.34,3.12.55,4.84.55h.44m-11.69-12.99c-.78-.92-4.13-1.84-7.09-1.86-2.64-.02-3.67.57-3.81.9l-.07.23.6.96c.99,1.06,4.48,2.3,7.88,2.36,1.65,0,2.87-.3,3.15-.9.14-.3-.11-.9-.64-1.7m12.34-30.81l-.21.53.55.09,1.1-.09c8.2-3.19,12.05-8.01,11.59-14.67-.09-.48-.32-.83-1.22-.83-3.49.32-6.2,1.84-8.79,4.84l-.25.6.71.11c.94.02,2.25.28,2.69,1.33.41.78.18,1.74-.71,2.87l-5.46,5.21Zm15.55-36.97c-2.53,1.31-4.34,2.8-3.93,7.55-.05,3.4-2,6.52-3.99,6.47-.3,0-1.12-.14-1.58-1.03-1.91.76-2.8,2.07-3.47,3.33-.44,1.68-.39,3.03.18,3.77.28.41.83.6,1.45.62,1.77.05,4.32-1.35,6.38-3.51,3.83-4.11,5.69-10.1,5.21-16.55l-.25-.64m-19.88,23.55c-1.01,1.35-1.61,2.62-1.42,3.4-.69,8.7-3.21,14.79-7.83,19.22-.78.69-1.49,1.03-2.23,1.03h-.18l-.92-.51c-.48-.53-.73-1.22-.69-2.04l.21-5.9c0-.6-.34-.92-.96-.92-.8-.02-1.65.44-2.14,1.15-1.68,3.03-2.27,6.82-1.81,11.36.25.87,1.15,3.63,3.88,3.67.83,0,1.7-.16,2.62-.62,9.71-6.57,12.9-19.22,14.81-30.79v-.9s-.14-.23-.14-.23l-.32-.07c-.9.18-1.91.96-2.87,2.13m-30.65,57.21c8.27-7.39,9.34-21.03,9.23-33.43,0-1.4-.39-2.23-.96-2.23-1.03,0-2.62,1.84-2.87,4.91-.37,8.47-1.1,17.29-5.69,24.64-.99.71-1.7,1.03-2.32,1.03-1.22-.05-1.88-1.1-1.88-3.21l-.28-7.67c-.16-.78-.39-1.15-.53-1.35l-.57-.11c-.32.25-1.15,1.03-2.39,3.42l-.02.11c-.92,4.43-.92,10.42,1.26,13.2.85,1.01,1.86,1.52,3.28,1.54,1.06.02,2.3-.23,3.63-.83l.11-.02Zm-.65-14.02c.28-.02.73-.28,1.29-.92,1.22-1.52,2.41-4.71,1.58-8.7-.16-.48-.39-1.26-1.12-1.26-.67,0-1.38.64-1.84,1.54l-.94,6.22c-.02,1.88.44,2.66.6,2.94l.44.18m22.08-27.29c.51,0,1.22-.44,1.84-1.38.94-1.38,1.29-3.26.87-4.98l-.99-.83c-.14,0-.53.05-1.15.83-.99,1.17-1.65,3.31-1.52,4.45.02.3.28,1.91.94,1.91m-47.09-215.85c-6.66-.09-11.82,1.42-15.25,9.28-.6,1.88-.46,3.54.41,4.71.71,1.01,1.93,1.56,3.31,1.61,1.06,0,2.11-.37,2.98-.96l-.11-1.17h-.09c-1.95,0-2.53-.34-3.17-1.35-.39-.64-.76-1.7.05-3.47,3.01-6.52,7.42-6.43,11.11-6.36,2.3-.02,2.85-1.29,2.85-1.38,0-.16-.32-.64-1.22-.9h-.87m-6.91,10.22c.78-.02,1.49-.67,2.02-1.22,1.47-1.84,1.4-2.66,1.35-2.76-.02-.07-.18-.32-.83-.55-2.55.25-3.56,1.79-3.47,3.21.02.53.25,1.35.92,1.31m-3.29,10.48c-6.59.18-10.38,3.63-11.41,10.56-1.19,5.33-.55,8.63,1.81,10.38.53.48,1.24.71,2.39.71,3.81.07,8.13-2.27,8.27-3.15.25-.62.21-1.01.07-1.19-.16-.25-.78-.9-1.91-.64-1.22.64-2.36.94-3.47.92-1.29-.02-2.82.21-3.65-3.47-.05-7.65,2.2-11.11,8.22-11.32.32-.07,1.1-.94,1.1-1.58,0-.57-.57-1.22-1.42-1.22m-2.8,12.6c.37,0,1.33-.14,3.26-1.58.6-.76.96-1.54.71-2.09-.14-.41-.83-.85-1.95-1.31-1.65-.02-2.07.21-2.34.37-.51.41-1.1,1.45-.9,3.9.53.71,1.08.71,1.22.71m-1.23,37.66c.3,0,.9,0,1.01-1.47.83-3.19-1.15-3.42-5.12-8.36-1.56-2.57-2.14-6.2-1.56-7.6.39-1.08,1.74-2.04,3.17-2.55l5.51-1.15c.57-.44.78-1.15.64-1.81-.28-.92-1.49-1.86-3.35-1.91l-1.12.11c-4.32.3-7.21,1.33-8.79,3.21-1.38,1.7-1.86,4.09-1.47,7.28,1.08,5.44,4.45,10.19,10.15,14.07l.94.16m2.41-11.95c1.13-.48,1.88-1.26,1.88-2.02,0-.71-.6-1.4-1.52-1.86-.99-.32-1.86-.51-2.48-.51s-2.14-.07-2.32,3.12c0,.62.18,1.38,2.39,1.42.62,0,1.31-.05,2.04-.16m-15.65-70.36c-2.39-.02-3.83-.64-4.39-1.79-.55-1.08-.18-2.37,1.13-4.02,5.58-6.66,13.64-9.78,24.61-9.6,2.23.02,4.45.16,6.59.39,2.87-.07,5.42-1.97,5.46-2.92,0-.18-.51-.44-1.33-.55-2.09-.18-4.2-.3-6.13-.32-12.28-.21-26.61,2.13-39.42,21.05-.16.55-.16,1.15.05,1.54.21.3.85.71,2.69.83,5.28-.64,9.14-2.07,11.73-4.34l-.9-.28h-.09m9.63-8.59c-1.95,0-3.4.21-4.48.67-1.4.8-1.45,1.29-1.45,1.29,0,.05.02.3.85.8.78.32,1.79.51,2.92.53,1.54.05,3.33-.28,5.42-.96,1.24-.64,1.54-1.33,1.47-1.52,0-.14-.16-.32-.71-.46-1.08-.14-2.62-.3-4.02-.34m-35.1,3.91c-.92-.02-1.7-.41-2.14-1.1-.69-1.08-.62-2.66.23-4.71-5.3,1.42-8.27,5.01-8.98,11-.07.53.05,1.03.34,1.35.25.3.83.46,1.63.48.64,0,1.45-.09,2.34-.28,9.62-2.76,17.59-8.13,24.75-16.97l.25-.25c-.6-.02-.96.02-1.56.11-4.18.92-8.5,3.77-13.13,8.7-1.35,1.06-2.66,1.65-3.74,1.65m44.06,280.13c-.71-.07-1.42.18-1.84.69l-10.1,13.89c-.78,1.01-1.65,1.49-2.62,1.49-.85-.02-1.74-.53-2.57-1.42l-.71-.85c-.34,0-.99.48-1.24,1.72-.46,2.09-.23,3.83.67,4.89.64.78,1.58,1.22,2.64,1.22,1.86.02,4.02-1.1,5.65-3.03l11.82-16c.28-.62.28-1.31,0-1.79-.32-.46-.92-.8-1.7-.8m-36.47,26.69c8.63-4.52,13.16-11.87,17.98-19.63l.21-.34c2.16-3.38,4.36-6.91,7.07-10.29.44-.87.57-1.33.57-1.58h-.3c-.83-.05-1.61.21-2.53.53-3.12,1.08-5.88,3.79-8.38,8.22l-9.3,13.55c-1.08,1.22-2.34,1.81-3.47,1.77-1.15-.02-2.11-.55-2.78-1.54-1.01-1.58-1.01-4.11.07-6.84l1.81-3.51c1.47-2.82,2.82-5.51,4.36-7.85,2.43-3.99,3.21-7.35,2.43-10.54-.57-1.63-1.03-1.88-1.13-1.91-.05.02-.39.25-1.08,1.63l-9.46,21.1c-1.95,5.21-2.62,9.87-1.68,13.94.6,3.33,2.18,3.77,3.28,3.77.6.02,1.38-.14,2.3-.46m12.02-29.59l-.73.39-7.05,10.91c-.44.64-.8,1.49-.53,2.16.32.57.99.87,1.56.87l.55-.23,7.12-12.47-.14-1.4-.78-.23Zm17.07,3.65l-.18-1.33-.78-.28-.69.21-5.88,9.09c-.32.48-.71,1.24-.32,1.91.32.6.92.94,1.42,1.01l.53-.09,5.9-10.52Zm-45.34,16.06c8.06-4.87,11.48-16.55,14.1-27.12v-.48s-.76-.14-.76-.14l-.69.11c-1.24.48-2.66,1.06-3.95,6.06-.85,4.91-2.14,8.66-3.95,11.41-.67,1.06-1.74,1.77-2.64,1.74h-.32l-.23-.07-.76-.6c-.71-.94-.69-2.32,0-4.41l4.73-12.31c1.22-3.42,1.06-6.2-.41-8.7l-1.22-.78c-.64.48-.76,1.03-.64,1.84-.3,2.69-.87,4.87-1.97,7.26-2.85,6.93-4.75,14.83-5.79,24.18-.11.99.02,1.58.37,1.97.25.28.69.48,1.38.48s1.63-.14,2.76-.46m18.95-93.63c-.18,0-.53,0-.92.9-7.37,13.52-13.09,45.94-8.04,54.9,1.1,2.14,2.32,3.12,3.81,3.12.9.05,2.09-.41,3.38-1.26,4.16-3.42,8.01-11.98,12.08-21.08l.09-.21c1.7-3.72,3.77-8.43,5.9-12.54,1.54-3.33,2-5.99,1.45-8.15-.48-1.93-.87-2.18-1.01-2.2,0,0-.23.07-.76.78-2.32,4.32-4.61,9.67-6.7,14.44l-.11.3c-2.8,6.34-5.6,12.88-8.7,17.86-.92,1.45-2.32,2.3-3.65,2.3-.53,0-3.15-.28-3.17-4.68-.57-13.52,2.23-25.94,8.84-39.03.48-.96.25-2.43-.53-3.7-.67-1.1-1.49-1.7-1.95-1.74m-.27,37.8c.34,0,.78-.34.96-.94,2.5-9.09,6.15-17.2,11.82-26.2.53-.85.64-1.81.32-2.48-.23-.39-.62-.6-1.15-.6-.41-.02-.9.09-1.47.37-7.26,6.52-11.09,15.7-11.71,27.99.11,1.4.71,1.84,1.22,1.86m17.2,29.54c11.85-10.81,21.1-22.96,28.15-37.03.62-1.45.64-3.05.09-3.97l-.99-.57c-.78,0-1.74.67-2.76,1.86-2.36,2.96-4.64,6.73-7,10.75l-.69,1.03c-3.9,6.47-8.29,13.82-13.78,19.4-.92,1.01-2.16,1.63-3.24,1.61-.8-.02-1.54-.39-2.04-1.03-.76-1.08-.9-2.69-.3-4.84,1.7-6.08,4.04-11.18,6.66-16.78l.41-.83c1.97-4.25,3.99-8.7,5.6-13.57.25-.94-.16-1.61-.39-1.93-.55-.73-1.52-1.19-2.55-1.24-.46,0-1.29.14-1.81.9-9.55,15.75-13.89,30.01-13.06,42.25.8,4.22,3.67,4.73,4.82,4.73,1.03.02,1.95-.23,2.87-.71m24.35-48.5c-8.31,5.19-14.69,14.65-18.8,28.1-.39,1.52-.07,2.2.02,2.46l.41.25.94-.78c5.21-10.97,10.84-19.93,18.32-28.91l.46-1.08-.87-.18-.48.14Zm-4.91,52.19c1.97.05,4.09-1.12,6.11-3.12,10.26-14.21,20.59-26.13,30.21-36.92.64-.69.96-1.38.69-1.88l-.99-.71c-.55,0-1.1.28-1.68.83-7.9,8.33-18.34,19.65-28.03,33.52-.94,1.12-2.25,1.72-3.56,1.72-1.22-.02-2.2-.64-2.85-1.58-.92-1.42-.92-3.54.16-6.04,5.33-9,11.11-17.17,17.91-25.03l.32-.78-.76-.51c-.34,0-1.01.09-2.16.9-9.37,10.35-19.08,20.96-19.79,33.31.02,3.9,1.65,6.24,4.41,6.29m29.06-46.08l-23.26,29.57c-.73,1.1-.73,1.68-.73,1.93l.39.21,1.31-.67,23.21-27.94c.67-1.29.67-2.62.37-3.31l-.57-.18-.71.39Zm-92.51-219.52c.71-.8.87-1.77.51-3.1-.51-3.4.28-4.94.99-6.29l.05-.09h-.05c-2.53,1.58-4.04,3.79-4.75,6.77-.23,2.39-2.48,3.77-4.48,3.77-1.06-.05-2.07-.46-2.78-1.19-.53-.6-1.08-1.68-1.06-3.42h-.07c-2.8,1.15-4.66,3.12-5.14,5.3-.32,1.77.28,3.47,1.63,4.87.3.37.8.55,1.42.55,3.21.07,9.41-3.81,13.73-7.16m29.65,17.11c-3.12-.02-5.35-1.7-5.46-3.88,0-2.59,3.08-5.4,11.76-5.53,1.49-.3,2.32-1.47,2.41-2.2l-.69-.37c-1.84.11-3.42.18-4.71.18-1.38-.05-2.62-.14-3.65-.34-1.72-.32-2.78-1.01-3.03-2l-.25.21c-4.32,3.54-4.18,4.55-4.18,4.98v.32l-.07.23-.41.87c-2.57,4.43-3.44,8.15-2.27,10.24.73,1.29,2.18,2,4.22,2.04,3.1.02,6.8-1.47,9.64-3.97.32-.6.41-.9.44-1.15l-.53-.07c-1.01.32-2.09.44-3.21.44m.64,11.16c.48-.53.34-1.15.23-1.38l-.87-.78c-2.69,1.29-4.8,2.2-7.21,2.16-1.35-.02-2.62-.32-3.95-.92-.37-.23-1.35-.8-1.95-.92-.37.32-.62.69-.62,1.88.05,4.75-.41,10.61-4.02,17.72-1.15,2.87-1.24,5.17-.23,6.66.64,1.01,1.88,1.61,3.49,1.61,3.49.07,8.49-2.48,11.92-8.31.55-1.29.55-2.27.46-2.92-1.91,1.56-3.42,2.27-4.87,2.25-2.18-.02-4.02-1.88-4.36-4.43-.44-3.08,1.33-7.37,7.81-9.37l4.18-3.26Zm17.69,102.86l-.96.69c-5.03,6.66-9.02,13.2-12.15,19.91-.67,1.35-1.56,2.11-2.55,2.09h-.23l-.3-.07-.69-.55c-.55-.85-.51-1.97,0-3.33,3.56-9.8,7.81-17.93,13.27-25.58.73-1.01.64-2.36.18-3.28l-.41-.62c-12.83,18.41-19.31,33.41-19.84,45.83.07,2,.8,3.51,1.74,3.54.62,0,1.45-.53,2.34-1.54,1.93-2.87,4.57-7.23,7.69-12.58l.62-.94c3.9-6.63,8.4-14.14,12.08-18.92.76-1.79.44-3.35-.02-4.04l-.78-.6Zm13.08,24.98c-.53,0-1.19.34-1.68,1.01-3.97,8.77-8.82,19.06-15.54,29.18-1.17,1.72-2.85,2.69-4.52,2.66-1.54,0-3.03-.85-3.9-2.27-1.47-2.27-1.47-5.62.07-9.09,4.59-11,10.47-21.63,18.69-33.45.67-1.47.73-2.92.21-3.79-.25-.44-.71-.71-1.22-.71s-1.08.28-1.52.76c-9.3,13.13-15.75,23.99-19.63,33.2-2.92,7.03-2.87,14.03.23,18.71,1.61,2.48,3.9,3.88,6.34,3.97,2.64.02,5.3-1.63,7.55-4.61,6.31-10.38,11.55-21.31,15.98-30.72.67-1.61.78-3.17.11-4.13-.21-.32-.57-.71-1.17-.71m-18.54,22.12c.55,0,.9-.16,1.1-.48l13.36-23.6c.69-1.54.32-4.29-.57-5.67-.28-.53-.55-.64-.67-.64-.02,0-.44.23-.85,1.15l-14.14,24.93c-.67,1.22-.83,2.25-.32,3.1.48.73,1.29,1.22,2.09,1.22m15.76,33.54c3.49.07,6.77-1.81,9.25-5.37l20.14-31.09c.8-.85,1.06-1.74.69-2.59-.39-.92-1.38-1.56-2.36-1.58-.83,0-1.52.37-2.14,1.08-2.39,3.4-4.8,7.48-7.14,11.36l-1.01,1.7c-3.83,6.31-7.65,12.83-11.82,17.59-1.45,1.91-3.51,3.03-5.6,2.98-1.77-.02-3.24-.92-4.11-2.36-.69-1.19-1.54-3.74.67-7.88,6.68-12.24,11.57-22.41,14.9-31.06.48-.73.48-1.49.11-2.2-.48-.85-1.42-1.45-2.18-1.47-1.06-.02-2.02.9-2.62,2.5-2.89,8.4-7.39,17.79-14.12,29.57-2.73,4.96-3.05,10.06-.85,13.94,1.81,2.98,4.87,4.89,8.2,4.89m20.55-43.32c1.15-1.61.85-2.34.51-3.17-.25-.64-.51-1.35-.25-2.23l-.14-1.31-.64-.11c-.44,0-.71.21-1.03.83l-15.93,29.5c-1.47,3.1-.85,4.22-.73,4.48l.8.41c.87,0,1.93-.67,2.66-1.74l14.76-26.66m-3.19,50.35c1.4,1.81,3.58,2.18,5.19,2.2,2.98.05,6.2-1.24,7.83-3.12,11.11-11.66,20.43-23.46,27.83-35.13.53-1.06.69-1.97.32-2.69-.39-.64-1.19-1.01-2-1.01-.8-.07-1.54.28-2.11.83-8.27,11.96-16.9,22.78-26.29,33.02-1.22,1.45-2.57,1.77-3.35,1.77-1.35-.02-2.64-.8-3.33-2.16-.9-1.63-.87-3.58.14-5.19,4.94-10.52,11.04-20.64,18.48-30.9.62-.69.67-1.12.62-1.24-.09-.18-.67-.51-1.7-.51-1.1-.05-2.73.34-3.51,1.52l-1.33,1.88c-6.5,9.55-13.91,20.43-17.45,31.59-1.03,3.97-.76,7.14.67,9.14m33.97-44.3c.14-.71,0-1.42-.23-1.84h-1.08c-6.89,8.63-13.91,18.55-20.89,29.41-.6,1.08-.6,1.88-.41,2.3l.55.32c.16,0,.55-.11,1.13-.55,10.1-9.67,17.13-19.65,20.94-29.64m-6.49,44.29c16-4.96,28.86-23.99,39.15-39.33l1.58-2.3c.46-.76.48-1.56.09-2.32-.46-.85-1.42-1.45-2.36-1.45-.48,0-1.19.11-1.77.96-8.91,12.56-16.99,22.96-25.39,32.58-1.06.78-1.79,1.06-2.48,1.06l-.32-.02-.3-.11-.78-.67-.16-.14c-.39-.85-.11-2.02.71-3.19,4.75-7.19,10.91-15.11,16.26-21.95.46-.64.46-1.13.39-1.29l-.69-.3c-.6,0-1.61.3-2.36,1.19-11.59,12.81-19.42,23.33-24.5,33.18-.94,2.23-.69,3.1-.46,3.47.25.39.96.64,2.02.67l1.38-.05Zm-35.33-120.4c-1.42-1.88-2.94-3.95-2.25-8.59.07-2.59.14-5.23.21-7.9.09-2.73.18-5.49.25-8.22l.21-5.44c.09-1.24-.21-2.32-.83-3.05l-1.22-.6c-.71,0-1.4.9-1.72,2.34l-1.47,24.38c-.34,4.94,2,9.55,7.19,14.53.64.32,1.08.37,1.31.37h.28c.14-.18.6-1.08-.11-4.75-.39-1.06-1.03-1.97-1.72-2.89l-.11-.18Zm18.81-22.18c-1.03.62-1.13,1.13-1.13,1.77,1.22,6.2,2.59,14.72,2.34,24.87-.41,4.13-2.34,4.71-3.47,4.71-2.11-.02-4.61-2.39-7.14-6.57-3.03-7.53-2.85-19.4-2.25-30.03.07-.96-.3-1.91-.83-2.53l-1.19-.62c-.87-.02-1.54,1.19-1.7,3.12-.64,9.09-.94,20.07,1.68,32.53,2.23,6.8,7.88,10.47,12.24,10.56,3.51.05,5.99-2.04,6.96-5.92.64-10.81-.64-21.1-3.97-30.51-.41-.87-1.03-1.31-1.54-1.38m-5.94,22.43c.23.96.78,1.31,1.19,1.31.3,0,.83-.07.94-.99l-1.12-26.1c-.25-1.22-.94-1.93-1.26-1.93-.16,0-.64.55-.9,1.72-1.22,10.77-.85,19.29,1.15,25.99m33.43,14.91c-6.47-.11-10.38-4.09-11.73-12.1l-3.24-19.35c-.55-2.09-1.63-2.85-2.36-2.87l-1.15.53c-.6.6-.9,1.47-.9,2.53l3.77,25.44c.64,6.06,5.63,9.6,15.34,10.81l.62.05c4.68.05,7.9-1.06,9.87-3.51.53-1.91.14-3.01-.51-4.98-1.38-4.13-2.53-7.09-3.83-10.35-1.79-4.61-3.44-8.93-4.68-13.45-.55-1.13-1.35-1.93-2.14-1.93l-.92.44c-.39.46-.51,1.06-.39,1.7l5.4,19.29c1.08,2.89,1.19,4.82.34,6.2-.62.99-1.77,1.54-3.49,1.58m-9.29-32.71c-.18,0-.67,0-.71,1.35.64,6.66,1.31,14.07,2.92,21.01.62,1.54,1.65,2.57,2.53,2.57l.83-.41c.25-.34.37-.87.18-1.52-1.84-6.93-2.98-14.92-3.79-21.1-.21-1.08-1.26-1.88-1.95-1.91m37.04,33.46c1.74-.92,2.78-2,3.15-3.31.51-1.58-.05-3.6-1.45-6.15-3.97-6.41-7.28-13.02-10.01-19.7-.32-.8-.83-1.24-1.31-1.31-.8.64-.9,1.26-.64,2.11,2,6.06,4.68,12.15,7.88,18.11,1.01,1.86,1.08,3.67.25,5.1-.73,1.17-2.07,1.86-3.56,1.84-1.72-.02-3.44-1.01-4.71-2.76-3.26-5.42-6.38-12.31-9.46-20.37-.18-.6-.53-.9-.78-1.03-.51.37-.92.99-.57,2.69l7.16,20.46c2.18,3.74,4.91,5.6,8.31,5.65,1.7.02,3.63-.46,5.74-1.33m-13.22-27.31c-.09-.64-.6-1.15-1.1-1.19-.9.55-1.15,1.06-1.15,2.3.9,5.19,3.24,10.7,7.16,16.74.48.6,1.03.96,1.56.96l.53-.25c.39-.48.37-1.26-.02-2.02-3.35-6.15-5.6-11.43-6.98-16.53m11.59-.82c-.8.64-.8,1.06-.78,1.61,1.68,5.4,4.45,10.26,8.22,14.33l.87.16.67-.25c.21-.39.07-1.08-.28-1.7-3.31-4.71-5.83-8.95-7.9-13.32-.23-.53-.55-.78-.8-.83m18.35,19.95c.83-1.56.51-3.03-1.15-5.07-3.51-3.83-6.86-8.27-10.29-13.13-.39-.71-.87-1.12-1.33-1.12l-.46.3c-.39.6-.21,1.74.46,2.98,1.52,2.92,3.99,6.27,7.3,9.96.76,1.13,1.49,2.41,1.29,3.67-.21.76-.64,1.33-1.31,1.79l-3.28,2.5-.21,1.08c.3.67,1.31,1.22,2.34,1.35,2.78-.41,4.91-1.84,6.64-4.32m1.7,8.05c-.55-.87-1.47-1.33-2.43-1.33-.99-.02-1.81.37-2.14,1.01-.34.64-.16,1.52.44,2.55l.11.16c4.57,8.13,6.45,11.48,5.92,19.31-.28,4.18-1.72,8.36-3.44,13.18l-.09.21c-.9,2.46-1.95,5.44-3.01,8.91-1.06,2.8-2.46,3.15-3.19,3.15s-1.38-.34-1.79-1.03c-.69-.85-.85-2.11-.41-3.35.76-3.63,1.84-7.05,2.76-10.1,1.42-4.59,2.76-8.84,2.76-12.93-.37-8.27-1.74-12.15-6.06-16.44-.64-.78-1.38-1.15-2.2-1.19-.73,0-1.47.37-1.81.99-.46.76-.46,1.63,0,2.57,7.37,10.03,6.93,21.93-1.47,40.87-.83,2.32-.85,4.25-.11,5.85.9,1.93,2.96,3.49,6.29,4.66,1.54.39,2.96.67,4.04.69,2.73.05,2.94-1.24,2.98-1.75.07-5.03.67-8.7,1.81-11.23,1.01-2.8,2.23-5.35,3.19-7.48,1.77-3.86,3.44-7.37,4.48-11.73,1.15-8.72.46-15.7-6.61-25.53m-16.87,35.77c2.09-10.1,3.24-19.31-2.78-29.2-.67-1.06-1.63-1.68-2.55-1.72-.71,0-1.4.34-1.81.96-.57.8-.57,2.04.07,3.31,6.45,12.7,4.66,26.7-5.37,42.91-1.26,1.7-2.96,2.59-4.66,2.55-1.45-.02-2.78-.71-3.67-1.88-1.15-1.49-1.49-3.56-.94-5.85,3.65-13.68,3.58-24.91-.11-35.27-.44-.99-1.74-1.47-2.78-1.49-.9,0-1.65.32-2.04.8-.39.62-.21,1.35-.05,1.93,2.85,11.34,2.71,21.63-.41,32.42-.23.87-.53,1.65-.83,2.53-.83,2.25-1.52,4.34-1.13,6.75.78,4.36,4.84,7.51,9.94,7.58,2.89.07,5.74-.96,7.99-2.87,5.9-7.6,9.57-15.29,11.14-23.44m-16.97-29.32c-.46.57-.51,1.29-.14,2.11,4.36,6.59,4.59,17.31.62,33.59-.53,1.97-.09,2.69,0,2.85l.57.3c.51,0,1.03-.25,1.38-.8,6.06-13.02,6.59-24.82,1.52-37.1-.48-1.06-1.33-1.7-2.36-1.72-.67,0-1.22.3-1.58.78m-19.36,3.39c-.41.44-.71,1.06-.71,1.88,2.41,12.49,1.7,23.24-1.91,31.91-1.84,2.57-3.83,3.95-5.92,3.9-1.38-.07-2.66-.71-3.67-1.91-1.7-2.07-1.22-5.1-.73-7.74.09-.9.18-1.7.25-2.34.87-11.53.37-21.33-1.61-29.25-.21-1.35-1.38-1.54-1.88-1.58-.8,0-1.65.34-2.23.94-.53.55-.71,1.22-.71,2.04,1.26,11,.71,23.03-1.58,36.85.9,7.81,6.43,10.77,11.32,10.81,5.42.11,11.8-3.37,13.32-10.22,3.01-12.97,3.01-24.31,0-33.7-.32-1.4-1.52-2.09-2.55-2.09-.55,0-1.03.18-1.38.48m-8.65-1.89c.92,10.19.78,19.95-.46,28.95.21,1.81,1.29,2.55,2.27,2.55.8.02,1.86-.41,2.2-1.77,1.13-9.92.64-19.88-1.24-29.39-.3-1.17-1.08-1.61-1.65-1.61l-.8.3-.32.96Zm-27.92-10.03l-1.13.67c-7.44,14.63-9.73,25.55-7.23,34.35,2.98,6.38,7.26,10.24,11.34,10.29,2.14.07,4.13-.94,5.79-2.85,5.51-9.94,5.49-22.39,5.44-33.38.05-.83-.14-1.42-.57-1.86-.34-.41-.99-.71-1.58-.73-1.03,0-2.23.55-2.53,2.16.11,7.3-.02,15.41-2.43,24.57-.85,2.23-2.64,3.54-4.71,3.51-2.53-.05-4.68-2-5.37-4.98-.62-8.2.6-16.16,3.97-25.9.41-2.27.28-4.68-.41-5.74l-.57-.09Zm3.39,27.23c1.91-6.82,2.76-13.25,3.01-22.27,0-.87-.53-1.38-.83-1.4-.37-.02-.96.44-1.38,2.04-.57,6.8-1.52,13.25-2.87,20.23,0,.73.44,1.95.9,1.95l1.17-.55Zm-17.57-38.68s-.37.09-.96.69c-6.59,8.24-7.65,16.92-3.17,26.38,1.03,1.24,2.07,1.93,3.01,1.95.55,0,1.19-.25,1.72-.67,4.32-5.28,7.09-11.16,8.22-17.49.71-2.27,0-3.12-1.24-3.63-1.19-.8-2.04-1.15-2.76-1.17-.64,0-1.58,0-2.16.69,0,0-2.57,6.38-1.1,6.22.34.23,1.03-.53,1.61-1.45.39-.55,1.81.71,1.63,1.58-.39,2-1.86,6.57-4.25,6.77-.44.21-1.01.32-1.49.32-.64,0-2.16-.3-2.57-2.53-.09-3.44.96-5.97,1.95-8.33l.16-.23c.94-2.36,1.91-4.61,1.86-7.58-.11-1.08-.37-1.47-.46-1.54m-10.59-4.24c-1.97.78-3.56,2.8-5.12,4.8-1.84,2.36-3.79,5-6.66,5.23-.67,0-.73.23-.83.3l.48,1.33,4.57,5.79c.99.57,1.91.87,2.76.92,1.08,0,1.86-.53,2.64-1.72.83-1.29.8-1.56-.16-2.2-3.47-3.49-.55-6.8,1.79-9.46,1.1-1.31,2.09-2.39,2.62-3.42.3-.57.46-.94.25-1.22-.14-.34-.62-.55-1.19-.55l-1.15.21m-13.43-.68c-1.33-.02-2.73-.92-3.44-2.25-.76-1.29-.71-2.89.09-4.2l5.53-5.83c.48-.76.09-1.54-.05-1.77-.39-.73-1.13-1.26-1.91-1.26l-1.03.39c-3.4,3.01-6.64,5.83-11.39,6.11-1.24,0-1.49.11-1.65.28-.11.16-.28.67-.07,2.09,1.19,3.44,3.49,5.6,5.95,7.88,1.58,1.58,3.05,3.03,4.5,4.87.73.62,1.52.96,2.34.96.87.02,1.77-.34,2.85-1.17,3.1-2.46,5.81-5.21,8.31-8.43.37-.51.39-1.12.16-1.79-.21-.51-.76-1.08-1.52-1.08l-1.12.28-5.56,4.27c-.57.46-1.24.67-2,.67m-11.88-21.88c-1.4-.07-2.59-.94-3.21-2.39-.85-1.88-.76-4.87,1.31-7.19l5.26-4.29c1.12-.87,1.38-2.23.85-4.41l-.16-.55c-3.67,2.69-6.84,4.98-10.54,6.68l-1.01.39-.37.11c-.6.23-1.58.55-1.93.85-.34.44-.48,1.19-.34,2.2.53,5.46,1.74,10.01,3.44,13.5,1.56,2.36,3.26,3.58,5.14,3.63,2.46.02,5.4-1.74,8.93-5.37.8-1.08,1.38-2.69-1.35-5.17-.73-.73-1.1-.76-1.19-.76-.3,0-.62.23-1.01.8-1.31,1.31-2.57,1.95-3.81,1.95"/></g></g></g></g></g></svg>