<svg xmlns="http://www.w3.org/2000/svg" xmlns:xlink="http://www.w3.org/1999/xlink" viewBox="0 0 1680 1050"><defs><style>.cls-1{fill:none;}.cls-2{clip-path:url(#clippath);}.cls-3,.cls-4{fill:#f8f2e9;}.cls-5{fill:#e3d1b0;}.cls-6{fill:#fff;}.cls-7{fill:#9f2242;}.cls-8{fill:#dec69b;}.cls-9{clip-path:url(#clippath-1);}.cls-10{clip-path:url(#clippath-3);}.cls-11{clip-path:url(#clippath-2);}.cls-12{fill:url(#Degradado_sin_nombre_94);}.cls-12,.cls-13,.cls-14{mix-blend-mode:multiply;}.cls-13{fill:url(#Degradado_sin_nombre_96);}.cls-14{fill:url(#Degradado_sin_nombre_97);}.cls-15{fill:url(#Degradado_sin_nombre_91);}.cls-16{fill:url(#Degradado_sin_nombre_80);}.cls-17{fill:url(#Degradado_sin_nombre_30);}.cls-18{fill:url(#Degradado_sin_nombre_38);}.cls-19{fill:url(#Degradado_sin_nombre_34);}.cls-20,.cls-4{opacity:.5;}.cls-21{fill:url(#Degradado_sin_nombre_7);}.cls-22{fill:url(#Degradado_sin_nombre_2);}.cls-23{fill:url(#Degradado_sin_nombre_8);}.cls-24{isolation:isolate;}.cls-25{fill:url(#Degradado_sin_nombre_38-2);}</style></defs><g class="cls-24"><g id="Capa_1"><g><g><g class="cls-11"><g class="cls-20"><path class="cls-3" d="m774.8,364.14c-.09,0-.17,0-.26,0h0c-.85-.04-1.78-.16-2.55-.35-.84-.3-.92-.88-.84-1.31.13-.88,1-1.82,2.33-1.82,4.29-.18,8.06-1.62,11.87-4.55,10.96-10.09,22.02-20.94,32.83-32.21.57-.53.99-.76,1.38-.76l.67.07.07.29c.17.68.02,1.99-.69,3.39-.28.61-.72,1.09-1.32,1.76l-.31.35-.31.25c-6.01,6.38-14.13,14.55-24.78,24.93-3.17,3.14-5.94,5.71-10.21,7.82-3.08,1.47-5.59,2.15-7.88,2.15Zm-.24-.87c2.22.04,4.68-.61,7.74-2.06,4.15-2.05,6.86-4.58,9.98-7.66,10.65-10.38,18.76-18.54,24.81-24.95l.3-.24.26-.3c.57-.63.95-1.05,1.18-1.56.54-1.05.69-1.98.67-2.51-.05.02-.28.1-.72.51-10.81,11.27-21.88,22.13-32.88,32.26-3.98,3.07-7.92,4.57-12.41,4.75-.84,0-1.42.56-1.5,1.1-.03.18-.04.25.24.35.67.16,1.53.28,2.33.31Zm-15.23-.83h-.01c-2.54-.08-4.7-.7-6.59-1.92-.53-.47-1.04-1.04-.88-1.71.06-.53.54-1.07,1.33-1.48l.12-.04,1.02-.18c.37-.02.74.07,1.45.22l.68.18c1,.16,1.87.27,2.76.31,3.27.07,6.24-1.09,9.35-3.58,10.38-8.69,18.5-16.17,25.67-22.77l.09-.08.72-.57,1.75-1.6c4.82-4.41,9.37-8.57,14.31-12.82.47-.42.93-.59,1.42-.53l.72.05.11.23c.18.38.18.91,0,1.66-.09.51-.42.85-.95,1.42l-.36.38-2.5,2.56-3.92,3.68c-11.1,10.41-21.59,20.25-32.32,29.74-3.46,3.08-5.96,5.31-8.63,6.16-1.91.48-3.64.72-5.3.72Zm-5.82-4.32c-.48.26-.79.57-.82.83-.05.22.15.51.56.88,1.7,1.09,3.71,1.67,6.09,1.74,1.59,0,3.25-.22,5.06-.68,2.47-.79,4.92-2.96,8.29-5.97,10.72-9.49,21.2-19.32,32.3-29.73l3.91-3.67,2.85-2.92c.51-.53.69-.73.73-1,.11-.44.13-.72.12-.89h-.17c-.19-.03-.41,0-.77.31-4.94,4.24-9.48,8.4-14.29,12.8l-1.77,1.62-.79.64c-7.17,6.6-15.3,14.09-25.71,22.8-3.28,2.63-6.44,3.79-9.92,3.78-.94-.04-1.85-.16-2.92-.33l-.71-.19c-.6-.13-.95-.2-1.17-.2l-.87.16Zm78.68,2.93s-.07,0-.11,0c-1.57,0-2.57-1.1-2.96-3.28-.72-3.12-.29-6.74,1.32-11.06l7.36-16.42c.29-.59.7-1.3,1.03-1.47l.15-.08.16.04c.28.07.71.44,1.17,1.76.65,2.64.03,5.34-1.93,8.56-1.06,1.62-2.01,3.45-3.02,5.38l-1.77,3.42c-.76,1.92-.79,3.76-.07,4.89.43.64,1.04.98,1.8,1,.78.06,1.64-.42,2.36-1.23l7.19-10.49c1.99-3.52,4.19-5.68,6.73-6.55.77-.27,1.42-.47,2.13-.43h.64s0,.43,0,.43c0,.21-.06.55-.49,1.42-1.96,2.46-3.55,4.95-5.09,7.37l-.67,1.06c-3.75,6.04-7.29,11.73-14.05,15.28l-.06.03c-.73.25-1.34.38-1.84.38Zm6.87-31.22c-.11.16-.27.42-.47.83l-7.34,16.38c-1.54,4.12-1.96,7.58-1.28,10.56.47,2.59,1.67,2.59,2.13,2.59.4,0,.96-.1,1.61-.32,6.54-3.44,10.01-9.03,13.69-14.95l.67-1.07c1.55-2.43,3.15-4.95,5.1-7.36.11-.22.18-.39.23-.53-.46.03-.93.18-1.5.38-2.33.8-4.38,2.83-6.28,6.19l-7.25,10.56c-.93,1.05-2.03,1.62-3.07,1.56-1.03-.02-1.9-.5-2.5-1.39-.88-1.39-.88-3.47.01-5.72l1.79-3.46c1.01-1.96,1.97-3.8,3.05-5.45,1.82-3,2.41-5.49,1.83-7.85-.17-.49-.33-.78-.44-.96Zm-48.11,30.9c-.09,0-.18,0-.27,0h-.05c-.81-.1-1.2-.44-1.2-1-.07-.85.93-2.32,2.46-2.55,5.05-.84,12.04-8.78,18.79-16.47l3.88-4.33,1.09-.52.8.95c.31.54.28,1.17-.04,1.75l-15.11,17.38c-3.4,3.31-6.6,4.79-10.35,4.79Zm24.06-23.62l-3.69,4.16c-7.17,8.16-13.95,15.86-19.31,16.75-1.11.17-1.76,1.26-1.73,1.66,0,.07.07.13.39.18h0c3.61.05,6.7-1.33,9.99-4.52l15.03-17.28c.12-.24.15-.56.04-.77l-.32-.37-.41.2Zm-75.73,21.48c-.15,0-.31,0-.46,0-5.4-.07-10.68-2.23-15.7-6.4l-.07-.08c-1.25-1.7-.95-3.67.78-5.13l.05-.04c6.06-3.76,9.98-6.33,13.09-8.6,23.06-17.41,45.94-33.93,69.93-50.5,1.27-.87,2.03-.93,2.37.08.3,1.21-.42,3.52-2.52,4.79l-72.91,53.5-.88.57c-1.08.62-2.15,1.29-2.54,2.08-.3.57-.55,1.71,1.17,2.97,2.06,1.12,4.38,1.73,6.85,1.79.06,0,.13,0,.19,0,3.91,0,7.98-1.58,12.08-4.71,19.06-14.95,37.72-29.98,56.75-45.35.49-.43,1.08-.69,1.61-.69h.12l.62.41c.48.66.45,1.88-.07,3.18-.42,1.31-1.04,1.89-2.08,2.79-17.96,14.49-36.87,29.92-56.23,45.86-4.1,2.32-8.17,3.48-12.15,3.48Zm-15.57-7.03c4.85,4.02,9.94,6.09,15.12,6.16,3.98.1,8.05-1.03,12.11-3.32,19.3-15.9,38.21-31.33,56.16-45.81.97-.84,1.46-1.29,1.82-2.42.42-1.06.43-1.93.23-2.31l-.19-.11c-.25.03-.6.17-.95.47-19.05,15.38-37.71,30.42-56.78,45.37-4.33,3.3-8.64,4.94-12.82,4.89-2.61-.06-5.07-.71-7.3-1.93-2.44-1.79-1.75-3.59-1.48-4.1.5-.99,1.68-1.74,2.86-2.42l.84-.54,72.92-53.51c1.82-1.1,2.37-3.04,2.17-3.83-.01-.04-.03-.07-.04-.09-.15.02-.45.11-1.01.49-23.98,16.56-46.85,33.07-69.91,50.48-3.13,2.28-7.05,4.86-13.12,8.62-1.35,1.17-1.59,2.58-.65,3.9Zm84.66-63.54h0Zm-106.39,70.49h-.06c-.62,0-1.81-.44-3.96-2.51-6.07-7.39-5.72-31.84-5.43-51.49-.48-6.02-1.7-11.2-2.78-15.77l-.04-.18c-1.21-5.01-2.35-9.73-2.03-14.39h0c.85-11.99,3.65-23.72,8.35-34.88.58-.99,2-1.66,3.5-1.58.88,0,1.64.29,2.05.8l.1.12-.03,1.67c-3.73,9.21-6.3,19.97-7.64,31.98-.68,5.7.34,12.63,3.21,21.84.95,5.17.66,11.61.25,17.24.06,1.92.9,2.88,1.71,2.89.79,0,1.65-.82,1.78-3.12.47-6.33.66-11.66.84-17.01l.02-.64c.3-9.14.54-16.36,2.36-23.56.9-3.88,4.64-9.66,11.14-17.18,2.89-4.52,4.82-8.67,6.03-13,.23-.75.42-1.54.62-2.38l.19-.8c.33-1.35.66-2.59,1.06-3.89l2.32-7.39c.38-.57,1.02-.89,1.82-.89,1.25.02,2.6.72,3.44,1.79.4.61.86,1.51.62,2.56l-6.22,21.08c-1.44,3.89-4.45,7.32-7.63,10.95l-.19.21c-1.88,2.12-3.33,3.79-4.69,5.61-2.53,3.31-2.9,5.87-3.46,9.75-1.02,7.07-1.85,17.3-2.62,32.25l-4.22,21.33c-1.03,6.74-.73,14.42.93,23.44.18,2.61-.03,4.24-.62,4.9l-.09.1-.64.17Zm-13.44-84.28c-.31,4.53.81,9.19,2,14.13l.04.15c1.09,4.62,2.33,9.84,2.81,15.96-.27,18.52-.64,43.82,5.2,50.93,2.04,1.97,3.01,2.21,3.28,2.23l.26-.07c.19-.3.54-1.27.34-4.12-1.67-9.07-1.97-16.84-.92-23.7l4.21-21.29c.77-14.91,1.6-25.17,2.62-32.24.58-4.04.97-6.69,3.64-10.17,1.38-1.84,2.83-3.53,4.73-5.66l.14-.16c3.17-3.61,6.12-6.98,7.5-10.69l6.2-21.03c.16-.7-.17-1.35-.48-1.84-.65-.82-1.77-1.41-2.75-1.42-.48,0-.84.15-1.06.45l-2.25,7.22c-.39,1.29-.72,2.51-1.04,3.84l-.19.8c-.2.85-.4,1.65-.63,2.42-1.24,4.4-3.2,8.62-6.17,13.27-6.44,7.46-10.12,13.12-10.99,16.87-1.8,7.12-2.04,14.3-2.34,23.38l-.02.64c-.17,5.36-.37,10.71-.84,17.04-.16,2.96-1.49,3.96-2.69,3.93-1.15,0-2.44-1.18-2.52-3.77.4-5.62.69-11.99-.23-17.01-2.89-9.28-3.92-16.33-3.23-22.15,1.35-12.05,3.93-22.86,7.67-32.13v-1.1c-.29-.26-.82-.39-1.4-.38-1.13,0-2.23.47-2.61,1.11-4.63,11.01-7.42,22.65-8.26,34.55h0Zm161.47,82.52c-.96-.01-1.83-.38-2.43-1.1-.78-.92-.99-2.4-.61-4.17.23-1.15.88-1.68,1.39-1.68h.2l.68.82c.55.59,1.15.94,1.68.95.61,0,1.16-.33,1.68-.99l7.84-10.78c.42-.51,1.09-.77,1.8-.71.68,0,1.3.31,1.65.81.3.53.31,1.21.04,1.82l-9.24,12.52c-1.33,1.57-3.11,2.53-4.69,2.53Zm-1.77-5.99c-.13.13-.31.39-.42.9-.33,1.51-.18,2.72.42,3.43.43.52,1.04.76,1.76.79,1.33,0,2.87-.84,4.02-2.2l9.17-12.41c.11-.27.12-.67-.03-.92-.17-.24-.53-.41-.94-.41h-.04c-.41-.04-.83.11-1.05.38l-7.83,10.78c-.69.89-1.49,1.34-2.38,1.34-.79-.02-1.58-.45-2.32-1.25l-.36-.43Zm-69.2,5.66l-.17-.04-.94-.41.18-.4c.12-.28.4-.62.83-1.02,9.53-8.11,19.5-17.96,28.86-27.39.27-.32.57-.62.87-.93.29-.3.58-.59.86-.92l1.13-1.17c1.49-1.62,3.18-3.45,5.17-4.89l.13-.1,1.34.13.08.28c.08.28.15.84-.29,1.5l-.04.05c-9.55,10.4-19.42,20.45-30.19,30.71-3.46,3.09-6.01,4.58-7.83,4.58Zm37.16-36.37c-1.87,1.37-3.48,3.13-4.91,4.68l-1.13,1.17c-.27.31-.57.62-.87.93-.29.3-.58.6-.86.92-9.39,9.47-19.38,19.33-28.92,27.45-.14.13-.25.25-.34.34,1.12-.06,3.24-.9,7.1-4.35,10.74-10.23,20.59-20.25,30.12-30.63.1-.16.16-.33.18-.48l-.38-.04Zm2.92,33.32c-.76,0-1.17-.28-1.39-.51-.37-.42-.5-1.02-.4-1.88.8-7.26,2.28-13.44,4.53-18.9.82-1.77,1.27-3.41,1.5-5.47-.08-.58-.04-1.24.68-1.78l.24-.18,1.34.91c1.23,2.09,1.34,4.36.36,7.12l-3.68,9.57c-.48,1.45-.51,2.37-.09,2.97l.52.39h.19s.02,0,.02,0c.55,0,1.24-.48,1.66-1.16,1.37-2.09,2.36-4.93,3.01-8.71,1.07-4.16,2.33-4.65,3.34-5.04l.69-.12,1.02.19v.84c-2.07,8.31-4.8,17.5-11.16,21.34l-.1.05c-.85.24-1.64.37-2.26.37Zm5.22-27.65c-.15.19-.18.43-.12.82v.05s0,.05,0,.05c-.24,2.19-.71,3.91-1.57,5.77-2.2,5.37-3.67,11.48-4.46,18.65-.09.79.06,1.06.18,1.2.34.37,1.47.25,2.71-.1,6.02-3.68,8.68-12.59,10.69-20.69l-.15-.03-.46.08c-.79.31-1.77.7-2.72,4.39-.67,3.86-1.69,6.82-3.13,9-.6.95-1.56,1.56-2.42,1.55l-.36-.02-.32-.13-.67-.54c-.64-.84-.66-2.02-.07-3.82l3.68-9.58c.88-2.46.8-4.47-.24-6.3l-.57-.37Zm-61.9,27.56c-.99,0-1.82-.4-2.06-1.05-.05-.07-.28-.58.3-1.23l.06-.05,6.14-4.85,42.44-35.53c.58-.4,1.15-.62,1.58-.62h.11l.6.33.05.16c.19.58-.03,1.69-1.3,2.94-11.47,10.56-24.45,21.96-39.67,34.87-2.01,1.76-3.91,3.19-5.81,4.37-.83.46-1.62.67-2.43.67Zm-1.14-1.69c-.13.16-.15.26-.14.28.12.31.62.55,1.26.54.67,0,1.32-.18,2.01-.55,1.84-1.14,3.71-2.55,5.69-4.28,15.22-12.9,28.18-24.3,39.64-34.84.91-.89,1.09-1.6,1.09-1.9l-.06-.03c-.16.02-.49.11-.96.43l-42.41,35.52-6.11,4.83Zm-20.02-2.06c-.64,0-1.08-.23-1.23-.62-.25-.53.2-1.44,1.16-2.28l65.34-50.55,1.14-.44.77.49.05.16c.18.61-.01,2.25-1.99,4.1l-.03.02-54.92,43.48c-3.33,2.43-6.17,4.18-8.44,5.23-.68.28-1.29.42-1.84.42Zm-.42-.93s.14.06.42.06c.43,0,.94-.12,1.5-.34,2.2-1.01,4.99-2.74,8.26-5.12l54.89-43.46c1.42-1.32,1.79-2.55,1.76-3.07l-.1-.06-.61.24-65.22,50.45c-.8.69-.91,1.21-.9,1.3h0Zm97.2.22h-.09c-.54,0-1.24-.28-1.59-.9-.26-.61-.1-1.35.43-2.13l5.53-8.56.83-.44,1.06.31.15,1.51-5.67,9.94-.64.27Zm4.89-10.93l-5.42,8.38c-.35.52-.49,1-.37,1.28.14.24.47.38.74.41l.2-.08,5.39-9.44-.06-.66-.16-.05-.32.17Zm8.55,10.88h-.07c-.58-.09-1.14-.48-1.43-1.02-.31-.53-.22-1.18.27-1.93l4.65-7.19.82-.25.99.35.2,1.44-4.76,8.48-.68.12Zm3.98-9.4l-4.48,6.93c-.45.67-.29.94-.24,1.03.18.33.48.51.73.57l.13-.02,4.41-7.87-.09-.63-.23-.08-.25.07Zm-141.44,5.2c-.84,0-1.89-1.39-2.34-4.49-1.52-11.13-1.57-24.98-.16-41.17.55-9.01,1.4-15.88,2.76-22.27.8-3.5,2.22-6.6,4.22-9.22,1.52-1.81,2.17-2.1,2.53-2.16l.34-.06.13.32c.11.26.27.92.16,2.43-1.95,8.09-4.04,17.71-4.8,28.21-.13,1.49.07,2.5.61,3.09l.53.36h.14c.67,0,1.3-.62,1.88-1.82.5-.95.63-1.77.78-2.72l3.52-21.73c2.41-8.65,4.4-12.78,8.2-17.03,5.76-5.71,10.44-13.67,15.66-26.65.76-2.99,1.91-4.07,2.74-4.07.86.03,1.6,1.23,1.85,2.97.22,1.36.06,2.28-.35,3.58-3.6,11.75-8.05,19.76-14,25.2-4,3.36-6.35,7.59-7.2,12.95l-.04.22c-.17.86-.35,1.71-.53,2.56-.35,1.71-.71,3.44-1.05,5.19l-.1.25c-2.17,10.86-4.66,23.27-9.11,33.86-1.28,2.74-2.1,6.09-2.45,9.95-.42,7.57-.82,12.71-1.34,17.17-.4,3.49-1.62,5.08-2.59,5.08Zm6.78-78.26c-.31.22-.82.68-1.63,1.65-1.91,2.51-3.28,5.49-4.05,8.86-1.34,6.33-2.19,13.17-2.74,22.14-1.4,16.14-1.35,29.92.16,40.99.43,2.95,1.33,3.72,1.49,3.75.26,0,1.34-1.03,1.72-4.31.52-4.44.92-9.57,1.34-17.14.36-3.98,1.21-7.42,2.52-10.24,4.42-10.49,6.9-22.86,9.08-33.77l.1-.25c.31-1.66.66-3.39,1.02-5.11.18-.85.35-1.7.52-2.54l.03-.2c.88-5.57,3.32-9.97,7.48-13.46,5.82-5.33,10.19-13.21,13.75-24.81.39-1.23.52-1.98.33-3.19-.25-1.66-.87-2.24-1.02-2.24-.19,0-1.18.62-1.9,3.48-5.29,13.15-10.02,21.2-15.85,26.98-3.68,4.12-5.63,8.16-7.99,16.62l-3.5,21.68c-.16.98-.31,1.91-.87,2.97-.72,1.52-1.61,2.3-2.65,2.3l-.54-.03-.74-.57c-.74-.78-1.02-2.02-.87-3.78.77-10.55,2.86-20.21,4.81-28.27.05-.72.03-1.2,0-1.5Zm9.21,70.13s-.02,0-.03,0l-.17-.04-.74-.39c-.67-.75-1-2.12-.93-3.77-.28-8.42-.33-16.55,1.79-37.55,1.91-14.96,4.53-24.73,8.01-29.9.93-1.48,2.16-2.33,3.36-2.33l.67.11.06.29c.05.25.19,1-.57,2.65-4.13,9.7-6.46,19.51-7.12,29.96-.07,1.32.12,2.17.61,2.69l.61.39h.13c.78,0,1.59-.86,1.96-2.1l.07-.14c1.5-1.97,3.19-7.98,5.16-18.37.53-2.71,1.02-5.26,1.83-7.88,1.81-5.86,3.3-9.15,6.89-12.01,6.72-4.79,12.59-12.53,17.45-23.02,1.05-2.3,2.33-3.68,3.43-3.68h.03c.61.02,1.1.33,1.51.94.89,1.11,1.15,3.01.63,4.81-2.2,5.58-4.78,10.25-7.68,13.94-1.1,1.45-2.3,2.51-3.33,3.35l-.68.55c-5.08,4.24-8.33,7.05-10.53,10.24-2.49,3.6-3.06,7.33-3.68,11.28-.06.4-.13.8-.21,1.2-.09.46-.18.92-.23,1.39l-.13.67c-2.08,10.56-4.89,18.41-10.74,30-1.49,3.23-2.45,6.38-2.94,9.63l-1.89,12.63c-.58,3.29-1.71,4.45-2.59,4.45Zm-.36-1.07l.41.2c.31-.09,1.17-.83,1.67-3.72l1.89-12.62c.5-3.33,1.48-6.56,3.02-9.88,5.82-11.53,8.61-19.32,10.67-29.79l.12-.64c.05-.46.15-.94.24-1.42.07-.39.15-.78.2-1.17.6-3.88,1.22-7.88,3.82-11.64,2.26-3.28,5.55-6.12,10.69-10.42l.68-.56c.99-.81,2.14-1.83,3.19-3.21,2.85-3.63,5.39-8.23,7.54-13.69.43-1.49.24-3.09-.51-4.01-.35-.51-.63-.58-.84-.59-.58-.05-1.64.98-2.64,3.17-4.93,10.63-10.89,18.49-17.72,23.35-3.39,2.7-4.83,5.88-6.58,11.57-.79,2.58-1.28,5.1-1.8,7.77-2.01,10.59-3.69,16.53-5.28,18.69-.5,1.58-1.6,2.64-2.76,2.64l-.36-.03-.18-.07-.79-.51c-.69-.69-.98-1.77-.89-3.38.67-10.56,3.02-20.46,7.19-30.26.35-.77.53-1.39.53-1.85-.81.02-1.76.72-2.53,1.95-3.41,5.07-5.99,14.72-7.88,29.53-2.11,20.93-2.06,29.04-1.78,37.45-.06,1.39.18,2.53.66,3.12Zm134.64.07s-.06,0-.1,0c-2.39-.04-3.83-2.03-3.85-5.32.56-9.67,8.03-17.93,15.26-25.92l.24-.26c.82-.58,1.45-.84,2-.84h.13l.99.66-.46,1.05c-5.1,5.9-9.64,12.24-13.87,19.38-.73,1.7-.79,3.23-.13,4.24.44.65,1.11,1.02,1.86,1.03.91,0,1.8-.43,2.43-1.18,7.15-10.24,14.71-18.58,21.8-26.07.55-.53,1.07-.78,1.62-.78h.14l1.01.78c.21.38.27,1.03-.6,1.96-7.02,7.87-15.21,17.24-23.45,28.65-1.74,1.72-3.45,2.61-5.01,2.61Zm13.42-31.47c-.43.05-.94.35-1.31.61l-.16.2c-7.12,7.88-14.49,16.02-15.03,25.36.02,2.78,1.11,4.4,3,4.43h0c1.36.02,2.88-.76,4.43-2.3,8.22-11.39,16.42-20.77,23.46-28.67.4-.43.52-.74.5-.9l-.54-.39c-.27.04-.56.21-.88.51-7.06,7.45-14.59,15.77-21.73,25.99-.82.98-1.95,1.52-3.12,1.52-1.05-.02-1.96-.52-2.57-1.42-.82-1.27-.79-3.08.09-5.11,4.27-7.22,8.82-13.58,13.94-19.51l.09-.21-.17-.12Zm8.5,31.22s-.07,0-.11,0c-1.2-.02-2.12-.45-2.87-1.35-1.79-2.28-1.83-6.98-1.07-10.62l.06-.2c.91-1.75,1.57-2.49,1.97-2.8l.16-.12.82.16.1.15c.15.23.34.57.48,1.21l.22,6.03c0,1.36.35,2.05,1.05,2.08.35,0,.82-.21,1.46-.67,3.47-5.6,4.03-12.39,4.31-18.86.21-2.54,1.54-4.23,2.66-4.23.28,0,1.18.16,1.18,2.16.09,9.69-.71,20.39-7.32,26.3l-.09.08-.2.04c-.91.42-1.91.65-2.81.65Zm-3.21-11.83c-.7,3.42-.7,7.9.89,9.93.58.69,1.27,1.01,2.22,1.03.81.04,1.71-.19,2.63-.6l.06-.02c6.27-5.7,7.03-16.12,6.94-25.57,0-.96-.25-1.3-.32-1.3-.52,0-1.62,1.21-1.8,3.42-.29,6.6-.87,13.55-4.49,19.34l-.11.12c-.86.62-1.47.89-2.05.89-.72-.03-1.9-.44-1.9-2.93l-.21-5.94c-.07-.33-.17-.54-.25-.68h-.05c-.29.26-.83.91-1.57,2.33Zm32.7,11.18h-.35c-1.3,0-2.64-.15-3.86-.44-3.88-1.72-8.09-2.68-13.33-3.02-1.24-.13-2.03-.75-2.08-1.62-.05-.77.62-1.69,1.99-1.96.65-.13,1.24-.15,1.99-.15,2.75.04,6.7.87,12.46,2.62l.74.07c.63.01.85-.35.88-.43.31-.58-.13-1.64-.72-2.3-3.04-3.48-7.46-6.14-13.11-7.9-1.29-.54-1.62-1.52-1.39-2.27.04-.46.54-1.5,2.16-1.43,7.28,1.38,13,5.07,17.53,11.29,1.28,2.17,1.57,4.1.83,5.47-.58,1.21-1.98,1.99-3.73,2.06h0Zm-15.65-6.33c-.69,0-1.24.02-1.82.13-.98.2-1.31.76-1.29,1.07.02.42.52.73,1.29.81,5.33.35,9.63,1.33,13.53,3.07,1.08.25,2.35.39,3.59.39h.33c1.42-.06,2.54-.66,2.99-1.59.59-1.1.3-2.77-.79-4.61-4.38-6.01-9.92-9.59-16.91-10.91-1.11-.05-1.21.66-1.22.74-.16.54.18,1.01.84,1.29,5.78,1.8,10.32,4.54,13.47,8.14.8.9,1.34,2.31.84,3.25-.2.43-.74.91-1.65.91h-.06l-.86-.09c-5.75-1.75-9.63-2.57-12.29-2.6Zm-53.1,4.92s-.07,0-.11,0c-.79,0-3.45-.29-4.16-4.03-.66-9.75,2.77-20.88,10.21-33.13.57-.82,1.43-.9,1.78-.9.96.04,1.83.47,2.33,1.14.43.59.55,1.22.38,1.87-1.25,3.8-2.79,7.19-4.38,10.61l-.33.65c-1.86,3.98-3.79,8.1-5.14,12.97-.42,1.5-.36,2.65.17,3.4.3.38.75.6,1.25.62.71.01,1.56-.42,2.18-1.11,4.16-4.23,7.52-9.8,10.48-14.71l.72-1.12c1.8-3.07,3.59-6.03,5.46-8.38.91-1.07,1.74-1.61,2.48-1.61h.12l.96.56.06.09c.5.84.49,2.24-.04,3.48-5.51,11-12.69,20.45-21.98,28.93l-.09.06c-.78.41-1.53.6-2.33.6Zm7.69-37.2c-.19,0-.71.05-1.04.51-7.32,12.08-10.72,23.04-10.08,32.55.56,2.95,2.51,3.27,3.32,3.27.69.01,1.32-.14,1.98-.48,9.19-8.4,16.3-17.76,21.74-28.61.39-.91.45-1.96.14-2.58l-.55-.32c-.45.06-1.06.52-1.71,1.29-1.83,2.29-3.6,5.23-5.4,8.29l-.72,1.1c-2.99,4.96-6.37,10.57-10.59,14.86-.79.87-1.87,1.37-2.83,1.38-.75-.02-1.45-.37-1.92-.97-.7-.99-.8-2.38-.31-4.15,1.38-4.93,3.32-9.09,5.2-13.11l.33-.65c1.58-3.39,3.1-6.75,4.33-10.49.13-.5-.08-.88-.25-1.11-.34-.45-.97-.75-1.65-.78Zm66.73,31.21c-.93-.02-1.74-.44-1.91-.97l-.05-.16.62-1.33.1-.07c2.43-1.69,5.24-2.97,8.61-3.92.65-.18,1.73-.57,1.68-1.19-.01-.2-.29-.53-1.22-.54h-.02c-.19-.01-.42,0-.71.04l-.19.02c-2.63.32-5.98,1.55-9.93,3.64-.62.28-1.25.29-1.73.04-.35-.17-.58-.46-.66-.81-.14-.56.27-1.23,1.05-1.71,5.77-3.41,10.76-5.06,15.25-5.06.1,0,.19,0,.29,0,1.74.04,3.16.26,4.46.68,1.84.88,2.96,2.24,2.98,3.56-.03,1.4-1.13,2-1.47,2.15l-9.79,2.65-6.73,2.88-.62.11Zm-1-1.15c.16.12.5.28.94.29l.49-.09,6.65-2.85,9.78-2.64c.16-.08.88-.47.89-1.34-.01-.96-.97-2.05-2.43-2.76-1.17-.38-2.5-.58-4.16-.62-4.42-.1-9.33,1.54-15.08,4.94-.52.32-.68.68-.66.77.03.13.14.21.21.24.25.13.61.11.97-.05,4.08-2.16,7.43-3.39,10.22-3.73l.2-.02c.33-.03.6-.05.84-.04,1.91.03,2.04,1.21,2.05,1.35.07.94-.71,1.64-2.31,2.09-3.23.9-5.93,2.12-8.25,3.73l-.34.74Zm-15.73.48c-2.8-.06-5.59-1.07-6.44-1.98l-.62-.98.11-.37c.28-.65,1.59-.98,3.38-1,2.13.02,5.05.68,5.84,1.6l.03.04c.55.84.71,1.36.53,1.74-.29.63-1.24.95-2.84.95Zm-6.09-3.04l.34.55c.58.61,3.09,1.58,5.76,1.63,1.5,0,1.98-.32,2.04-.44,0,0,.03-.14-.45-.88-.52-.57-2.92-1.26-5.17-1.28-.04,0-.07,0-.11,0-1.49,0-2.19.27-2.41.42Zm-66.54,2.61s-.08,0-.12,0h0c-1.32,0-2.39-.84-3.32-2.66-3.97-7.04.46-32.44,6.25-43.07.35-.81.77-.92,1.09-.92h.04c.57.06,1.31.69,1.84,1.56.7,1.12.86,2.42.43,3.29-5.1,10.09-7.27,19.66-6.82,30.12.02,3.07,1.69,3.23,2.03,3.23.9,0,1.85-.61,2.47-1.58,2.19-3.52,4.22-8.12,6.18-12.58l1.07-2.46c1.54-3.54,3.14-7.2,4.8-10.28.36-.5.64-.75.85-.82l.09-.03.1.02c.32.05.71.34,1.13,2.04.46,1.79.08,3.95-1.15,6.62-1.35,2.6-2.66,5.48-3.81,8.03l-.85,1.87c-3.17,7.09-6.16,13.78-9.5,16.54-1.08.72-2.03,1.08-2.8,1.08Zm3.87-45.78h-.01s-.11.06-.28.44c-5.72,10.5-10.14,35.41-6.26,42.28,1.02,1.98,1.96,2.21,2.59,2.21.61.04,1.45-.29,2.38-.91,3.15-2.6,6.24-9.51,9.23-16.2l.85-1.87c1.16-2.55,2.47-5.45,3.82-8.05,1.14-2.46,1.5-4.44,1.09-6.03-.16-.66-.31-1.02-.4-1.22-.06.07-.12.15-.21.26-1.6,2.99-3.19,6.64-4.73,10.16l-1.07,2.46c-1.98,4.48-4.02,9.12-6.24,12.69-.78,1.23-2.01,1.99-3.2,1.99-.29,0-2.87-.11-2.89-4.07-.45-10.59,1.75-20.3,6.92-30.53.3-.6.14-1.58-.39-2.45-.49-.81-1.01-1.12-1.17-1.15Zm32.53,44.09l-.73-.39v-.26c0-.23,0-.77.64-1.74l18.15-23.08.79-.44.81.26.08.18c.28.64.29,1.8-.3,2.94l-18.23,21.9-1.22.62Zm18.63-24.79l-18.02,22.91c-.23.35-.35.61-.41.81l.55-.28,17.98-21.65c.38-.75.39-1.52.28-1.95l-.06-.02-.31.17Zm1.37,24.11l-.57-.24-.07-.12c-.15-.25-.54-.93-.52-2.51l.78-5.03c.45-.88,1.15-1.43,1.81-1.43.86,0,1.14.83,1.27,1.24.69,3.31-.27,5.94-1.29,7.21-.46.54-.92.84-1.3.87h-.11Zm.04-.91l.07.03c.12-.05.34-.2.63-.54.9-1.12,1.74-3.47,1.14-6.39-.14-.42-.25-.64-.45-.64-.31,0-.72.37-1.01.9l-.72,4.76c-.01,1.07.21,1.62.34,1.88Zm84.73-1.89h-.02c-.51-.02-1-.11-1.33-.17l-.18-.08c-.35-.26-.55-.59-.39-1.3l.05-.21.2-.09c1.54-.69,2.98-1.06,4.17-1.06.46.05.91.11.91.65v.12l-.06.1c-.81,1.39-1.87,2.04-3.35,2.04Zm-1.08-1c.29.05.69.12,1.09.13,1,0,1.72-.36,2.31-1.17-.95.03-2.15.33-3.44.89,0,.08,0,.11.04.15Zm-5.81-.24c-.06,0-.12,0-.17,0h-.84l-.95-.66-.03-.18c-.07-.36.16-.95.56-1.42l.08-.07c1.41-1.04,3.2-1.57,5.18-1.57h.84l.1.05c.52.28.77.52.81.8.08.31-.09.71-.52,1.24-1.35,1.2-3.08,1.81-5.04,1.81Zm-.74-.87h.58c1.84.02,3.41-.5,4.58-1.53.18-.24.25-.39.28-.46-.04-.04-.12-.09-.26-.18h-.62c-1.8-.04-3.35.44-4.62,1.36-.17.21-.26.41-.3.55l.37.26Zm5.46-2.04s0,0,0,.01c0,0,0-.01,0-.01Zm-56.13,2.29h-.41c-1.22-.05-2.03-.48-2.2-1.17l-.04-.14.51-1.18.13-.07c4.16-1.73,6.9-3.44,8.69-5.43.62-1.23.72-2.19.29-2.92-.37-.71-1.41-1.12-2.81-1.14-1.23-.04-2.65.2-4.36.76l-.25.13-1.1-.6-.06-.12c-.25-.49-.11-1.13.36-1.76,1.23-1.16,2.44-1.82,3.75-2.05,2.03-.42,4.06.1,6.37,1.65h0c1.62,1.11,2.77,2.27,3.5,3.55.66,1.43.69,2.79.11,4.05-1.83,3.8-9.17,5.61-12.3,6.38l-.19.07Zm-1.72-1.27c.16.19.62.38,1.31.41l.36-.03c3.05-.75,10.1-2.48,11.76-5.92.48-1.04.45-2.11-.09-3.29-.65-1.13-1.71-2.2-3.22-3.23-2.1-1.41-3.92-1.89-5.72-1.52-1.14.21-2.21.79-3.27,1.78-.2.27-.27.53-.26.69l.45.25c1.81-.59,3.29-.85,4.59-.79,1.73.02,3.03.6,3.54,1.59.58,1,.49,2.24-.3,3.79l-.06.09c-1.87,2.08-4.68,3.87-8.84,5.61l-.25.58Zm-59.41,1.21l-.71-.44-.05-.14c-.11-.3-.35-.92-.03-2.16,3.22-10.55,8.2-17.98,14.8-22.1l.11-.05.48-.14,1.3.27-.63,1.43c-5.71,6.85-10.09,13.75-14.18,22.37l-.11.15-.97.8Zm14.41-24.08c-6.4,4.02-11.23,11.27-14.38,21.57-.19.73-.13,1.16-.07,1.41l.37-.31c4.1-8.63,8.49-15.55,14.21-22.42l.13-.3h-.06s-.21.05-.21.05Zm79.61,23.57c-.73,0-1.43-.2-2.11-.62-2.11-1.02-3.89-2.43-5.25-4.17-1.45-1.76-3.35-3.06-5.66-3.88-2.49-1.14-4.71-2.81-6.85-5.11l-.08-.12c-2.59-5.93-1.58-10.96,3-14.95.61-.4,1.12-.58,1.61-.55.74.05,1.38.42,1.82,1.04.54.84.7,2.05.4,3.02l-.04.09-2.25,3.8c-1.15,2.56-.46,4.58,2.13,6.14,5.32,2.81,8.77,5.17,10.84,7.41.8,1.1,1.63,1.65,2.51,1.66.6.04,1.3-.25,2.01-.8l3.85-3.31c.57-.79.72-1.47.47-2.08-.29-.58-.87-.71-1.29-.71-.39,0-.69.03-1.08.16l-2.72,1.25-1.05.37-.13-.04c-.38-.1-.76-.3-.96-1.14-.16-2.86,1.12-4.88,3.93-6.23,1-.25,1.76-.34,2.41-.31,2.99.04,5.72,1.82,8.09,5.31,2.25,3.4-2.09,6.55-6.68,9.89l-.09.07c-1.18.83-2.68,1.98-3.92,2.98-1.02.56-1.97.83-2.89.83Zm-19.19-14.3c2.04,2.19,4.16,3.77,6.49,4.84,2.43.85,4.46,2.25,6.01,4.13h0c1.29,1.64,2.96,2.97,4.99,3.95,1.38.83,2.68.62,4.12-.17,1.19-.97,2.71-2.13,3.9-2.97l.09-.06c4.25-3.09,8.27-6.01,6.47-8.71-2.2-3.23-4.69-4.89-7.41-4.93-.57-.03-1.27.05-2.09.25-2.4,1.17-3.5,2.87-3.36,5.3.07.28.15.36.22.39l.74-.26,2.73-1.25c.54-.18.93-.22,1.39-.22.93,0,1.69.44,2.08,1.22.38.93.18,1.92-.59,2.98l-.07.07-3.91,3.35c-.89.69-1.78,1.01-2.58,1-1.16-.02-2.22-.69-3.16-1.98-1.97-2.13-5.34-4.43-10.59-7.2-3.02-1.81-3.85-4.26-2.48-7.29l2.24-3.8c.2-.71.08-1.64-.3-2.23-.27-.39-.68-.63-1.14-.66-.3-.03-.63.11-1.04.38-4.26,3.72-5.18,8.26-2.76,13.85Zm31.34,13.23s-.09,0-.14,0c-.72-.04-1.47-.13-2.11-.26l-.16-.06-.54-.36-.05-.12c-.12-.3.02-.74.38-1.22,1.64-1.81,3.84-2.69,6.49-2.69l.13.02,1.64.52-.34,1.09c-1.19,2.1-2.91,3.09-5.29,3.09Zm-2-1.09c.58.11,1.26.19,1.89.22,2.16.06,3.6-.78,4.62-2.57l.05-.18-.76-.24h0c-2.38,0-4.31.8-5.74,2.37-.09.12-.14.22-.18.3l.13.09Zm-136.21-.17c-1.01.02-2.26-.66-3.27-1.83-7.61-9.8-5.09-40.64,4.55-55.95l.06-.1.89-.47h.12c.51.03,1.06.38,1.42.93.56.89.61,2.08.14,3.12-7.41,16.78-9.87,29.53-7.77,40.11.3,1.04.81,2.46,1.82,2.49,1.13,0,1.78-1.94,2.12-3.56,1.97-12.93,5.32-22.5,10.86-31l.47-.73.3.82c.58,1.62.67,4.83-.11,6.4-4.6,8.01-7.71,20.12-9.54,37.02h0c-.25,1.82-.95,2.74-2.06,2.74Zm1.95-57.22c-9.44,15.11-11.96,45.29-4.55,54.84.79.91,1.79,1.51,2.55,1.51.26.02.97.03,1.25-1.98,1.84-17.02,4.99-29.23,9.64-37.33.52-1.06.57-3.24.29-4.78-5.15,8.18-8.3,17.44-10.2,29.85-.59,2.84-1.59,4.27-2.98,4.27-1.77-.05-2.41-2.3-2.65-3.15-2.15-10.81.33-23.72,7.82-40.67.35-.78.32-1.66-.08-2.29-.2-.29-.46-.46-.65-.51l-.45.24Zm85.16,56.83c-.65-.03-1.12-.44-1.24-1.08-.16-.82.22-1.58.98-1.96,2.49-1.57,5.21-2.82,8.78-4.04l.26-.02c1.02,0,1.47.63,1.58,1.01.23.6.01,1.4-.55,1.92-2.72,1.73-5.82,3.1-9.29,4.13l-.16.03h-.36Zm8.72-6.22c-3.46,1.18-6.11,2.4-8.57,3.95-.65.32-.59.87-.56,1.03.05.25.19.38.42.38h.3c3.34-1,6.37-2.34,8.96-3.98.23-.22.37-.66.26-.96-.01-.04-.13-.42-.76-.42h-.05Zm59.96,6.2h-.06c-.32-.03-.77-.1-1.04-.3l-.25-.18.2-.67.11-.08c1.76-1.31,2.59-3.53,2.54-6.78.26-3.13.83-6.38,3.23-9.19l.3-.36.33.33c.15.15.44.5.76,1.21.57,1.37.55,3.12-.04,3.68-1,1.18-1.35,2.84-1.03,4.92.49,4.3-1.15,6.71-5.01,7.4h-.06Zm-.09-.87s.03,0,.05,0c3.37-.62,4.68-2.6,4.25-6.42-.36-2.32.06-4.22,1.26-5.63.23-.23.39-1.52-.12-2.75-.11-.23-.21-.41-.29-.55-2.05,2.66-2.46,5.63-2.68,8.24.05,3.25-.75,5.59-2.46,7.11Zm-75.56-1.05c-1.63-.03-2.85-1.15-3.43-3.17-.38-3.69.11-6.75,1.45-9.16.48-.71,1.31-1.16,2.05-1.12.71,0,1.17.45,1.17,1.15l-.16,4.6c-.03.49.1.9.38,1.23l.58.3c.45,0,.91-.22,1.44-.7,3.51-3.38,5.41-8.01,5.93-14.58-.15-.88.56-2.07,1.2-2.93v-.02c.86-1.02,1.71-1.65,2.49-1.81l.09-.02.52.11.27.44v.82c-1.5,9.15-4.06,19.12-11.7,24.29-.76.38-1.49.56-2.28.56Zm.02-12.58c-.48,0-.98.28-1.27.7-1.23,2.22-1.69,5.11-1.34,8.55.32,1.07,1.04,2.44,2.59,2.46.64,0,1.25-.14,1.83-.44,7.32-4.95,9.81-14.72,11.27-23.61v-.39c-.54.17-1.18.69-1.82,1.46-.88,1.17-1.1,1.95-1.03,2.28l.02.07v.07c-.55,6.82-2.52,11.66-6.22,15.21-.72.63-1.36.92-2.03.92h-.25l-.92-.53c-.46-.51-.69-1.17-.65-1.9l.16-4.58c0-.16-.05-.28-.35-.27Zm70.27,12.52c-.06,0-.11,0-.17,0h-.05s-.97-.2-.97-.2c-.97-.43-1.48-.85-1.52-1.24v-.06s0-.06,0-.06c.03-.19.2-.51.84-.95,2.83-1.74,3.93-4.29,3.28-7.59-.83-2.06-.49-4.27,1-6.33,1.6-1.98,1.5-3.72,1.16-5.31l-.04-.17.45-.71.27.03c.46.05.99.19,1.5.41,1.15.66,1.92,1.59,2.19,2.62.42,1.63-.14,3.82-1.68,6.5-1.21,1.49-1.61,3.04-1.22,4.66.2,2.71-.67,5.36-2.25,6.99-.89.95-1.81,1.42-2.78,1.42Zm-.1-.87c.76.04,1.49-.33,2.26-1.15,1.42-1.46,2.2-3.85,2.03-6.26-.43-1.8.04-3.65,1.36-5.28,1.36-2.39,1.92-4.41,1.56-5.79-.22-.82-.82-1.54-1.74-2.07-.35-.14-.67-.23-.9-.27.33,1.67.38,3.64-1.36,5.79-1.31,1.81-1.61,3.69-.86,5.56.75,3.76-.49,6.62-3.64,8.56-.16.11-.27.21-.35.28.13.11.39.28.86.49l.79.15Zm-6.03-2.52c-1.02-.06-1.62-.21-1.86-.45l-.24-.24.57-.89c1.18-1.14,1.19-2.43.04-3.95-.52-.43-.8-.89-.85-1.39-.02-.64.32-1.28,1.12-2.08,3.68-4.68,3.3-9.09-1.19-13.43l-.02-.02c-.5-.55-.75-.97-.75-1.23v-.24l.86-.5c.69-.15,1.46-.22,2.36-.22,2.92.04,5.46,1.24,6.65,3.13,1.05,1.82.93,4.06-.34,6.5-1.26,1.78-1.45,3.4-.63,5.15.67,1.74.71,3.55.15,5.41l-.04.09c-1.55,2.66-3.46,4.08-5.82,4.37Zm-.91-.97c.19.04.47.08.88.11,1.98-.25,3.67-1.52,5.07-3.9.49-1.65.45-3.26-.13-4.77-.93-2-.71-3.95.69-5.94,1.09-2.11,1.22-4.07.33-5.6-1.02-1.63-3.29-2.68-5.91-2.71-.8,0-1.49.06-2.1.19l-.12.08c.08.11.2.27.39.48,4.79,4.63,5.2,9.55,1.22,14.61-.63.64-.92,1.1-.91,1.45.02.24.22.52.57.8l.07.07c1.43,1.86,1.41,3.67-.06,5.1l-.02.03Zm-129.41.28h-.02c-.28-.01-1.22-.18-1.36-1.84.49-9.74,3.51-16.96,9.24-22.11l.1-.07c.5-.24.95-.35,1.35-.33h0c.53,0,.98.24,1.24.68.34.69.23,1.59-.25,2.38-4.38,6.95-7.2,13.19-9.14,20.24-.19.62-.67,1.05-1.17,1.05Zm8.4-23.26c-5.52,4.99-8.44,11.99-8.91,21.41.05.57.25.96.52.99.05-.01.24-.12.33-.43,1.96-7.12,4.81-13.44,9.24-20.46.32-.52.41-1.12.23-1.51-.05-.08-.19-.23-.57-.22-.25,0-.52.07-.84.22Zm-93.59,21.36s-.1,0-.14,0c-.68-.03-1.22-.54-1.57-1.51-.31-.94-.27-1.87-.2-3.16v-.26c1.2-21.87,4.21-34.35,9.78-40.47,1.29-1.28,1.94-1.37,2.1-1.37h.15l.12.1c.21.17.35.62.41,1.32.04.96-.22,1.46-.74,2.45-1.81,3.69-2.93,6.89-3.44,9.79-.21,1.22-.12,2,.28,2.51l.46.3h.17c.67.07,1.45-.81,2.05-2.18,2.98-6.9,6.64-11.35,11.52-14.02,7.23-4.32,12.61-8.45,16.45-12.63,1.43-1.77,2.69-3.74,4.33-6.78.28-.56.55-1.09,1.36-1.3l.06-.02h.06c1.08.05,2.42,1.63,2.76,3.25.25.9.11,1.35-.41,2.24-4.05,7.28-8.69,12.13-14.19,14.82-9.39,4.53-15.84,10.73-19.17,18.45-3.74,8.81-5.87,15.55-7.14,19.58l-.59,1.68c-.33.98-.64,1.92-.98,2.88-.45,1.36-.89,2.39-1.71,3.3-.59.68-1.22,1.04-1.78,1.04Zm9.72-45.8c-.24.13-.65.41-1.23.99-5.41,5.94-8.35,18.26-9.52,39.91v.26c-.08,1.24-.12,2.05.14,2.83.22.61.49.92.83.94.25.03.69-.15,1.21-.75.72-.81,1.11-1.71,1.54-3.01.34-.97.66-1.9.98-2.88l.59-1.69c1.28-4.05,3.42-10.81,7.16-19.65,3.41-7.91,10-14.26,19.59-18.88,5.33-2.6,9.85-7.34,13.82-14.47.45-.77.49-.97.32-1.6-.29-1.36-1.32-2.49-1.9-2.58-.36.11-.49.34-.74.84-1.67,3.11-2.95,5.12-4.44,6.95-3.91,4.27-9.36,8.45-16.67,12.82-4.72,2.58-8.26,6.9-11.15,13.61-.77,1.79-1.8,2.75-2.86,2.71h-.3s-.26-.1-.26-.1l-.69-.46c-.61-.72-.77-1.72-.51-3.26.52-2.98,1.67-6.27,3.52-10.04.51-.97.68-1.29.65-2-.02-.21-.04-.37-.07-.49Zm145.42,40.51c-1.01,0-1.16-1.86-1.16-1.88-.13-1.04.47-2.81,1.28-3.77.42-.52.83-.8,1.22-.8h.16l1,.83.03.14c.35,1.45.07,3.03-.74,4.22-.52.79-1.19,1.26-1.78,1.26Zm1.23-5.54c-.09.06-.25.18-.45.43-.71.85-1.18,2.41-1.09,3.14.03.38.2.97.34,1.1.19-.02.6-.22,1.03-.87.65-.94.89-2.23.65-3.4l-.48-.4Zm9.54,4.1l-1.01-.17.46-1.06,4.25-4.05c.54-.68.71-1.27.47-1.72-.28-.68-1.2-.79-1.72-.8l-1.15-.18.48-1.08c2.11-2.45,4.31-3.65,7.12-3.91h0c.83,0,1.27.33,1.4.99.38,5.44-2.66,9.31-9.28,11.89l-.12.03-.91.08Zm2.57-8.66c1.19.03,2.05.49,2.38,1.29.39.74.19,1.65-.62,2.67l-3.98,3.8.42-.04c6.18-2.42,9.02-6,8.68-10.95-.03-.14-.05-.24-.51-.24-2.48.23-4.46,1.3-6.37,3.46Zm-41.2,8.46s-.08,0-.12,0c-1.96-.03-3.43-.66-4.37-1.88h-.01c-1.21-1.71-1.41-4.29-.58-7.47,2.76-8.73,8.51-17.17,13.58-24.62l1.08-1.54c.67-1,2.05-1.4,3.1-1.36h0c.81,0,1.5.25,1.69.63.15.38-.06.91-.55,1.45-5.85,8.08-10.54,15.92-14.29,23.91-.72,1.15-.75,2.49-.12,3.64.45.89,1.3,1.44,2.21,1.45.37,0,1.34-.12,2.27-1.22,7.37-8.04,14.04-16.41,20.4-25.62.63-.62,1.33-.89,2.03-.83h0c.77,0,1.51.38,1.88.99.35.68.27,1.49-.23,2.5-5.82,9.18-13.11,18.39-21.7,27.4-1.31,1.51-3.88,2.56-6.28,2.56Zm-3.8-2.4c.77,1,2.01,1.51,3.69,1.54.04,0,.08,0,.11,0,2.16,0,4.47-.93,5.64-2.28,8.56-8.99,15.82-18.15,21.59-27.25.35-.7.43-1.27.23-1.66-.2-.32-.66-.55-1.17-.55-.62-.06-1.07.26-1.34.52-6.33,9.18-13.03,17.58-20.41,25.64-1.15,1.37-2.43,1.51-2.92,1.51-1.25-.02-2.38-.75-2.97-1.91-.78-1.42-.73-3.09.13-4.46,3.75-8,8.46-15.88,14.38-24.04.22-.25.33-.43.38-.54-.12-.04-.41-.13-.86-.13-.82-.04-1.89.26-2.37.99l-1.04,1.47c-5.07,7.46-10.78,15.85-13.5,24.43-.74,2.86-.58,5.25.45,6.71Zm87.01,1.67h-.3c-1.24-.19-2.22-.62-3-1.26l-.58-.49c-.57-.48-1.16-.98-1.68-1.46-.79-.72-.84-1.48-.15-2.26,1.77-1.67,2.16-3.73,1.18-5.98-.35-.81-.33-1.56.05-2.06.22-.24.43-.37.95-.37l.37.04c.74.17,1.54.73,2.31,1.32l.17.08c3.47,2.63,4.75,5.72,3.91,9.45-.39,2-1.44,2.98-3.22,2.98Zm-3.58-13.01c-.16,0-.22.03-.22.03-.18.24-.16.69.06,1.19,1.13,2.58.65,5.04-1.35,6.93-.31.35-.37.58.12,1.03.5.48,1.09.96,1.64,1.43l.58.49c.65.54,1.5.9,2.52,1.06h.19s.03,0,.05,0c1.36,0,2.07-.69,2.38-2.29.76-3.37-.4-6.16-3.54-8.55l-.17-.09c-.67-.52-1.43-1.06-1.98-1.19l-.27-.03Zm-11.71,12.84c-.9-.02-1.6-.23-2.16-.64-6.29-4.52-9.25-12.32-7.55-19.87,1.83-8.25,8.54-14.18,17.96-15.87,1.31-.09,2.62-.12,4.06-.1h0c3.06.03,5.87.34,8.34.62l1.23.13.92.17c2.18.31,4.15.56,5.98.58,5.43.12,9.27-1.86,11.55-11.94.02-1.33.3-2.04.99-2.54l.17-.12.2.06c.69.2,1.43,1.23,1.52,2.8.11,13.99-9.9,14.24-22.58,14.55h-.35c-3.64.11-7.76.23-12.01.73-6.24,1.48-11.31,6.12-12.58,11.53-1.18,5.08,1.05,10.29,6.3,14.68,1.37,1.19,1.9,2.41,1.5,3.43-.47,1.06-1.89,1.79-3.47,1.79Zm11.44-35.62c-1.09,0-2.11.03-3.1.09-9.01,1.62-15.46,7.31-17.22,15.2-1.62,7.22,1.21,14.67,7.22,18.99.42.3.96.46,1.67.47,1.22,0,2.34-.53,2.66-1.26.25-.63-.21-1.53-1.26-2.44-5.5-4.61-7.84-10.13-6.58-15.54,1.34-5.73,6.68-10.62,13.27-12.19,4.34-.51,8.48-.63,12.13-.73h.36c13.15-.34,21.84-.55,21.74-13.67-.06-1.05-.47-1.65-.73-1.89-.23.25-.41.68-.44,1.77-2.41,10.7-6.74,12.78-12.41,12.7-1.87-.02-3.87-.28-6.1-.59l-.91-.16-1.2-.13c-2.45-.27-5.23-.58-8.25-.61h0c-.29,0-.57,0-.85,0Zm-63.22,34.83c-.99-.02-1.66-.27-1.95-.71-.4-.64-.29-1.65.32-3.1,3.91-7.58,9.97-15.8,19.12-25.9.67-.79,1.58-1.07,2.16-1.07l.17.04.69.3.07.16c.12.27.09.8-.35,1.42-4.62,5.91-9.06,11.66-12.62,17.04-.53.75-.73,1.48-.55,1.98l.7.55h.18c.44.01.94-.21,1.64-.72,6.36-7.3,12.62-15.33,19.64-25.22.42-.62,1-.93,1.73-.93.89,0,1.78.54,2.22,1.35.38.73.35,1.52-.08,2.23l-1.25,1.81c-8.01,11.94-17.98,26.8-30.65,30.73l-.11.02-1.07.04Zm19.57-29.92c-.34.03-.95.21-1.43.77-9.1,10.05-15.13,18.22-18.98,25.7-.65,1.54-.48,2.1-.37,2.27.06.1.4.3,1.21.31l.99-.03c12.35-3.86,22.21-18.56,30.13-30.38l1.24-1.79c.26-.43.28-.9.04-1.36-.28-.52-.88-.89-1.45-.89-.3,0-.68.06-1.02.56-7.04,9.92-13.31,17.97-19.77,25.36-.93.7-1.58.97-2.25.97l-.41-.05-.36-.16-.84-.77c-.37-.8-.15-1.86.59-2.91,3.57-5.41,8.02-11.16,12.64-17.07.14-.19.2-.34.22-.45l-.19-.08Zm-144.05,24.8s-.08,0-.12,0h0c-.79,0-1.21-.39-1.42-.71-.45-.57-.55-1.42-.29-2.42,1.1-4.57,4.3-12.24,9.77-23.43.57-1.16,2.57-2.43,4.73-2.38h.79l-.2,1.1-2.27,4.17-.19.86v.12s.07.15.07.15c.12.25.43.41.69.44l.08-.03.87-.42.16-.18c1.91-2.88,3.91-5.27,6.07-7.25,1.18-1.22,2.16-1.72,3.66-2.44,1.96-.87,4.39-1.82,8.14-3.19,2.5-1.34,4.37-2.49,5.83-3.58,1.92-1.65,4.03-3.5,6.28-5.64,1.26-.91,2.47-.69,2.92.25.48.78.41,2.09-.2,3.29-1.68,2.68-3.78,4.72-6.43,6.28-1.18.7-2.4,1.16-3.88,1.68l-.67.22c-2.6.92-4.67,1.74-6.32,2.51-2.38,1.05-3.94,2.09-5.57,3.71-4.03,3.88-7.49,8.66-10.84,13.28l-.63.84c-2.86,4.02-5.71,7.94-9.05,11.73-.54.65-1.27,1.04-1.98,1.04Zm12.4-28.08c-1.7.08-3.25,1.01-3.68,1.89-5.44,11.14-8.62,18.75-9.71,23.27-.2.74-.14,1.32.15,1.7.11.17.28.35.75.35.49.05,1.02-.25,1.41-.73,3.32-3.77,6.15-7.68,9.01-11.68l.63-.85c3.37-4.64,6.85-9.45,10.93-13.38,1.7-1.7,3.34-2.79,5.82-3.88,1.67-.78,3.76-1.62,6.4-2.54l.66-.22c1.43-.5,2.61-.94,3.72-1.6,2.53-1.48,4.53-3.43,6.12-5.96.45-.89.54-1.89.19-2.45-.27-.55-.92-.49-1.61,0-2.21,2.12-4.33,3.97-6.28,5.65-1.52,1.14-3.42,2.31-6.02,3.69-3.79,1.39-6.2,2.34-8.13,3.19-1.44.69-2.31,1.14-3.42,2.28-2.13,1.96-4.08,4.29-6,7.17l-.51.48-1.17.49h-.08c-.54-.03-1.21-.33-1.51-.96l-.13-.37-.02-.31.27-1.16,2.2-4.05Zm78.44,27.71s-.1,0-.15,0c-2.69,0-5.21-1.5-6.73-4.01-1.79-3.16-1.55-7.26.65-11.26,5.25-9.19,8.72-16.47,10.94-22.91.53-1.43,1.41-2.24,2.41-2.24h.04c.76.02,1.63.6,2.06,1.36.38.73.34,1.49-.1,2.16-2.53,6.61-6.33,14.53-11.56,24.11-1.51,2.83-1.12,4.66-.52,5.7.61,1.01,1.64,1.61,2.83,1.62.03,0,.06,0,.08,0,1.44,0,2.89-.8,3.92-2.15,2.94-3.34,5.67-7.86,8.32-12.23l2.31-3.85c1.6-2.66,3.25-5.4,4.89-7.73.61-.7,1.25-1.02,2.01-1.02.96.02,1.87.64,2.24,1.5.35.81.13,1.69-.62,2.48l-15.6,24.1c-1.97,2.83-4.59,4.37-7.41,4.37Zm7.12-39.56c-.61,0-1.21.62-1.6,1.66-2.23,6.49-5.73,13.81-11,23.04-2.05,3.73-2.29,7.52-.66,10.4,1.36,2.24,3.6,3.58,5.99,3.58h0c2.55.03,5-1.37,6.83-3.99l15.64-24.15c.56-.6.71-1.12.5-1.61-.23-.55-.84-.96-1.45-.97-.49,0-.91.22-1.32.69-1.59,2.27-3.23,5-4.83,7.64l-2.31,3.85c-2.67,4.4-5.42,8.96-8.39,12.33-1.17,1.54-2.88,2.47-4.59,2.47-.03,0-.07,0-.1,0-1.48-.02-2.78-.77-3.55-2.05-.71-1.23-1.19-3.36.51-6.55,5.22-9.55,9-17.43,11.56-24.09.32-.5.34-.92.11-1.36-.31-.55-.92-.9-1.32-.91h-.02Zm-46.33,38.19l-1.17-1.07.02-.22c1.19-11.42,4.2-20.96,9.2-29.16l.05-.07.4-.44.7.3.07.12c.58.97.89,3.25.43,4.53-4.51,7.08-7.56,15.44-9.08,24.93l-.06.16-.56.91Zm-.27-1.42l.06.05c1.55-9.55,4.62-17.97,9.14-25.02.29-.82.11-2.52-.26-3.42-4.83,7.99-7.75,17.28-8.93,28.38Zm132.73.1h-.07c-.68,0-1.49-.35-2.27-.99-2.95-2.69-4.05-6.27-2.88-9.36,1.03-2.85,3.83-4.62,7.47-4.74,4.68.2,7.85.31,10.62.36,10.48.17,16.09-.52,18.73-2.32,9.35-4.76,14.68-12.74,15.07-22.5.46-12.96-7.88-26.23-21.77-34.62-7.05-4.49-14.42-9.6-15.69-13.51-.32-.88-.76-2.51-.12-3.29l.13-.11.58-.32h.11c.59,0,1.25.4,1.68.77l.07.08c2.76,4.05,8.35,7.71,16.46,12.3,20.55,10.37,26.94,29.84,24.17,44.55-2.58,13.79-12.73,23.22-26.47,24.6l-23.15.09c-1.54.13-2.66.75-3.12,1.75-.36.67-.71,2.14.81,4.58.67,1,.73,1.81.57,2.21l-.07.19-.85.28Zm2.25-14.22c-3.25.1-5.75,1.66-6.66,4.18-1.04,2.75-.03,5.97,2.63,8.4.57.46,1.18.75,1.64.78l.26-.09c-.01-.23-.11-.67-.5-1.25-1.67-2.68-1.39-4.44-.86-5.44.6-1.27,1.97-2.07,3.86-2.23l23.14-.09c13.3-1.33,23.15-10.49,25.66-23.89,2.72-14.39-3.56-33.46-23.71-43.62h-.02c-8.19-4.64-13.85-8.36-16.72-12.53-.32-.27-.7-.47-.97-.51l-.28.16c-.17.31-.14,1.17.3,2.42,1.19,3.68,8.82,8.91,15.33,13.05,14.15,8.55,22.65,22.11,22.18,35.39-.4,10.09-5.9,18.33-15.49,23.21-2.79,1.9-8.37,2.62-19.19,2.44-2.78-.05-5.95-.16-10.61-.36Zm-72.91,11.4h-.12l-.65-.38-.06-.13c-.12-.26-.32-.99.34-2.17,5.52-8.59,10.99-16.29,16.28-22.92l.13-.16h1.3l.12.22c.25.45.34,1.13.23,1.72l-.02.07c-3,7.86-8.51,15.67-16.38,23.19-.47.36-.88.55-1.17.55Zm-.07-.97l.14.08c.09-.03.28-.12.54-.32,7.72-7.39,13.16-15.08,16.12-22.81.06-.33.02-.64-.05-.88h-.34c-5.23,6.56-10.63,14.18-16.08,22.66-.33.59-.36,1.03-.32,1.26Zm36.68.73s-.05,0-.08,0c-.69-.03-1.2-.26-1.47-.67-.51-.65-.59-1.79-.2-3.27.57-1.11,1.34-2.24,2.95-2.88l.37-.15.18.35c.28.55.79.57.85.57.48.06.89-.29,1.15-.55.89-.86,1.5-2.49,1.52-4.06-.35-4.01,1.35-5.25,3.28-6.25l.43-.22.4,1.07c.38,5.13-1.13,9.94-4.16,13.19-1.68,1.75-3.71,2.87-5.21,2.87Zm1.2-5.88c-1.13.55-1.7,1.4-2.15,2.25-.27,1.08-.25,2.01.1,2.46.13.2.42.3.8.32,1.22,0,3.11-1.01,4.63-2.6,2.85-3.05,4.28-7.59,3.94-12.45-1.57.87-2.67,1.97-2.39,5.22-.02,1.86-.72,3.69-1.78,4.71-.55.53-1.16.78-1.76.79-.41,0-.98-.19-1.38-.69Zm-58.13.04l-.2-.05-.76-.39-.06-.14c-.41-.88-.22-2.17.57-3.84l12.39-22.95c.22-.43.54-.87,1.18-.87l.9.15.15,1.42-.02.08c-.15.53-.01.95.18,1.45.27.66.59,1.41-.43,2.85l-11.46,20.69c-.66.97-1.61,1.58-2.45,1.58Zm-.29-1.07l.38.2c.53-.05,1.17-.5,1.62-1.16l11.48-20.72c.76-1.06.59-1.45.34-2.04-.18-.45-.44-1.12-.24-1.93l-.06-.61-.18-.03s-.13,0-.34.42l-12.39,22.93c-.61,1.29-.83,2.34-.61,2.96Zm-17.41.63h-.04c-2.06-.08-3.98-1.27-5.28-3.28-2.47-3.73-2.55-9.32-.22-14.94,2.99-7.1,8-15.57,15.3-25.88.9-1.01,2.31-.94,2.85,0,.49.81.44,2.06-.14,3.34-6.29,9.06-10.89,17.29-14.52,25.98-1.12,2.53-1.15,5.02-.09,6.66.6.98,1.65,1.54,2.71,1.57,1.16,0,2.32-.7,3.12-1.88,5.23-7.87,8.96-15.8,12.04-22.61.89-1.26,2.29-1.34,2.97-.29.57.83.55,2.15-.05,3.61-3.66,7.77-7.63,16.01-12.45,23.93-1.85,2.46-4.04,3.79-6.2,3.79Zm11.29-44.02c-.28,0-.61.17-.86.45-7.23,10.22-12.21,18.63-15.18,25.68-2.22,5.36-2.17,10.64.14,14.13,1.15,1.77,2.82,2.83,4.58,2.89,1.88,0,3.84-1.2,5.51-3.42,4.78-7.85,8.73-16.06,12.37-23.8.48-1.15.53-2.2.12-2.78-.24-.37-.48-.37-.55-.37-.26,0-.65.19-.95.61-3.06,6.77-6.8,14.74-12.07,22.66-.98,1.44-2.46,2.28-3.88,2.26-1.35,0-2.65-.76-3.4-1.97-1.24-1.91-1.23-4.64.03-7.47,3.65-8.74,8.28-17.02,14.56-26.07.41-.92.48-1.92.14-2.47-.13-.22-.34-.34-.58-.34Zm132.89,31.26l-.1-.57c-.07-.39.13-1.08.56-1.88,7.31-15.17-2.63-23.75-15.23-34.62l-.17-.13c-5.62-4.85-12.6-10.87-18.59-18.3-4.93-9.98-1.53-19.27,10.33-28.48l.04-.03c.5-.3,1.07-.45,1.65-.45,1.15.02,2.14.71,2.51,1.75.61,1.35.23,3.04-1.03,4.5-4.69,3.48-7.35,6.83-8.22,10.29-.89,3.43.06,7.06,2.8,10.79l20.82,19.17c14.06,13.5,16,25.68,5.96,37.25l-.13.1-1.22.62Zm-22.68-83.29c-11.47,8.92-14.78,17.85-10.12,27.32,5.88,7.29,12.83,13.28,18.41,18.1l.17.13c12.89,11.12,23.06,19.89,15.45,35.67-.07.13-.13.25-.18.36,9.27-11.03,7.22-22.69-6.26-35.63l-20.87-19.23c-2.96-4.02-3.95-7.89-3-11.58.92-3.67,3.69-7.17,8.48-10.71.96-1.13,1.29-2.48.81-3.54-.26-.73-.93-1.19-1.72-1.21-.41,0-.82.11-1.18.32Zm-118.48,82.02c-.76,0-1.52-.44-1.99-1.14-.47-.79-.39-1.72.23-2.85l10.99-19.38c.29-.65.71-1.11,1.04-1.11.16,0,.56.07.9.73.72,1.1,1.08,3.4.46,4.78l-10.4,18.38c-.26.4-.67.59-1.23.59Zm10.32-23.51c-.08.11-.19.27-.3.52l-11.01,19.41c-.46.84-.54,1.49-.25,1.97.29.44.79.73,1.25.73.38,0,.46-.12.49-.17l10.37-18.32c.43-.97.23-2.95-.43-3.96-.04-.08-.08-.14-.12-.19Zm53.43,21.98c-.08,0-.15,0-.22,0-4.14-.06-7.49-2.62-8.14-6.24-.32-1.95.22-3.63.89-5.47l.16-.46c.17-.49.33-.95.47-1.46,2.41-8.32,2.51-16.26.32-24.98-.12-.43-.33-1.17.09-1.83.43-.53,1.15-.83,1.96-.83.97.02,2.13.47,2.55,1.42,2.93,8.21,2.96,17,.11,27.69-.39,1.63-.16,3.12.66,4.17.62.81,1.53,1.28,2.52,1.29,1.24.02,2.39-.63,3.27-1.81,7.7-12.44,9.06-23.21,4.14-32.89-.57-1.11-.57-2.24-.02-3.02.38-.58,1.05-.93,1.76-.93.9.04,1.77.62,2.35,1.54,4.81,7.91,3.79,15.4,2.22,23.01-1.22,6.38-4.08,12.4-8.74,18.4-1.84,1.57-4.07,2.4-6.34,2.4Zm-4.49-40.41c-.53,0-1.01.18-1.24.46-.17.27-.08.68.04,1.11,2.23,8.89,2.13,16.96-.32,25.43-.14.52-.31,1.01-.49,1.51l-.16.47c-.66,1.79-1.14,3.3-.86,5.04.57,3.2,3.58,5.47,7.3,5.52,2.14.06,4.24-.7,5.92-2.13,4.51-5.82,7.31-11.72,8.51-17.97h0c1.6-7.73,2.54-14.74-2.1-22.39-.42-.67-1.05-1.1-1.63-1.13-.4,0-.8.21-1.03.56-.37.51-.33,1.33.08,2.13,5.07,9.98,3.7,21.02-4.19,33.77-1.07,1.44-2.5,2.2-4,2.19-1.25-.02-2.41-.62-3.19-1.63-.98-1.27-1.26-3.02-.81-4.91,2.81-10.53,2.78-19.15-.08-27.16-.24-.54-1.07-.86-1.76-.87Zm27.8,37.02s-.08,0-.11,0c-.79-.02-1.85-.2-3.24-.55-2.7-.95-4.42-2.24-5.17-3.86-.63-1.38-.61-2.97.07-4.88,6.48-14.62,6.83-23.7,1.2-31.36-.46-.93-.45-1.76-.02-2.48.33-.59,1.03-.98,1.78-.98.81.04,1.49.41,2.05,1.08,3.38,3.36,4.51,6.42,4.81,13.03,0,3.22-1.03,6.54-2.12,10.06l-.29.96c-.64,2.11-1.37,4.51-1.88,6.99-.3.88-.21,1.69.23,2.24.27.44.62.64,1.06.64.82,0,1.54-.75,2.08-2.16.82-2.7,1.64-5.02,2.33-6.92l.08-.19c1.41-3.96,2.44-7.02,2.64-10.09.4-5.96-1.05-8.54-4.55-14.77l-.06-.09c-.58-1.01-.7-1.82-.37-2.44.32-.64,1.12-.99,2.05-1.01.91,0,1.75.46,2.24,1.23,5.56,7.73,6.12,13.23,5.21,20.14-.77,3.27-1.98,5.9-3.27,8.7l-.64,1.4c-.67,1.47-1.43,3.13-2.08,4.93-.88,1.95-1.33,4.74-1.38,8.58-.07.83-.59,1.78-2.65,1.78Zm-5.52-43.23c-.41,0-.83.22-1.01.54-.29.48-.28,1,.01,1.6,5.8,7.88,5.48,17.21-1.13,32.12-.59,1.65-.62,3.03-.09,4.19.65,1.4,2.21,2.54,4.64,3.39,1.29.32,2.28.5,3.01.51,1.82.04,1.86-.69,1.88-.96.05-3.93.53-6.84,1.45-8.87.65-1.8,1.42-3.48,2.09-4.97l.64-1.4c1.26-2.75,2.46-5.35,3.2-8.49.87-6.65.33-11.99-5.07-19.49v-.02c-.36-.54-.94-.84-1.59-.83-.58,0-1.05.21-1.22.55-.23.43.05,1.09.33,1.57l.07.09c3.62,6.43,5.1,9.07,4.68,15.29-.23,3.43-1.49,6.95-2.7,10.36l-.08.19c-.68,1.86-1.49,4.16-2.32,6.87-.86,2.28-2.05,2.75-2.89,2.75-.74,0-1.37-.36-1.76-1.01-.6-.73-.75-1.86-.36-2.97.51-2.46,1.24-4.87,1.89-7l.29-.97c1.07-3.45,2.08-6.71,2.08-9.78-.28-6.34-1.35-9.25-4.58-12.47-.43-.52-.89-.77-1.43-.8Zm-94.33,41.57c-.99-.02-1.72-1.33-1.79-3.17.42-9.79,5.48-21.51,15.49-35.88l.36-.52.67,1.01c.43.86.53,2.1-.15,3.04-4.27,5.98-7.53,12.26-10.26,19.77-.35.94-.38,1.64-.08,2.15l.4.32.14.03h.08s.02-.01.02-.01c.77,0,1.31-.86,1.57-1.38,2.44-5.24,5.54-10.32,9.48-15.54l.09-.09,1.01-.72.96.76c.47.71.68,2.08.06,3.55l-.06.1c-2.74,3.56-6.12,9.15-9.35,14.66l-.49.75c-2.63,4.51-4.59,7.71-5.98,9.78-.81.92-1.55,1.39-2.18,1.39Zm14.04-38.01c-9.67,13.98-14.56,25.38-14.97,34.85.05,1.45.59,2.29.93,2.3.12,0,.62-.08,1.49-1.05,1.34-2.01,3.29-5.2,5.93-9.71l.49-.75c3.23-5.49,6.61-11.08,9.37-14.68.48-1.17.29-2.18.03-2.62l-.29-.22-.43.31c-3.88,5.15-6.94,10.17-9.35,15.34-.6,1.23-1.44,1.91-2.38,1.87h-.17l-.5-.15-.63-.53c-.49-.76-.51-1.73-.04-2.97,2.75-7.58,6.05-13.93,10.37-19.98.45-.62.4-1.43.16-2Zm41.81,37.86c-.07,0-.14,0-.21,0-3.79-.04-8.48-2.36-9.22-8.79v-.06s0-.06,0-.06c1.79-10.78,2.19-20.11,1.23-28.52,0-.86.21-1.46.67-1.94.52-.54,1.29-.87,2.04-.87,1.46.13,1.81,1.06,1.89,1.6,1.51,6.07,1.94,13.76,1.25,22.83l-.2,1.83c-.32,1.79-.76,4.19.48,5.69.69.82,1.57,1.28,2.54,1.32.02,0,.04,0,.07,0,1.41,0,2.81-.96,4.16-2.85,2.76-6.67,3.25-14.93,1.41-24.47,0-.77.22-1.38.67-1.84l.03-.03c.36-.31.84-.48,1.35-.48.94,0,2.09.61,2.4,1.96,2.35,7.34,2.36,16.23,0,26.39-1.21,5.46-6.19,8.28-10.56,8.28Zm-8.56-8.83c.69,5.82,4.77,7.93,8.36,7.96.07,0,.13,0,.2,0,4.03,0,8.61-2.58,9.72-7.6,2.32-10.01,2.32-18.74,0-25.97-.32-1.37-1.74-1.57-2.34-1.07-.28.3-.42.69-.42,1.15,1.87,9.62,1.36,18.05-1.51,24.97-1.57,2.22-3.21,3.3-4.92,3.3-.03,0-.06,0-.09,0-1.23-.06-2.32-.63-3.17-1.63-1.5-1.82-1.02-4.45-.67-6.37l.19-1.79c.68-8.96.26-16.56-1.24-22.58-.09-.58-.42-.85-1.08-.9-.48,0-1.03.23-1.38.6-.3.32-.43.7-.43,1.29.97,8.42.57,17.81-1.23,28.65Zm-54.19,3.09c-.05,0-.1,0-.16,0l-1.11-.35-6.53-5.5c-2.11-1.7-2.48-3.9-1.1-6.53l.06-.08,8.01-9.13,1-.24c.57,0,1.1.32,1.39.83.36.58.35,1.45-.05,2.32l-.07.1-4.98,5.73c-.8.78-1.15,1.53-1.11,2.31.06,1.65,1.66,3.05,3.21,4.41l.2.2c1.09.89,2.22,1.87,2.66,2.82.4.78.38,1.66-.07,2.33-.21.38-.68.79-1.35.79Zm-.78-1.08l.79.22c.36.01.57-.32.61-.38.29-.43.29-.98.03-1.5-.37-.8-1.46-1.74-2.46-2.56l-.21-.21c-1.58-1.39-3.4-2.99-3.48-5-.06-1.02.39-2.02,1.34-2.95l4.91-5.65c.25-.57.28-1.14.07-1.46-.14-.24-.36-.39-.6-.4l-.58.15-7.8,8.89c-1.17,2.25-.88,3.97.91,5.41l6.47,5.44Zm-121.8.63l-.51-.17-.06-.21c-.07-.22-.24-.79.02-2.29l2.72-6.43c.54-1.27.88-2.13.98-3.42l.38-3.72c.11-.9.27-1.36.73-2.17,1.15-1.86,2.54-2.95,4.37-3.43.55-.16,1.03-.25,1.47-.25h.11s.67.19.67.19l.08.08c.17.17.34.52.23,1.28-1.19,8.11-4.51,14.7-10.17,20.16l-.17.1-.85.28Zm4.02-12.44c-.11,1.42-.49,2.38-1.05,3.68l-2.69,6.33c-.12.74-.12,1.19-.09,1.46l.3-.1c5.47-5.31,8.69-11.72,9.85-19.59.04-.25.03-.4.02-.48l-.3-.08c-.33,0-.73.08-1.18.21-1.64.44-2.83,1.37-3.86,3.04-.4.69-.52,1.05-.62,1.83l-.37,3.7Zm89.14,12.24l-.8-.22v-.33c0-.14,0-.43.12-.91.39-.98,1-1.96,1.91-3.04,1.09-1.17,2.05-1.79,3.46-2.26.83-.3,1.71-.47,2.47-.47.72,0,1.04.25,1.19.45l.11.16-.31,1.12c-1.89,2.23-4.21,4-6.89,5.27l-.11.04-1.15.2Zm7.16-6.36c-.66,0-1.44.15-2.19.42-1.27.42-2.13.98-3.1,2.01-.83,1-1.4,1.9-1.73,2.74-.03.12-.04.22-.06.3l.86-.15c2.51-1.2,4.69-2.86,6.48-4.94l.08-.35c-.08-.02-.19-.03-.35-.03Zm107.98,4.92l-.2-.05-.56-.29-.06-.11c-.33-.57-.34-1.42-.04-2.54,3.05-12.52,2.92-20.7-.42-25.75-.48-1.06-.19-1.74.13-2.15.38-.5.94-.77,1.57-.77.97.02,1.78.6,2.23,1.59,3.98,9.64,3.61,18.92-1.18,29.2-.35.56-.89.87-1.46.87Zm-.12-.98l.22.11c.24-.03.46-.18.61-.42,4.65-10,5.02-19.05,1.14-28.44-.31-.67-.82-1.06-1.45-1.07-.35,0-.66.15-.88.44h0c-.25.32-.27.71-.05,1.2,3.45,5.2,3.62,13.6.51,26.38-.21.8-.25,1.42-.1,1.79Zm-182.9-.53l-.55-.24-.07-.1c-.11-.16-.23-.5-.07-1.54.17-.9.5-1.54,1.09-2.49,2.06-3.7,3.38-6.79,4.04-9.45l1.07-5.49c.29-1.25.5-2.06,1.28-2.92,1.02-1.12,2.45-1.83,3.65-1.8.84,0,1.28.32,1.5.59.36.46.45,1.08.28,1.85-2.11,9.3-5.66,16.26-10.55,20.69l-.16.12c-.38.37-.75.73-1.4.78h-.11Zm.1-.89h.03c.24-.02.41-.16.82-.55l.17-.13c4.71-4.28,8.18-11.09,10.25-20.21.08-.35.12-.82-.11-1.12-.15-.18-.48-.27-.9-.27-.92,0-2.11.62-2.93,1.52-.61.67-.79,1.25-1.08,2.52l-1.07,5.5c-.68,2.76-2.03,5.92-4.13,9.69v.02c-.56.88-.84,1.43-.99,2.19-.07.46-.07.71-.06.84Zm141.12.79c-.06,0-.12,0-.17,0-3.36-.04-6.79-3.12-9.19-8.24-2-7.02-.21-15.6,5.63-27.07l.06-.11,1.12-.66.79.13.1.16c.68,1.04.68,3.14.38,4.77-2.61,7.56-3.56,13.71-3.08,20.02.48,2.05,1.96,3.44,3.75,3.47,1.44.07,2.65-.9,3.25-2.45,1.88-7.15,1.95-13.52,1.86-18.93.29-1.58,1.42-2.12,2.4-2.12.61.02,1.21.31,1.56.73.4.4.59.98.55,1.75.04,8.55.08,18.26-4.28,26.13-1.39,1.62-3,2.44-4.71,2.44Zm-3.03-34.81c-5.68,11.21-7.44,19.56-5.53,26.27,2.23,4.75,5.38,7.65,8.4,7.68,1.55.05,2.95-.66,4.17-2.06,4.2-7.59,4.16-17.19,4.12-25.66.04-.7-.16-.99-.32-1.14-.22-.26-.6-.43-.94-.45-.37,0-1.3.13-1.52,1.32.09,5.38.02,11.82-1.9,19.12-.72,1.9-2.26,3.05-4.04,3.05h-.04c-2.18-.04-4.02-1.73-4.59-4.21-.5-6.5.46-12.76,3.1-20.37.27-1.52.2-3.14-.19-3.92h-.09s-.63.36-.63.36Zm-94.62,34.8l-.61-.17-.08-.1c-.27-.32-.22-.97.73-1.83,3.35-2.96,5.12-6.01,7.44-10.32.67-1.19,2.02-1.32,2.58-1.32h.02c1.1.06,2.15.53,2.48,1.11l.07.12-.06.67-.06.09c-3.4,5.22-6.62,9.17-11.25,11.46l-.1.03-1.16.26Zm10.05-12.88c-.41,0-1.37.09-1.81.87-2.36,4.38-4.17,7.49-7.62,10.55-.26.23-.4.42-.49.55l.79-.17c4.42-2.21,7.42-5.87,10.8-11.04v-.16c-.22-.24-.86-.54-1.68-.58Zm-32.03,11.9l-.69-.36-.04-.2c-.07-.34-.07-.93.37-1.82,2.73-3.71,4.65-8.2,5.91-13.79.33-1.63,1.81-2.22,3.08-2.22.99.04,1.72.45,2.01.83l.07.09.12.86-.03.09c-2.01,6.74-5.09,11.9-9.42,15.76l-.08.06-1.29.7Zm8.61-17.53c-.43,0-1.93.11-2.22,1.53h0c-1.28,5.72-3.25,10.32-6.02,14.07-.19.39-.26.68-.27.89l.73-.39c4.17-3.73,7.15-8.72,9.1-15.24l-.06-.43c-.18-.16-.62-.39-1.27-.42Zm131.69,15.59c-.91,0-2.04-.58-2.24-2.36v-.05s0-.05,0-.05c.95-6.91,1.07-14.45.35-22.4v-.09s.34-1.03.34-1.03l.97-.33c.65,0,1.43.49,1.7,1.57,1.51,7.64,1.84,15.37.97,22.99-.33,1.32-1.32,1.76-2.1,1.76Zm-1.38-2.41c.15,1.14.78,1.54,1.33,1.54.17,0,1.03-.02,1.29-1.05.84-7.48.52-15.12-.97-22.65-.17-.64-.55-.86-.79-.9l-.35.13-.16.47c.71,7.97.59,15.52-.36,22.45Zm-62.16.8l-1.13-.64-.06-.11c-.25-.45-.29-1.03-.1-1.58l4.07-7.12,1-.58h.12c.61,0,1.27.35,1.67.89l.07.1.11,1.25-4.69,7.23-1.06.55Zm-.48-1.26l.5.28.44-.23,4.41-6.79-.06-.7c-.21-.24-.52-.41-.8-.44l-.59.34-3.92,6.84c-.06.21-.06.48.03.71Zm-20.42-1.75c-.06,0-.11,0-.17,0h0c-3.48-.06-6.92-1.72-8.54-4.15-1.21-1.83-1.4-3.98-.54-6.06,3.59-5.39,8.19-10.53,13.69-15.34l.16-.09.77-.22c.56,0,1.07.39,1.36,1.04.3.49.48,1.33.11,1.88-6.29,6.37-9.34,9.91-10.24,11.89-.56,1.49-.44,2.92.36,4.11.91,1.29,2.55,2.11,4.27,2.15.93.04,1.79-.22,2.72-.75,2.9-2.12,6.21-5.24,10.06-9.5l.08-.09.86-.23c.54,0,1.04.33,1.34.89.36.69.37,1.59,0,2.31-3.93,5.4-8.28,9.27-12.97,11.56-.97.4-2.11.6-3.33.6Zm-.15-.87c1.16.02,2.25-.16,3.13-.52,4.54-2.22,8.78-6,12.59-11.22.19-.4.2-1.02-.03-1.45-.14-.25-.33-.41-.53-.43l-.44.12c-3.86,4.25-7.18,7.38-10.15,9.55-1.09.62-2.13.88-3.21.89-1.99-.04-3.89-1-4.97-2.52-.96-1.43-1.11-3.18-.44-4.94.96-2.1,4.06-5.72,10.37-12.1.08-.13,0-.59-.2-.93-.18-.39-.39-.55-.54-.57l-.48.15c-5.42,4.74-9.94,9.8-13.43,15.04-.72,1.76-.56,3.58.5,5.18,1.47,2.2,4.62,3.72,7.84,3.77h0Zm63.26-5.18h-.1c-.79,0-1.13-1.39-1.13-1.95,1.1-5.68,1.8-10.66,2.23-15.75.47-1.85,1.23-2,1.53-1.98.51.04,1.05.66,1.05,1.52-.2,7.11-.88,12.15-2.35,17.42l-.05.19-1.18.55Zm2.44-18.83s-.33.31-.58,1.27c-.42,5.05-1.13,10.06-2.22,15.69,0,.29.17.74.3.94l.52-.24c1.42-5.13,2.08-10.08,2.27-17.01,0-.4-.21-.62-.28-.65Zm-62.82,15.33c-.88-.02-1.67-.49-2.02-1.18-.37-.88-.12-1.86.68-2.78,2.53-3.13,5.37-5.76,8.66-8.05.43-.29.96-.47,1.42-.47,1.2,0,2,1.02,2,1.97,0,.87-.65,1.56-1.54,2.51-2.74,2.99-4.78,4.97-7.15,7.24l-.04.04c-.89.66-1.7.73-2.01.73Zm8.74-11.62c-.23,0-.59.08-.93.32-3.22,2.24-6,4.82-8.49,7.89-.42.48-.85,1.19-.56,1.86.16.31.62.67,1.25.68.21,0,.79-.05,1.46-.54,2.36-2.25,4.38-4.22,7.1-7.19.84-.89,1.31-1.42,1.31-1.92,0-.46-.4-1.1-1.14-1.1Zm-34.47,11.47c-.11,0-.22,0-.32,0-2.88-.04-4.91-.81-6.03-2.3-1.3-1.78-1.4-4.67-.28-8.58,1.77-4.27,9.13-12.39,20.24-22.35l.07-.05c.57-.34,1.09-.51,1.56-.51.7.02,1.25.36,1.65,1.01l.04.1c.29.91,0,1.92-.78,2.72-6.95,5.57-12.72,11.8-17.2,18.56-.57,1-1.09,2.52-.29,3.96.63,1.14,1.99,1.82,3.72,1.87,1.19,0,2.49-.36,3.74-1.04,5.59-3.53,10.92-8.79,16.06-13.86l1.62-1.62.26.09c.4.14.76.51,1.04,1.09.45.92.63,2.24.02,3.12-9.16,10.13-15.39,15.82-18.55,16.93-2.62.59-4.77.87-6.57.87Zm14.14-32.56c-10.99,9.86-18.27,17.86-19.96,21.96-1.01,3.55-.95,6.26.16,7.79.94,1.26,2.74,1.91,5.35,1.95,1.81.03,3.98-.24,6.65-.83,2.03-.72,6.87-4.21,18.11-16.64.37-.54.2-1.53-.12-2.2-.13-.26-.25-.42-.35-.51l-1.19,1.18c-5.18,5.11-10.54,10.4-16.24,13.99-1.41.76-2.85,1.16-4.19,1.16-2.06-.06-3.68-.9-4.46-2.31-.79-1.41-.69-3.08.31-4.83,4.54-6.86,10.38-13.16,17.36-18.75.5-.51.71-1.18.55-1.76-.24-.37-.52-.54-.9-.55-.28,0-.66.13-1.07.37Zm-103.82,32.18c-.24,0-.49,0-.73,0-1.35-.04-2.65-.12-3.85-.23-2.14-.49-2.58-1.09-2.68-1.32-.18-.71.75-1.52,1.32-1.94,5.67-4.29,9.56-9.75,11.55-16.25,18.45-39.03,44.78-62.81,63.63-75.9.8-.48,1.55-.72,2.24-.72.71.02,1.21.3,1.39.76h0c.18.51-.06,1.45-1.31,2.47-25.6,18.52-46,45.09-62.39,81.26-.22,1.28-.11,2.19.34,2.78.37.35.77.53,1.26.53,1.08,0,2.59-.61,4.62-1.88,5.27-3.36,10.14-8.15,14.87-14.66,18.15-29.4,39.79-47.58,58.64-62.3.56-.51,1.03-.83,1.57-.8l.11.02.73.24.06.23c.23.92-.15,2.93-1.66,4.31-17.82,12.13-37.26,34.32-59.47,67.88-7.67,10.45-17.57,15.53-30.23,15.53Zm-6.4-1.84c.15.12.65.45,1.96.75,1.13.11,2.4.18,3.73.22.24,0,.48,0,.71,0,12.37,0,22.04-4.96,29.53-15.16,22.26-33.63,41.78-55.9,59.64-68.06,1.11-1.01,1.44-2.47,1.39-3.2l-.18-.06c-.2.02-.48.2-.93.6-18.82,14.7-40.39,32.81-58.48,62.12-4.81,6.62-9.75,11.49-15.12,14.91-2.21,1.37-3.82,2.01-5.08,2.01-.71,0-1.33-.27-1.91-.82-.66-.85-.82-2-.54-3.56l.03-.1c16.46-36.33,36.96-63.03,62.68-81.64.95-.77,1.05-1.37,1.02-1.48-.03-.07-.22-.18-.59-.2-.51,0-1.13.2-1.76.58-18.74,13.01-44.95,36.69-63.3,75.48-2.02,6.61-6.01,12.23-11.83,16.63-.68.5-.91.83-.98.97Zm145.83.93h-.09c-2.82-.04-6.32-2.71-8.33-6.34-1.5-2.76-1.74-5.4-.65-7.23,3.05-4.49,5.25-7.16,7.13-8.7l.72-.47h.13c.6,0,1.08.66,1.32,1.05.44.92.67,2.35-.09,3.43l-3.15,4.17c-.63,1.37-.46,3.36.49,4.88.72,1.28,1.91,2.05,3.19,2.08.78.03,1.59-.3,2.5-.95l4.13-4.58,1.22-.38h.08c.56.03,1.04.34,1.31.86.16.33.62,1.48-.14,2.98l-.06.09-6.83,7.9c-.79.81-1.73,1.2-2.87,1.2Zm-1.02-21.84l-.41.27c-1.78,1.46-3.92,4.07-6.91,8.46-.91,1.54-.67,3.86.68,6.35,1.83,3.33,5.09,5.86,7.58,5.89.97.05,1.68-.28,2.31-.92l6.78-7.84c.43-.89.35-1.69.12-2.15-.14-.27-.34-.36-.51-.38l-.84.26-4.04,4.46c-1.13.83-2.15,1.16-3.09,1.18-1.6-.04-3.06-.98-3.92-2.5-1.1-1.77-1.29-4.04-.48-5.77l3.19-4.23c.5-.72.38-1.78.03-2.51-.19-.31-.37-.49-.48-.56Zm23.66,18.84c-.87-.02-1.76-.58-2.67-1.67l-.06-.09c-3.56-7.53-2.74-14.38,2.52-20.95.54-.54.89-.66.98-.68l.2-.05.16.12c.26.19.45.73.53,1.5.04,2.31-.67,4.09-1.36,5.82l-.11.28-.17.27c-.72,1.75-1.51,3.63-1.44,6.22.26,1.39,1.18,1.54,1.57,1.54.32,0,.71-.08.97-.21l.15-.04c1.37-.12,2.53-2.95,2.92-4.92.02-.08-.03-.25-.16-.43-.14-.19-.3-.31-.4-.36-.33.51-.81,1.12-1.27,1.22-.12.03-.24.02-.35-.02-.2-.01-.38-.11-.5-.27-.58-.77.41-3.57,1.05-5.16l.07-.12c.58-.69,1.47-.69,2.01-.69.67.02,1.4.33,2.38.98,1.31.52,1.68,1.56,1.13,3.31-.87,4.92-3.05,9.56-6.46,13.74-.56.45-1.15.68-1.67.68Zm-1.97-2.19c.72.85,1.4,1.31,1.98,1.32.31,0,.72-.16,1.06-.43,3.25-4,5.37-8.5,6.23-13.33.53-1.69-.03-2.07-.7-2.34-.9-.6-1.51-.86-1.99-.88-.42,0-.97,0-1.29.33-.73,1.82-1.22,3.63-1.15,4.16h.03s.02.01.02.01c.13-.1.41-.38.75-.92.17-.25.51-.42.97-.22.56.24,1.24,1.03,1.08,1.77-.36,1.83-1.57,5.34-3.61,5.6-.38.16-.85.26-1.27.26-.96,0-2.11-.61-2.42-2.32-.08-2.83.78-4.9,1.54-6.72l.23-.45c.69-1.72,1.34-3.34,1.3-5.44-.03-.26-.07-.46-.11-.6-.08.06-.16.14-.26.23-4.98,6.24-5.78,12.78-2.4,19.96Zm-92.81-.48c-.17,0-.33,0-.5,0-3.01-.04-5.3-.97-6.59-2.69-1.32-1.84-1.49-4.51-.48-7.72,8.53-14.84,20.13-25.6,34.94-37.2l.46-.32.77.37.07.13c.48.94.39,2.53-.2,3.48l-.07.09c-10.4,9.53-20.52,19.16-30.03,32.12-1.1,1.46-1.33,3-.67,4.33.64,1.33,2.27,2.3,3.98,2.35,1.19,0,2.32-.42,3.21-1.23,7.13-6.16,14.05-13.47,19.62-19.34l2.27-2.38c2.02-2.12,4.05-4.25,5.96-6.21l.14-.09,1-.44,1.04,1.05c.53,1.05.64,2.83-.05,3.8l-20.36,21.79c-3.17,3.61-6.61,6.17-10.2,7.62-1.75.33-3.11.49-4.3.49Zm27.9-46.93c-14.72,11.54-26.25,22.22-34.67,36.85-.89,2.86-.77,5.26.39,6.87,1.12,1.49,3.17,2.3,5.92,2.33,1.25.05,2.69-.09,4.54-.44,3.39-1.37,6.71-3.86,9.8-7.37l20.33-21.76c.39-.56.4-1.92-.02-2.8l-.49-.48-.39.17c-1.89,1.94-3.9,4.05-5.89,6.14l-2.27,2.38c-5.58,5.88-12.52,13.2-19.67,19.39-1.04.95-2.39,1.44-3.8,1.44-2.06-.06-3.96-1.2-4.74-2.83-.81-1.64-.54-3.49.76-5.23,9.53-13.01,19.67-22.66,30.09-32.2.41-.7.43-1.83.19-2.45l-.04-.02h-.02Zm-1.86,45.14l-1.2-.56-.18-.99.11-.15c5.74-7.99,11.95-13.92,19.55-18.67l.52-.33.13.6c.25,1.17.04,2.87-.85,3.84l-.02.02-16.73,15.76-1.33.47Zm-.43-1.16l.48.22.91-.32,16.5-15.59c.52-.57.74-1.57.71-2.43-7.2,4.6-13.13,10.31-18.62,17.93l.03.19Zm47.16-1.27h-.06c-.64,0-1.29-.41-1.58-1.01-.25-.59-.21-1.17.12-1.73l.07-.09,3.78-3.65.66-.2c.58,0,1.15.37,1.42.92.31.57.35,1.3.11,1.81l-.09.13-3.86,3.68-.57.15Zm-.8-2.25c-.17.31-.18.58-.06.89.13.26.45.48.75.5l.24-.06,3.64-3.46c.08-.23.06-.63-.12-.97-.14-.28-.39-.42-.59-.45l-.35.12-3.51,3.44Zm69.06.53c-.07,0-.14,0-.21,0l-.51-.04c-7.77-.97-11.79-3.85-12.32-8.79l-2.92-19.75c0-1.01.28-1.79.82-2.33l.12-.09.99-.45h.1c.76.03,1.75.71,2.24,2.55l2.52,15.08c1.01,5.99,3.85,8.95,8.69,9.04,1.15-.03,1.94-.38,2.35-1.03.58-.94.49-2.31-.31-4.44l-4.2-15.02c-.13-.69.01-1.27.39-1.72l.14-.11.9-.38c.75,0,1.51.65,2.05,1.74.96,3.45,2.17,6.66,3.65,10.49,1.08,2.69,1.96,4.98,2.99,8.07l.04.12c.48,1.47.79,2.43.36,4l-.08.16c-1.56,1.95-4.12,2.89-7.8,2.89Zm-14.58-30.25c-.34.37-.52.92-.52,1.6l2.92,19.71c.48,4.5,4.25,7.12,11.54,8.04l.46.03c3.5,0,5.81-.76,7.25-2.5.33-1.26.09-1.99-.37-3.42l-.04-.12c-1.02-3.06-1.89-5.34-2.97-8.02-1.5-3.86-2.72-7.08-3.66-10.5-.32-.63-.78-1.11-1.16-1.17l-.52.25c-.17.24-.22.54-.15.9l4.18,14.95c.88,2.37.96,3.97.22,5.16-.57.92-1.61,1.4-3.07,1.44h-.02c-5.25-.09-8.46-3.38-9.54-9.76l-2.52-15.04c-.35-1.33-.99-1.79-1.34-1.86l-.71.33Zm-144.22,29.16c-1.69,0-3.22-.65-4.13-1.76-.91-1.12-1.23-2.57-.93-4.2l.03-.1c9.38-20.08,24.17-38.1,45.22-55.1.5-.53.86-.76,1.22-.78h.08s.57.19.57.19l.07.21c.46,1.39-.31,4.4-1.63,5.37-12.4,12.11-25.6,25.68-38.18,46.09-.62,1.29-.74,2.29-.31,2.94.24.34.62.53,1.06.52h0c1.06-.04,2.33-1,3.32-2.48,10.22-16.65,24.04-30.53,36.18-42.23l.86-.64.62.75c.76,1.27.88,3.9-.07,5.33l-.08.09c-8.15,7.14-16.83,18.15-24.49,27.86l-.31.34c-5.89,7.5-10.32,13.05-13.38,15.76-1.81,1.19-3.67,1.81-5.44,1.85-.1,0-.19,0-.28,0Zm-4.22-5.75c-.24,1.37.01,2.53.76,3.45.79.96,2.18,1.49,3.71,1.44,1.61-.04,3.32-.62,4.94-1.68,2.96-2.63,7.36-8.14,13.25-15.63l.31-.34c7.64-9.69,16.33-20.71,24.53-27.91.72-1.15.64-3.35.06-4.32l-.05-.07-.15.11c-12.07,11.63-25.84,25.46-36.01,42.03-1.16,1.75-2.65,2.83-4.01,2.88h0c-.73.06-1.4-.29-1.82-.89-.61-.92-.52-2.21.27-3.84,12.65-20.54,25.9-34.15,38.38-46.33.99-.73,1.63-3.04,1.43-4.21-.09.05-.27.18-.59.52-20.97,16.94-35.68,34.85-45,54.79Zm-28.61,4.69c-.53,0-.99-.23-1.24-.61-.7-1.19.23-3.47.85-4.73,15.22-27.83,36.21-51.62,62.38-70.72.94-.5,2.04-.76,3.07-.76,1.1,0,1.9.33,2.02.85.19.55-.63,1.41-2.26,2.34-15.92,12.59-35.74,31.04-61.62,72.13l-.08.09c-.99.87-2.19,1.41-3.14,1.41Zm65.07-75.95c-.88,0-1.86.23-2.62.63-26.02,19-46.92,42.69-62.07,70.39-1.06,2.16-1.14,3.44-.88,3.88.07.11.27.2.5.2.72,0,1.71-.45,2.52-1.15,25.93-41.17,45.81-59.67,61.83-72.33,1.28-.73,1.71-1.22,1.84-1.41-.14-.06-.5-.19-1.13-.19Zm143.28,75.81h-.1c-2.81-.04-5.04-1.54-6.83-4.6l-5.6-15.97c-.27-1.31-.08-2.09.6-2.58l.22-.16.24.13c.22.12.62.42.81,1.05,2.52,6.59,4.91,11.75,7.31,15.73.87,1.2,2.08,1.92,3.29,1.93.02,0,.03,0,.05,0,.99,0,1.86-.46,2.34-1.23.56-.97.49-2.23-.21-3.53-2.58-4.82-4.64-9.58-6.15-14.15-.27-.9-.07-1.55.64-2.11l.15-.12.19.03c.57.08,1.06.55,1.36,1.29,2.19,5.36,4.8,10.49,7.75,15.24,1.22,2.21,1.58,3.84,1.17,5.14-.31,1.12-1.18,2.05-2.66,2.82l-.04.02c-1.74.72-3.23,1.07-4.54,1.07Zm-11.64-22.22c-.13.22-.21.62-.05,1.41l5.55,15.84c1.58,2.7,3.58,4.07,6.06,4.1,1.19.03,2.63-.32,4.27-.99,1.24-.66,1.96-1.41,2.21-2.29.34-1.07,0-2.49-1.09-4.46-2.96-4.78-5.59-9.95-7.8-15.35-.15-.38-.35-.6-.52-.69-.29.29-.33.56-.19,1.03,1.49,4.51,3.54,9.23,6.09,14,.85,1.57.92,3.13.19,4.38-.66,1.05-1.84,1.63-3.15,1.64-1.49-.02-2.95-.87-4-2.32-2.44-4.06-4.86-9.26-7.4-15.93-.05-.16-.11-.28-.18-.37Zm-62.41,21.55c-.76-.04-1.54-.3-2.36-.77l-.12-.11-3.62-4.62-.48-1.34.26-.19c.13-.15.36-.32.9-.32,1.93-.15,3.33-1.96,4.68-3.71l.15-.19c1.24-1.58,2.51-3.21,4.16-3.87l.08-.02.89-.16c.68.02,1.19.24,1.38.64.29.44.03.93-.19,1.36-.37.71-.97,1.43-1.68,2.25l-.41.48c-1.8,2.04-3.82,4.35-1.42,6.77.96.63.89,1.15.18,2.25-.69,1.06-1.44,1.54-2.42,1.54Zm-1.85-1.48c.67.38,1.3.58,1.88.62.65,0,1.14-.33,1.67-1.14q.5-.78,0-1.12c-3.04-3.05-.53-5.9,1.3-7.99l.41-.49c.67-.79,1.25-1.46,1.57-2.09.06-.12.23-.44.22-.53-.06-.11-.24-.22-.57-.22l-.77.14c-1.42.58-2.61,2.1-3.76,3.58l-.15.19c-1.4,1.81-2.99,3.86-5.33,4.04-.06,0-.1,0-.14,0l.22.62,3.46,4.38Zm-25.43,1.24c-1.19-.02-2.56-.71-3.97-2l-.08-.1-1.16-1.93c-2.38-3.77-4.27-6.76-1.36-11.01,2.43-2.95,4.93-5.73,9.02-7.64l.12-.06.13.02c.51.08.9.41,1.15.99.46,1.12.27,2.6-.43,3.3l-4.56,4.86c-.75,1.19-.71,2.9.15,4.38.76,1.45,2.02,2.36,3.31,2.37.69.02,1.29-.17,1.82-.57l4.96-3.64.89-.5h.11c.64,0,1.27.63,1.54,1.52h0c.09.31.49,1.91-.58,2.72l-9.01,6.68c-.72.44-1.35.62-2.06.62Zm-3.34-2.6c1.22,1.1,2.4,1.72,3.34,1.73.55,0,1.02-.14,1.57-.47l8.98-6.65c.51-.38.41-1.3.27-1.78-.15-.5-.44-.81-.63-.89l-.62.34-4.91,3.61c-.68.51-1.47.75-2.35.74-1.6-.02-3.15-1.1-4.05-2.82-1.02-1.74-1.05-3.79-.07-5.32l4.62-4.93c.46-.46.58-1.58.25-2.36-.12-.28-.26-.39-.38-.44-3.85,1.84-6.25,4.51-8.56,7.31-2.57,3.75-.99,6.25,1.41,10.04l1.13,1.88Zm65.09,2.25h-.1c-3.57-.08-8.12-3.02-9.92-8.5-2.06-9.8-1.82-18.36-1.32-25.45.15-1.77.82-2.82,1.76-2.83l.19.05,1.06.59c.52.61.8,1.46.75,2.27-.46,8.19-.62,17.35,1.72,23.15,1.87,3.08,3.71,4.82,5.15,4.83,1.6,0,2.11-1.78,2.26-3.27.19-7.83-.87-14.38-1.81-19.2,0-.78.17-1.28,1.08-1.83l.13-.08.15.02c.61.08,1.18.57,1.53,1.31,2.59,7.32,3.64,15.35,3.13,23.92-.8,3.26-2.84,5.01-5.75,5.01Zm-9.67-35.91c-.33.09-.7.79-.8,2.02-.5,7.02-.73,15.51,1.29,25.16,1.66,5.06,5.83,7.79,9.1,7.86.03,0,.05,0,.08,0,2.47,0,4.21-1.51,4.9-4.28.49-8.38-.54-16.3-3.07-23.46-.21-.43-.49-.66-.71-.75-.52.35-.52.58-.52.91.95,4.78,2.02,11.39,1.82,19.33-.35,3.55-2.11,4.08-3.13,4.08-1.79-.02-3.83-1.86-5.92-5.31-2.43-6.02-2.28-15.3-1.81-23.59.04-.56-.15-1.16-.49-1.59l-.74-.38Zm-104.33,34.32l-.95-.59c-.29-.44-.24-1.05.13-1.69,8.38-10.66,18.23-20.56,29.31-29.47l.35-.28.55.76c.51.85.65,2.07.32,2.69l-.06.08c-9.02,10.08-18.66,19.53-28.64,28.09l-.13.08-.89.34Zm-.26-1.14l.33.19.44-.17c9.92-8.51,19.49-17.9,28.46-27.91.13-.32.07-1.15-.29-1.76-10.89,8.79-20.57,18.55-28.79,29-.13.23-.2.5-.15.65Zm166.06-.05h-.06c-.99-.14-1.87-.67-2.16-1.31l-.06-.12.22-1.13,2.68-2.05c.46-.32.73-.68.86-1.16.12-.78-.38-1.66-.94-2.5-2.6-2.9-4.53-5.54-5.7-7.79-.6-1.12-.73-2.15-.33-2.75l.12-.13.46-.3h.13c.52,0,1.03.39,1.41,1.1,3.05,4.34,5.51,7.47,7.93,10.12,1.41,1.74,1.69,3.06.96,4.44l-.03.04c-1.42,2.04-3.2,3.2-5.45,3.53h-.06Zm-1.37-1.55c.2.28.72.59,1.36.69,1.99-.31,3.51-1.31,4.79-3.14.45-.87.48-1.8-.86-3.45-2.44-2.66-4.91-5.82-8.01-10.23-.22-.4-.43-.6-.59-.67l-.12.08c-.12.3-.05.96.41,1.81,1.14,2.19,3.03,4.76,5.62,7.66.7,1.03,1.29,2.09,1.1,3.21-.19.72-.58,1.25-1.2,1.68l-2.4,1.83-.1.52Zm20.94-.71h-.09c-.54-.03-1.34-.43-2.05-1.04l-.08-.1c-7.05-11.21-4.83-21.29,6.8-30.81l.09-.06c.93-.44,1.83-.65,2.58-.61h0c.97,0,1.77.36,2.07.95.19.68-.25,1.24-.48,1.54l-.13.14c-10.55,7.55-13.26,16.92-8.07,27.85.19.65.31,1.42-.02,1.83l-.07.09-.55.22Zm-1.53-1.65c.52.44,1.08.72,1.39.77l.09-.04c.01-.13,0-.43-.13-.92-5.37-11.27-2.57-20.99,8.32-28.82.15-.2.41-.54.37-.7-.09-.15-.59-.39-1.29-.39-.62-.02-1.35.15-2.14.51-11.17,9.17-13.34,18.85-6.61,29.59Zm-81.7.64h-.43c-.36,0-.77-.11-1.21-.33l-.11-.08c-4.17-4.01-5.99-7.71-5.72-11.64l1.14-18.94c.31-1.4.98-2.23,1.77-2.23l.19.04,1.09.57c.56.66.82,1.62.74,2.68l-.16,4.21c-.05,2.12-.12,4.26-.2,6.39l-.16,6.13c-.52,3.52.59,4.98,1.66,6.4l.11.17c.5.67,1.04,1.43,1.38,2.33.43,2.17.43,3.57.03,4.1l-.13.17Zm-1.2-1.08c.31.15.54.2.69.21.08-.33.16-1.19-.23-3.18-.27-.72-.77-1.42-1.26-2.07l-.1-.16c-1.07-1.41-2.39-3.17-1.82-6.98l.16-6.08c.07-2.13.14-4.27.2-6.39l.16-4.23c.06-.82-.11-1.52-.49-2.01l-.75-.37c-.28.08-.64.59-.84,1.47l-1.13,18.88c-.25,3.64,1.46,7.11,5.4,10.91Zm51.87.75h-.1c-.53,0-1.07-.31-1.55-.91-3.1-4.77-4.94-9.07-5.66-13.21,0-1.19.26-1.71,1.09-2.23l.12-.08h.14c.6.07,1.13.61,1.24,1.28,1.05,3.87,2.76,7.92,5.38,12.73.39.76.38,1.55-.03,2.05l-.15.12-.5.24Zm-5.91-15.51c-.41.28-.54.54-.54,1.32.69,3.94,2.49,8.14,5.5,12.77.25.3.53.5.77.54l.2-.1c.13-.24.09-.63-.11-1.03-2.65-4.87-4.39-8.98-5.46-12.93v-.05c-.05-.25-.21-.45-.36-.52Zm-13.96,15.49h-.1c-.88,0-1.81-.89-2.36-2.27-1.22-5.23-1.75-10.8-2.22-15.71l-.07-.74c.03-1.03.36-1.53.98-1.53h.01c.75.03,1.73.82,1.93,1.83.63,4.85,1.53,11.07,2.94,16.37.16.57.09,1.14-.21,1.54l-.16.13-.73.37Zm-3.8-19.38s-.08.13-.1.64l.07.68c.47,4.89,1,10.43,2.19,15.54.4.99,1.03,1.58,1.46,1.66l.43-.21c.1-.19.11-.45.03-.73-1.42-5.35-2.33-11.61-2.96-16.46-.12-.65-.79-1.09-1.1-1.11v-.43s-.01.43-.01.43c0,0,0,0,0,0Zm-57.14,17.21c-.74-.01-1.47-.27-2.16-.85-1.11-1.4-2.19-2.48-3.34-3.62l-.19-.19c-1.84-1.7-3.75-3.47-4.72-6.28-.16-1.06-.12-1.7.11-2.02.31-.32.68-.4,1.64-.4,3.56-.21,5.99-2.36,8.56-4.64l.13-.08.96-.33c.74,0,1.47.48,1.86,1.21.12.21.53,1.01.02,1.81l-4.35,4.6c-.49.81-.52,1.89-.01,2.75.48.89,1.42,1.52,2.31,1.54.51,0,.92-.14,1.28-.42l4.48-3.4.98-.23c.78,0,1.35.56,1.58,1.11.31.88.07,1.47-.18,1.81-1.98,2.55-4.12,4.71-6.54,6.63-.89.68-1.66,1-2.42,1Zm-9.62-12.41s-.08.35.05,1.27c.89,2.53,2.64,4.15,4.49,5.86l.2.2c1.16,1.16,2.26,2.26,3.34,3.63.47.38.98.57,1.53.58.57,0,1.17-.26,1.9-.82,2.36-1.87,4.45-3.99,6.38-6.47.18-.25.2-.57.06-.99-.07-.17-.32-.52-.72-.55l-.73.18-4.25,3.26c-.5.4-1.12.61-1.82.61h0c-1.2-.02-2.43-.82-3.05-1.98-.66-1.11-.63-2.54.08-3.7l4.35-4.6c.19-.32-.02-.73-.09-.85-.24-.44-.64-.74-1.04-.77l-.65.24c-2.55,2.26-5.2,4.58-9.05,4.8-.76,0-.95.06-.99.08Zm100.81,11.87l-.94-.17-.1-.11c-2.97-3.2-5.15-7-6.48-11.3l-.02-.11c-.02-.54.02-1,.77-1.6l.15-.12.19.04c.38.07.73.4.94.89,1.58,3.34,3.52,6.6,6.09,10.27.3.54.51,1.26.24,1.77l-.08.15-.78.3Zm-.5-.97l.42.08.2-.08c0-.17-.05-.46-.24-.78-2.58-3.67-4.54-6.98-6.15-10.37-.06-.14-.13-.24-.18-.3-.23.23-.24.39-.23.65,1.28,4.1,3.36,7.74,6.18,10.81Zm-107.23-.31h-.08c-.78-.03-1.15-.73-1.29-1l-.05-.11c-.2-.65-.15-1.58.59-2.24l3.3-2.47.66-.16c.71,0,1.41.46,1.7,1.11v.02c.27.69.06,1.45-.56,2.02l-3.34,2.48-.92.33Zm2.76-5l-3.05,2.32c-.41.36-.44.92-.31,1.31.11.2.26.44.48.49l.68-.25,3.14-2.35c.33-.31.45-.69.32-1.04-.15-.32-.51-.57-.85-.59l-.41.11Zm53.11,4.46c-.47,0-1.11-.35-1.35-1.34-1.56-5.25-1.86-11.91-.9-20.36.18-.85.61-1.72,1.13-1.72.56,0,1.19.83,1.4,1.84l.88,20.36c-.1.81-.51,1.22-1.16,1.22Zm-1.06-22.46c-.1.16-.24.45-.34.9-.93,8.29-.65,14.84.88,19.98v.02c.13.54.39.68.51.68.13,0,.25,0,.3-.39l-.88-20.21c-.11-.49-.33-.83-.49-.99Zm-21.08,16.63h-.05l-.42-.04c-4.85-2.2-9.08-6.22-12.94-12.29-9.64-12.98.92-41.9,4.38-51.41,2.79-6.72,7.34-11.19,14.32-14.1l17.9-8.32c1.8-1.52,2.7-3.39,2.53-5.29-.16-1.67-1.09-2.15-2.95-3.11-.26-.14-.54-.28-.84-.44-1.85-.97-4.33-1.47-7.58-1.52-2.2-.04-4.45.14-6.61.32-31.23,2.13-56.9,10.64-80.78,26.78l-.04.05c-.74,1.1-.92,2-.51,2.78.55,1.2,2.31,1.79,5.72,1.93,1.94,0,3.4-.56,4.73-1.82l2.26-3.69c.32-1.03.88-1.15,1.11-1.15.46,0,1.04.46,1.27,1.34l.99,5.02c.12,1.01-.28,1.53-1.26,1.67-3.94,1.31-7.87,1.92-11.61,1.88-6.71-.11-12.78-2.35-18.55-6.84l-.09-.09c-1.02-1.45-1.34-2.47-.97-3.12.44-.99,2.34-1.25,3.44-1.3.73.06,1.34.09,1.9.09,5.87.12,11.22-1.52,16.37-4.98,26.99-15.41,56.02-22.94,86.3-22.48h.27c2.68.08,5,.14,7.46,1.46,2.8,1.51,4.64,3.83,5.2,6.54.51,2.7-.32,5.5-2.32,7.89-2.46,2.96-5.97,4.33-9.07,5.55h0c-1.62.65-2.93,1.19-4.12,1.76-2.5,1.28-4.67,2.47-6.62,3.64-8.45,4.8-13.71,10.52-17.27,26.93l-.43,1.81c-3.53,15.92-5.66,25.54,10.34,38.41,1.31,1.47,1.27,3.4.69,4.59-.44.99-1.2,1.55-2.15,1.55Zm0-.86h0c.6,0,1.06-.35,1.36-1.04.48-.99.45-2.53-.5-3.61-16.37-13.15-14.19-22.97-10.59-39.22l.43-1.81c3.63-16.72,9.01-22.56,17.67-27.49,1.96-1.17,4.14-2.37,6.67-3.67,1.21-.58,2.55-1.13,4.18-1.78h0c3.75-1.47,6.57-2.71,8.73-5.3,1.83-2.19,2.59-4.74,2.14-7.17-.5-2.45-2.19-4.56-4.76-5.94-2.27-1.23-4.5-1.29-7.07-1.35h-.27c-30.11-.5-59,7.03-85.83,22.35-5.28,3.54-10.81,5.21-16.83,5.11-.57,0-1.21-.03-1.9-.09-1.6.09-2.5.48-2.65.83-.05.09-.26.56.87,2.18,5.6,4.34,11.48,6.51,17.98,6.61,3.65.08,7.48-.55,11.4-1.85.58-.09.66-.19.6-.7l-.98-4.97c-.12-.45-.37-.65-.45-.67,0,.02-.15.16-.28.58l-.05.1-2.39,3.87c-1.51,1.45-3.17,2.1-5.39,2.1-3.84-.15-5.77-.87-6.48-2.41-.55-1.06-.35-2.28.62-3.71l.16-.17c24.08-16.28,49.88-24.84,81.26-26.98,2.18-.17,4.46-.35,6.69-.32,3.39.05,6,.58,7.97,1.62.29.16.57.3.83.43,1.93,1,3.2,1.65,3.41,3.79.19,2.2-.83,4.35-2.88,6.07l-.09.06-17.97,8.35c-6.77,2.82-11.17,7.15-13.86,13.62-9.19,25.19-10.7,42.22-4.48,50.6,3.76,5.92,7.85,9.82,12.5,11.96h.19Zm-48.76-.42c-.88-.02-1.74-.31-2.48-.85-1.71-1.33-3.12-3.32-4.21-5.93-1.17-3.96-.16-6.92,3.07-9.09l12.17-8.89.84-.38.7.49.05.1c.37.74.31,2.13-.52,3.25l-.09.09c-3.69,2.82-7.37,5.75-9.29,8.15-1.3,1.44-1.29,3.46-.74,4.73.47,1.02,1.27,1.62,2.25,1.67.69,0,1.37-.26,2.08-.83l7.47-4.6.17.03c.36.07.85.32,1.21,1.15.4,1.01.39,2.41-.51,3.27l-.04.04-8.99,6.55c-1.09.71-2.13,1.06-3.11,1.06Zm9.28-24.15l-.31.14-12.1,8.86c-2.92,1.97-3.79,4.54-2.75,8.09,1.02,2.43,2.35,4.3,3.92,5.53.59.42,1.28.66,1.97.67.8,0,1.68-.31,2.61-.91l8.95-6.52c.59-.58.56-1.59.29-2.29-.07-.17-.22-.46-.44-.58l-7.11,4.37c-.81.67-1.71.98-2.61.99-1.33-.06-2.39-.84-3.01-2.18-.66-1.52-.66-3.93.87-5.64,1.96-2.44,5.66-5.4,9.38-8.24.56-.79.62-1.74.45-2.21l-.11-.08Zm154.58,23.07c-.11,0-.23,0-.34,0h-.37c-2.09-.04-3.61-.67-3.99-1.63-.45-1.02.66-2.16,1.07-2.6,3.53-2.91,4.87-6.47,3.72-9.8-1.25-3.54-5.05-5.87-9.68-5.93-1.03-.02-2.08.07-2.92.26h-.05s-.06,0-.06,0c-2.35-.09-4.38-.68-6.21-1.81-3.07-2.51-5.65-3.68-8.17-3.74-1.26,0-2.39.23-3.78.77l-.03.02c-1.03,1.13-.97,2.33.18,3.49.97,1.06,1.93,1.3,3.26,1.63,3.45.99,5.85,2.06,6.95,3.1l.07.08c.51.82.47,1.19.4,1.39l-.05.09c-.17.25-.53.51-2.04.76-.85.15-1.58.27-2.42.26-.83,0-1.66-.14-2.54-.43-4.3-1.82-8.23-4.31-12.77-8.09-1.51-1.35-1.58-2.5-.25-4.09,3.98-3.47,7.48-4.92,11.49-4.88,1.5.02,2.98.25,4.52.7,2.46.56,4.43.84,6.02.84,1.55.06,2.97-.12,4.22-.53l8.97-2.66c1.54-.61,2.8-.88,4.08-.84,1.49.02,2.77.52,3.8,1.49l.9.9-.38.3c-.09.07-.37.3-1.01.72-.35.32-.99,1.02-.73,1.65.23.77,1.31.99,2.33,1.11.13-.01.33-.03.53-.04.5-.04,1.02-.07,1.51-.05,1.42.02,2.24.32,3.02,1.11,2.57,2.41,4.64,5.04,5.97,7.58,1.78,2.92,1.67,5.24.97,7.82-3.7,7.55-8.84,11.04-16.21,11.04Zm-.34-.87c.11,0,.22,0,.33,0,7.01,0,11.91-3.34,15.42-10.48.63-2.36.72-4.41-.91-7.08v-.03c-1.3-2.46-3.31-5.02-5.83-7.38-.62-.63-1.23-.85-2.44-.86-.46-.03-.95.01-1.42.05-.21.01-.42.03-.62.04-.92-.1-2.7-.31-3.11-1.68-.18-.45-.31-1.43,1.02-2.62.26-.17.46-.31.61-.42l-.2-.2c-.86-.81-1.94-1.23-3.22-1.25-1.15-.04-2.32.21-3.78.79l-8.99,2.67c-1.34.43-2.85.63-4.49.57h0c-1.66,0-3.64-.27-6.22-.87-1.49-.43-2.89-.65-4.32-.67-3.78-.1-7.1,1.36-10.86,4.62-.98,1.18-.95,1.8.2,2.83,4.46,3.71,8.33,6.16,12.51,7.93.8.27,1.59.39,2.38.38.71,0,1.36-.11,2.1-.24.9-.15,1.27-.28,1.41-.35-.03-.09-.1-.27-.27-.53-.72-.66-2.44-1.69-6.54-2.86-1.41-.36-2.52-.64-3.66-1.87-1.5-1.5-1.56-3.23-.14-4.73l.12-.09.14-.07c1.51-.59,2.78-.85,4.14-.85,2.73.06,5.48,1.29,8.66,3.9,1.64,1.01,3.51,1.56,5.68,1.65.89-.19,1.98-.27,3.06-.27,5,.07,9.11,2.63,10.48,6.52,1.27,3.69-.17,7.6-3.95,10.72-.89.93-.96,1.4-.86,1.63.21.53,1.36,1.06,3.2,1.1h.37Zm-46.38-4.15c-.07,0-.13,0-.2,0-1.02,0-6.22-.27-7.92-5.55l-2.45-10.44c-.11-.69,0-1.23.29-1.62l.08-.1,1.11-.37c1.23,0,2.71,1.15,3.17,3.36.48,3.46,1.26,5.71,3.2,9.3.36.61.99,1,1.64,1,.53.04.96-.21,1.15-.6.22-.43.14-.94-.22-1.42-1.09-1.45-1.89-3.18-2.36-5.14-.21-.54-.13-1.15.23-1.54l.14-.1.56-.26h.1c.63.03,1.17.46,1.51.82l.07.1c1.3,2.49,2.83,4.74,4.82,7.07.71,1.13,1.34,2.54.17,3.82l-.02.02c-1.07,1.03-2.95,1.64-5.05,1.64Zm-9.65-16.99c-.1.2-.13.49-.07.84l2.44,10.37c1.5,4.67,6.17,4.91,7.09,4.91,1.91.02,3.7-.5,4.63-1.39.52-.57.68-1.26-.24-2.72-1.98-2.32-3.53-4.6-4.86-7.13-.27-.27-.55-.45-.79-.49l-.26.12c-.08.12-.11.35,0,.64.46,1.9,1.21,3.52,2.23,4.87.57.75.68,1.6.31,2.33-.35.69-1.1,1.12-1.94,1.07h0c-.92,0-1.84-.55-2.36-1.44-2.01-3.71-2.81-6.03-3.3-9.58-.39-1.87-1.53-2.6-2.25-2.64l-.62.22Zm-85.52,16.55h-.04c-1.62-.04-3.04-1.03-4.35-3.01-1.43-2.92-2.34-6.5-2.75-10.69-.12-.87,0-1.57.36-2.02.31-.28.77-.46,1.39-.69l1.37-.5c2.87-1.32,5.41-3.17,8.09-5.14l.5-.36.3,1.02c.46,1.9.21,3.1-.81,3.89l-4.08,3.33c-1.44,1.62-1.48,3.77-.9,5.07.42.97,1.19,1.55,2.11,1.6.85,0,1.71-.46,2.65-1.39.19-.29.56-.75,1.09-.75.34,0,.76.24,1.23.72,1.8,1.64,2.17,3.14,1.09,4.58-2.86,2.94-5.22,4.35-7.25,4.35Zm4.07-20.98c-2.53,1.85-4.97,3.58-7.76,4.87l-1.4.52c-.34.12-.91.33-1.06.47-.14.19-.21.7-.12,1.33.4,4.1,1.28,7.58,2.64,10.36,1.12,1.69,2.31,2.54,3.62,2.58.01,0,.02,0,.03,0,1.75,0,3.97-1.36,6.59-4.04.33-.45,1.09-1.47-1.03-3.39-.44-.44-.64-.48-.64-.48,0,0-.14.02-.42.44-1.14,1.15-2.24,1.71-3.32,1.71h-.02c-1.26-.06-2.33-.85-2.87-2.12-.72-1.59-.66-4.08,1.09-6.04l4.14-3.38c.5-.39.95-1.02.56-2.8Zm75.14,20.18c-.14,0-.28,0-.41,0-3.58-.06-6.21-1.05-8.04-3.05-3.93-4.31-3.36-12.78-2.86-20.25l.15-1.87c.5-2.15,1.29-2.47,1.72-2.47h.12l.93.59c.55.62.83,1.58.71,2.45-.56,5.5.03,10.6,1.86,16.04,1.15,1.87,2.72,3.1,4.06,3.11.01,0,.02,0,.03,0,1.29,0,2.12-1.08,2.2-2.89l-1.15-9.01c-.06-.79.03-1.39.63-1.85l.18-.14.22.07c.45.15.87.61,1.26,1.35,1.46,3.13,4.82,12.8,2.79,16.4-.44.78-1.17,1.25-2.1,1.38-.85.08-1.6.11-2.3.11Zm-9.52-26.74c-.16.11-.52.52-.79,1.7l-.13,1.79c-.49,7.3-1.04,15.57,2.64,19.6,1.66,1.81,4.08,2.71,7.41,2.77.78.02,1.63-.02,2.59-.1.65-.09,1.14-.41,1.45-.94,1.83-3.26-1.47-12.7-2.82-15.59-.22-.43-.42-.66-.56-.78-.1.16-.14.41-.1.87l1.16,9.06v.04c-.12,2.8-1.71,3.77-3.12,3.75-1.66-.02-3.46-1.37-4.82-3.62-1.9-5.64-2.51-10.86-1.93-16.5.08-.62-.1-1.29-.46-1.73l-.52-.32Zm78.14,26.3c-2.27-.04-2.42-2.83-2.48-3.88v-.27c.17-5.69-2.29-9.18-7.52-10.66-2.22-.53-3.97-.77-5.85-.8-.8-.02-1.55,0-2.28.05-1.04-.15-2.33-.47-2.71-1.62-.35-.76-.09-1.71.79-2.77,2.13-1.65,4.16-2.43,6.37-2.37.86.02,1.84.18,2.93.48,2.12.94,4,2.42,5.83,4.54.33.26.85.44,1.43.47.27,0,.66-.1,1.08-.27.73-.39,1.6-.56,2.48-.57.67,0,1.34.14,2.21.46l.26.13c2.75,2.35,4.21,4.86,4.34,7.48.09,2.67-1.23,5.38-3.95,8.07-1.17,1.05-2.07,1.52-2.93,1.52Zm-16.43-16.48c.2,0,.39,0,.6,0,1.94.04,3.75.29,6.05.83,5.68,1.62,8.35,5.38,8.16,11.51v.21c.09,1.5.34,3.03,1.63,3.06.61,0,1.35-.41,2.33-1.28,2.52-2.5,3.76-5,3.68-7.41-.12-2.35-1.46-4.64-3.99-6.82l-.06-.03c-.79-.29-1.41-.38-1.99-.39-.71,0-1.4.17-2,.49-.55.24-1.05.35-1.47.35-.79-.04-1.47-.29-2-.72-1.8-2.08-3.59-3.49-5.52-4.35-.96-.26-1.87-.41-2.65-.43-2.01-.06-3.85.66-5.76,2.12-.59.71-.81,1.35-.58,1.83.13.38.44.85,1.94,1.07.5-.04,1.07-.06,1.67-.06Zm-102.94,14.49h-.07s-.9-.2-.9-.2c-4.48-3.05-7.2-6.83-8.07-11.21-.32-2.64.08-4.6,1.23-6.01,1.3-1.55,3.63-2.41,7.14-2.66l.86-.09c1.77.04,2.81.95,3.06,1.79.16.75-.1,1.46-.65,1.88l-.17.08-4.28.89c-1.03.37-1.91,1.06-2.14,1.71-.4.98.04,3.66,1.18,5.53.91,1.13,1.71,1.95,2.35,2.62,1.46,1.51,2.19,2.27,1.68,4.21-.07.96-.47,1.47-1.2,1.47Zm-.57-.97l.6.1c.11,0,.27-.07.32-.74.39-1.55-.03-2-1.45-3.47-.65-.68-1.46-1.52-2.43-2.72-1.23-2.01-1.82-5.01-1.28-6.34.38-1.06,1.66-1.85,2.72-2.22l4.23-.89c.24-.22.34-.57.27-.92-.16-.52-.97-1.11-2.19-1.14l-.82.09c-3.27.23-5.41.99-6.55,2.35-.99,1.22-1.33,2.96-1.04,5.33.81,4.1,3.38,7.67,7.62,10.58Zm134.83.31c-1.5-.3-2.22-1.57-2.3-2.7-.04-1.12.59-2.07,1.62-2.44l.14-.03,9.3-.2s.05,0,.08,0c3.06,0,4.73-4.62,6.08-9.62,2.79-10.33-2.28-17.7-7.25-23.79-.43-.62-.69-1.01-.79-1.19l-.3-.54,1.35-.23c.35-.24.56-.55.65-.96.06-.47-.23-1.06-.89-1.78l-1.69-1.5-.17-1.07,1.69-.44.09.05c3.9,1.97,8.61,6.24,14,12.71,1.21,1.96,2.25,4.13.98,7.82l-4.51,19.03c-1.36,4.17-3.43,6.4-6.33,6.86h-11.74Zm-.45-4.3c-.64.25-1.02.84-.99,1.55.06.73.49,1.68,1.53,1.89h11.58c2.48-.41,4.32-2.45,5.57-6.24l4.52-19.06c1.16-3.35.26-5.25-.85-7.05-5.24-6.27-9.82-10.45-13.59-12.39l-.52.17v.03s1.5,1.33,1.5,1.33c.88.94,1.25,1.77,1.14,2.54-.14.7-.52,1.22-1.11,1.59l-.15.06-.2.04c.11.16.24.34.39.56,5.46,6.69,10.16,14.32,7.4,24.54-1.34,4.97-3.09,10.26-6.89,10.26-.03,0-.07,0-.1,0l-9.2.19Zm-179.58,4.06c-.85,0-1.54-.48-1.87-1.26-.28-.73-.07-1.6.5-2.12l6.23-3.58,1.26.83-.02,1.67-5.43,4.4-.66.07h0Zm4.83-5.95l-5.69,3.26c-.24.23-.35.72-.2,1.11.19.45.57.72,1.02.72l.36-.04,4.92-3.98v-.79s-.41-.28-.41-.28Zm73.06,3.81c-.06,0-.11,0-.17,0h-.1c-2.9-.75-5.56-1.94-7.93-3.55-2.38-1.59-3.44-3.49-3.35-5.96.94-9.29,4.11-17.21,9.69-24.21.51-.55.89-.76,1.3-.71l.47.08.1.21c.2.44.12,1.18-.23,1.99-6.37,11.65-8.03,18.89-5.38,23.5,1.65,1.44,2.9,2.08,3.88,2.08,1.14,0,1.87-.91,2.19-2.7.77-8.56,2.13-12.88,3.36-15.98l.04-.11.73-.55.76.08.11.21c.24.48.12,1.17.05,1.45-1.1,5.98-2.18,13.23-1.79,21.58,0,.8-.21,1.37-.65,1.74-.52.58-1.52.87-3.1.87Zm-.11-.87c1.32-.01,2.22-.2,2.6-.62.28-.25.39-.57.39-1.1-.39-8.41.69-15.73,1.81-21.77.05-.24.07-.44.07-.59l-.16.12c-1.2,3.03-2.51,7.28-3.26,15.66-.55,3.08-2.2,3.52-3.14,3.44-1.18,0-2.59-.74-4.41-2.34l-.09-.11c-2.87-4.9-1.23-12.42,5.31-24.37.2-.46.25-.81.25-1.02-.1.05-.26.18-.46.4-5.45,6.85-8.56,14.62-9.49,23.71-.08,2.15.83,3.75,2.97,5.18,2.28,1.55,4.83,2.7,7.61,3.41Zm15.85-3.91h-.07c-.95,0-1.99-.71-2.09-1.91-.32-3.09-.36-6.24-.11-9.63.06-.64.39-.99.93-.99s1.2.53,1.32,1.31c.16,3.75.41,5.89,1.08,9.18.18.72.14,1.26-.13,1.63l-.08.11-.86.3Zm-1.35-11.67s-.05.06-.06.2c-.25,3.33-.21,6.44.11,9.48h0c.05.68.62,1.1,1.16,1.13l.42-.15c.04-.12.06-.37-.06-.83-.69-3.37-.95-5.53-1.1-9.29-.06-.35-.37-.53-.46-.53,0,0,0,0,0,0Zm-46.24,10.33c-1.56-.03-2.29-.52-2.29-1.54.16-2.8,1.64-2.86,2.17-2.86h.03c.68,0,1.51.23,2.09.41.95.47,1.48,1.15,1.48,1.86,0,.76-.66,1.51-1.73,1.97l-.1.03c-.55.09-1.11.13-1.66.13Zm-.08-3.53c-.46,0-1.23.04-1.34,2.02,0,.23,0,.62,1.43.65.48,0,.97-.04,1.46-.11.68-.3,1.15-.77,1.15-1.15s-.36-.77-.94-1.06c-.69-.22-1.33-.37-1.77-.35Zm-58.73,3.14c-.89,0-1.77-.29-2.52-.83-3.63-3.77-4.41-10.66-2.54-13.69l.06-.08c6.71-6.62,15.54-12.49,27.8-18.48l.26-.13.8.77c.38.98-.16,2.43-1.21,3.25-1.99,1.37-4.81,3.02-8.44,5.08-6.23,3.58-13.3,7.64-14.6,10.2-1.07,1.64-1.18,3.97-.29,5.71.6,1.1,1.54,1.7,2.71,1.73.68.01,1.44-.19,2.27-.66l15.32-8.82.57.19.05.24c.22,1.03-.57,3.54-2.35,5.29-3.97,3.15-7.38,5.47-10.78,7.33l-1.17.62c-1.64.9-4.12,2.27-5.97,2.27Zm-4.35-14.03c-1.64,2.74-.85,9.16,2.4,12.54.55.39,1.24.62,1.95.62,1.63,0,3.99-1.3,5.55-2.16l1.17-.63c3.35-1.83,6.73-4.13,10.62-7.22,1.33-1.3,1.98-3.03,2.08-3.97l-14.67,8.47c-.98.55-1.9.81-2.73.77-1.5-.04-2.69-.8-3.45-2.19-1.05-2.04-.92-4.66.3-6.54,1.39-2.76,8.27-6.71,14.92-10.52,3.61-2.05,6.41-3.69,8.36-5.03.76-.59,1.09-1.57.94-2.15l-.16-.14c-12.02,5.89-20.7,11.66-27.28,18.15Zm77.86,12.62h-.06l-.75-.06-7.62-5.87c-.68-.61-1.08-1.57-1.08-2.57,0-.92.32-1.65.61-1.95,3.48-2.23,5.86-6.4,8.83-12.86v-.02c2.75-5.12,6.85-9.34,11.26-11.58.95-.48,1.43-.05,1.6.16.28.36.3.91.05,1.21-6.42,5.86-11.52,11.19-14.27,22.27-.14,1.26-.31,2.75,1.02,4.53l.61.52c.59.51,1.43,1.31,2.08,2.17.62.68.74,1.64.31,2.49-.45.96-1.46,1.57-2.58,1.57Zm-.46-.88l.43.02c.77.01,1.52-.4,1.84-1.09.28-.54.2-1.12-.2-1.56-.5-.66-1.19-1.38-1.98-2.07l-.68-.59c-1.59-2.12-1.39-3.86-1.24-5.26,2.81-11.33,7.97-16.76,14.43-22.66,0-.04-.02-.12-.06-.15-.06-.05-.25-.04-.51.1-4.25,2.16-8.21,6.24-10.87,11.21-3.04,6.6-5.5,10.88-9.08,13.16-.02.03-.28.54-.28,1.28,0,.9.4,1.58.76,1.91l7.41,5.71Zm121.46-.45h-.11c-2.32-.06-4.8-1.09-7.38-3.07-.68-.45-.87-1.11-.76-1.53l.06-.23.86-.25.13.04c2.16.7,4.12,1.07,5.81,1.08,2.88.06,5.33-.86,6.98-2.58l.08-.08.97-.31.93.72c.27.49.39,1.39-.15,2.32-2.31,2.6-4.79,3.89-7.42,3.89Zm-7.36-4.17c.05.11.16.25.38.4,2.45,1.88,4.76,2.85,6.89,2.91,2.39.06,4.7-1.16,6.82-3.53.3-.53.23-1.05.12-1.32l-.36-.25-.35.11c-1.81,1.84-4.48,2.79-7.54,2.77-1.74-.02-3.74-.38-5.94-1.09h-.02Zm-63.09,3.8s-.06,0-.09,0c-1.66-.04-3.05-1.25-3.44-3.01-.23-2.74,1.08-5.45,3.57-7.51l.34-.28.68.85-.16.26c-.46.73-1.46,3.77-1.2,4.8.15.48.39.5.84.52h.15c.38,0,1.68-1.66,2.45-3.56l.05-.12.91-.6.96.6c.36.41.51,1.01.39,1.62-.69,2.8-1.85,4.75-3.45,5.82-.61.39-1.33.61-2,.61Zm-.37-8.97c-1.66,1.73-2.47,3.76-2.31,5.82.3,1.31,1.35,2.25,2.61,2.28.52.02,1.12-.16,1.59-.47,1.41-.95,2.45-2.73,3.08-5.29.06-.3,0-.61-.15-.81l-.33-.2-.23.15c-.45,1.04-1.99,4.11-3.27,3.98h-.13c-.48-.04-1.29-.08-1.62-1.16-.25-.98.26-2.96.76-4.31Zm-36.17,7.58s-.05,0-.08,0c-.62-.05-1.03-.61-1.21-1.67h0c-.1-.78-.08-1.51.06-2.26,1.24-5.68,5.36-16.38,6.73-16.85l1.38-1.93-.78,3.07c-2.1,5.76-3.52,11.33-4.74,18.68-.09.3-.68.96-1.35.96Zm-.43-1.81c.12.7.31.92.41.94.15.02.42-.19.54-.32,1.07-6.43,2.29-11.51,3.99-16.53-1.52,3.21-3.84,9.17-4.88,13.96-.12.64-.14,1.28-.05,1.95Zm27.66-1.42c-.06,0-.11,0-.17,0-1.88-.02-4.04-1.38-6.42-4.03-1.43-1.95-.13-4.3.3-4.98,2.84-3.89,8.46-6.66,13.04-8.64l.67-.16.98.29-.65.65c-1.41,1.27-2.9,2.32-4.31,3.27l-.23.2c-1.95,1.34-3.79,2.61-5.12,4.3-.53.76-.69,1.6-.42,2.33.19.43,1.29,1.71,2.6,1.93.89-.04,2.49-2,4.1-5.02l.06-.12,1.06-.57.77.1.1.21c.18.39.17,1.05-.05,1.75-.62,2.56-1.58,5.49-3.88,7.62-.75.58-1.57.87-2.43.87Zm5.62-16.22c-4.11,1.86-8.78,4.38-11.2,7.69-.34.54-1.42,2.48-.34,3.95,2.15,2.4,4.16,3.7,5.78,3.71.73.02,1.41-.2,2.02-.66,2.11-1.95,3.01-4.72,3.61-7.18.12-.4.15-.72.14-.93l-.55.3c-1.33,2.47-3.23,5.36-4.83,5.36h-.06c-1.71-.26-3.04-1.85-3.31-2.47-.38-1.03-.19-2.15.52-3.17,1.42-1.8,3.32-3.11,5.32-4.49l.17-.15c.92-.62,1.84-1.26,2.74-1.96Zm-93.07,14.92c-1.42.01-2.58-.5-3.18-1.45-.85-1.26-.81-3.19.14-5.57,2.79-5.51,3.13-9.97,3.09-13.61,0-1.04.24-1.45.63-1.79l.16-.14.21.04c.57.11,1.42.62,1.66.77.94.42,1.86.63,2.85.65,1.74.02,3.36-.66,5.41-1.63l.26-.12.99.93c.2.4.21,1.06-.25,1.55l-.05.05-3.39,2.61c-4.76,1.47-6.08,4.58-5.77,6.81.24,1.77,1.49,3.06,2.97,3.07,1.02.06,2.09-.49,3.5-1.65l.59-.49.11.76c.11.79-.02,1.63-.39,2.5-2.74,4.67-6.74,6.72-9.55,6.72Zm1.1-21.61c-.1.15-.18.4-.18.98.04,3.74-.31,8.33-3.17,13.97-.82,2.06-.9,3.71-.21,4.74.45.71,1.33,1.08,2.45,1.06,2.57,0,6.25-1.92,8.79-6.25.17-.39.27-.79.31-1.18-1.27.92-2.32,1.32-3.37,1.31-1.91-.02-3.52-1.63-3.81-3.82-.36-2.54,1.07-6.09,6.29-7.73l3.15-2.46c.16-.2.14-.4.11-.5l-.39-.34c-2.03.96-3.65,1.63-5.54,1.6-1.11-.02-2.13-.26-3.24-.75-.4-.24-.87-.5-1.21-.62Zm-23.54,19.76c-.85,0-2.04-.31-2.31-.83-.1-.19-.08-.41.05-.58,2.08-3.15,17.6-11,18.26-11.33l.74-.37-.11.82c-.08.61-.33,1.44-.78,1.97-3.79,3.41-8.58,6.7-14.68,10.11l-.14.05-1.04.18Zm-1.38-1.15c.26.12.76.28,1.31.29l.88-.16c6.02-3.36,10.73-6.61,14.42-9.92.13-.15.24-.38.32-.62-5.53,2.83-14.97,8.02-16.93,10.4Zm-.16.21s0,.01-.01.02c0,0,0-.01.01-.02Zm196.05-.3c-4.8-.09-10.39-2.74-17.08-8.09l-.09-.11-1.36-2.16,1.96,1.01c5.96,3.21,10.69,4.87,14.47,5.07,1.07-.22,1.46-.81,1.59-1.14.39-.9-.02-2.22-1.25-4.03-2.37-2.12-4.19-4.07-5.57-5.97-.62-.56-.74-1.23-.36-2.24.21-.73.27-1.2.27-1.94.02-.51-.01-1.02-.05-1.5-.1-1.12-.4-1.86-1.18-2.89-.68-.81-1.62-1.59-2.7-2.25-.67-.5-1.35-1.36-1-2.79.51-1.44,1.87-2.42,3.33-2.42l.15.03c3.61,1.36,4.94,3.28,4.47,6.41-.62,3.24-.28,4.8,1.64,7.61,2.48,3.12,5.56,7.27,7.13,11.47.69,1.66.79,2.99.29,3.96-.4.82-1.22,1.42-2.42,1.77-.78.14-1.49.2-2.24.2Zm-14.94-7.52c5.82,4.39,10.73,6.57,14.94,6.65.69,0,1.36-.06,2.04-.17.91-.27,1.55-.71,1.84-1.32.39-.74.28-1.83-.31-3.25v-.02c-1.54-4.09-4.56-8.17-7.02-11.26-2.08-3.04-2.46-4.81-1.8-8.27.41-2.68-.67-4.21-3.84-5.43-1.07.03-2.06.76-2.42,1.8-.18.76.02,1.36.65,1.83,1.13.68,2.14,1.53,2.89,2.42.89,1.18,1.25,2.08,1.37,3.36.04.51.07,1.04.05,1.59,0,.9-.11,1.47-.32,2.19-.29.79-.18,1.07.18,1.4,1.41,1.93,3.2,3.85,5.54,5.94l.07.08c1.45,2.12,1.88,3.68,1.36,4.89-.21.49-.78,1.38-2.28,1.66h-.05s-.05,0-.05,0c-3.47-.17-7.69-1.52-12.84-4.11Zm-128.23,6.97c-1.01.01-1.74-.19-2.27-.67-1.98-1.46-2.49-4.24-1.54-8.48.82-5.51,3.94-8.4,9.28-8.54h.01c.92,0,1.54.71,1.54,1.38s-.71,1.55-1.2,1.65c-4.41.16-6.08,2.5-6.05,8.37.52,2.25,1.31,2.26,2.22,2.26h.19c.79.04,1.61-.2,2.48-.66l.11-.04c1.03-.23,1.71.32,1.94.69.12.15.29.56-.02,1.32-.13.91-3.72,2.71-6.7,2.71Zm5.49-16.83c-4.92.14-7.68,2.7-8.45,7.84-.87,3.9-.47,6.39,1.24,7.65.39.36.92.47,1.73.47,2.84,0,5.67-1.66,5.87-2.11.17-.44.12-.58.12-.58-.02-.03-.31-.46-.98-.33-.99.51-1.92.74-2.85.73h-.18c-1.26,0-2.44-.25-3.07-3.03-.05-6.36,1.96-9.13,6.71-9.32.17-.12.52-.56.52-.8,0-.21-.25-.51-.67-.51Zm72.92,16.32c-.09,0-.19,0-.28,0h-.24c-7.32-1.68-10.38-4.65-9.45-9.1.32-1.19,1.79-2.47,3.99-2.64,1.37-.15,3.34-.16,6.37,1.08,1.71.68,3.88,1.75,5.97,2.78,2.25,1.11,4.58,2.26,6.27,2.89,1.36.51,2.94,1.3,4.24,2.11,0,0,1.92,1.2,1.58,2.19-.25.71-1.31.66-2.21.53l.06-.43-.09.42c-1.32-.18-2.68-.37-4.04-.97l-.21-.11c-8.5-4.3-14.31-6.78-16.35-6.98-.21-.02-.46-.07-.7-.11-.26-.05-.74-.15-.85-.08-.22.14-.69.87-.66,1.67.03.69.44,1.25,1.22,1.64l7.25,3.24c.42.33.67.67.67.93l-.02.12c-.12.43-1.02.84-2.52.84Zm-4.76-10.95c-.41,0-.79.03-1.14.06-1.8.15-3,1.13-3.23,1.98-.81,3.92,1.95,6.49,8.71,8.05h.15c.91.01,1.47-.11,1.76-.22-.03-.03-.07-.06-.11-.1l-7.12-3.17c-1.38-.69-1.69-1.69-1.72-2.41-.04-1.08.57-2.12,1.03-2.39.35-.29.94-.17,1.51-.05.21.04.42.08.6.1,2.76.26,10.59,3.99,16.67,7.07l.19.1c1.23.55,2.53.73,3.79.9h.04c1.08.16,1.29,0,1.3,0-.05-.15-.73-.82-1.24-1.12-1.26-.79-2.78-1.55-4.09-2.04-1.73-.64-4.08-1.8-6.35-2.92-2.08-1.03-4.23-2.09-5.91-2.76-2.11-.86-3.63-1.09-4.83-1.09Zm28.73,8.38c-.09,0-.19,0-.28-.02-.43.05-.97-.06-1.55-.32-4.85-2.39-6.25-6.08-4.07-10.66.81-1.56,1.96-2,2.74-1.89.54-.06,1.01.14,1.23.51.19.3.17.68-.04,1.01-1.34,2.32-1.78,4.01-1.38,5.28.39,1.23,1.6,2.23,4.04,3.37.97.28,1.22.95,1.11,1.48-.13.63-.84,1.25-1.79,1.25Zm-.27-.88c.72.08,1.16-.27,1.21-.54.06-.3-.42-.46-.57-.5-1.96-.9-3.97-2.05-4.56-3.91-.49-1.54-.03-3.39,1.47-6l.04-.09s-.16-.14-.45-.1h-.07s-.07,0-.07,0c-.39-.08-1.22.15-1.88,1.42-1.97,4.13-.74,7.33,3.66,9.49.43.19.83.28,1.2.24Zm5.85-.39c-.76,0-1.44-.39-2.14-1.2-.84-.84-1.62-2.75-2.29-5.66-.57-2.57-1.81-5-3.67-7.22l-.92-1.07c-1.26-1.47-1.95-2.28-2.57-4.62-.91-3.94-.21-6.49,2.29-8.29l.69-.5v1.99l-.05.41c.83,6.6,4.98,10.3,8.03,12.51l2.13,1.49c2.17,1.57,3.6,2.62,4.71,3.85,1.46,1.33,2.21,2.65,2.13,3.8-.04.73-.46,1.4-1.17,1.88l-.04.02c-1.73.92-3.71,1.87-6.42,2.5l-.68.1s0,0-.01,0Zm-9.49-26.8c-1.63,1.54-2.01,3.64-1.27,6.82.57,2.13,1.18,2.84,2.39,4.26l.93,1.07c1.96,2.33,3.26,4.89,3.86,7.59.79,3.43,1.57,4.75,2.08,5.27.55.63,1.02.93,1.46.93l.58-.08c2.57-.6,4.48-1.51,6.15-2.41.47-.33.75-.75.77-1.21.06-.87-.6-1.98-1.88-3.13-1.08-1.2-2.48-2.22-4.61-3.76l-2.13-1.49c-3.2-2.32-7.54-6.2-8.39-13.17v-.05s.05-.46.05-.46v-.17Zm-52.68,25.85c-.85-.02-1.65-.41-2.53-1.22-1.81-1.61-2.81-4.55-1.21-7.04,3.89-5.07,10.98-9.06,21.07-11.89v-.17l1.02.1.23.23.05.24.19.67-.07.14c-.17.36-.59.65-1.31.89-4.15,1.44-10.24,4.33-14.85,8.08l-.26.22c-1.12.91-1.79,1.55-1.52,2.6.04.1.59,1.19,1.35,1.78l.7.19c1.25-.01,3.3-1.07,4.96-1.92l1.43-.74c5.32-2.7,9.53-4.76,11.14-4.76.02,0,.04,0,.06,0l.17.04.68.31-.02.66c-.75,2.37-18.46,10.74-18.64,10.82-1.11.53-1.91.76-2.65.76Zm17.85-19.4c-10.06,2.79-17.09,6.7-20.88,11.63-1.32,2.05-.46,4.53,1.09,5.91.73.68,1.33.98,1.95,1,.59,0,1.27-.2,2.27-.67,5.75-2.71,17.06-8.53,18.12-10.17l-.04-.02c-1.57.05-6.83,2.71-10.69,4.67l-1.43.74c-1.84.95-3.92,2.02-5.38,2.02h-.04l-.11-.02-.98-.3c-.97-.71-1.63-2.03-1.72-2.26-.43-1.72.77-2.7,1.74-3.48l.31-.26c4.71-3.83,10.9-6.77,15.13-8.24.42-.14.62-.27.72-.35l-.05-.19Zm-53.18,18.92l-.2-1.87c-.33-13.37,3.99-22.35,12.82-26.73,4.38-3,10.89-5.63,19.32-7.81,3.47-.43,5.53-3.03,5.32-6.64-.2-3.85-3.02-7.86-7.37-7.93l-.87.07c-1.63-.08-2.56-.78-2.62-1.4-.08-.45.41-.92,1.23-1.17l.13-.02h.83c.36,0,.73-.01,1.11,0,5.55.11,10.76,1.41,11.32,10.06.81,6.42-1.43,9.88-7.07,10.83-15.62,3.55-26.62,8.58-29.53,21.58-.17,5.33-1.3,8.84-3.34,10.35l-1.06.68Zm29.85-51.84c4.9.07,8.04,4.5,8.26,8.74.24,4.03-2.17,7.06-6.02,7.53-8.27,2.14-14.7,4.74-19.04,7.71-8.56,4.25-12.71,12.96-12.39,25.93l.05.43c1.68-1.38,2.67-4.71,2.84-9.64,3.02-13.53,14.26-18.7,30.2-22.32h.02c5.16-.88,7.12-3.93,6.37-9.91-.48-7.54-4.54-9.16-10.48-9.28-.37-.01-.72,0-1.08,0h-.78c-.27.09-.44.2-.53.28.15.19.69.54,1.71.59l.85-.07Zm-37.01,50.59c-.62,0-1.05-.4-1.29-.73l-.07-.1v-.12c-.19-2.09.36-3.01.84-3.4.37-.22.79-.38,2.1-.38l.16.03c1.07.44,1.61.83,1.76,1.28.23.5.03,1.2-.62,2.03l-.08.08c-1.15.86-2.12,1.32-2.79,1.32Zm-.52-1.15c.17.19.34.29.52.29.22,0,.88-.11,2.23-1.11.46-.59.54-.97.47-1.13-.02-.05-.12-.31-1.21-.77-1.1.01-1.36.14-1.51.23-.16.13-.62.72-.49,2.49Zm89.1.64h-.1c-4.21-1.02-9.85-4.09-17.23-9.4-3.72-3.01-4.79-6.11-3.22-9.23.56-.73,1-.81,1.33-.81.47.03,1.02.26,1.48.63,1.75,1.67,6.9,4.66,11.04,7.06,2.79,1.62,5.2,3.01,6.08,3.72.75.58,1.13,1.1,1.13,1.54,0,.13-.09.68-.51.97-.21.14-.57.27-1.1.06-1.21-.3-4.78-2.41-7.93-4.26-1.7-1-3.17-1.87-3.84-2.19-.74-.33-2.5-1.06-2.71-.63-.25.58,1.41,1.81,2.04,2.27h0c3.25,2.44,6,4.06,9.17,5.41,2.42.99,4.39,2.29,5.02,3.31.32.6.37.92.37,1.06v.37l-1.04.13Zm.05-.87h0c-.03-.08-.08-.17-.13-.27-.41-.67-2.03-1.9-4.6-2.94-3.25-1.38-6.04-3.03-9.35-5.51-1.44-1.06-2.81-2.19-2.32-3.32.44-.92,1.48-.86,3.86.21.71.34,2.2,1.22,3.91,2.23,2.79,1.64,6.61,3.9,7.76,4.19.19.07.29.08.34.05.08-.04.13-.21.14-.29h0s-.1-.28-.8-.83c-.84-.67-3.22-2.05-5.98-3.65-4.4-2.55-9.38-5.44-11.18-7.16-.33-.26-.72-.4-.94-.42-.08,0-.26,0-.58.41-1.34,2.68-.36,5.34,3.02,8.08,7.24,5.2,12.76,8.22,16.85,9.22Zm-153.51.42c-1.23-.04-2.29-.72-3.18-2.01l-.05-.09c-1.92-5.23.38-10.02,7.03-14.65,9.95-5.35,21.32-11.1,30.55-13.37l1.43-.48-.56.98c-.46.82-1.68,2.16-3.69,3.47-11,4.44-21.47,8.92-29.37,15.28-.87.88-1.18,2-.78,2.98.34.87,1.19,1.39,2.26,1.41.78.04,1.64-.22,2.62-.72,8.78-6.77,17.48-10.47,24.06-12.94l.32-.12.58.96c.08.83-.35,2.26-1.89,2.81-7.97,3.38-16.34,8.32-25.56,15.09-1.42.95-2.65,1.4-3.77,1.4Zm-2.43-2.45c.72,1.04,1.52,1.56,2.45,1.59.93,0,2-.41,3.26-1.25,9.26-6.8,17.69-11.77,25.75-15.19,1.03-.37,1.36-1.25,1.35-1.81l-.07-.1c-6.49,2.44-14.97,6.1-23.58,12.73-1.17.6-2.19.84-3.09.86-1.43-.02-2.57-.75-3.05-1.95-.53-1.31-.16-2.78,1.01-3.94,8.03-6.47,18.56-10.98,29.55-15.4,1.14-.74,2.01-1.51,2.59-2.16-8.98,2.38-19.91,7.92-29.47,13.05-6.22,4.33-8.42,8.78-6.69,13.57Zm196.77-.78l-1.2-.83c-1.4-1.09-2.25-2.49-2.71-4.43-.24-1.69.27-3.41,1.5-5.13.72-.97,1.43-1.37,2.11-1.22.54.16,1.04.69,1.32,1.4.35.84.27,1.81-.18,2.41-1.6,1.6-1.94,3.65-1.14,6.68l.3,1.14Zm-.58-10.79c-.28,0-.7.33-1.12.9-1.11,1.56-1.55,3.02-1.35,4.46.31,1.33.84,2.38,1.64,3.23-.46-2.66.07-4.64,1.61-6.18.19-.26.29-.89.03-1.51h0c-.19-.5-.52-.83-.73-.89-.02,0-.04,0-.07,0Zm-80.09,8.66c-.15,0-.29-.03-.41-.09l-.16-.13-.46-.67c-.22-.82.12-1.9,1.08-2.28.64-.26,1.53-.67,2.56-1.13,2.8-1.26,6.63-2.99,8.72-3.44.5-.14.91.06,1.07.53.13.66-.18,1.27-.76,1.55-2.44.83-6.67,3.14-9.48,4.67l-1.12.61c-.36.25-.72.38-1.03.38Zm-.22-1.18l.24.32c.09,0,.28-.05.54-.23l.04-.03,1.14-.62c2.83-1.54,7.1-3.88,9.57-4.71.18-.09.26-.29.26-.45-.01,0-.02,0-.04,0-2.02.44-5.81,2.15-8.57,3.39-1.03.47-1.94.87-2.58,1.14-.48.19-.67.74-.59,1.18Zm-13.4-2.51h-.07c-.56-.03-1.03-.5-1.47-.98l-.06-.06c-2.52-2.61-4-5.55-4.55-9l-.03-.18.45-.6.69.03c1.09.4,2.04.58,3.29.62,1.25,0,2.54-.23,3.8-.69,6.79-4.14,13.12-5.25,18.5-5.96h.06s1,.13,1,.13l.4.5.07.29.12.89-.62.48c-7.52,1.95-13.3,3.63-19.23,7.63l-.3.19c-1.06.64-1.38.99-1.47,1.17l.1.24c.33.29.58.42,1.11.43l.85-.34.94-.44c5.93-2.88,16.92-7.35,18.55-7.39h.15c.84,0,1.22.46,1.3.89.18.74-.56,1.62-.92,1.79l-.09.03c-3.39.72-6.47,2.38-10.03,4.3l-.45.25c-.62.34-1.29.7-2,1.04-3.24,1.76-6.16,3.21-8.9,4.4l-1.19.36Zm-5.26-9.96c.54,3.17,1.94,5.9,4.27,8.31l.07.07c.17.19.58.63.84.7l.98-.29c2.67-1.16,5.57-2.59,8.8-4.36.71-.35,1.37-.7,1.98-1.04l.45-.25c3.59-1.94,6.7-3.61,10.18-4.37.16-.13.48-.58.42-.81-.03-.14-.2-.2-.45-.2h-.14c-1.25.03-11.63,4.12-18.19,7.31l-.97.45-1.11.42c-.88,0-1.35-.26-1.84-.72l-.11-.15-.24-.57v-.11c.1-.7.97-1.32,1.9-1.88l.29-.18c6-4.05,11.83-5.76,19.38-7.72h.01s-.13-.54-.13-.54l-.53-.07c-5.29.7-11.49,1.8-18.19,5.87-1.44.53-2.82.78-4.19.78-1.31-.04-2.36-.23-3.5-.64Zm59.81,9.31l-.56-.08c-12.24-5.72-14.8-13.1-15.23-16.99-.49-3.97.79-7.91,3.18-9.79l.86-.48v.87c-1.27,6.39-.31,11.15,3.12,15.46,2.46,2,5.56,4.38,8.89,6.79l1.39,1c.66.55.85,1.14.62,1.76-.26.79-1.3,1.47-2.26,1.47Zm-.26-.89l.28.03c.58,0,1.27-.44,1.43-.9.07-.19.11-.41-.33-.78l-1.36-.98c-3.35-2.42-6.46-4.81-9-6.89-3.45-4.32-4.55-8.99-3.57-15.08-1.64,1.84-2.51,5.11-2.12,8.33.42,3.71,2.88,10.74,14.67,16.28Zm-88.29-2.22c-1.25-.04-2.31-.56-2.92-1.43-.75-1-.88-2.44-.38-4.04,2.76-6.34,6.89-7.56,12.26-7.51l.79.02c.83.23,1.26.74,1.26,1.11,0,.33-.63,1.48-2.64,1.5-2.83-.06-6.03-.11-8.25,4.69-.56,1.22-.3,1.89-.06,2.29.39.61.67.84,2.09.84h.39l.11.39.11,1.16-.21.14c-.78.53-1.69.83-2.56.83Zm8.54-12.12c-4.83,0-8.55,1.25-11.04,6.95-.41,1.3-.32,2.43.27,3.23.46.65,1.27,1.04,2.24,1.08.61,0,1.27-.19,1.85-.54l-.03-.26c-1.36-.04-1.94-.36-2.51-1.25-.54-.89-.54-1.91,0-3.1,2.45-5.32,6.09-5.26,9.03-5.2,1.13-.01,1.59-.45,1.74-.65-.08-.04-.24-.16-.53-.25h-.62c-.14,0-.27,0-.41,0Zm-35.6,11.35h-.06c-1.74-.04-3-.66-3.66-1.81-.98-1.75-.35-4.73,1.77-8.39l.32-.69v-.2c0-.51-.01-1.41,3.41-4.21l.72-.59.17.66c.15.58.86,1.02,2.02,1.24.69.14,1.57.22,2.77.26.91,0,2.06-.05,3.62-.14h.12s.91.48.91.48l-.04.29c-.09.7-.83,1.81-2.22,2.08-6.5.11-8.79,2.07-8.79,3.88.08,1.47,1.68,2.57,3.82,2.58.92,0,1.69-.1,2.36-.32l.09-.03.92.12-.04.41c-.03.29-.13.59-.39,1.06l-.1.12c-2.25,1.97-5.2,3.2-7.73,3.2Zm2.09-14.43c-1.9,1.58-2.86,2.69-2.85,3.31l-.02.41-.05.18-.34.74c-1.95,3.36-2.59,6.11-1.78,7.56.62,1.09,1.93,1.34,2.92,1.37,2.29.05,5.04-1.1,7.14-2.93.03-.06.06-.12.08-.17-.68.18-1.44.27-2.31.27h0c-2.61-.02-4.57-1.46-4.67-3.43,0-1.1.69-4.61,9.56-4.75.72-.15,1.18-.67,1.37-1.06l-.12-.06c-1.51.09-2.64.14-3.56.14-1.28-.04-2.18-.13-2.92-.28-1.38-.26-2.08-.77-2.43-1.29Zm28.51,11.03c-.24,0-.45-.08-.63-.24-.41-.36-.47-1-.47-1.19-.08-1.3.83-2.72,3.08-2.95h.1s.09.02.09.02c.67.24.86.54.91.7.16.3-.03,1.18-1.13,2.55-.49.52-1.13,1.08-1.89,1.11-.02,0-.04,0-.06,0Zm-.04-.89l.07.02c.45-.01.94-.47,1.27-.81.78-.98.92-1.51.94-1.68-.04-.03-.13-.09-.28-.15-1.71.2-2.26,1.21-2.21,2.03.01.26.09.51.19.59h0Zm2.32-2.44h0Zm82.18,3c-1.12,0-1.55-1.58-1.78-2.78-.06-.33-.1-.7-.14-1.08-.19-1.71-.41-2.95-1.47-3.17-.19-.04-.3.09-.51.97-.14.57-.26,1.1-.69,1.32-.23.12-.53.11-.83-.03-.47-.22-.86-.71-1-1.29v-.1c-.01-3.1,1.04-5.54,3.2-7.48l.61-.38h.12c.24,0,.59.2.94,1.14,1.35,2.82,1.92,7.33,2.31,11.37-.03.66-.06,1.34-.62,1.49h-.09s-.04.02-.06.02Zm-3.5-7.9c.09,0,.19.01.3.04,1.74.36,1.96,2.33,2.14,3.91.04.36.08.71.13,1.02.27,1.43.59,1.87.79,2.01.02-.1.04-.28.05-.56-.35-3.67-.93-8.3-2.24-11.05-.09-.24-.17-.39-.22-.49l-.15.09c-1.89,1.7-2.85,3.92-2.86,6.73.14.5.5.71.62.69.04-.06.14-.48.2-.73.15-.63.39-1.65,1.24-1.65Zm-22.17,6.58h-.11c-.33,0-.71-.26-1.06-.75-1.96-2.58-2.84-7.38-2.11-11.41.52-2.74,1.63-4.69,3.29-5.8l1.12-.53h.11c.48.04,1,.47,1.37,1.14l.04.09,1.14,4.14c.59,1.86,1.29,3.15,2.09,3.82,1.29,1.31,1.85,2.35,1.85,3.4,0,.19.04.75-.38.96-.48.25-.96-.16-2.01-1.04l-.3-.25c-.71-.61-1.38-1.53-2.04-2.42-.75-1.02-1.68-2.28-2.21-2.28,0,0-.02,0-.02,0-.19.01-.37.28-.48.49-1.01,1.91.47,5.75,1.39,6.94.4.59.53,1.14.41,1.64-.19.77-.9,1.23-1.51,1.56l-.56.3Zm1.26-17.59l-.83.38c-1.4.94-2.39,2.7-2.86,5.2-.69,3.82.13,8.33,1.95,10.74.15.2.27.31.34.36l.29-.16c.65-.35.99-.67,1.08-1,.06-.26-.03-.57-.27-.93-.99-1.27-2.7-5.5-1.45-7.85.31-.59.71-.92,1.18-.95,1.01-.09,1.93,1.18,3,2.63.63.85,1.28,1.73,1.91,2.28l.29.25c.35.29.72.61.98.78,0,0,0,0,0-.02,0-.83-.49-1.68-1.57-2.79-.9-.74-1.69-2.17-2.33-4.21l-1.13-4.1c-.22-.38-.45-.56-.57-.62Zm-119.43,11.21c-.66,0-1.18-.19-1.5-.59-1.14-1.17-1.63-2.65-1.36-4.13.42-1.89,1.97-3.51,4.26-4.44l.16-.03h.44l.05.44c-.02,1.34.44,2.06.71,2.37.45.46,1.13.75,1.85.78,1.36,0,2.88-.95,3.03-2.54.59-2.51,1.86-4.32,3.89-5.59l.11-.07h.82l-.27.62c-.56,1.06-1.14,2.17-.76,4.71.31,1.12.16,2.02-.5,2.76l-.06.05c-3.37,2.62-8.23,5.66-10.87,5.66Zm1.21-8.13c-1.72.84-2.9,2.15-3.22,3.58-.22,1.2.18,2.38,1.16,3.39.17.21.47.29.85.3,2.27,0,6.79-2.72,10.31-5.45.43-.51.52-1.1.27-1.98-.26-1.72-.11-2.88.16-3.75-1.12,1.04-1.85,2.36-2.25,4.04-.19,2.02-2.14,3.26-3.9,3.26-.98-.04-1.85-.42-2.47-1.06-.38-.43-.81-1.16-.92-2.33Zm68.07,5.32h-.1c-1.45-.02-2.4-.5-2.58-.83l-.15-.26.54-.62c3.37-4.33,13.48-7.08,17.71-4.81.37.19.39.46.37.6-.08.5-.63.58-2.68.87-3.19.45-9.11,1.3-10.28,4.06l-.1.14c-.56.54-1.57.85-2.72.85Zm-1.66-1.13c.3.11.83.26,1.57.27.9.02,1.73-.2,2.15-.56,1.43-3.14,7.36-3.98,10.92-4.49.42-.06.86-.12,1.23-.18-4.3-1.39-12.92,1.18-15.84,4.93l-.03.03Zm-32.47-1.21c-1.36-.08-2.17-.35-2.5-.82-.23-.43-.26-1-.1-1.56l.06-.12c10.07-14.88,21.31-16.71,31-16.55,1.47.02,3.13.1,4.79.25.55.08,1.43.28,1.43.86-.05,1.12-2.37,2.64-4.67,2.7-1.76-.19-3.47-.29-5.13-.3-8.39-.12-14.56,2.25-18.79,7.3-1.18,1.49-1.04,2.23-.82,2.65.36.75,1.38,1.14,3.03,1.16l.19.02,1.44.44-.58.51c-2.09,1.83-5.14,2.96-9.35,3.48Zm-1.76-1.27s.3.32,1.73.41c3.51-.43,6.2-1.33,8.13-2.73-1.89-.05-3.11-.6-3.6-1.63-.67-1.31.21-2.67.92-3.58,4.42-5.28,10.8-7.76,19.47-7.62,1.69.02,3.43.12,5.16.31,1.85-.05,3.38-1.16,3.71-1.69-.12-.05-.31-.1-.6-.14-1.62-.14-3.26-.23-4.71-.25-9.45-.16-20.4,1.63-30.23,16.11-.08.31-.07.63.02.81t0,0Zm-16.66-.48c-.8-.02-1.32-.2-1.6-.53-.3-.32-.44-.83-.37-1.39.57-4.83,2.96-7.74,7.29-8.91l.85-.23-.34.81c-.6,1.44-.67,2.54-.21,3.26.25.4.73.64,1.3.66.72,0,1.65-.42,2.64-1.19,3.61-3.85,7.02-6.11,10.38-6.84.49-.08.8-.12,1.32-.1l.99.04-.9.9c-5.55,6.86-11.74,11.09-19.42,13.3-.74.15-1.4.23-1.94.23Zm4.74-9.74c-3.44,1.2-5.35,3.8-5.85,7.93-.04.3.02.56.15.71.03.04.2.22.96.24.47,0,1.07-.07,1.72-.21,7.26-2.08,13.17-6.05,18.52-12.46-.05,0-.1.01-.15.02-3.15.69-6.42,2.86-9.96,6.63-1.2.95-2.3,1.42-3.22,1.42h-.01c-.87-.02-1.6-.41-2.01-1.06-.52-.81-.57-1.89-.16-3.22Zm28.01,3.79c-.08,0-.16,0-.24,0-.92-.02-1.76-.17-2.42-.44-.65-.39-.93-.71-.93-1.02.02-.26.23-.73,1.34-1.37.93-.4,2.09-.58,3.69-.58h.01c1.22.04,2.51.19,3.16.27.71.18.9.48.93.72.08.42-.31,1.07-1.37,1.62-1.64.54-2.99.8-4.18.8Zm-2.65-1.48c.07.06.19.15.38.27.5.2,1.23.33,2.05.35,1.15.05,2.48-.2,4.07-.73.47-.25.7-.5.8-.65-.04-.02-.1-.04-.18-.06-.59-.07-1.84-.22-3.02-.25-1.48,0-2.53.15-3.3.48-.46.26-.68.47-.79.59Zm43.5,1.1c-2.7-.06-4.68-.84-5.44-2.14-.44-.83-.38-1.73.14-2.63.7-1.18,2.48-2.42,5.36-2.39,1.11.02,2.27.2,3.26.52l.31.12,2.3.87-2.46-.03c-2.4-.04-3.51.83-3.54,1.69-.06.92,1.02,1.93,3.59,2.18l.11.02,1.13.41-.42.47c-.2.23-.55.44-1.08.64l-.1.02c-1.04.13-2.14.25-3.16.25Zm-.07-6.3c-2.45,0-3.94,1.05-4.48,1.96-.38.64-.42,1.22-.13,1.77.59,1.01,2.35,1.65,4.69,1.7.84,0,1.77-.09,2.67-.2-2.76-.46-3.68-1.86-3.6-2.98.03-.81.6-1.71,2-2.18-.34-.04-.68-.06-1.02-.07-.04,0-.08,0-.12,0Z"/></g></g></g></g></g></g></svg>