<svg xmlns="http://www.w3.org/2000/svg" xmlns:xlink="http://www.w3.org/1999/xlink" viewBox="0 0 1680 1050"><defs><style>.cls-1{fill:none;}.cls-2{clip-path:url(#clippath);}.cls-3,.cls-4{fill:#f8f2e9;}.cls-5{fill:#e3d1b0;}.cls-6{fill:#fff;}.cls-7{fill:#9f2242;}.cls-8{fill:#dec69b;}.cls-9{clip-path:url(#clippath-1);}.cls-10{clip-path:url(#clippath-3);}.cls-11{clip-path:url(#clippath-2);}.cls-12{fill:url(#Degradado_sin_nombre_94);}.cls-12,.cls-13,.cls-14{mix-blend-mode:multiply;}.cls-13{fill:url(#Degradado_sin_nombre_96);}.cls-14{fill:url(#Degradado_sin_nombre_97);}.cls-15{fill:url(#Degradado_sin_nombre_91);}.cls-16{fill:url(#Degradado_sin_nombre_80);}.cls-17{fill:url(#Degradado_sin_nombre_30);}.cls-18{fill:url(#Degradado_sin_nombre_38);}.cls-19{fill:url(#Degradado_sin_nombre_34);}.cls-20,.cls-4{opacity:.5;}.cls-21{fill:url(#Degradado_sin_nombre_7);}.cls-22{fill:url(#Degradado_sin_nombre_2);}.cls-23{fill:url(#Degradado_sin_nombre_8);}.cls-24{isolation:isolate;}.cls-25{fill:url(#Degradado_sin_nombre_38-2);}</style><linearGradient id="Degradado_sin_nombre_8" x1="843.88" y1="-12.62" x2="835.13" y2="1054.7" gradientUnits="userSpaceOnUse"><stop offset="0" stop-color="#9f2242"/><stop offset=".07" stop-color="#871f3a"/><stop offset=".14" stop-color="#711d34"/><stop offset=".18" stop-color="#691d32"/><stop offset=".57" stop-color="#841f3a"/><stop offset="1" stop-color="#9f2242"/></linearGradient><clipPath id="clippath"><rect class="cls-1" x="0" y="161.51" width="1680" height="888.24"/></clipPath><linearGradient id="Degradado_sin_nombre_2" x1="990.43" y1="917.94" x2="998.22" y2="156.72" gradientUnits="userSpaceOnUse"><stop offset=".33" stop-color="#9f2242" stop-opacity=".9"/><stop offset=".41" stop-color="#9f2142" stop-opacity=".87"/><stop offset=".51" stop-color="#a02142" stop-opacity=".77"/><stop offset=".62" stop-color="#a32042" stop-opacity=".6"/><stop offset=".74" stop-color="#a61f43" stop-opacity=".37"/><stop offset=".86" stop-color="#aa1d43" stop-opacity=".08"/><stop offset=".89" stop-color="#ac1d44" stop-opacity="0"/></linearGradient><linearGradient id="Degradado_sin_nombre_34" x1="761.65" y1="33.32" x2="928.55" y2="335.82" gradientUnits="userSpaceOnUse"><stop offset="0" stop-color="#f2ebde"/><stop offset=".17" stop-color="#f0e8da"/><stop offset=".34" stop-color="#ece1ce"/><stop offset=".5" stop-color="#e5d4bb"/><stop offset=".66" stop-color="#dbc3a0"/><stop offset=".82" stop-color="#ceac7d"/><stop offset=".98" stop-color="#bf9152"/><stop offset=".99" stop-color="#bf9051"/></linearGradient><linearGradient id="Degradado_sin_nombre_7" x1="804.73" y1="130.38" x2="773.9" y2="266.55" gradientUnits="userSpaceOnUse"><stop offset=".04" stop-color="#f2ebde"/><stop offset=".07" stop-color="#eee4d4"/><stop offset=".24" stop-color="#ddc6a5"/><stop offset=".4" stop-color="#d0ae80"/><stop offset=".56" stop-color="#c69d66"/><stop offset=".69" stop-color="#c19356"/><stop offset=".8" stop-color="#bf9051"/></linearGradient><linearGradient id="Degradado_sin_nombre_80" x1="876.05" y1="126.34" x2="738.06" y2="316.71" gradientUnits="userSpaceOnUse"><stop offset=".15" stop-color="#dec69b"/><stop offset=".2" stop-color="#d0b17d"/><stop offset=".28" stop-color="#c39b5f"/><stop offset=".35" stop-color="#b88a47"/><stop offset=".44" stop-color="#b07e37"/><stop offset=".53" stop-color="#ac772d"/><stop offset=".64" stop-color="#ab752a"/></linearGradient><linearGradient id="Degradado_sin_nombre_91" x1="955.58" y1="45.64" x2="790.55" y2="234.89" gradientUnits="userSpaceOnUse"><stop offset="0" stop-color="#c09251"/><stop offset=".12" stop-color="#c8a16a"/><stop offset=".44" stop-color="#dec9a8"/><stop offset=".67" stop-color="#ece1cf"/><stop offset=".79" stop-color="#f2ebde"/></linearGradient><clipPath id="clippath-1"><path class="cls-1" d="m819.29,102.23l-37.76,132c26.01-82.72,84.18-78.6,84.18-78.6h59.35c22.52,0,41.93-15.87,46.41-37.94l3.13-15.45h-155.3Z"/></clipPath><linearGradient id="Degradado_sin_nombre_94" x1="859.58" y1="237.28" x2="905.2" y2="72.53" gradientUnits="userSpaceOnUse"><stop offset="0" stop-color="#c09251" stop-opacity="0"/><stop offset=".11" stop-color="#c09251" stop-opacity=".03"/><stop offset=".26" stop-color="#c09251" stop-opacity=".12"/><stop offset=".43" stop-color="#c09251" stop-opacity=".27"/><stop offset=".63" stop-color="#c09251" stop-opacity=".48"/><stop offset=".83" stop-color="#c09251" stop-opacity=".75"/><stop offset="1" stop-color="#c09251"/></linearGradient><linearGradient id="Degradado_sin_nombre_30" x1="964.17" y1="79.2" x2="751.88" y2="201.76" gradientUnits="userSpaceOnUse"><stop offset=".27" stop-color="#bf9051"/><stop offset="1" stop-color="#f2ebde"/></linearGradient><clipPath id="clippath-2"><path class="cls-1" d="m781.53,234.23l-3.07,10.74s27.29-48.88,77.13-53.75l10.12-35.6s-58.17-4.12-84.18,78.6Z"/></clipPath><linearGradient id="Degradado_sin_nombre_97" x1="856.74" y1="144.44" x2="792.01" y2="252.53" gradientUnits="userSpaceOnUse"><stop offset=".21" stop-color="#dec69b"/><stop offset=".33" stop-color="#d9bf91"/><stop offset=".54" stop-color="#cdac77"/><stop offset=".81" stop-color="#ba8d4c"/><stop offset="1" stop-color="#ab752a"/></linearGradient><linearGradient id="Degradado_sin_nombre_38" x1="942.14" y1="26.47" x2="834.55" y2="353.67" gradientUnits="userSpaceOnUse"><stop offset=".11" stop-color="#f2ebde"/><stop offset=".26" stop-color="#f0e8da"/><stop offset=".41" stop-color="#ece1ce"/><stop offset=".55" stop-color="#e5d4bb"/><stop offset=".7" stop-color="#dbc3a0"/><stop offset=".84" stop-color="#ceac7d"/><stop offset=".98" stop-color="#bf9152"/><stop offset=".99" stop-color="#bf9051"/></linearGradient><clipPath id="clippath-3"><path class="cls-1" d="m778.46,244.97h70.15c13.72,0,23.67,1.92,29.84,5.76,6.16,3.84,9.25,9.37,9.25,16.58,0,8.84-3.84,15.76-11.52,20.77-7.68,5.01-18.5,7.5-32.46,7.5-11.64,0-23.09-1.75-34.38-5.23-.11-.03-.23-.07-.34-.11-19.15-5.99-39.95,1.12-50.92,17.93l-10.69,16.38c11.63,8.84,25.36,15.53,41.18,20.07,15.82,4.54,32.69,6.81,50.6,6.81s33.19-2.15,47.68-6.44c4.61-1.36,9.08-2.94,13.4-4.73,8.56-3.56,16.22-7.87,23-12.91,7.41-5.51,13.77-11.91,19.05-19.19,10.12-13.96,15.18-30.24,15.18-48.86,0-22.1-7.81-38.95-23.38-50.6-28.62-21.43-66.54-18.72-78.52-17.45-51.61,5.45-77.13,53.75-77.13,53.75Z"/></clipPath><linearGradient id="Degradado_sin_nombre_96" x1="942.14" y1="26.47" x2="834.55" y2="353.67" gradientUnits="userSpaceOnUse"><stop offset=".56" stop-color="#c09251" stop-opacity="0"/><stop offset=".62" stop-color="#c09251" stop-opacity=".11"/><stop offset=".75" stop-color="#c09251" stop-opacity=".39"/><stop offset=".94" stop-color="#c09251" stop-opacity=".85"/><stop offset="1" stop-color="#c09251"/></linearGradient><linearGradient id="Degradado_sin_nombre_38-2" x1="888.86" y1="187.46" x2="831.87" y2="360.78" xlink:href="#Degradado_sin_nombre_38"/></defs><g class="cls-24"><g id="Capa_1"><g class="cls-2"><g><g><path class="cls-7" d="m1511.79,183.92c.83-2.69,3.45-6.32,6.73-7.45l58.46-15.68h10.57l.67.8-.57,1.58c-25.86,12.15-49.99,18.72-75.87,20.75"/><path class="cls-7" d="m1527.34,204.22c-1.65.09-3.03-.09-4.06-.58-1.54-.8-2.11-2.04-2.2-3.53.41-2.04,2.19-3.86,4.94-4.7,25.39-4.76,49.05-12.61,70.34-23.61,4.5-2.67,7.01-6.21,6.92-10.27,0-.25-.05-.49-.08-.73h17.12c-1.3,4.42-4.74,9.4-10.35,14.85-10.25,7.95-40.39,18.36-82.61,28.58"/><path class="cls-7" d="m1723.87,245.49c-.56.86-1.22,1.71-1.98,2.53,0,0-.02.02-.02.02-.55.8-1.15,1.6-1.86,2.37-21.11,13.69-43.71,25.67-67.91,36.04h-39.69c26.45-9.51,54.19-21.19,83.66-36.35,4.54-2.88,6.61-5.71,6.47-8.52-.12-1.75-1.19-3.2-2.91-4.01-3.46-1.66-8.99-.99-14.69,1.67-41.3,21.34-85.63,35.83-127.52,47.2h-40.97c1.14-1.27,2.4-2.35,3.72-3,34.6-6.84,77.21-23.18,114.8-37.62l1.36-.44c26.77-10.35,49.95-19.18,63.34-21.91,6.52-.4,12.58.6,17.34,3,4.89,2.31,8.14,6.12,8.85,10.2.52,3.01-.19,5.99-1.99,8.81"/><path class="cls-7" d="m1670.15,202.01c.8,5.67-2.39,12.03-9.14,18.25-42.67,25.31-87.23,36.64-141.07,46.25l-.83.07-.77-.98c.04-2.35,2.12-5.73,4.69-7.14,40.21-10.2,79.82-20.95,122.28-40.47,5.2-2.36,8.3-6.08,8.48-10.68.27-4.52-2.89-9.24-7.61-11.69-3.39-1.66-7.23-2-10.93-1.08-25.99,5.81-52.18,14.21-77.54,22.39-11.03,3.53-22.61,7.31-33.12,10.52l-2.32-.12-.95-2.68c.11-2.93,2.12-6.87,4.73-8.12l82.61-27.34c12.98-4.7,25.22-6.62,36.33-5.66,4.61,1.27,8.88,2.75,12.52,4.67,7.6,3.73,11.79,8.51,12.64,13.82"/><path class="cls-7" d="m1840.58,261.3c3.03,1.71,6.22,3.65,9.29,5.65,4.46,3.96,4.24,5.6,4.23,5.62-.19.59-1.69,1.37-5.09,1.78-14.03,1.7-26.81,5.81-38.19,12.08h-27.44c5.27-3.46,10.59-6.96,16-10.54,2.89-3.14,4.03-5.78,3.72-8.07-.47-1.59-1.37-2.9-3-3.77-2.92-1.58-7.82-2.22-15.13-1.93-18.59.86-38.13,5.68-59.91,14.74-6.62,3.32-13.07,6.48-19.42,9.56h-30.96c25.98-11.65,43.31-15.31,64.72-27.97.8-.79,1.5-1.61,2.1-2.45,34.83-14.02,67.26-12.33,99.1,5.28"/><path class="cls-7" d="m1515.17,241.31c37.05-13.1,75.06-23.99,112.69-32.29l2.18.24,1.08,1.61c.11,1.04-.81,2.07-2.09,2.83-36.07,15.23-75.11,26.9-116.08,34.67l-.16-1.3c-.12-2.24,1.1-4.95,2.39-5.77"/><path class="cls-7" d="m1140.14,240.49l-1.29-.28c-1.63-1.81-2.45-5.62-1.5-8.21,16.72-22.68,32.99-45.41,47.66-71.22h13.11c-14.6,27.35-34.07,52.28-57.4,79.16l-.58.55Z"/><path class="cls-7" d="m1155.94,271.53l-1.4-1.07c-2.84-2.95-4.59-10.21-2.83-14.42,20.8-25.41,40.87-62.3,58.65-95.25h17.44c-20.56,40.45-46.63,77.12-70.53,109.42l-1.33,1.32Z"/><path class="cls-7" d="m1181.32,286.44h-13.13c.3-.53.64-1,1.01-1.39,25.88-35.54,52.73-74.22,76.19-124.26h13.85c-3.96,11.12-8.46,22.2-14.58,34.02-16.44,30.74-37.48,61.15-63.35,91.63"/><path class="cls-7" d="m1124.08,226.91c-1.7-1.61-2.74-4.38-2.36-5.77,11.78-20.66,24.53-40.87,38.04-60.36h12.03c-13.32,23.01-28.9,45.45-46.64,67.01l-1.07-.88Z"/><path class="cls-7" d="m1097.4,186.66c-1.75.21-3.02-.46-4.08-1.6-1.03-1.85-.8-4.29.83-6.48,5.54-5.77,10.68-11.72,15.49-17.79h11.09c-5.79,7.47-12.36,15.53-19.7,24.1-1.26.98-2.47,1.61-3.63,1.78"/><path class="cls-7" d="m1116.53,207.48l-1.86,1.29-2.63-1.47c-1.99-2.29-3.26-6.48-2.16-8.98l23.29-37.53h13.19c-4.1,6.35-8.14,12.71-12.13,19.01-5.87,9.24-12,19-17.71,27.69"/><path class="cls-7" d="m1075.24,177.3c-1.12-2.61-1.42-6.94.45-9.66l5.55-6.86h11.47c-5.42,5.84-11.19,11.34-17.47,16.51"/><path class="cls-7" d="m1476.34,218.8c1.64.82,2.5,2.42,2.27,4.18-.2,1.64-1.53,3.09-3.25,3.49l-20.03.85-1.35-2.39,1.76-2.93,19.13-3.71,1.47.51Z"/><path class="cls-7" d="m1472.82,168.54l-11.38,1.86-1.61-.33c-1.39-.69-2.32-2.27-2.15-3.71.2-1.47,1.4-2.64,3.36-3.19l11.51-1.78,2.62.32c1.37.69,1.31,2.4,1.31,3.07-.32,1.47-1.47,3.22-3.67,3.75"/><path class="cls-7" d="m1443.45,178.66c-.49.2-1.12.14-3.6-1.06-9.82-4.08-19.37-1.88-29.42.51l-2.49-.28c-1.58-.76-2.46-2.44-2.43-4.2-.02-.55,0-2.39,1.78-3.36l17.38-5.61c1.7-.96,3-2.32,3.81-3.87h16.2c1.31,4.42,2.05,8.92,1.18,14.04-1.13,2.89-1.99,3.71-2.4,3.84"/><path class="cls-7" d="m1428.95,209.46c.35-3.34-1.14-6.12-3.85-7.6-2.47-1.19-5.72-1.21-9.74.02-1.37.68-2.32.82-2.93.52-.16-.08-.89-.51-1.53-2.58-2.85-7.28.08-9.77,2.86-11.02,11.02-3.41,18.78-3.85,23.67-1.47,3.74,1.93,5.82,5.83,6.42,11.8-.38,8.19-2.85,17.9-7.67,28.66-.84,2.03-1.95,3.32-3.11,3.81-1.01.25-3.32-.09-4.77-.26l-.86-.12-2.44-.24c-9.22-.4-18.05.89-28.32,2.39l.28-1.19c1.28-4.6,3.25-6.9,6.43-7.51l15.17-2.96c6.65-2.37,10.07-7.89,10.38-12.23"/><path class="cls-7" d="m1327.68,286.44h-22.05c9.98-6.55,20.52-15.86,32.51-29.06l3.6-3.82c28.49-31.15,46.8-51.18,32.63-92.77h18.32c1.64,6.03,2.72,12.63,3.27,19.87,5.57,35.5-40.18,80.95-68.27,105.78"/><path class="cls-7" d="m1517.22,164.39c-.5-.5-.9-1.47-.83-3.07,0-.17.03-.35.05-.53h13.29c-2.67.76-5.33,1.54-7.97,2.31l-4.53,1.29Z"/><path class="cls-7" d="m1490.87,239.42l-43.76,6.43-1.75-.15-.65-1.19c.09-1.85,1.99-4.72,5.16-6.19,13.45-2.24,27.18-4.74,35.57-8.22,5.8-2.08,8.85-7.39,9.26-11.53.28-3.62-1.26-6.4-4.07-7.89-2.08-1.04-4.56-1.25-7.42-.72l-24.97,1.79c-.89-.62-1.2-1.76-1.08-3.27.33-2.5,2-5.41,4.95-6.22l32.29-4.67c3.53-.32,6.46.08,8.69,1.15,1.93.98,3.58,2.55,4.69,4.64,2.41,5.01,3.27,11.46,2.52,18.94-2.4,10.34-8.7,15.91-19.42,17.1"/><path class="cls-7" d="m1327.47,177.02l-1.79-2.3c-.47-1.94.12-4.28,1.65-6.51l4.64-7.42h10.35l-8.89,13.48c-2.18,2.44-4.55,3.44-5.97,2.75"/><path class="cls-7" d="m1251.1,198.4l8.57-14.89c9.05-8.15,14.35-15.59,16.27-22.72h13.82c-.33.73-.72,1.47-1.18,2.2-10.45,14.52-22.8,26.25-37.47,35.42"/><path class="cls-7" d="m1286.65,191.11c-13.08,12.47-38.05,27.02-48.48,29.75l2.13-3.7c14.85-8.53,28.74-19.12,43.37-31.72,5.13-3.45,4.52,4.17,2.97,5.67"/><path class="cls-7" d="m1313.37,162.54l-1.29-1.75h5.98c-1.75,1.69-3.44,2.37-4.68,1.75"/><path class="cls-7" d="m1640.54,175.49c-.69.16-2.62-.94-3.88-3.32l-3.81-11.38h6.66c.72,3.43,1.38,6.98,1.97,10.7.12,2.56-.59,3.92-.95,4"/><path class="cls-7" d="m1355.57,209.46c-5.22,1.99-12.12,1.18-21.08-2.43l-2.39-.91c-3.67-1.86-5.09-4.78-4.64-6.78.45-1.38,1.61-2.49,3.24-2.77l12.26,3.14c3.44.44,7.19-.07,9.13-1.72,2.65-2.07,5.44-9.46,5.06-15.81-2.57-13.11-6.27-15.45-1.22-20.64.2-.3.4-.54.59-.76h4.49l.23.16c7.24,12.83,8.85,24.98,5.12,36.28-2.68,6.36-6.19,10.4-10.78,12.24"/><path class="cls-7" d="m1341.28,190.19c-1.22-.62-2.77-1.83-4.41-3.36-1.33-1.72-1.77-3.63-1.01-4.95.82-1.42,3.18-2.13,5.94-1.97,1.61.49,3.07,1.06,4.31,1.65,4.37,2.21,3.9,3.85,3.24,5-3.81,5.8-6.84,4.22-8.06,3.64"/><path class="cls-7" d="m1316.39,229.33c.3.15,1.4.67,1.65,2.51-2.19,4.81-4.54,6.19-6,6.45-.69.04-1.79.1-5.09-1.58-1.72-1.93-2.64-3.43-2.45-4.35.08-1.26,1.64-2.38,3.64-3.22,5.44-.86,7.53-.17,8.25.18"/><path class="cls-7" d="m1339.02,220.22c2.83,5.54.56,12.38-7.57,21.23-9.58,12.03-20.88,14.82-34.28,8.85-1.67-.85-2.13-2.58-1.51-3.66.66-1.22,3.18-2.11,3.91-1.93,12.22,5.43,20.5,1.08,28.67-13.34,2.31-7.68-1.02-8.76-3.58-10.02-2.14-1.08-4.76-1.63-7.92-1.62-2.5-.6-3.1-2.43-3.11-3.07-.09-.43.23-1.22,1.42-2.12,1.23-1.51,12.38-1.75,19.97,2.07,2.29,1.1,3.42,2.21,4.01,3.62"/><path class="cls-7" d="m1314.33,201.78c-12.47,1.12-25.05,8.91-41.03,20.35-13.21,8.42-29.08,13.75-43.8,13.83l2.5-4.35c22.6-5.91,42.03-13.1,63.24-35.18,2.39-3.24,4.97-6.89,3.96-13.16l-.87-2.25c-.98-2.38-1.86-5.1-2.33-7.57-.5-2.05.3-4,2.18-5.27,2.2-1.57,5.16-1.69,7.63-.48l1.21.64.26.21,11.36,23.36c.72,1.75.55,4.23-.76,6.51-1.13,1.98-2.72,3.14-3.53,3.35"/><path class="cls-7" d="m1494.2,182.05c-10.06,4-20.28,7.57-33.16,7.13-.89-.55-1.22-1.47-1.12-2.77.29-2.69,2.46-5.69,4.79-6.43l18.57-6.09c4.13-2.24,6.7-6.82,6.55-11.93,0-.41-.03-.79-.06-1.18h15.97c.34,9.12-1.01,16.04-11.54,21.27"/><path class="cls-7" d="m1659.1,181.38c-.69.16-2.62-.94-3.88-3.32l-5.78-17.27h7.33c1.24,5.18,2.33,10.7,3.28,16.59.12,2.56-.59,3.92-.95,4"/><path class="cls-7" d="m1683.13,201.02c-1.15.03-2.71-.7-3.95-2.36-1.29-2.18-2.51-4.39-3.69-6.63l-10.41-31.25h8.2c3.38,14.53,7.89,26.69,11.72,36.15.24,1.35.2,2.43-1.86,4.09"/><path class="cls-7" d="m1231.55,279.56c1.89-.52,4.69-.05,7.51,1.35,3.5,1.75,4.84,3.83,4.81,4.21l-1.41.53c-.69.3-1.43.55-2.2.8h-27.15c-3.83-.82-7.5-1.93-10.76-3.28l2.46-4.28c9.24,2.71,20.87,5.14,26.73.67"/><path class="cls-7" d="m1258.34,275.82c7.35,3.71,16.08,8.11,29.14-1.22,3.54-2.57,3.92-4.88,3.83-6.48-.19-2.53-.95-3.73-4.84-5.61l-.18-.09,1.01-2.29c2.37-.33,4.91.03,7.01,1.04,2.73,1.43,4.56,3.64,4.91,6.22.43,3.03-1.03,6.26-4.28,9.23-15.35,11.41-27.35,9.3-40.56,2.72l-1.74-.84c-1.51-1.33-1.64-2.54-1.46-2.85.09-.16,2.56-2.02,7.15.15"/><path class="cls-7" d="m1045.44,280.87c1.41,1.38,2.28,3.25,2.61,5.57h-25.46c4.7-4.59,9.96-7.18,14.42-7.77,3.64-.52,6.61.3,8.42,2.2"/><path class="cls-7" d="m1425.47,267.47l-.33-.34c.68-2.22,5.71-7.1,12.56-9.03,14.27-2.62,26.2-4.02,37.64-4.29l3.43-.02c5.41-.18,13.75-.46,18.33,1.75,2.15,1.08,3.79,2.7,4.78,4.61,2.59,8.53.27,18.88-4.08,26.29h-13.61c3.07-3.07,5.03-7.2,5.1-11.26-.02-3.87-1.83-6.87-5.23-8.63-1.93-.98-4.43-1.44-7.45-1.36l-50.04,2.28-1.12.02Z"/><path class="cls-7" d="m1415.35,281.17c14.08-3.41,30.82-5.43,51.43-6.1l2.92.84c2.45,1.22,4.6,3.66,3.74,4.04-9.65,4.98-62.26,4.6-62.26,4.6.92-1.13,2.51-2.73,4.18-3.39"/><path class="cls-7" d="m1210.34,269.28l4.51-7.84c23.67.52,43.56-5.56,59.74-23.11,7.72-12.52,15.26-19.46,22.17-20.5l1.6-.11-1.34,2.96c-17.5,32.27-40.57,48.35-68.95,47.99-5.34.62-11.27.82-17.73.61"/><path class="cls-7" d="m1092.29,253.16l2.72-1.91c4.19-3.14,10.66-7.96,15.77-8.74,2.43-.34,4.81.06,6.86,1.03,11.62,8.12,17.08,25.74,13.37,34.31-2.22,2.88-4.59,5.74-7.08,8.6h-9.35c2.57-2.8,4.37-5.32,5.06-7.43,2.4-5.2,1.54-11.96-2.12-16.55-2.57-3.07-6-4.46-9.86-3.99-2.18.28-4.49,1.3-6.83,3.03l-32.48,24.93h-7.32c.52-2.78,1.78-6.12,4.1-9.06,9.64-9.97,18.23-17.68,27.18-24.22"/><path class="cls-7" d="m1069.99,224.69c1.84-.25,3.59.55,4.57,2.08.91,1.41.81,3.31-.29,4.59l-15.41,11.74-2.64-1.15-.53-3.32,12.79-13.53,1.51-.41Z"/><path class="cls-7" d="m1102.34,273.9c2.76-.38,6.09.37,5.65,1.15-1.24,2.61-5.47,6.76-10.9,11.38h-12.3c4.48-3.77,9.34-7.62,14.67-11.6l2.88-.94Z"/><path class="cls-7" d="m1279.25,266.82c1.37.56.97,2.31.44,3.33-1.33,2.8-5.06,4.7-10.43,2.71-1.04-1.05-1.05-1.68-1.06-1.81.02-.25.75-1.86,5.69-3.92,1.65-.48,3.78-1.01,5.37-.31"/><path class="cls-7" d="m1356.05,277.93l11.9-2.07c15.1,2.47,23.29-3.86,25.75-10.08,2.05-5.09.37-10.37-3.92-12.52-2.88-1.43-6.72-1.59-12.21-.48.48-1.3,1.58-3.14,4.05-5.02,13.16-7.65,25.95-7.62,32.84-4.14,3.24,1.59,5.07,3.89,5.26,6.4.44,3.81-2.22,7.99-7.68,12.28-12.05,8.04-19.08,16.45-24.01,24.14h-14.64c-.53-.34-1.06-.65-1.63-.94-4.76-2.38-9.97-2.69-16.76-2.88l-.9-2.28c.04-.56.41-1.87,1.95-2.41"/><path class="cls-7" d="m1000.32,235.36c6.54-8.81,12.42-13.45,17.9-14.25,4.25-.52,8.48,1.43,12.9,5.86,5.09,6.74,9.54,15.84,12.79,27.08.66,2.09.63,3.72.03,4.76-.66.76-2.71,1.76-3.98,2.43l-.76.37-2.11,1.16c-7.61,4.77-13.81,10.68-21,17.55l-.55-1.1c-2.02-4.38-1.97-7.3.17-9.54l10.13-10.74c3.74-5.57,2.83-11.87.21-15.49-1.92-2.86-4.95-4.25-8.07-3.93-2.75.41-5.36,2.19-7.75,5.39-.66,1.3-1.31,1.93-2,2.04-.17.02-1.05.09-2.93-1.22-7.07-4.23-6.38-7.82-4.98-10.35"/><path class="cls-7" d="m926.07,271.98l-2.94-.85c-1.65-1.3-2.72-3.49-2.98-6.1l-1.61-11.44c-.89-5.79-1.72-11.56-2.54-17.34-.88-5.58-1.72-11.12-2.56-16.58-.19-9.96-4.37-13.8-8.23-17.26l-.33-.34c-1.87-1.68-3.66-3.39-4.94-5.52-3-7.43-2.3-9.44-2.03-9.88l.58-.12c.53-.09,1.54-.08,3.07.36,13.47,8.67,20.45,17.54,21.52,28.01l5.92,51.57c-.13,3.15-1.36,5.25-2.94,5.49"/><path class="cls-7" d="m973.2,175.95c-6.3,1.44-9.68,7.6-12.9,13.22-2.7,4.69-5.48,9.47-9.6,11.76l-2.47.8c-1.28.2-2.44-.06-2.86-.75-.62-.51-.41-1.31.05-2.64.81-2.33,2.59-4.93,4.59-8.03,4.23-6.4,9.49-14.29.38-20.44-2.36-1.03-2.53-1.6-1.14-4.54,1.29-2.77,2.78-4.13,5.22-4.5,1.9-.19,4.1.14,6.49.98l12.39,10.57,1.61,2.62c-.19.2-.29.71-1.76.94"/><path class="cls-7" d="m1000.36,286.44h-14.74c-2.9-23.11-14.12-41.25-49.05-59.78-3.79-2.88-4.56-7.62-3.63-10.73.66-2.47,2.25-4,4.56-4.28l.7-.11c14.82,3.75,28.72,12.67,42.53,27.17,11.98,10.84,17.58,28.42,19.63,47.73"/><path class="cls-7" d="m926.19,195.31c-.24-.1-.95-.83-1.59-3.09-1.24-6.18.04-11.17,1.26-16.46l.27-.56c1.11-4.34,2.22-8.93,1.76-14.41h7.72c1.62,10.7-.88,21.59-7.54,32.79-1.09,1.44-1.88,1.73-1.88,1.73"/><path class="cls-7" d="m996.58,174.89c-.86.13-2.04-.65-3.1-1.87-1.55-2.02-2.61-5.29-1.26-8l2.37-4.24h12.44c-3.19,5.54-6.12,9.8-8.96,12.86l-1.5,1.25Z"/><path class="cls-7" d="m1084.87,195.04c5.23,2.67,10.16,7.33,14.5,13.71,4.92,9.57,3.56,17.5-4.2,24.36l-30.65,29.31-1.49.84-1.31-.59c-1.14-1.52-1.52-4.85.03-7.79,9.24-9.21,18.54-18.8,22.93-26.2,3.25-4.86,2.18-10.78-.22-14.32-2.16-3.04-5.23-4.4-8.46-4.04-2.34.33-4.46,1.53-6.39,3.53l-18.73,15.22c-1.12,0-2.12-.74-3.02-2.01-1.39-2.17-1.97-5.42-.15-7.69l22.66-21.56c2.61-2.21,5.2-3.5,7.69-3.88,2.18-.3,4.53.05,6.79,1.11"/><path class="cls-7" d="m1038.26,209.54c-1.07.05-1.93-.5-2.71-1.6-1.55-2.3-1.79-5.89-.42-7.76l10.78-15.13c1.82-4.06.85-9.14-2.64-13.12-3.12-3.85-7.69-5.94-11.83-5.36-2.13.28-4.03,1.11-5.66,2.66l-12.5,12.01-1.94,1.42c-1.26.19-2.83-.96-3.81-2.8-.76-1.4-1.71-4.42.12-6.26l13.25-12.8h33.01c7.07,7.68,11.37,14.1,6.1,24.74-5.38,8.75-11.18,17.24-21.74,24.01"/><path class="cls-7" d="m1016.69,206.48c1,2.93.85,4.05.61,4.38-.27.43-.8.73-3.57,1.15-10.52,2.17-16.68,9.2-23.11,16.66l-2.17,1.15c-1.76.27-3.57-.59-4.71-2.01-.38-.43-1.58-1.91-.8-3.66l10.16-14.08c1.29-3.04.79-6.4-1.36-8.83-2.11-2.55-5.56-3.96-8.55-3.56-1.71.23-3.07.91-4.23,2.06l-10.78,10.84-2.43.92c-1.67.25-3.09-.75-3.78-1.75-.77-1.3-.91-2.64-.28-3.78,4.35-7.57,9.34-14.26,15.36-20.45,2.1-2.11,3.96-3.18,5.94-3.43,1.81-.28,3.69.19,5.57,1.22,3.92,3.39,7.75,5.9,11.89,8.7,6.33,3.92,12.25,7.68,16.25,14.48"/><path class="cls-7" d="m937.06,268.03c1.61-.5,3.14-.85,4.52-1.06,4.94-.66,5.65.91,5.87,2.19.79,6.73-2.67,7.15-4.03,7.36-1.39.18-3.41.08-5.73-.25-2.19-.62-3.81-1.91-4.07-3.39-.29-1.58,1.13-3.46,3.43-4.85"/><path class="cls-7" d="m900.33,278.19l1.38-.16.35.02,16.62,8.39h-23.79c-.59-1.11-.74-2.36-.32-3.66.72-2.47,3-4.2,5.76-4.59"/><path class="cls-7" d="m913.13,184.25c-1.61.19-3.64-.25-6.58-1.51-2.96-.68-4.89-2.18-4.14-7.18.03-4.98.6-9.92,1.65-14.78h7.9c-.99,3.14-1.39,6.6-1.44,8.69-.07,1.87,3.55,4.05,4.21,2.75.96-2.11,2.18-3.89,3.07-3.55,3.2-.84-.12,13.42-.12,13.42-1.01,1.61-3.11,1.93-4.56,2.15"/><path class="cls-7" d="m957.21,276.76c.75-3.11-1.9-10.55-6.39-15.4-10.7-9.03-15.2-8.85-14.6-15.77-.29-3.13,1.03-3.33,1.72-3.43l2.13.02c14.23,6.23,23.54,15.03,28,26.09,2.07,6.55,1.93,11.71-.52,15.72-.56.87-1.28,1.69-2.08,2.46h-23.46l9.06-3.25c3.03-1.55,5.69-4.03,6.14-6.42"/><path class="cls-7" d="m876.58,206.46c.85-.07,2.11.48,2.78,2.46,5.55,13.46,8.14,30.92,7.92,53.28-.29,2.47-1.15,3.67-1.5,3.71-.65.05-2.24-1.3-3.01-3.76l-7.9-53.51c.02-1.93,1.12-2.12,1.72-2.18"/><path class="cls-7" d="m1024.69,194.97c-1.56.21-3.34-.53-4.16-1.77-.81-1.29-.62-2.88.58-4.39l8-7.79,2.3-1.19c1.54-.2,2.63,1.19,3.07,1.72.71,1.34.96,3.38-.44,5.02l-7.85,7.77-1.5.63Z"/><path class="cls-7" d="m888.29,180.36h-1.29c-1.96-1.97-3.15-7.01-3.07-11.91.47-2.61.87-5.16,1.21-7.66h10.64c-1.38,5.61-3.11,11.53-5.21,17.79l-2.27,1.78Z"/><path class="cls-7" d="m894.4,197.56c8.09,25.21,9.81,47.89,10.42,66.68.03,1.48-.1,2.77-.37,3.82-.49,1.9-2.6,2.88-4.41,2.14h0c-.49-.2-.93-.51-1.27-.92-.95-1.15-1.62-2.72-1.67-4.41-1.05-21.85-3.16-46.18-10.94-61.13-.09-.18-.21-.36-.33-.52-4.28-5.63-8.34-9.41-11.91-11.04-1.17-.53-1.91-1.69-1.91-2.98v-1.69c0-4.82,5.32-7.77,9.4-5.19,5.12,3.24,9.87,8.32,12.98,15.23"/></g><g><path class="cls-7" d="m219.84,183.92c-.83-2.69-3.45-6.32-6.73-7.45l-58.46-15.68h-10.57s-.67.8-.67.8l.57,1.58c25.86,12.15,49.99,18.72,75.87,20.75"/><path class="cls-7" d="m204.29,204.22c1.65.09,3.03-.09,4.06-.58,1.54-.8,2.11-2.04,2.2-3.53-.41-2.04-2.19-3.86-4.94-4.7-25.39-4.76-49.05-12.61-70.34-23.61-4.5-2.67-7.01-6.21-6.92-10.27,0-.25.05-.49.08-.73h-17.12c1.3,4.42,4.74,9.4,10.35,14.85,10.25,7.95,40.39,18.36,82.61,28.58"/><path class="cls-7" d="m7.76,245.49c.56.86,1.22,1.71,1.98,2.53,0,0,.02.02.02.02.55.8,1.15,1.6,1.86,2.37,21.11,13.69,43.71,25.67,67.91,36.04h39.69c-26.45-9.51-54.19-21.19-83.66-36.35-4.54-2.88-6.61-5.71-6.47-8.52.12-1.75,1.19-3.2,2.91-4.01,3.46-1.66,8.99-.99,14.69,1.67,41.3,21.34,85.63,35.83,127.52,47.2h40.97c-1.14-1.27-2.4-2.35-3.72-3-34.6-6.84-77.21-23.18-114.8-37.62l-1.36-.44c-26.77-10.35-49.95-19.18-63.34-21.91-6.52-.4-12.58.6-17.34,3-4.89,2.31-8.14,6.12-8.85,10.2-.52,3.01.19,5.99,1.99,8.81"/><path class="cls-7" d="m61.48,202.01c-.8,5.67,2.39,12.03,9.14,18.25,42.67,25.31,87.23,36.64,141.07,46.25l.83.07.77-.98c-.04-2.35-2.12-5.73-4.69-7.14-40.21-10.2-79.82-20.95-122.28-40.47-5.2-2.36-8.3-6.08-8.48-10.68-.27-4.52,2.89-9.24,7.61-11.69,3.39-1.66,7.23-2,10.93-1.08,25.99,5.81,52.18,14.21,77.54,22.39,11.03,3.53,22.61,7.31,33.12,10.52l2.32-.12.95-2.68c-.11-2.93-2.12-6.87-4.73-8.12l-82.61-27.34c-12.98-4.7-25.22-6.62-36.33-5.66-4.61,1.27-8.88,2.75-12.52,4.67-7.6,3.73-11.79,8.51-12.64,13.82"/><path class="cls-7" d="m-108.95,261.3c-3.03,1.71-6.22,3.65-9.29,5.65-4.46,3.96-4.24,5.6-4.23,5.62.19.59,1.69,1.37,5.09,1.78,14.03,1.7,26.81,5.81,38.19,12.08h27.44c-5.27-3.46-10.59-6.96-16-10.54-2.89-3.14-4.03-5.78-3.72-8.07.47-1.59,1.37-2.9,3-3.77,2.92-1.58,7.82-2.22,15.13-1.93,18.59.86,38.13,5.68,59.91,14.74,6.62,3.32,13.07,6.48,19.42,9.56h30.96c-25.98-11.65-43.31-15.31-64.72-27.97-.8-.79-1.5-1.61-2.1-2.45-34.83-14.02-67.26-12.33-99.1,5.28"/><path class="cls-7" d="m216.46,241.31c-37.05-13.1-75.06-23.99-112.69-32.29l-2.18.24-1.08,1.61c-.11,1.04.81,2.07,2.09,2.83,36.07,15.23,75.11,26.9,116.08,34.67l.16-1.3c.12-2.24-1.1-4.95-2.39-5.77"/><path class="cls-7" d="m591.49,240.49l1.29-.28c1.63-1.81,2.45-5.62,1.5-8.21-16.72-22.68-32.99-45.41-47.66-71.22h-13.11c14.6,27.35,34.07,52.28,57.4,79.16l.58.55Z"/><path class="cls-7" d="m575.69,271.53l1.4-1.07c2.84-2.95,4.59-10.21,2.83-14.42-20.8-25.41-40.87-62.3-58.65-95.25h-17.44c20.56,40.45,46.63,77.12,70.53,109.42l1.33,1.32Z"/><path class="cls-7" d="m550.31,286.44h13.13c-.3-.53-.64-1-1.01-1.39-25.88-35.54-52.73-74.22-76.19-124.26h-13.85c3.96,11.12,8.46,22.2,14.58,34.02,16.44,30.74,37.48,61.15,63.35,91.63"/><path class="cls-7" d="m607.55,226.91c1.7-1.61,2.74-4.38,2.36-5.77-11.78-20.66-24.53-40.87-38.04-60.36h-12.03c13.32,23.01,28.9,45.45,46.64,67.01l1.07-.88Z"/><path class="cls-7" d="m634.23,186.66c1.75.21,3.02-.46,4.08-1.6,1.03-1.85.8-4.29-.83-6.48-5.54-5.77-10.68-11.72-15.49-17.79h-11.09c5.79,7.47,12.36,15.53,19.7,24.1,1.26.98,2.47,1.61,3.63,1.78"/><path class="cls-7" d="m615.1,207.48l1.86,1.29,2.63-1.47c1.99-2.29,3.26-6.48,2.16-8.98l-23.29-37.53h-13.19c4.1,6.35,8.14,12.71,12.13,19.01,5.87,9.24,12,19,17.71,27.69"/><path class="cls-7" d="m656.39,177.3c1.12-2.61,1.42-6.94-.45-9.66l-5.55-6.86h-11.47c5.42,5.84,11.19,11.34,17.47,16.51"/><path class="cls-7" d="m255.29,218.8c-1.64.82-2.5,2.42-2.27,4.18.2,1.64,1.53,3.09,3.25,3.49l20.03.85,1.35-2.39-1.76-2.93-19.13-3.71-1.47.51Z"/><path class="cls-7" d="m258.81,168.54l11.38,1.86,1.61-.33c1.39-.69,2.32-2.27,2.15-3.71-.2-1.47-1.4-2.64-3.36-3.19l-11.51-1.78-2.62.32c-1.37.69-1.31,2.4-1.31,3.07.32,1.47,1.47,3.22,3.67,3.75"/><path class="cls-7" d="m288.18,178.66c.49.2,1.12.14,3.6-1.06,9.82-4.08,19.37-1.88,29.42.51l2.49-.28c1.58-.76,2.46-2.44,2.43-4.2.02-.55,0-2.39-1.78-3.36l-17.38-5.61c-1.7-.96-3-2.32-3.81-3.87h-16.2c-1.31,4.42-2.05,8.92-1.18,14.04,1.13,2.89,1.99,3.71,2.4,3.84"/><path class="cls-7" d="m302.68,209.46c-.35-3.34,1.14-6.12,3.85-7.6,2.47-1.19,5.72-1.21,9.74.02,1.37.68,2.32.82,2.93.52.16-.08.89-.51,1.53-2.58,2.85-7.28-.08-9.77-2.86-11.02-11.02-3.41-18.78-3.85-23.67-1.47-3.74,1.93-5.82,5.83-6.42,11.8.38,8.19,2.85,17.9,7.67,28.66.84,2.03,1.95,3.32,3.11,3.81,1.01.25,3.32-.09,4.77-.26l.86-.12,2.44-.24c9.22-.4,18.05.89,28.32,2.39l-.28-1.19c-1.28-4.6-3.25-6.9-6.43-7.51l-15.17-2.96c-6.65-2.37-10.07-7.89-10.38-12.23"/><path class="cls-7" d="m403.95,286.44h22.05c-9.98-6.55-20.52-15.86-32.51-29.06l-3.6-3.82c-28.49-31.15-46.8-51.18-32.63-92.77h-18.32c-1.64,6.03-2.72,12.63-3.27,19.87-5.57,35.5,40.18,80.95,68.27,105.78"/><path class="cls-7" d="m214.41,164.39c.5-.5.9-1.47.83-3.07,0-.17-.03-.35-.05-.53h-13.29c2.67.76,5.33,1.54,7.97,2.31l4.53,1.29Z"/><path class="cls-7" d="m240.76,239.42l43.76,6.43,1.75-.15.65-1.19c-.09-1.85-1.99-4.72-5.16-6.19-13.45-2.24-27.18-4.74-35.57-8.22-5.8-2.08-8.85-7.39-9.26-11.53-.28-3.62,1.26-6.4,4.07-7.89,2.08-1.04,4.56-1.25,7.42-.72l24.97,1.79c.89-.62,1.2-1.76,1.08-3.27-.33-2.5-2-5.41-4.95-6.22l-32.29-4.67c-3.53-.32-6.46.08-8.69,1.15-1.93.98-3.58,2.55-4.69,4.64-2.41,5.01-3.27,11.46-2.52,18.94,2.4,10.34,8.7,15.91,19.42,17.1"/><path class="cls-7" d="m404.16,177.02l1.79-2.3c.47-1.94-.12-4.28-1.65-6.51l-4.64-7.42h-10.35s8.89,13.48,8.89,13.48c2.18,2.44,4.55,3.44,5.97,2.75"/><path class="cls-7" d="m480.53,198.4l-8.57-14.89c-9.05-8.15-14.35-15.59-16.27-22.72h-13.82c.33.73.72,1.47,1.18,2.2,10.45,14.52,22.8,26.25,37.47,35.42"/><path class="cls-7" d="m444.98,191.11c13.08,12.47,38.05,27.02,48.48,29.75l-2.13-3.7c-14.85-8.53-28.74-19.12-43.37-31.72-5.13-3.45-4.52,4.17-2.97,5.67"/><path class="cls-7" d="m418.26,162.54l1.29-1.75h-5.98c1.75,1.69,3.44,2.37,4.68,1.75"/><path class="cls-7" d="m91.09,175.49c.69.16,2.62-.94,3.88-3.32l3.81-11.38h-6.66c-.72,3.43-1.38,6.98-1.97,10.7-.12,2.56.59,3.92.95,4"/><path class="cls-7" d="m376.06,209.46c5.22,1.99,12.12,1.18,21.08-2.43l2.39-.91c3.67-1.86,5.09-4.78,4.64-6.78-.45-1.38-1.61-2.49-3.24-2.77l-12.26,3.14c-3.44.44-7.19-.07-9.13-1.72-2.65-2.07-5.44-9.46-5.06-15.81,2.57-13.11,6.27-15.45,1.22-20.64-.2-.3-.4-.54-.59-.76h-4.49s-.23.16-.23.16c-7.24,12.83-8.85,24.98-5.12,36.28,2.68,6.36,6.19,10.4,10.78,12.24"/><path class="cls-7" d="m390.35,190.19c1.22-.62,2.77-1.83,4.41-3.36,1.33-1.72,1.77-3.63,1.01-4.95-.82-1.42-3.18-2.13-5.94-1.97-1.61.49-3.07,1.06-4.31,1.65-4.37,2.21-3.9,3.85-3.24,5,3.81,5.8,6.84,4.22,8.06,3.64"/><path class="cls-7" d="m415.24,229.33c-.3.15-1.4.67-1.65,2.51,2.19,4.81,4.54,6.19,6,6.45.69.04,1.79.1,5.09-1.58,1.72-1.93,2.64-3.43,2.45-4.35-.08-1.26-1.64-2.38-3.64-3.22-5.44-.86-7.53-.17-8.25.18"/><path class="cls-7" d="m392.61,220.22c-2.83,5.54-.56,12.38,7.57,21.23,9.58,12.03,20.88,14.82,34.28,8.85,1.67-.85,2.13-2.58,1.51-3.66-.66-1.22-3.18-2.11-3.91-1.93-12.22,5.43-20.5,1.08-28.67-13.34-2.31-7.68,1.02-8.76,3.58-10.02,2.14-1.08,4.76-1.63,7.92-1.62,2.5-.6,3.1-2.43,3.11-3.07.09-.43-.23-1.22-1.42-2.12-1.23-1.51-12.38-1.75-19.97,2.07-2.29,1.1-3.42,2.21-4.01,3.62"/><path class="cls-7" d="m417.3,201.78c12.47,1.12,25.05,8.91,41.03,20.35,13.21,8.42,29.08,13.75,43.8,13.83l-2.5-4.35c-22.6-5.91-42.03-13.1-63.24-35.18-2.39-3.24-4.97-6.89-3.96-13.16l.87-2.25c.98-2.38,1.86-5.1,2.33-7.57.5-2.05-.3-4-2.18-5.27-2.2-1.57-5.16-1.69-7.63-.48l-1.21.64-.26.21-11.36,23.36c-.72,1.75-.55,4.23.76,6.51,1.13,1.98,2.72,3.14,3.53,3.35"/><path class="cls-7" d="m237.43,182.05c10.06,4,20.28,7.57,33.16,7.13.89-.55,1.22-1.47,1.12-2.77-.29-2.69-2.46-5.69-4.79-6.43l-18.57-6.09c-4.13-2.24-6.7-6.82-6.55-11.93,0-.41.03-.79.06-1.18h-15.97c-.34,9.12,1.01,16.04,11.54,21.27"/><path class="cls-7" d="m14.81,214.02l2.89-.9c1.44-1.11,2.6-2.94,2.82-5.02,1.93-16.05,4.56-33.36,9.41-47.31h-9.25c-4.88,16.9-7.06,32.48-8.46,46.09-.38,4.11.64,6.87,2.59,7.14"/><path class="cls-7" d="m32.71,209.97c.69.11,2.51-1.16,3.53-3.64l10.37-45.55h-6.75c-4.61,12.1-7.43,27-8.5,45.28.13,2.56.98,3.85,1.35,3.91"/><path class="cls-7" d="m72.53,181.38c.69.16,2.62-.94,3.88-3.32l5.78-17.27h-7.33c-1.24,5.18-2.33,10.7-3.28,16.59-.12,2.56.59,3.92.95,4"/><path class="cls-7" d="m48.5,201.02c1.15.03,2.71-.7,3.95-2.36,1.29-2.18,2.51-4.39,3.69-6.63l10.41-31.25h-8.2c-3.38,14.53-7.89,26.69-11.72,36.15-.24,1.35-.2,2.43,1.86,4.09"/><path class="cls-7" d="m-5.98,217.77l2.94-.85c1.65-1.29,2.72-3.49,2.98-6.1l1.61-11.44c.89-5.79,1.72-11.56,2.54-17.34.88-5.58,1.72-11.12,2.56-16.58.03-1.76.23-3.26.48-4.67H-3s-5.91,51.49-5.91,51.49c.13,3.15,1.36,5.25,2.94,5.49"/><path class="cls-7" d="m500.08,279.56c-1.89-.52-4.69-.05-7.51,1.35-3.5,1.75-4.84,3.83-4.81,4.21l1.41.53c.69.3,1.43.55,2.2.8h27.15c3.83-.82,7.5-1.93,10.76-3.28l-2.46-4.28c-9.24,2.71-20.87,5.14-26.73.67"/><path class="cls-7" d="m473.29,275.82c-7.35,3.71-16.08,8.11-29.14-1.22-3.54-2.57-3.92-4.88-3.83-6.48.19-2.53.95-3.73,4.84-5.61l.18-.09-1.01-2.29c-2.37-.33-4.91.03-7.01,1.04-2.73,1.43-4.56,3.64-4.91,6.22-.43,3.03,1.03,6.26,4.28,9.23,15.35,11.41,27.35,9.3,40.56,2.72l1.74-.84c1.51-1.33,1.64-2.54,1.46-2.85-.09-.16-2.56-2.02-7.15.15"/><path class="cls-7" d="m686.19,280.87c-1.41,1.38-2.28,3.25-2.61,5.57h25.46c-4.7-4.59-9.96-7.18-14.42-7.77-3.64-.52-6.61.3-8.42,2.2"/><path class="cls-7" d="m306.16,267.47l.33-.34c-.68-2.22-5.71-7.1-12.56-9.03-14.27-2.62-26.2-4.02-37.64-4.29l-3.43-.02c-5.41-.18-13.75-.46-18.33,1.75-2.15,1.08-3.79,2.7-4.78,4.61-2.59,8.53-.27,18.88,4.08,26.29h13.61c-3.07-3.07-5.03-7.2-5.1-11.26.02-3.87,1.83-6.87,5.23-8.63,1.93-.98,4.43-1.44,7.45-1.36l50.04,2.28,1.12.02Z"/><path class="cls-7" d="m316.28,281.17c-14.08-3.41-30.82-5.43-51.43-6.1l-2.92.84c-2.45,1.22-4.6,3.66-3.74,4.04,9.65,4.98,62.26,4.6,62.26,4.6-.92-1.13-2.51-2.73-4.18-3.39"/><path class="cls-7" d="m521.29,269.28l-4.51-7.84c-23.67.52-43.56-5.56-59.74-23.11-7.72-12.52-15.26-19.46-22.17-20.5l-1.6-.11,1.34,2.96c17.5,32.27,40.57,48.35,68.95,47.99,5.34.62,11.27.82,17.73.61"/><path class="cls-7" d="m639.34,253.16l-2.72-1.91c-4.19-3.14-10.66-7.96-15.77-8.74-2.43-.34-4.81.06-6.86,1.03-11.62,8.12-17.08,25.74-13.37,34.31,2.22,2.88,4.59,5.74,7.08,8.6h9.35c-2.57-2.8-4.37-5.32-5.06-7.43-2.4-5.2-1.54-11.96,2.12-16.55,2.57-3.07,6-4.46,9.86-3.99,2.18.28,4.49,1.3,6.83,3.03l32.48,24.93h7.32c-.52-2.78-1.78-6.12-4.1-9.06-9.64-9.97-18.23-17.68-27.18-24.22"/><path class="cls-7" d="m661.64,224.69c-1.84-.25-3.59.55-4.57,2.08-.91,1.41-.81,3.31.29,4.59l15.41,11.74,2.64-1.15.53-3.32-12.79-13.53-1.51-.41Z"/><path class="cls-7" d="m629.29,273.9c-2.76-.38-6.09.37-5.65,1.15,1.24,2.61,5.47,6.76,10.9,11.38h12.3c-4.48-3.77-9.34-7.62-14.67-11.6l-2.88-.94Z"/><path class="cls-7" d="m452.38,266.82c-1.37.56-.97,2.31-.44,3.33,1.33,2.8,5.06,4.7,10.43,2.71,1.04-1.05,1.05-1.68,1.06-1.81-.02-.25-.75-1.86-5.69-3.92-1.65-.48-3.78-1.01-5.37-.31"/><path class="cls-7" d="m375.58,277.93l-11.9-2.07c-15.1,2.47-23.29-3.86-25.75-10.08-2.05-5.09-.37-10.37,3.92-12.52,2.88-1.43,6.72-1.59,12.21-.48-.48-1.3-1.58-3.14-4.05-5.02-13.16-7.65-25.95-7.62-32.84-4.14-3.24,1.59-5.07,3.89-5.26,6.4-.44,3.81,2.22,7.99,7.68,12.28,12.05,8.04,19.08,16.45,24.01,24.14h14.64c.53-.34,1.06-.65,1.63-.94,4.76-2.38,9.97-2.69,16.76-2.88l.9-2.28c-.04-.56-.41-1.87-1.95-2.41"/><path class="cls-7" d="m731.31,235.36c-6.54-8.81-12.42-13.45-17.9-14.25-4.25-.52-8.48,1.43-12.9,5.86-5.09,6.74-9.54,15.84-12.79,27.08-.66,2.09-.63,3.72-.03,4.76.66.76,2.71,1.76,3.98,2.43l.76.37,2.11,1.16c7.61,4.77,13.81,10.68,21,17.55l.55-1.1c2.02-4.38,1.97-7.3-.17-9.54l-10.13-10.74c-3.74-5.57-2.83-11.87-.21-15.49,1.92-2.86,4.95-4.25,8.07-3.93,2.75.41,5.36,2.19,7.75,5.39.66,1.3,1.31,1.93,2,2.04.17.02,1.05.09,2.93-1.22,7.07-4.23,6.38-7.82,4.98-10.35"/><path class="cls-7" d="m810.28,273.11l2.83-1.16c1.5-1.47,2.33-3.76,2.3-6.39l.35-11.55c.26-5.85.46-11.68.64-17.52.27-5.64.5-11.25.74-16.76-.89-9.92,2.84-14.19,6.31-18.05l.29-.37c1.68-1.88,3.27-3.76,4.31-6.03,2.17-7.71,1.26-9.63.94-10.04l-.59-.06c-.54-.03-1.54.09-3.02.69-12.45,10.09-18.43,19.65-18.35,30.18l-.29,51.9c.47,3.12,1.92,5.07,3.52,5.14"/><path class="cls-7" d="m758.43,175.95c6.3,1.44,9.68,7.6,12.9,13.22,2.7,4.69,5.48,9.47,9.6,11.76l2.47.8c1.28.2,2.44-.06,2.86-.75.62-.51.41-1.31-.05-2.64-.81-2.33-2.59-4.93-4.59-8.03-4.23-6.4-9.49-14.29-.38-20.44,2.36-1.03,2.53-1.6,1.14-4.54-1.29-2.77-2.78-4.13-5.22-4.5-1.9-.19-4.1.14-6.49.98l-12.39,10.57-1.61,2.62c.19.2.29.71,1.76.94"/><path class="cls-7" d="m731.27,286.44h14.74c2.9-23.11,14.12-41.25,49.05-59.78,3.79-2.88,4.56-7.62,3.63-10.73-.66-2.47-2.25-4-4.56-4.28l-.7-.11c-14.82,3.75-28.72,12.67-42.53,27.17-11.98,10.84-17.58,28.42-19.63,47.73"/><path class="cls-7" d="m805.44,195.31c.24-.1.95-.83,1.59-3.09,1.24-6.18-.04-11.17-1.26-16.46l-.27-.56c-1.11-4.34-2.22-8.93-1.76-14.41h-7.72c-1.62,10.7.88,21.59,7.54,32.79,1.09,1.44,1.88,1.73,1.88,1.73"/><path class="cls-7" d="m735.05,174.89c.86.13,2.04-.65,3.1-1.87,1.55-2.02,2.61-5.29,1.26-8l-2.37-4.24h-12.44c3.19,5.54,6.12,9.8,8.96,12.86l1.5,1.25Z"/><path class="cls-7" d="m646.76,195.04c-5.23,2.67-10.16,7.33-14.5,13.71-4.92,9.57-3.56,17.5,4.2,24.36l30.65,29.31,1.49.84,1.31-.59c1.14-1.52,1.52-4.85-.03-7.79-9.24-9.21-18.54-18.8-22.93-26.2-3.25-4.86-2.18-10.78.22-14.32,2.16-3.04,5.23-4.4,8.46-4.04,2.34.33,4.46,1.53,6.39,3.53l18.73,15.22c1.12,0,2.12-.74,3.02-2.01,1.39-2.17,1.97-5.42.15-7.69l-22.66-21.56c-2.61-2.21-5.2-3.5-7.69-3.88-2.18-.3-4.53.05-6.79,1.11"/><path class="cls-7" d="m693.37,209.54c1.07.05,1.93-.5,2.71-1.6,1.55-2.3,1.79-5.89.42-7.76l-10.78-15.13c-1.82-4.06-.85-9.14,2.64-13.12,3.12-3.85,7.69-5.94,11.83-5.36,2.13.28,4.03,1.11,5.66,2.66l12.5,12.01,1.94,1.42c1.26.19,2.83-.96,3.81-2.8.76-1.4,1.71-4.42-.12-6.26l-13.25-12.8h-33.01c-7.07,7.68-11.37,14.1-6.1,24.74,5.38,8.75,11.18,17.24,21.74,24.01"/><path class="cls-7" d="m714.94,206.48c-1,2.93-.85,4.05-.61,4.38.27.43.8.73,3.57,1.15,10.52,2.17,16.68,9.2,23.11,16.66l2.17,1.15c1.76.27,3.57-.59,4.71-2.01.38-.43,1.58-1.91.8-3.66l-10.16-14.08c-1.29-3.04-.79-6.4,1.36-8.83,2.11-2.55,5.56-3.96,8.55-3.56,1.71.23,3.07.91,4.23,2.06l10.78,10.84,2.43.92c1.67.25,3.09-.75,3.78-1.75.77-1.3.91-2.64.28-3.78-4.35-7.57-9.34-14.26-15.36-20.45-2.1-2.11-3.96-3.18-5.94-3.43-1.81-.28-3.69.19-5.57,1.22-3.92,3.39-7.75,5.9-11.89,8.7-6.33,3.92-12.25,7.68-16.25,14.48"/><path class="cls-7" d="m794.57,268.03c-1.61-.5-3.14-.85-4.52-1.06-4.94-.66-5.65.91-5.87,2.19-.79,6.73,2.67,7.15,4.03,7.36,1.39.18,3.41.08,5.73-.25,2.19-.62,3.81-1.91,4.07-3.39.29-1.58-1.13-3.46-3.43-4.85"/><path class="cls-7" d="m831.3,278.19l-1.38-.16-.35.02-16.62,8.39h23.79c.59-1.11.74-2.36.32-3.66-.72-2.47-3-4.2-5.76-4.59"/><path class="cls-7" d="m818.5,184.25c1.61.19,3.64-.25,6.58-1.51,2.96-.68,4.89-2.18,4.14-7.18-.03-4.98-.6-9.92-1.65-14.78h-7.9c.99,3.14,1.39,6.6,1.44,8.69.07,1.87-3.55,4.05-4.21,2.75-.96-2.11-2.18-3.89-3.07-3.55-3.2-.84.12,13.42.12,13.42,1.01,1.61,3.11,1.93,4.56,2.15"/><path class="cls-7" d="m774.42,276.76c-.75-3.11,1.9-10.55,6.39-15.4,10.7-9.03,15.2-8.85,14.6-15.77.29-3.13-1.03-3.33-1.72-3.43l-2.13.02c-14.23,6.23-23.54,15.03-28,26.09-2.07,6.55-1.93,11.71.52,15.72.56.87,1.28,1.69,2.08,2.46h23.46s-9.06-3.25-9.06-3.25c-3.03-1.55-5.69-4.03-6.14-6.42"/><path class="cls-7" d="m860.9,276.76c-.75-3.11,1.9-10.55,6.39-15.4,10.7-9.03,15.2-8.85,14.6-15.77.29-3.13-1.03-3.33-1.72-3.43l-2.13.02c-14.23,6.23-23.54,15.03-28,26.09-2.07,6.55-1.93,11.71.52,15.72.56.87,1.28,1.69,2.08,2.46h23.46s-9.06-3.25-9.06-3.25c-3.03-1.55-5.69-4.03-6.14-6.42"/><path class="cls-7" d="m855.05,206.46c-.85-.07-2.11.48-2.78,2.46-5.55,13.46-8.14,30.92-7.92,53.28.29,2.47,1.15,3.67,1.5,3.71.65.05,2.24-1.3,3.01-3.76l7.9-53.51c-.02-1.93-1.12-2.12-1.72-2.18"/><path class="cls-7" d="m706.94,194.97c1.56.21,3.34-.53,4.16-1.77.81-1.29.62-2.88-.58-4.39l-8-7.79-2.3-1.19c-1.54-.2-2.63,1.19-3.07,1.72-.71,1.34-.96,3.38.44,5.02l7.85,7.77,1.5.63Z"/><path class="cls-7" d="m846.63,180.36h1.29c1.96-1.97,3.15-7.01,3.07-11.91-.47-2.61-.87-5.16-1.21-7.66h-10.64c1.38,5.61,3.11,11.53,5.21,17.79l2.27,1.78Z"/><path class="cls-7" d="m864.94,180.99c.95.13,2.92-1.59,3.38-5.27.35-3.37.64-6.56.95-9.78v-4.43s-6.99,0-6.99,0c-.17,3.37-.3,6.71-.5,10.09.39,6.97,2.09,9.26,3.17,9.39"/><path class="cls-7" d="m837.23,197.56c-8.09,25.21-9.81,47.89-10.42,66.68-.03,1.48.1,2.77.37,3.82.49,1.9,2.6,2.88,4.41,2.14h0c.49-.2.93-.51,1.27-.92.95-1.15,1.62-2.72,1.67-4.41,1.05-21.85,3.16-46.18,10.94-61.13.09-.18.21-.36.33-.52,4.28-5.63,8.34-9.41,11.91-11.04,1.17-.53,1.91-1.69,1.91-2.98v-6.33c0-2.32-2.34-3.93-4.49-3.07-6.86,2.75-13.8,8.67-17.89,17.75"/></g></g></g></g></g></svg>